ISO-10303-21;
HEADER;
/* Generated by software containing ST-Developer
 * from STEP Tools, Inc. (www.steptools.com) 
 */

FILE_DESCRIPTION(
/* description */ (''),
/* implementation_level */ '2;1');

FILE_NAME(
/* name */ 'al-base-plate.step',
/* time_stamp */ '2026-08-17T11:27:00+02:00',
/* author */ (''),
/* organization */ (''),
/* preprocessor_version */ 'ST-DEVELOPER v20.1',
/* originating_system */ 'Autodesk Translation Framework v15.8.0.0',
/* authorisation */ '');

FILE_SCHEMA (('AUTOMOTIVE_DESIGN { 1 0 10303 214 3 1 1 }'));
ENDSEC;

DATA;
#10=MECHANICAL_DESIGN_GEOMETRIC_PRESENTATION_REPRESENTATION('',(#13),#1855);
#11=SHAPE_REPRESENTATION_RELATIONSHIP('SRR','None',#1862,#12);
#12=ADVANCED_BREP_SHAPE_REPRESENTATION('',(#14),#1854);
#13=STYLED_ITEM('',(#1871),#14);
#14=MANIFOLD_SOLID_BREP('K\X\F6rper1',#978);
#15=TOROIDAL_SURFACE('',#1106,77.,3.);
#16=B_SPLINE_SURFACE_WITH_KNOTS('',3,3,((#1690,#1691,#1692,#1693,#1694,
#1695,#1696,#1697,#1698,#1699,#1700,#1701,#1702,#1703,#1704,#1705,#1706,
#1707,#1708,#1709,#1710,#1711,#1712),(#1713,#1714,#1715,#1716,#1717,#1718,
#1719,#1720,#1721,#1722,#1723,#1724,#1725,#1726,#1727,#1728,#1729,#1730,
#1731,#1732,#1733,#1734,#1735),(#1736,#1737,#1738,#1739,#1740,#1741,#1742,
#1743,#1744,#1745,#1746,#1747,#1748,#1749,#1750,#1751,#1752,#1753,#1754,
#1755,#1756,#1757,#1758),(#1759,#1760,#1761,#1762,#1763,#1764,#1765,#1766,
#1767,#1768,#1769,#1770,#1771,#1772,#1773,#1774,#1775,#1776,#1777,#1778,
#1779,#1780,#1781),(#1782,#1783,#1784,#1785,#1786,#1787,#1788,#1789,#1790,
#1791,#1792,#1793,#1794,#1795,#1796,#1797,#1798,#1799,#1800,#1801,#1802,
#1803,#1804),(#1805,#1806,#1807,#1808,#1809,#1810,#1811,#1812,#1813,#1814,
#1815,#1816,#1817,#1818,#1819,#1820,#1821,#1822,#1823,#1824,#1825,#1826,
#1827)),.UNSPECIFIED.,.F.,.T.,.F.,(4,1,1,4),(4,1,1,1,1,1,1,1,1,1,1,1,1,
1,1,1,1,1,1,1,4),(0.,0.285714285714286,0.571428571428571,1.),(-3.14159265358979,
-2.69279370307697,-2.24399475256414,-1.79519580205131,-1.34639685153848,
-1.0471975511966,-0.448798950512828,-0.411399037970092,-0.373999125427356,
-0.299199300341885,-0.224399475256414,-0.149599650170943,2.77555756156289E-17,
0.448798950512828,0.747998250854713,1.0471975511966,1.34639685153848,1.64559615188037,
2.24399475256414,2.69279370307697,3.14159265358979),.UNSPECIFIED.);
#17=FACE_BOUND('',#168,.T.);
#18=FACE_BOUND('',#175,.T.);
#19=FACE_BOUND('',#177,.T.);
#20=FACE_BOUND('',#185,.T.);
#21=FACE_BOUND('',#190,.T.);
#22=FACE_BOUND('',#196,.T.);
#23=FACE_BOUND('',#199,.T.);
#24=FACE_BOUND('',#201,.T.);
#25=CONICAL_SURFACE('',#1046,79.5,0.785398163397447);
#26=B_SPLINE_CURVE_WITH_KNOTS('',3,(#1578,#1579,#1580,#1581),
 .UNSPECIFIED.,.F.,.F.,(4,4),(-0.170034501024496,0.),.UNSPECIFIED.);
#27=B_SPLINE_CURVE_WITH_KNOTS('',3,(#1585,#1586,#1587,#1588),
 .UNSPECIFIED.,.F.,.F.,(4,4),(-0.170034805503752,0.),.UNSPECIFIED.);
#28=ELLIPSE('',#1008,3.86370330515621,1.);
#29=ELLIPSE('',#1013,18.1865334794732,15.75);
#30=ELLIPSE('',#1014,1.15470053837925,1.);
#31=ELLIPSE('',#1022,3.86370330515632,1.);
#32=ELLIPSE('',#1027,1.15470053837925,1.);
#33=ELLIPSE('',#1028,1.15470053837925,1.);
#34=ELLIPSE('',#1030,1.15470053837925,1.);
#35=ELLIPSE('',#1033,18.1865334794732,15.75);
#36=ELLIPSE('',#1034,31.5,15.75);
#37=ELLIPSE('',#1035,18.1865334794732,15.75);
#38=ELLIPSE('',#1036,31.5,15.75);
#39=ELLIPSE('',#1037,18.1865334794732,15.75);
#40=ELLIPSE('',#1038,31.5,15.75);
#41=ELLIPSE('',#1039,18.1865334794732,15.75);
#42=ELLIPSE('',#1040,18.1865334794732,15.75);
#43=ELLIPSE('',#1041,31.5,15.75);
#44=ELLIPSE('',#1042,18.1865334794732,15.75);
#45=ELLIPSE('',#1094,27.7848879788996,23.);
#46=ELLIPSE('',#1095,27.7848879788996,23.);
#47=ELLIPSE('',#1096,31.1769145362398,27.);
#48=(
BOUNDED_CURVE()
B_SPLINE_CURVE(2,(#1432,#1433,#1434),.UNSPECIFIED.,.F.,.F.)
B_SPLINE_CURVE_WITH_KNOTS((3,3),(-12.6190033495388,-12.6187764795138),
 .UNSPECIFIED.)
CURVE()
GEOMETRIC_REPRESENTATION_ITEM()
RATIONAL_B_SPLINE_CURVE((1.0125299879652,1.01253123355577,1.0125324790975))
REPRESENTATION_ITEM('')
);
#49=(
BOUNDED_CURVE()
B_SPLINE_CURVE(2,(#1484,#1485,#1486),.UNSPECIFIED.,.F.,.F.)
B_SPLINE_CURVE_WITH_KNOTS((3,3),(-1.04669481205499,-1.04646794203003),
 .UNSPECIFIED.)
CURVE()
GEOMETRIC_REPRESENTATION_ITEM()
RATIONAL_B_SPLINE_CURVE((1.0125324790975,1.01253123355577,1.0125299879652))
REPRESENTATION_ITEM('')
);
#50=PLANE('',#995);
#51=PLANE('',#996);
#52=PLANE('',#1006);
#53=PLANE('',#1011);
#54=PLANE('',#1025);
#55=PLANE('',#1043);
#56=PLANE('',#1044);
#57=PLANE('',#1045);
#58=PLANE('',#1054);
#59=PLANE('',#1058);
#60=PLANE('',#1062);
#61=PLANE('',#1066);
#62=PLANE('',#1070);
#63=PLANE('',#1074);
#64=PLANE('',#1075);
#65=PLANE('',#1076);
#66=PLANE('',#1077);
#67=PLANE('',#1078);
#68=PLANE('',#1079);
#69=PLANE('',#1080);
#70=PLANE('',#1081);
#71=PLANE('',#1082);
#72=PLANE('',#1083);
#73=PLANE('',#1084);
#74=PLANE('',#1085);
#75=PLANE('',#1086);
#76=PLANE('',#1087);
#77=PLANE('',#1088);
#78=PLANE('',#1089);
#79=PLANE('',#1090);
#80=PLANE('',#1091);
#81=PLANE('',#1092);
#82=PLANE('',#1099);
#83=PLANE('',#1104);
#84=PLANE('',#1105);
#85=FACE_OUTER_BOUND('',#140,.T.);
#86=FACE_OUTER_BOUND('',#141,.T.);
#87=FACE_OUTER_BOUND('',#142,.T.);
#88=FACE_OUTER_BOUND('',#143,.T.);
#89=FACE_OUTER_BOUND('',#144,.T.);
#90=FACE_OUTER_BOUND('',#145,.T.);
#91=FACE_OUTER_BOUND('',#146,.T.);
#92=FACE_OUTER_BOUND('',#147,.T.);
#93=FACE_OUTER_BOUND('',#148,.T.);
#94=FACE_OUTER_BOUND('',#149,.T.);
#95=FACE_OUTER_BOUND('',#150,.T.);
#96=FACE_OUTER_BOUND('',#151,.T.);
#97=FACE_OUTER_BOUND('',#152,.T.);
#98=FACE_OUTER_BOUND('',#153,.T.);
#99=FACE_OUTER_BOUND('',#154,.T.);
#100=FACE_OUTER_BOUND('',#155,.T.);
#101=FACE_OUTER_BOUND('',#156,.T.);
#102=FACE_OUTER_BOUND('',#157,.T.);
#103=FACE_OUTER_BOUND('',#158,.T.);
#104=FACE_OUTER_BOUND('',#159,.T.);
#105=FACE_OUTER_BOUND('',#160,.T.);
#106=FACE_OUTER_BOUND('',#161,.T.);
#107=FACE_OUTER_BOUND('',#162,.T.);
#108=FACE_OUTER_BOUND('',#163,.T.);
#109=FACE_OUTER_BOUND('',#164,.T.);
#110=FACE_OUTER_BOUND('',#165,.T.);
#111=FACE_OUTER_BOUND('',#166,.T.);
#112=FACE_OUTER_BOUND('',#167,.T.);
#113=FACE_OUTER_BOUND('',#169,.T.);
#114=FACE_OUTER_BOUND('',#170,.T.);
#115=FACE_OUTER_BOUND('',#171,.T.);
#116=FACE_OUTER_BOUND('',#172,.T.);
#117=FACE_OUTER_BOUND('',#173,.T.);
#118=FACE_OUTER_BOUND('',#174,.T.);
#119=FACE_OUTER_BOUND('',#176,.T.);
#120=FACE_OUTER_BOUND('',#178,.T.);
#121=FACE_OUTER_BOUND('',#179,.T.);
#122=FACE_OUTER_BOUND('',#180,.T.);
#123=FACE_OUTER_BOUND('',#181,.T.);
#124=FACE_OUTER_BOUND('',#182,.T.);
#125=FACE_OUTER_BOUND('',#183,.T.);
#126=FACE_OUTER_BOUND('',#184,.T.);
#127=FACE_OUTER_BOUND('',#186,.T.);
#128=FACE_OUTER_BOUND('',#187,.T.);
#129=FACE_OUTER_BOUND('',#188,.T.);
#130=FACE_OUTER_BOUND('',#189,.T.);
#131=FACE_OUTER_BOUND('',#191,.T.);
#132=FACE_OUTER_BOUND('',#192,.T.);
#133=FACE_OUTER_BOUND('',#193,.T.);
#134=FACE_OUTER_BOUND('',#194,.T.);
#135=FACE_OUTER_BOUND('',#195,.T.);
#136=FACE_OUTER_BOUND('',#197,.T.);
#137=FACE_OUTER_BOUND('',#198,.T.);
#138=FACE_OUTER_BOUND('',#200,.T.);
#139=FACE_OUTER_BOUND('',#202,.T.);
#140=EDGE_LOOP('',(#626,#627,#628,#629));
#141=EDGE_LOOP('',(#630,#631,#632,#633,#634));
#142=EDGE_LOOP('',(#635,#636,#637,#638,#639,#640,#641,#642,#643,#644,#645,
#646,#647,#648,#649,#650,#651,#652,#653,#654,#655));
#143=EDGE_LOOP('',(#656,#657,#658,#659));
#144=EDGE_LOOP('',(#660,#661,#662,#663,#664));
#145=EDGE_LOOP('',(#665,#666,#667,#668,#669));
#146=EDGE_LOOP('',(#670,#671,#672,#673,#674,#675));
#147=EDGE_LOOP('',(#676,#677,#678,#679,#680,#681,#682,#683,#684,#685,#686,
#687));
#148=EDGE_LOOP('',(#688,#689,#690,#691,#692));
#149=EDGE_LOOP('',(#693,#694,#695));
#150=EDGE_LOOP('',(#696,#697,#698,#699,#700));
#151=EDGE_LOOP('',(#701,#702,#703,#704,#705));
#152=EDGE_LOOP('',(#706,#707,#708,#709,#710,#711,#712,#713,#714,#715,#716,
#717,#718,#719,#720,#721));
#153=EDGE_LOOP('',(#722,#723,#724));
#154=EDGE_LOOP('',(#725,#726,#727,#728));
#155=EDGE_LOOP('',(#729,#730,#731,#732));
#156=EDGE_LOOP('',(#733,#734,#735,#736,#737,#738));
#157=EDGE_LOOP('',(#739,#740,#741,#742,#743,#744,#745,#746));
#158=EDGE_LOOP('',(#747,#748,#749,#750));
#159=EDGE_LOOP('',(#751));
#160=EDGE_LOOP('',(#752,#753,#754,#755));
#161=EDGE_LOOP('',(#756));
#162=EDGE_LOOP('',(#757,#758,#759,#760));
#163=EDGE_LOOP('',(#761));
#164=EDGE_LOOP('',(#762,#763,#764,#765));
#165=EDGE_LOOP('',(#766));
#166=EDGE_LOOP('',(#767,#768,#769,#770,#771,#772,#773,#774));
#167=EDGE_LOOP('',(#775,#776,#777,#778,#779,#780,#781,#782,#783,#784));
#168=EDGE_LOOP('',(#785,#786,#787,#788,#789,#790));
#169=EDGE_LOOP('',(#791,#792,#793,#794,#795,#796,#797,#798));
#170=EDGE_LOOP('',(#799,#800,#801,#802));
#171=EDGE_LOOP('',(#803,#804,#805,#806));
#172=EDGE_LOOP('',(#807,#808,#809,#810));
#173=EDGE_LOOP('',(#811,#812,#813,#814));
#174=EDGE_LOOP('',(#815,#816,#817,#818));
#175=EDGE_LOOP('',(#819));
#176=EDGE_LOOP('',(#820,#821,#822,#823));
#177=EDGE_LOOP('',(#824));
#178=EDGE_LOOP('',(#825,#826,#827,#828));
#179=EDGE_LOOP('',(#829,#830,#831,#832));
#180=EDGE_LOOP('',(#833,#834,#835,#836));
#181=EDGE_LOOP('',(#837,#838,#839,#840,#841,#842));
#182=EDGE_LOOP('',(#843,#844,#845,#846));
#183=EDGE_LOOP('',(#847,#848,#849,#850));
#184=EDGE_LOOP('',(#851,#852,#853,#854));
#185=EDGE_LOOP('',(#855));
#186=EDGE_LOOP('',(#856,#857,#858,#859));
#187=EDGE_LOOP('',(#860,#861,#862,#863));
#188=EDGE_LOOP('',(#864,#865,#866,#867));
#189=EDGE_LOOP('',(#868,#869,#870,#871,#872));
#190=EDGE_LOOP('',(#873));
#191=EDGE_LOOP('',(#874,#875,#876,#877));
#192=EDGE_LOOP('',(#878,#879,#880,#881));
#193=EDGE_LOOP('',(#882,#883,#884,#885,#886));
#194=EDGE_LOOP('',(#887,#888,#889,#890,#891));
#195=EDGE_LOOP('',(#892));
#196=EDGE_LOOP('',(#893));
#197=EDGE_LOOP('',(#894,#895,#896,#897));
#198=EDGE_LOOP('',(#898));
#199=EDGE_LOOP('',(#899));
#200=EDGE_LOOP('',(#900));
#201=EDGE_LOOP('',(#901));
#202=EDGE_LOOP('',(#902,#903,#904,#905));
#203=LINE('',#1422,#277);
#204=LINE('',#1425,#278);
#205=LINE('',#1428,#279);
#206=LINE('',#1430,#280);
#207=LINE('',#1435,#281);
#208=LINE('',#1440,#282);
#209=LINE('',#1442,#283);
#210=LINE('',#1444,#284);
#211=LINE('',#1448,#285);
#212=LINE('',#1450,#286);
#213=LINE('',#1452,#287);
#214=LINE('',#1456,#288);
#215=LINE('',#1458,#289);
#216=LINE('',#1460,#290);
#217=LINE('',#1466,#291);
#218=LINE('',#1468,#292);
#219=LINE('',#1473,#293);
#220=LINE('',#1476,#294);
#221=LINE('',#1479,#295);
#222=LINE('',#1482,#296);
#223=LINE('',#1487,#297);
#224=LINE('',#1495,#298);
#225=LINE('',#1498,#299);
#226=LINE('',#1503,#300);
#227=LINE('',#1508,#301);
#228=LINE('',#1513,#302);
#229=LINE('',#1517,#303);
#230=LINE('',#1521,#304);
#231=LINE('',#1525,#305);
#232=LINE('',#1528,#306);
#233=LINE('',#1534,#307);
#234=LINE('',#1539,#308);
#235=LINE('',#1540,#309);
#236=LINE('',#1545,#310);
#237=LINE('',#1548,#311);
#238=LINE('',#1550,#312);
#239=LINE('',#1556,#313);
#240=LINE('',#1577,#314);
#241=LINE('',#1584,#315);
#242=LINE('',#1595,#316);
#243=LINE('',#1600,#317);
#244=LINE('',#1607,#318);
#245=LINE('',#1614,#319);
#246=LINE('',#1621,#320);
#247=LINE('',#1626,#321);
#248=LINE('',#1629,#322);
#249=LINE('',#1631,#323);
#250=LINE('',#1635,#324);
#251=LINE('',#1637,#325);
#252=LINE('',#1639,#326);
#253=LINE('',#1642,#327);
#254=LINE('',#1644,#328);
#255=LINE('',#1647,#329);
#256=LINE('',#1649,#330);
#257=LINE('',#1651,#331);
#258=LINE('',#1654,#332);
#259=LINE('',#1655,#333);
#260=LINE('',#1657,#334);
#261=LINE('',#1660,#335);
#262=LINE('',#1662,#336);
#263=LINE('',#1663,#337);
#264=LINE('',#1665,#338);
#265=LINE('',#1667,#339);
#266=LINE('',#1669,#340);
#267=LINE('',#1673,#341);
#268=LINE('',#1674,#342);
#269=LINE('',#1676,#343);
#270=LINE('',#1679,#344);
#271=LINE('',#1680,#345);
#272=LINE('',#1682,#346);
#273=LINE('',#1685,#347);
#274=LINE('',#1688,#348);
#275=LINE('',#1837,#349);
#276=LINE('',#1846,#350);
#277=VECTOR('',#1114,10.);
#278=VECTOR('',#1117,10.);
#279=VECTOR('',#1120,10.);
#280=VECTOR('',#1121,10.);
#281=VECTOR('',#1122,10.);
#282=VECTOR('',#1127,10.);
#283=VECTOR('',#1128,10.);
#284=VECTOR('',#1129,10.);
#285=VECTOR('',#1132,10.);
#286=VECTOR('',#1133,10.);
#287=VECTOR('',#1134,10.);
#288=VECTOR('',#1137,10.);
#289=VECTOR('',#1138,10.);
#290=VECTOR('',#1139,10.);
#291=VECTOR('',#1144,10.);
#292=VECTOR('',#1145,10.);
#293=VECTOR('',#1150,10.);
#294=VECTOR('',#1153,10.);
#295=VECTOR('',#1156,10.);
#296=VECTOR('',#1159,10.);
#297=VECTOR('',#1160,10.);
#298=VECTOR('',#1167,10.);
#299=VECTOR('',#1170,10.);
#300=VECTOR('',#1175,10.);
#301=VECTOR('',#1180,10.);
#302=VECTOR('',#1185,10.);
#303=VECTOR('',#1188,10.);
#304=VECTOR('',#1191,10.);
#305=VECTOR('',#1194,10.);
#306=VECTOR('',#1197,10.);
#307=VECTOR('',#1202,10.);
#308=VECTOR('',#1209,10.);
#309=VECTOR('',#1210,10.);
#310=VECTOR('',#1215,10.);
#311=VECTOR('',#1220,10.);
#312=VECTOR('',#1221,10.);
#313=VECTOR('',#1228,15.75);
#314=VECTOR('',#1253,10.);
#315=VECTOR('',#1256,10.);
#316=VECTOR('',#1267,80.);
#317=VECTOR('',#1272,1.3);
#318=VECTOR('',#1281,1.3);
#319=VECTOR('',#1290,1.3);
#320=VECTOR('',#1299,1.3);
#321=VECTOR('',#1306,10.);
#322=VECTOR('',#1309,10.);
#323=VECTOR('',#1310,10.);
#324=VECTOR('',#1315,10.);
#325=VECTOR('',#1316,10.);
#326=VECTOR('',#1317,10.);
#327=VECTOR('',#1322,10.);
#328=VECTOR('',#1323,10.);
#329=VECTOR('',#1326,10.);
#330=VECTOR('',#1329,10.);
#331=VECTOR('',#1332,10.);
#332=VECTOR('',#1337,10.);
#333=VECTOR('',#1338,10.);
#334=VECTOR('',#1341,10.);
#335=VECTOR('',#1344,10.);
#336=VECTOR('',#1345,10.);
#337=VECTOR('',#1346,10.);
#338=VECTOR('',#1349,10.);
#339=VECTOR('',#1352,10.);
#340=VECTOR('',#1355,10.);
#341=VECTOR('',#1360,10.);
#342=VECTOR('',#1361,10.);
#343=VECTOR('',#1364,10.);
#344=VECTOR('',#1367,10.);
#345=VECTOR('',#1368,10.);
#346=VECTOR('',#1371,10.);
#347=VECTOR('',#1376,10.);
#348=VECTOR('',#1381,10.);
#349=VECTOR('',#1394,23.);
#350=VECTOR('',#1405,20.);
#351=CIRCLE('',#993,2.);
#352=CIRCLE('',#994,2.);
#353=CIRCLE('',#997,28.75);
#354=CIRCLE('',#998,28.75);
#355=CIRCLE('',#999,28.75);
#356=CIRCLE('',#1000,28.75);
#357=CIRCLE('',#1001,2.);
#358=CIRCLE('',#1002,80.);
#359=CIRCLE('',#1003,80.);
#360=CIRCLE('',#1005,2.);
#361=CIRCLE('',#1009,1.);
#362=CIRCLE('',#1010,1.);
#363=CIRCLE('',#1012,21.25);
#364=CIRCLE('',#1016,21.25);
#365=CIRCLE('',#1017,21.25);
#366=CIRCLE('',#1018,21.25);
#367=CIRCLE('',#1019,21.25);
#368=CIRCLE('',#1020,21.25);
#369=CIRCLE('',#1023,1.);
#370=CIRCLE('',#1024,1.);
#371=CIRCLE('',#1032,15.75);
#372=CIRCLE('',#1047,79.);
#373=CIRCLE('',#1048,80.);
#374=CIRCLE('',#1050,80.);
#375=CIRCLE('',#1052,1.3);
#376=CIRCLE('',#1053,1.3);
#377=CIRCLE('',#1056,1.3);
#378=CIRCLE('',#1057,1.3);
#379=CIRCLE('',#1060,1.3);
#380=CIRCLE('',#1061,1.3);
#381=CIRCLE('',#1064,1.3);
#382=CIRCLE('',#1065,1.3);
#383=CIRCLE('',#1068,28.75);
#384=CIRCLE('',#1069,28.75);
#385=CIRCLE('',#1071,28.75);
#386=CIRCLE('',#1073,28.75);
#387=CIRCLE('',#1093,4.00000000000001);
#388=CIRCLE('',#1098,23.);
#389=CIRCLE('',#1100,77.);
#390=CIRCLE('',#1102,20.);
#391=CIRCLE('',#1103,20.);
#392=CIRCLE('',#1107,3.);
#393=VERTEX_POINT('',#1418);
#394=VERTEX_POINT('',#1419);
#395=VERTEX_POINT('',#1421);
#396=VERTEX_POINT('',#1423);
#397=VERTEX_POINT('',#1427);
#398=VERTEX_POINT('',#1429);
#399=VERTEX_POINT('',#1431);
#400=VERTEX_POINT('',#1437);
#401=VERTEX_POINT('',#1439);
#402=VERTEX_POINT('',#1441);
#403=VERTEX_POINT('',#1443);
#404=VERTEX_POINT('',#1445);
#405=VERTEX_POINT('',#1447);
#406=VERTEX_POINT('',#1449);
#407=VERTEX_POINT('',#1451);
#408=VERTEX_POINT('',#1453);
#409=VERTEX_POINT('',#1455);
#410=VERTEX_POINT('',#1457);
#411=VERTEX_POINT('',#1459);
#412=VERTEX_POINT('',#1461);
#413=VERTEX_POINT('',#1463);
#414=VERTEX_POINT('',#1465);
#415=VERTEX_POINT('',#1467);
#416=VERTEX_POINT('',#1469);
#417=VERTEX_POINT('',#1471);
#418=VERTEX_POINT('',#1475);
#419=VERTEX_POINT('',#1477);
#420=VERTEX_POINT('',#1481);
#421=VERTEX_POINT('',#1483);
#422=VERTEX_POINT('',#1489);
#423=VERTEX_POINT('',#1490);
#424=VERTEX_POINT('',#1492);
#425=VERTEX_POINT('',#1494);
#426=VERTEX_POINT('',#1496);
#427=VERTEX_POINT('',#1500);
#428=VERTEX_POINT('',#1502);
#429=VERTEX_POINT('',#1504);
#430=VERTEX_POINT('',#1506);
#431=VERTEX_POINT('',#1510);
#432=VERTEX_POINT('',#1512);
#433=VERTEX_POINT('',#1514);
#434=VERTEX_POINT('',#1516);
#435=VERTEX_POINT('',#1518);
#436=VERTEX_POINT('',#1520);
#437=VERTEX_POINT('',#1522);
#438=VERTEX_POINT('',#1524);
#439=VERTEX_POINT('',#1526);
#440=VERTEX_POINT('',#1530);
#441=VERTEX_POINT('',#1531);
#442=VERTEX_POINT('',#1533);
#443=VERTEX_POINT('',#1538);
#444=VERTEX_POINT('',#1542);
#445=VERTEX_POINT('',#1544);
#446=VERTEX_POINT('',#1549);
#447=VERTEX_POINT('',#1553);
#448=VERTEX_POINT('',#1555);
#449=VERTEX_POINT('',#1557);
#450=VERTEX_POINT('',#1559);
#451=VERTEX_POINT('',#1561);
#452=VERTEX_POINT('',#1563);
#453=VERTEX_POINT('',#1565);
#454=VERTEX_POINT('',#1567);
#455=VERTEX_POINT('',#1571);
#456=VERTEX_POINT('',#1576);
#457=VERTEX_POINT('',#1583);
#458=VERTEX_POINT('',#1593);
#459=VERTEX_POINT('',#1597);
#460=VERTEX_POINT('',#1599);
#461=VERTEX_POINT('',#1604);
#462=VERTEX_POINT('',#1606);
#463=VERTEX_POINT('',#1611);
#464=VERTEX_POINT('',#1613);
#465=VERTEX_POINT('',#1618);
#466=VERTEX_POINT('',#1620);
#467=VERTEX_POINT('',#1625);
#468=VERTEX_POINT('',#1627);
#469=VERTEX_POINT('',#1630);
#470=VERTEX_POINT('',#1634);
#471=VERTEX_POINT('',#1636);
#472=VERTEX_POINT('',#1638);
#473=VERTEX_POINT('',#1643);
#474=VERTEX_POINT('',#1645);
#475=VERTEX_POINT('',#1659);
#476=VERTEX_POINT('',#1661);
#477=VERTEX_POINT('',#1672);
#478=VERTEX_POINT('',#1678);
#479=VERTEX_POINT('',#1828);
#480=VERTEX_POINT('',#1829);
#481=VERTEX_POINT('',#1831);
#482=VERTEX_POINT('',#1836);
#483=VERTEX_POINT('',#1840);
#484=VERTEX_POINT('',#1843);
#485=VERTEX_POINT('',#1845);
#486=EDGE_CURVE('',#393,#394,#351,.T.);
#487=EDGE_CURVE('',#394,#395,#203,.T.);
#488=EDGE_CURVE('',#395,#396,#352,.F.);
#489=EDGE_CURVE('',#396,#393,#204,.T.);
#490=EDGE_CURVE('',#397,#394,#205,.T.);
#491=EDGE_CURVE('',#398,#397,#206,.T.);
#492=EDGE_CURVE('',#399,#398,#48,.T.);
#493=EDGE_CURVE('',#399,#395,#207,.T.);
#494=EDGE_CURVE('',#393,#400,#353,.T.);
#495=EDGE_CURVE('',#400,#401,#208,.T.);
#496=EDGE_CURVE('',#401,#402,#209,.T.);
#497=EDGE_CURVE('',#402,#403,#210,.T.);
#498=EDGE_CURVE('',#403,#404,#354,.T.);
#499=EDGE_CURVE('',#404,#405,#211,.T.);
#500=EDGE_CURVE('',#405,#406,#212,.T.);
#501=EDGE_CURVE('',#406,#407,#213,.T.);
#502=EDGE_CURVE('',#407,#408,#355,.T.);
#503=EDGE_CURVE('',#408,#409,#214,.T.);
#504=EDGE_CURVE('',#409,#410,#215,.T.);
#505=EDGE_CURVE('',#410,#411,#216,.T.);
#506=EDGE_CURVE('',#411,#412,#356,.T.);
#507=EDGE_CURVE('',#413,#412,#357,.T.);
#508=EDGE_CURVE('',#413,#414,#217,.T.);
#509=EDGE_CURVE('',#415,#414,#218,.T.);
#510=EDGE_CURVE('',#416,#415,#358,.T.);
#511=EDGE_CURVE('',#417,#416,#359,.T.);
#512=EDGE_CURVE('',#397,#417,#219,.T.);
#513=EDGE_CURVE('',#412,#418,#220,.T.);
#514=EDGE_CURVE('',#418,#419,#360,.F.);
#515=EDGE_CURVE('',#419,#413,#221,.T.);
#516=EDGE_CURVE('',#419,#420,#222,.T.);
#517=EDGE_CURVE('',#421,#420,#49,.T.);
#518=EDGE_CURVE('',#414,#421,#223,.T.);
#519=EDGE_CURVE('',#422,#423,#28,.T.);
#520=EDGE_CURVE('',#424,#423,#361,.T.);
#521=EDGE_CURVE('',#424,#425,#224,.T.);
#522=EDGE_CURVE('',#425,#426,#362,.T.);
#523=EDGE_CURVE('',#426,#422,#225,.T.);
#524=EDGE_CURVE('',#425,#427,#363,.T.);
#525=EDGE_CURVE('',#427,#428,#226,.T.);
#526=EDGE_CURVE('',#429,#428,#29,.T.);
#527=EDGE_CURVE('',#430,#429,#30,.T.);
#528=EDGE_CURVE('',#430,#426,#227,.T.);
#529=EDGE_CURVE('',#424,#431,#364,.T.);
#530=EDGE_CURVE('',#432,#431,#228,.T.);
#531=EDGE_CURVE('',#433,#432,#365,.T.);
#532=EDGE_CURVE('',#434,#433,#229,.T.);
#533=EDGE_CURVE('',#435,#434,#366,.T.);
#534=EDGE_CURVE('',#436,#435,#230,.T.);
#535=EDGE_CURVE('',#437,#436,#367,.T.);
#536=EDGE_CURVE('',#438,#437,#231,.T.);
#537=EDGE_CURVE('',#439,#438,#368,.T.);
#538=EDGE_CURVE('',#427,#439,#232,.T.);
#539=EDGE_CURVE('',#440,#441,#31,.T.);
#540=EDGE_CURVE('',#441,#442,#233,.T.);
#541=EDGE_CURVE('',#442,#432,#369,.T.);
#542=EDGE_CURVE('',#431,#440,#370,.F.);
#543=EDGE_CURVE('',#443,#441,#234,.T.);
#544=EDGE_CURVE('',#442,#443,#235,.T.);
#545=EDGE_CURVE('',#444,#440,#32,.T.);
#546=EDGE_CURVE('',#444,#445,#236,.T.);
#547=EDGE_CURVE('',#445,#443,#33,.T.);
#548=EDGE_CURVE('',#422,#430,#237,.T.);
#549=EDGE_CURVE('',#429,#446,#238,.T.);
#550=EDGE_CURVE('',#446,#423,#34,.F.);
#551=EDGE_CURVE('',#447,#447,#371,.T.);
#552=EDGE_CURVE('',#447,#448,#239,.T.);
#553=EDGE_CURVE('',#448,#449,#35,.T.);
#554=EDGE_CURVE('',#449,#450,#36,.T.);
#555=EDGE_CURVE('',#450,#451,#37,.T.);
#556=EDGE_CURVE('',#451,#452,#38,.T.);
#557=EDGE_CURVE('',#452,#453,#39,.T.);
#558=EDGE_CURVE('',#453,#454,#40,.T.);
#559=EDGE_CURVE('',#454,#445,#41,.T.);
#560=EDGE_CURVE('',#446,#444,#42,.T.);
#561=EDGE_CURVE('',#428,#455,#43,.T.);
#562=EDGE_CURVE('',#455,#448,#44,.T.);
#563=EDGE_CURVE('',#456,#415,#240,.T.);
#564=EDGE_CURVE('',#421,#456,#26,.T.);
#565=EDGE_CURVE('',#417,#457,#241,.T.);
#566=EDGE_CURVE('',#457,#398,#27,.T.);
#567=EDGE_CURVE('',#420,#399,#372,.T.);
#568=EDGE_CURVE('',#457,#456,#373,.T.);
#569=EDGE_CURVE('',#458,#458,#374,.T.);
#570=EDGE_CURVE('',#458,#416,#242,.T.);
#571=EDGE_CURVE('',#459,#459,#375,.T.);
#572=EDGE_CURVE('',#459,#460,#243,.T.);
#573=EDGE_CURVE('',#460,#460,#376,.T.);
#574=EDGE_CURVE('',#461,#461,#377,.T.);
#575=EDGE_CURVE('',#461,#462,#244,.T.);
#576=EDGE_CURVE('',#462,#462,#378,.T.);
#577=EDGE_CURVE('',#463,#463,#379,.T.);
#578=EDGE_CURVE('',#463,#464,#245,.T.);
#579=EDGE_CURVE('',#464,#464,#380,.T.);
#580=EDGE_CURVE('',#465,#465,#381,.T.);
#581=EDGE_CURVE('',#465,#466,#246,.T.);
#582=EDGE_CURVE('',#466,#466,#382,.T.);
#583=EDGE_CURVE('',#467,#411,#247,.T.);
#584=EDGE_CURVE('',#468,#467,#383,.T.);
#585=EDGE_CURVE('',#408,#468,#248,.T.);
#586=EDGE_CURVE('',#407,#469,#249,.T.);
#587=EDGE_CURVE('',#469,#418,#384,.T.);
#588=EDGE_CURVE('',#470,#469,#250,.T.);
#589=EDGE_CURVE('',#471,#470,#251,.T.);
#590=EDGE_CURVE('',#472,#471,#252,.T.);
#591=EDGE_CURVE('',#396,#472,#385,.T.);
#592=EDGE_CURVE('',#404,#472,#253,.T.);
#593=EDGE_CURVE('',#473,#403,#254,.T.);
#594=EDGE_CURVE('',#474,#473,#386,.T.);
#595=EDGE_CURVE('',#400,#474,#255,.T.);
#596=EDGE_CURVE('',#406,#470,#256,.T.);
#597=EDGE_CURVE('',#405,#471,#257,.T.);
#598=EDGE_CURVE('',#454,#433,#258,.T.);
#599=EDGE_CURVE('',#453,#434,#259,.T.);
#600=EDGE_CURVE('',#435,#452,#260,.T.);
#601=EDGE_CURVE('',#475,#467,#261,.T.);
#602=EDGE_CURVE('',#476,#475,#262,.T.);
#603=EDGE_CURVE('',#468,#476,#263,.T.);
#604=EDGE_CURVE('',#436,#451,#264,.T.);
#605=EDGE_CURVE('',#410,#475,#265,.T.);
#606=EDGE_CURVE('',#450,#437,#266,.T.);
#607=EDGE_CURVE('',#474,#477,#267,.T.);
#608=EDGE_CURVE('',#401,#477,#268,.T.);
#609=EDGE_CURVE('',#449,#438,#269,.T.);
#610=EDGE_CURVE('',#478,#473,#270,.T.);
#611=EDGE_CURVE('',#477,#478,#271,.T.);
#612=EDGE_CURVE('',#402,#478,#272,.T.);
#613=EDGE_CURVE('',#439,#455,#273,.T.);
#614=EDGE_CURVE('',#409,#476,#274,.T.);
#615=EDGE_CURVE('',#479,#480,#387,.T.);
#616=EDGE_CURVE('',#480,#481,#45,.T.);
#617=EDGE_CURVE('',#481,#480,#46,.T.);
#618=EDGE_CURVE('',#479,#479,#47,.T.);
#619=EDGE_CURVE('',#481,#482,#275,.T.);
#620=EDGE_CURVE('',#482,#482,#388,.T.);
#621=EDGE_CURVE('',#483,#483,#389,.T.);
#622=EDGE_CURVE('',#484,#484,#390,.T.);
#623=EDGE_CURVE('',#484,#485,#276,.T.);
#624=EDGE_CURVE('',#485,#485,#391,.T.);
#625=EDGE_CURVE('',#483,#458,#392,.T.);
#626=ORIENTED_EDGE('',*,*,#486,.T.);
#627=ORIENTED_EDGE('',*,*,#487,.T.);
#628=ORIENTED_EDGE('',*,*,#488,.T.);
#629=ORIENTED_EDGE('',*,*,#489,.T.);
#630=ORIENTED_EDGE('',*,*,#487,.F.);
#631=ORIENTED_EDGE('',*,*,#490,.F.);
#632=ORIENTED_EDGE('',*,*,#491,.F.);
#633=ORIENTED_EDGE('',*,*,#492,.F.);
#634=ORIENTED_EDGE('',*,*,#493,.T.);
#635=ORIENTED_EDGE('',*,*,#486,.F.);
#636=ORIENTED_EDGE('',*,*,#494,.T.);
#637=ORIENTED_EDGE('',*,*,#495,.T.);
#638=ORIENTED_EDGE('',*,*,#496,.T.);
#639=ORIENTED_EDGE('',*,*,#497,.T.);
#640=ORIENTED_EDGE('',*,*,#498,.T.);
#641=ORIENTED_EDGE('',*,*,#499,.T.);
#642=ORIENTED_EDGE('',*,*,#500,.T.);
#643=ORIENTED_EDGE('',*,*,#501,.T.);
#644=ORIENTED_EDGE('',*,*,#502,.T.);
#645=ORIENTED_EDGE('',*,*,#503,.T.);
#646=ORIENTED_EDGE('',*,*,#504,.T.);
#647=ORIENTED_EDGE('',*,*,#505,.T.);
#648=ORIENTED_EDGE('',*,*,#506,.T.);
#649=ORIENTED_EDGE('',*,*,#507,.F.);
#650=ORIENTED_EDGE('',*,*,#508,.T.);
#651=ORIENTED_EDGE('',*,*,#509,.F.);
#652=ORIENTED_EDGE('',*,*,#510,.F.);
#653=ORIENTED_EDGE('',*,*,#511,.F.);
#654=ORIENTED_EDGE('',*,*,#512,.F.);
#655=ORIENTED_EDGE('',*,*,#490,.T.);
#656=ORIENTED_EDGE('',*,*,#507,.T.);
#657=ORIENTED_EDGE('',*,*,#513,.T.);
#658=ORIENTED_EDGE('',*,*,#514,.T.);
#659=ORIENTED_EDGE('',*,*,#515,.T.);
#660=ORIENTED_EDGE('',*,*,#515,.F.);
#661=ORIENTED_EDGE('',*,*,#516,.T.);
#662=ORIENTED_EDGE('',*,*,#517,.F.);
#663=ORIENTED_EDGE('',*,*,#518,.F.);
#664=ORIENTED_EDGE('',*,*,#508,.F.);
#665=ORIENTED_EDGE('',*,*,#519,.T.);
#666=ORIENTED_EDGE('',*,*,#520,.F.);
#667=ORIENTED_EDGE('',*,*,#521,.T.);
#668=ORIENTED_EDGE('',*,*,#522,.T.);
#669=ORIENTED_EDGE('',*,*,#523,.T.);
#670=ORIENTED_EDGE('',*,*,#522,.F.);
#671=ORIENTED_EDGE('',*,*,#524,.T.);
#672=ORIENTED_EDGE('',*,*,#525,.T.);
#673=ORIENTED_EDGE('',*,*,#526,.F.);
#674=ORIENTED_EDGE('',*,*,#527,.F.);
#675=ORIENTED_EDGE('',*,*,#528,.T.);
#676=ORIENTED_EDGE('',*,*,#521,.F.);
#677=ORIENTED_EDGE('',*,*,#529,.T.);
#678=ORIENTED_EDGE('',*,*,#530,.F.);
#679=ORIENTED_EDGE('',*,*,#531,.F.);
#680=ORIENTED_EDGE('',*,*,#532,.F.);
#681=ORIENTED_EDGE('',*,*,#533,.F.);
#682=ORIENTED_EDGE('',*,*,#534,.F.);
#683=ORIENTED_EDGE('',*,*,#535,.F.);
#684=ORIENTED_EDGE('',*,*,#536,.F.);
#685=ORIENTED_EDGE('',*,*,#537,.F.);
#686=ORIENTED_EDGE('',*,*,#538,.F.);
#687=ORIENTED_EDGE('',*,*,#524,.F.);
#688=ORIENTED_EDGE('',*,*,#539,.T.);
#689=ORIENTED_EDGE('',*,*,#540,.T.);
#690=ORIENTED_EDGE('',*,*,#541,.T.);
#691=ORIENTED_EDGE('',*,*,#530,.T.);
#692=ORIENTED_EDGE('',*,*,#542,.T.);
#693=ORIENTED_EDGE('',*,*,#540,.F.);
#694=ORIENTED_EDGE('',*,*,#543,.F.);
#695=ORIENTED_EDGE('',*,*,#544,.F.);
#696=ORIENTED_EDGE('',*,*,#539,.F.);
#697=ORIENTED_EDGE('',*,*,#545,.F.);
#698=ORIENTED_EDGE('',*,*,#546,.T.);
#699=ORIENTED_EDGE('',*,*,#547,.T.);
#700=ORIENTED_EDGE('',*,*,#543,.T.);
#701=ORIENTED_EDGE('',*,*,#519,.F.);
#702=ORIENTED_EDGE('',*,*,#548,.T.);
#703=ORIENTED_EDGE('',*,*,#527,.T.);
#704=ORIENTED_EDGE('',*,*,#549,.T.);
#705=ORIENTED_EDGE('',*,*,#550,.T.);
#706=ORIENTED_EDGE('',*,*,#551,.F.);
#707=ORIENTED_EDGE('',*,*,#552,.T.);
#708=ORIENTED_EDGE('',*,*,#553,.T.);
#709=ORIENTED_EDGE('',*,*,#554,.T.);
#710=ORIENTED_EDGE('',*,*,#555,.T.);
#711=ORIENTED_EDGE('',*,*,#556,.T.);
#712=ORIENTED_EDGE('',*,*,#557,.T.);
#713=ORIENTED_EDGE('',*,*,#558,.T.);
#714=ORIENTED_EDGE('',*,*,#559,.T.);
#715=ORIENTED_EDGE('',*,*,#546,.F.);
#716=ORIENTED_EDGE('',*,*,#560,.F.);
#717=ORIENTED_EDGE('',*,*,#549,.F.);
#718=ORIENTED_EDGE('',*,*,#526,.T.);
#719=ORIENTED_EDGE('',*,*,#561,.T.);
#720=ORIENTED_EDGE('',*,*,#562,.T.);
#721=ORIENTED_EDGE('',*,*,#552,.F.);
#722=ORIENTED_EDGE('',*,*,#523,.F.);
#723=ORIENTED_EDGE('',*,*,#528,.F.);
#724=ORIENTED_EDGE('',*,*,#548,.F.);
#725=ORIENTED_EDGE('',*,*,#563,.T.);
#726=ORIENTED_EDGE('',*,*,#509,.T.);
#727=ORIENTED_EDGE('',*,*,#518,.T.);
#728=ORIENTED_EDGE('',*,*,#564,.T.);
#729=ORIENTED_EDGE('',*,*,#491,.T.);
#730=ORIENTED_EDGE('',*,*,#512,.T.);
#731=ORIENTED_EDGE('',*,*,#565,.T.);
#732=ORIENTED_EDGE('',*,*,#566,.T.);
#733=ORIENTED_EDGE('',*,*,#567,.T.);
#734=ORIENTED_EDGE('',*,*,#492,.T.);
#735=ORIENTED_EDGE('',*,*,#566,.F.);
#736=ORIENTED_EDGE('',*,*,#568,.T.);
#737=ORIENTED_EDGE('',*,*,#564,.F.);
#738=ORIENTED_EDGE('',*,*,#517,.T.);
#739=ORIENTED_EDGE('',*,*,#569,.F.);
#740=ORIENTED_EDGE('',*,*,#570,.T.);
#741=ORIENTED_EDGE('',*,*,#510,.T.);
#742=ORIENTED_EDGE('',*,*,#563,.F.);
#743=ORIENTED_EDGE('',*,*,#568,.F.);
#744=ORIENTED_EDGE('',*,*,#565,.F.);
#745=ORIENTED_EDGE('',*,*,#511,.T.);
#746=ORIENTED_EDGE('',*,*,#570,.F.);
#747=ORIENTED_EDGE('',*,*,#571,.F.);
#748=ORIENTED_EDGE('',*,*,#572,.T.);
#749=ORIENTED_EDGE('',*,*,#573,.T.);
#750=ORIENTED_EDGE('',*,*,#572,.F.);
#751=ORIENTED_EDGE('',*,*,#573,.F.);
#752=ORIENTED_EDGE('',*,*,#574,.F.);
#753=ORIENTED_EDGE('',*,*,#575,.T.);
#754=ORIENTED_EDGE('',*,*,#576,.T.);
#755=ORIENTED_EDGE('',*,*,#575,.F.);
#756=ORIENTED_EDGE('',*,*,#576,.F.);
#757=ORIENTED_EDGE('',*,*,#577,.F.);
#758=ORIENTED_EDGE('',*,*,#578,.T.);
#759=ORIENTED_EDGE('',*,*,#579,.T.);
#760=ORIENTED_EDGE('',*,*,#578,.F.);
#761=ORIENTED_EDGE('',*,*,#579,.F.);
#762=ORIENTED_EDGE('',*,*,#580,.F.);
#763=ORIENTED_EDGE('',*,*,#581,.T.);
#764=ORIENTED_EDGE('',*,*,#582,.T.);
#765=ORIENTED_EDGE('',*,*,#581,.F.);
#766=ORIENTED_EDGE('',*,*,#582,.F.);
#767=ORIENTED_EDGE('',*,*,#513,.F.);
#768=ORIENTED_EDGE('',*,*,#506,.F.);
#769=ORIENTED_EDGE('',*,*,#583,.F.);
#770=ORIENTED_EDGE('',*,*,#584,.F.);
#771=ORIENTED_EDGE('',*,*,#585,.F.);
#772=ORIENTED_EDGE('',*,*,#502,.F.);
#773=ORIENTED_EDGE('',*,*,#586,.T.);
#774=ORIENTED_EDGE('',*,*,#587,.T.);
#775=ORIENTED_EDGE('',*,*,#567,.F.);
#776=ORIENTED_EDGE('',*,*,#516,.F.);
#777=ORIENTED_EDGE('',*,*,#514,.F.);
#778=ORIENTED_EDGE('',*,*,#587,.F.);
#779=ORIENTED_EDGE('',*,*,#588,.F.);
#780=ORIENTED_EDGE('',*,*,#589,.F.);
#781=ORIENTED_EDGE('',*,*,#590,.F.);
#782=ORIENTED_EDGE('',*,*,#591,.F.);
#783=ORIENTED_EDGE('',*,*,#488,.F.);
#784=ORIENTED_EDGE('',*,*,#493,.F.);
#785=ORIENTED_EDGE('',*,*,#560,.T.);
#786=ORIENTED_EDGE('',*,*,#545,.T.);
#787=ORIENTED_EDGE('',*,*,#542,.F.);
#788=ORIENTED_EDGE('',*,*,#529,.F.);
#789=ORIENTED_EDGE('',*,*,#520,.T.);
#790=ORIENTED_EDGE('',*,*,#550,.F.);
#791=ORIENTED_EDGE('',*,*,#489,.F.);
#792=ORIENTED_EDGE('',*,*,#591,.T.);
#793=ORIENTED_EDGE('',*,*,#592,.F.);
#794=ORIENTED_EDGE('',*,*,#498,.F.);
#795=ORIENTED_EDGE('',*,*,#593,.F.);
#796=ORIENTED_EDGE('',*,*,#594,.F.);
#797=ORIENTED_EDGE('',*,*,#595,.F.);
#798=ORIENTED_EDGE('',*,*,#494,.F.);
#799=ORIENTED_EDGE('',*,*,#501,.F.);
#800=ORIENTED_EDGE('',*,*,#596,.T.);
#801=ORIENTED_EDGE('',*,*,#588,.T.);
#802=ORIENTED_EDGE('',*,*,#586,.F.);
#803=ORIENTED_EDGE('',*,*,#500,.F.);
#804=ORIENTED_EDGE('',*,*,#597,.T.);
#805=ORIENTED_EDGE('',*,*,#589,.T.);
#806=ORIENTED_EDGE('',*,*,#596,.F.);
#807=ORIENTED_EDGE('',*,*,#499,.F.);
#808=ORIENTED_EDGE('',*,*,#592,.T.);
#809=ORIENTED_EDGE('',*,*,#590,.T.);
#810=ORIENTED_EDGE('',*,*,#597,.F.);
#811=ORIENTED_EDGE('',*,*,#532,.T.);
#812=ORIENTED_EDGE('',*,*,#598,.F.);
#813=ORIENTED_EDGE('',*,*,#558,.F.);
#814=ORIENTED_EDGE('',*,*,#599,.T.);
#815=ORIENTED_EDGE('',*,*,#533,.T.);
#816=ORIENTED_EDGE('',*,*,#599,.F.);
#817=ORIENTED_EDGE('',*,*,#557,.F.);
#818=ORIENTED_EDGE('',*,*,#600,.F.);
#819=ORIENTED_EDGE('',*,*,#571,.T.);
#820=ORIENTED_EDGE('',*,*,#584,.T.);
#821=ORIENTED_EDGE('',*,*,#601,.F.);
#822=ORIENTED_EDGE('',*,*,#602,.F.);
#823=ORIENTED_EDGE('',*,*,#603,.F.);
#824=ORIENTED_EDGE('',*,*,#580,.T.);
#825=ORIENTED_EDGE('',*,*,#534,.T.);
#826=ORIENTED_EDGE('',*,*,#600,.T.);
#827=ORIENTED_EDGE('',*,*,#556,.F.);
#828=ORIENTED_EDGE('',*,*,#604,.F.);
#829=ORIENTED_EDGE('',*,*,#583,.T.);
#830=ORIENTED_EDGE('',*,*,#505,.F.);
#831=ORIENTED_EDGE('',*,*,#605,.T.);
#832=ORIENTED_EDGE('',*,*,#601,.T.);
#833=ORIENTED_EDGE('',*,*,#535,.T.);
#834=ORIENTED_EDGE('',*,*,#604,.T.);
#835=ORIENTED_EDGE('',*,*,#555,.F.);
#836=ORIENTED_EDGE('',*,*,#606,.T.);
#837=ORIENTED_EDGE('',*,*,#541,.F.);
#838=ORIENTED_EDGE('',*,*,#544,.T.);
#839=ORIENTED_EDGE('',*,*,#547,.F.);
#840=ORIENTED_EDGE('',*,*,#559,.F.);
#841=ORIENTED_EDGE('',*,*,#598,.T.);
#842=ORIENTED_EDGE('',*,*,#531,.T.);
#843=ORIENTED_EDGE('',*,*,#595,.T.);
#844=ORIENTED_EDGE('',*,*,#607,.T.);
#845=ORIENTED_EDGE('',*,*,#608,.F.);
#846=ORIENTED_EDGE('',*,*,#495,.F.);
#847=ORIENTED_EDGE('',*,*,#536,.T.);
#848=ORIENTED_EDGE('',*,*,#606,.F.);
#849=ORIENTED_EDGE('',*,*,#554,.F.);
#850=ORIENTED_EDGE('',*,*,#609,.T.);
#851=ORIENTED_EDGE('',*,*,#594,.T.);
#852=ORIENTED_EDGE('',*,*,#610,.F.);
#853=ORIENTED_EDGE('',*,*,#611,.F.);
#854=ORIENTED_EDGE('',*,*,#607,.F.);
#855=ORIENTED_EDGE('',*,*,#574,.T.);
#856=ORIENTED_EDGE('',*,*,#593,.T.);
#857=ORIENTED_EDGE('',*,*,#497,.F.);
#858=ORIENTED_EDGE('',*,*,#612,.T.);
#859=ORIENTED_EDGE('',*,*,#610,.T.);
#860=ORIENTED_EDGE('',*,*,#496,.F.);
#861=ORIENTED_EDGE('',*,*,#608,.T.);
#862=ORIENTED_EDGE('',*,*,#611,.T.);
#863=ORIENTED_EDGE('',*,*,#612,.F.);
#864=ORIENTED_EDGE('',*,*,#538,.T.);
#865=ORIENTED_EDGE('',*,*,#613,.T.);
#866=ORIENTED_EDGE('',*,*,#561,.F.);
#867=ORIENTED_EDGE('',*,*,#525,.F.);
#868=ORIENTED_EDGE('',*,*,#537,.T.);
#869=ORIENTED_EDGE('',*,*,#609,.F.);
#870=ORIENTED_EDGE('',*,*,#553,.F.);
#871=ORIENTED_EDGE('',*,*,#562,.F.);
#872=ORIENTED_EDGE('',*,*,#613,.F.);
#873=ORIENTED_EDGE('',*,*,#577,.T.);
#874=ORIENTED_EDGE('',*,*,#504,.F.);
#875=ORIENTED_EDGE('',*,*,#614,.T.);
#876=ORIENTED_EDGE('',*,*,#602,.T.);
#877=ORIENTED_EDGE('',*,*,#605,.F.);
#878=ORIENTED_EDGE('',*,*,#585,.T.);
#879=ORIENTED_EDGE('',*,*,#603,.T.);
#880=ORIENTED_EDGE('',*,*,#614,.F.);
#881=ORIENTED_EDGE('',*,*,#503,.F.);
#882=ORIENTED_EDGE('',*,*,#615,.T.);
#883=ORIENTED_EDGE('',*,*,#616,.T.);
#884=ORIENTED_EDGE('',*,*,#617,.T.);
#885=ORIENTED_EDGE('',*,*,#615,.F.);
#886=ORIENTED_EDGE('',*,*,#618,.T.);
#887=ORIENTED_EDGE('',*,*,#616,.F.);
#888=ORIENTED_EDGE('',*,*,#617,.F.);
#889=ORIENTED_EDGE('',*,*,#619,.T.);
#890=ORIENTED_EDGE('',*,*,#620,.T.);
#891=ORIENTED_EDGE('',*,*,#619,.F.);
#892=ORIENTED_EDGE('',*,*,#621,.F.);
#893=ORIENTED_EDGE('',*,*,#618,.F.);
#894=ORIENTED_EDGE('',*,*,#622,.F.);
#895=ORIENTED_EDGE('',*,*,#623,.T.);
#896=ORIENTED_EDGE('',*,*,#624,.T.);
#897=ORIENTED_EDGE('',*,*,#623,.F.);
#898=ORIENTED_EDGE('',*,*,#620,.F.);
#899=ORIENTED_EDGE('',*,*,#624,.F.);
#900=ORIENTED_EDGE('',*,*,#622,.T.);
#901=ORIENTED_EDGE('',*,*,#551,.T.);
#902=ORIENTED_EDGE('',*,*,#621,.T.);
#903=ORIENTED_EDGE('',*,*,#625,.T.);
#904=ORIENTED_EDGE('',*,*,#569,.T.);
#905=ORIENTED_EDGE('',*,*,#625,.F.);
#906=CYLINDRICAL_SURFACE('',#992,2.);
#907=CYLINDRICAL_SURFACE('',#1004,2.);
#908=CYLINDRICAL_SURFACE('',#1007,1.);
#909=CYLINDRICAL_SURFACE('',#1015,21.25);
#910=CYLINDRICAL_SURFACE('',#1021,1.);
#911=CYLINDRICAL_SURFACE('',#1026,1.);
#912=CYLINDRICAL_SURFACE('',#1029,1.);
#913=CYLINDRICAL_SURFACE('',#1031,15.75);
#914=CYLINDRICAL_SURFACE('',#1049,80.);
#915=CYLINDRICAL_SURFACE('',#1051,1.3);
#916=CYLINDRICAL_SURFACE('',#1055,1.3);
#917=CYLINDRICAL_SURFACE('',#1059,1.3);
#918=CYLINDRICAL_SURFACE('',#1063,1.3);
#919=CYLINDRICAL_SURFACE('',#1067,28.75);
#920=CYLINDRICAL_SURFACE('',#1072,28.75);
#921=CYLINDRICAL_SURFACE('',#1097,23.);
#922=CYLINDRICAL_SURFACE('',#1101,20.);
#923=ADVANCED_FACE('',(#85),#906,.T.);
#924=ADVANCED_FACE('',(#86),#50,.F.);
#925=ADVANCED_FACE('',(#87),#51,.F.);
#926=ADVANCED_FACE('',(#88),#907,.T.);
#927=ADVANCED_FACE('',(#89),#52,.F.);
#928=ADVANCED_FACE('',(#90),#908,.T.);
#929=ADVANCED_FACE('',(#91),#53,.F.);
#930=ADVANCED_FACE('',(#92),#909,.T.);
#931=ADVANCED_FACE('',(#93),#910,.T.);
#932=ADVANCED_FACE('',(#94),#54,.F.);
#933=ADVANCED_FACE('',(#95),#911,.T.);
#934=ADVANCED_FACE('',(#96),#912,.T.);
#935=ADVANCED_FACE('',(#97),#913,.F.);
#936=ADVANCED_FACE('',(#98),#55,.F.);
#937=ADVANCED_FACE('',(#99),#56,.T.);
#938=ADVANCED_FACE('',(#100),#57,.T.);
#939=ADVANCED_FACE('',(#101),#25,.T.);
#940=ADVANCED_FACE('',(#102),#914,.T.);
#941=ADVANCED_FACE('',(#103),#915,.F.);
#942=ADVANCED_FACE('',(#104),#58,.F.);
#943=ADVANCED_FACE('',(#105),#916,.F.);
#944=ADVANCED_FACE('',(#106),#59,.F.);
#945=ADVANCED_FACE('',(#107),#917,.F.);
#946=ADVANCED_FACE('',(#108),#60,.F.);
#947=ADVANCED_FACE('',(#109),#918,.F.);
#948=ADVANCED_FACE('',(#110),#61,.F.);
#949=ADVANCED_FACE('',(#111),#919,.F.);
#950=ADVANCED_FACE('',(#112,#17),#62,.F.);
#951=ADVANCED_FACE('',(#113),#920,.F.);
#952=ADVANCED_FACE('',(#114),#63,.F.);
#953=ADVANCED_FACE('',(#115),#64,.F.);
#954=ADVANCED_FACE('',(#116),#65,.F.);
#955=ADVANCED_FACE('',(#117),#66,.F.);
#956=ADVANCED_FACE('',(#118,#18),#67,.F.);
#957=ADVANCED_FACE('',(#119,#19),#68,.F.);
#958=ADVANCED_FACE('',(#120),#69,.F.);
#959=ADVANCED_FACE('',(#121),#70,.F.);
#960=ADVANCED_FACE('',(#122),#71,.F.);
#961=ADVANCED_FACE('',(#123),#72,.F.);
#962=ADVANCED_FACE('',(#124),#73,.F.);
#963=ADVANCED_FACE('',(#125),#74,.F.);
#964=ADVANCED_FACE('',(#126,#20),#75,.F.);
#965=ADVANCED_FACE('',(#127),#76,.F.);
#966=ADVANCED_FACE('',(#128),#77,.F.);
#967=ADVANCED_FACE('',(#129),#78,.F.);
#968=ADVANCED_FACE('',(#130,#21),#79,.F.);
#969=ADVANCED_FACE('',(#131),#80,.F.);
#970=ADVANCED_FACE('',(#132),#81,.F.);
#971=ADVANCED_FACE('',(#133),#16,.T.);
#972=ADVANCED_FACE('',(#134),#921,.T.);
#973=ADVANCED_FACE('',(#135,#22),#82,.T.);
#974=ADVANCED_FACE('',(#136),#922,.T.);
#975=ADVANCED_FACE('',(#137,#23),#83,.T.);
#976=ADVANCED_FACE('',(#138,#24),#84,.T.);
#977=ADVANCED_FACE('',(#139),#15,.T.);
#978=CLOSED_SHELL('',(#923,#924,#925,#926,#927,#928,#929,#930,#931,#932,
#933,#934,#935,#936,#937,#938,#939,#940,#941,#942,#943,#944,#945,#946,#947,
#948,#949,#950,#951,#952,#953,#954,#955,#956,#957,#958,#959,#960,#961,#962,
#963,#964,#965,#966,#967,#968,#969,#970,#971,#972,#973,#974,#975,#976,#977));
#979=DERIVED_UNIT_ELEMENT(#981,1.);
#980=DERIVED_UNIT_ELEMENT(#1857,-3.);
#981=(
MASS_UNIT()
NAMED_UNIT(*)
SI_UNIT(.KILO.,.GRAM.)
);
#982=DERIVED_UNIT((#979,#980));
#983=MEASURE_REPRESENTATION_ITEM('density measure',
POSITIVE_RATIO_MEASURE(7850.),#982);
#984=PROPERTY_DEFINITION_REPRESENTATION(#989,#986);
#985=PROPERTY_DEFINITION_REPRESENTATION(#990,#987);
#986=REPRESENTATION('material name',(#988),#1854);
#987=REPRESENTATION('density',(#983),#1854);
#988=DESCRIPTIVE_REPRESENTATION_ITEM('Stahl','Stahl');
#989=PROPERTY_DEFINITION('material property','material name',#1864);
#990=PROPERTY_DEFINITION('material property','density of part',#1864);
#991=AXIS2_PLACEMENT_3D('',#1416,#1108,#1109);
#992=AXIS2_PLACEMENT_3D('',#1417,#1110,#1111);
#993=AXIS2_PLACEMENT_3D('',#1420,#1112,#1113);
#994=AXIS2_PLACEMENT_3D('',#1424,#1115,#1116);
#995=AXIS2_PLACEMENT_3D('',#1426,#1118,#1119);
#996=AXIS2_PLACEMENT_3D('',#1436,#1123,#1124);
#997=AXIS2_PLACEMENT_3D('',#1438,#1125,#1126);
#998=AXIS2_PLACEMENT_3D('',#1446,#1130,#1131);
#999=AXIS2_PLACEMENT_3D('',#1454,#1135,#1136);
#1000=AXIS2_PLACEMENT_3D('',#1462,#1140,#1141);
#1001=AXIS2_PLACEMENT_3D('',#1464,#1142,#1143);
#1002=AXIS2_PLACEMENT_3D('',#1470,#1146,#1147);
#1003=AXIS2_PLACEMENT_3D('',#1472,#1148,#1149);
#1004=AXIS2_PLACEMENT_3D('',#1474,#1151,#1152);
#1005=AXIS2_PLACEMENT_3D('',#1478,#1154,#1155);
#1006=AXIS2_PLACEMENT_3D('',#1480,#1157,#1158);
#1007=AXIS2_PLACEMENT_3D('',#1488,#1161,#1162);
#1008=AXIS2_PLACEMENT_3D('',#1491,#1163,#1164);
#1009=AXIS2_PLACEMENT_3D('',#1493,#1165,#1166);
#1010=AXIS2_PLACEMENT_3D('',#1497,#1168,#1169);
#1011=AXIS2_PLACEMENT_3D('',#1499,#1171,#1172);
#1012=AXIS2_PLACEMENT_3D('',#1501,#1173,#1174);
#1013=AXIS2_PLACEMENT_3D('',#1505,#1176,#1177);
#1014=AXIS2_PLACEMENT_3D('',#1507,#1178,#1179);
#1015=AXIS2_PLACEMENT_3D('',#1509,#1181,#1182);
#1016=AXIS2_PLACEMENT_3D('',#1511,#1183,#1184);
#1017=AXIS2_PLACEMENT_3D('',#1515,#1186,#1187);
#1018=AXIS2_PLACEMENT_3D('',#1519,#1189,#1190);
#1019=AXIS2_PLACEMENT_3D('',#1523,#1192,#1193);
#1020=AXIS2_PLACEMENT_3D('',#1527,#1195,#1196);
#1021=AXIS2_PLACEMENT_3D('',#1529,#1198,#1199);
#1022=AXIS2_PLACEMENT_3D('',#1532,#1200,#1201);
#1023=AXIS2_PLACEMENT_3D('',#1535,#1203,#1204);
#1024=AXIS2_PLACEMENT_3D('',#1536,#1205,#1206);
#1025=AXIS2_PLACEMENT_3D('',#1537,#1207,#1208);
#1026=AXIS2_PLACEMENT_3D('',#1541,#1211,#1212);
#1027=AXIS2_PLACEMENT_3D('',#1543,#1213,#1214);
#1028=AXIS2_PLACEMENT_3D('',#1546,#1216,#1217);
#1029=AXIS2_PLACEMENT_3D('',#1547,#1218,#1219);
#1030=AXIS2_PLACEMENT_3D('',#1551,#1222,#1223);
#1031=AXIS2_PLACEMENT_3D('',#1552,#1224,#1225);
#1032=AXIS2_PLACEMENT_3D('',#1554,#1226,#1227);
#1033=AXIS2_PLACEMENT_3D('',#1558,#1229,#1230);
#1034=AXIS2_PLACEMENT_3D('',#1560,#1231,#1232);
#1035=AXIS2_PLACEMENT_3D('',#1562,#1233,#1234);
#1036=AXIS2_PLACEMENT_3D('',#1564,#1235,#1236);
#1037=AXIS2_PLACEMENT_3D('',#1566,#1237,#1238);
#1038=AXIS2_PLACEMENT_3D('',#1568,#1239,#1240);
#1039=AXIS2_PLACEMENT_3D('',#1569,#1241,#1242);
#1040=AXIS2_PLACEMENT_3D('',#1570,#1243,#1244);
#1041=AXIS2_PLACEMENT_3D('',#1572,#1245,#1246);
#1042=AXIS2_PLACEMENT_3D('',#1573,#1247,#1248);
#1043=AXIS2_PLACEMENT_3D('',#1574,#1249,#1250);
#1044=AXIS2_PLACEMENT_3D('',#1575,#1251,#1252);
#1045=AXIS2_PLACEMENT_3D('',#1582,#1254,#1255);
#1046=AXIS2_PLACEMENT_3D('',#1589,#1257,#1258);
#1047=AXIS2_PLACEMENT_3D('',#1590,#1259,#1260);
#1048=AXIS2_PLACEMENT_3D('',#1591,#1261,#1262);
#1049=AXIS2_PLACEMENT_3D('',#1592,#1263,#1264);
#1050=AXIS2_PLACEMENT_3D('',#1594,#1265,#1266);
#1051=AXIS2_PLACEMENT_3D('',#1596,#1268,#1269);
#1052=AXIS2_PLACEMENT_3D('',#1598,#1270,#1271);
#1053=AXIS2_PLACEMENT_3D('',#1601,#1273,#1274);
#1054=AXIS2_PLACEMENT_3D('',#1602,#1275,#1276);
#1055=AXIS2_PLACEMENT_3D('',#1603,#1277,#1278);
#1056=AXIS2_PLACEMENT_3D('',#1605,#1279,#1280);
#1057=AXIS2_PLACEMENT_3D('',#1608,#1282,#1283);
#1058=AXIS2_PLACEMENT_3D('',#1609,#1284,#1285);
#1059=AXIS2_PLACEMENT_3D('',#1610,#1286,#1287);
#1060=AXIS2_PLACEMENT_3D('',#1612,#1288,#1289);
#1061=AXIS2_PLACEMENT_3D('',#1615,#1291,#1292);
#1062=AXIS2_PLACEMENT_3D('',#1616,#1293,#1294);
#1063=AXIS2_PLACEMENT_3D('',#1617,#1295,#1296);
#1064=AXIS2_PLACEMENT_3D('',#1619,#1297,#1298);
#1065=AXIS2_PLACEMENT_3D('',#1622,#1300,#1301);
#1066=AXIS2_PLACEMENT_3D('',#1623,#1302,#1303);
#1067=AXIS2_PLACEMENT_3D('',#1624,#1304,#1305);
#1068=AXIS2_PLACEMENT_3D('',#1628,#1307,#1308);
#1069=AXIS2_PLACEMENT_3D('',#1632,#1311,#1312);
#1070=AXIS2_PLACEMENT_3D('',#1633,#1313,#1314);
#1071=AXIS2_PLACEMENT_3D('',#1640,#1318,#1319);
#1072=AXIS2_PLACEMENT_3D('',#1641,#1320,#1321);
#1073=AXIS2_PLACEMENT_3D('',#1646,#1324,#1325);
#1074=AXIS2_PLACEMENT_3D('',#1648,#1327,#1328);
#1075=AXIS2_PLACEMENT_3D('',#1650,#1330,#1331);
#1076=AXIS2_PLACEMENT_3D('',#1652,#1333,#1334);
#1077=AXIS2_PLACEMENT_3D('',#1653,#1335,#1336);
#1078=AXIS2_PLACEMENT_3D('',#1656,#1339,#1340);
#1079=AXIS2_PLACEMENT_3D('',#1658,#1342,#1343);
#1080=AXIS2_PLACEMENT_3D('',#1664,#1347,#1348);
#1081=AXIS2_PLACEMENT_3D('',#1666,#1350,#1351);
#1082=AXIS2_PLACEMENT_3D('',#1668,#1353,#1354);
#1083=AXIS2_PLACEMENT_3D('',#1670,#1356,#1357);
#1084=AXIS2_PLACEMENT_3D('',#1671,#1358,#1359);
#1085=AXIS2_PLACEMENT_3D('',#1675,#1362,#1363);
#1086=AXIS2_PLACEMENT_3D('',#1677,#1365,#1366);
#1087=AXIS2_PLACEMENT_3D('',#1681,#1369,#1370);
#1088=AXIS2_PLACEMENT_3D('',#1683,#1372,#1373);
#1089=AXIS2_PLACEMENT_3D('',#1684,#1374,#1375);
#1090=AXIS2_PLACEMENT_3D('',#1686,#1377,#1378);
#1091=AXIS2_PLACEMENT_3D('',#1687,#1379,#1380);
#1092=AXIS2_PLACEMENT_3D('',#1689,#1382,#1383);
#1093=AXIS2_PLACEMENT_3D('',#1830,#1384,#1385);
#1094=AXIS2_PLACEMENT_3D('',#1832,#1386,#1387);
#1095=AXIS2_PLACEMENT_3D('',#1833,#1388,#1389);
#1096=AXIS2_PLACEMENT_3D('',#1834,#1390,#1391);
#1097=AXIS2_PLACEMENT_3D('',#1835,#1392,#1393);
#1098=AXIS2_PLACEMENT_3D('',#1838,#1395,#1396);
#1099=AXIS2_PLACEMENT_3D('',#1839,#1397,#1398);
#1100=AXIS2_PLACEMENT_3D('',#1841,#1399,#1400);
#1101=AXIS2_PLACEMENT_3D('',#1842,#1401,#1402);
#1102=AXIS2_PLACEMENT_3D('',#1844,#1403,#1404);
#1103=AXIS2_PLACEMENT_3D('',#1847,#1406,#1407);
#1104=AXIS2_PLACEMENT_3D('',#1848,#1408,#1409);
#1105=AXIS2_PLACEMENT_3D('',#1849,#1410,#1411);
#1106=AXIS2_PLACEMENT_3D('',#1850,#1412,#1413);
#1107=AXIS2_PLACEMENT_3D('',#1851,#1414,#1415);
#1108=DIRECTION('axis',(0.,0.,1.));
#1109=DIRECTION('refdir',(1.,0.,0.));
#1110=DIRECTION('center_axis',(0.,0.,1.));
#1111=DIRECTION('ref_axis',(-0.637576713063339,-0.770386873563763,0.));
#1112=DIRECTION('center_axis',(0.,0.,1.));
#1113=DIRECTION('ref_axis',(-0.637576713063339,-0.770386873563763,0.));
#1114=DIRECTION('',(0.,0.,1.));
#1115=DIRECTION('center_axis',(0.,0.,1.));
#1116=DIRECTION('ref_axis',(-0.637576713063339,-0.770386873563763,0.));
#1117=DIRECTION('',(0.,0.,-1.));
#1118=DIRECTION('center_axis',(0.,1.,0.));
#1119=DIRECTION('ref_axis',(-1.,0.,0.));
#1120=DIRECTION('',(-1.,0.,0.));
#1121=DIRECTION('',(0.,0.,-1.));
#1122=DIRECTION('',(-1.,0.,0.));
#1123=DIRECTION('center_axis',(0.,0.,1.));
#1124=DIRECTION('ref_axis',(1.,0.,0.));
#1125=DIRECTION('center_axis',(0.,0.,1.));
#1126=DIRECTION('ref_axis',(1.,0.,0.));
#1127=DIRECTION('',(0.,1.,0.));
#1128=DIRECTION('',(-1.,0.,0.));
#1129=DIRECTION('',(0.,-1.,0.));
#1130=DIRECTION('center_axis',(0.,0.,1.));
#1131=DIRECTION('ref_axis',(1.,0.,0.));
#1132=DIRECTION('',(-1.,0.,0.));
#1133=DIRECTION('',(0.,-1.,0.));
#1134=DIRECTION('',(1.,0.,0.));
#1135=DIRECTION('center_axis',(0.,0.,1.));
#1136=DIRECTION('ref_axis',(1.,0.,0.));
#1137=DIRECTION('',(0.,-1.,0.));
#1138=DIRECTION('',(1.,0.,0.));
#1139=DIRECTION('',(0.,1.,0.));
#1140=DIRECTION('center_axis',(0.,0.,1.));
#1141=DIRECTION('ref_axis',(1.,0.,0.));
#1142=DIRECTION('center_axis',(0.,0.,1.));
#1143=DIRECTION('ref_axis',(-0.637576713063339,0.770386873563763,0.));
#1144=DIRECTION('',(1.,0.,0.));
#1145=DIRECTION('',(-0.688070776071585,0.725643581323673,0.));
#1146=DIRECTION('center_axis',(0.,0.,1.));
#1147=DIRECTION('ref_axis',(1.,0.,0.));
#1148=DIRECTION('center_axis',(0.,0.,1.));
#1149=DIRECTION('ref_axis',(1.,0.,0.));
#1150=DIRECTION('',(0.688070776071585,0.725643581323673,0.));
#1151=DIRECTION('center_axis',(0.,0.,1.));
#1152=DIRECTION('ref_axis',(-0.637576713063339,0.770386873563763,0.));
#1153=DIRECTION('',(0.,0.,1.));
#1154=DIRECTION('center_axis',(0.,0.,1.));
#1155=DIRECTION('ref_axis',(-0.637576713063339,0.770386873563763,0.));
#1156=DIRECTION('',(0.,0.,-1.));
#1157=DIRECTION('center_axis',(0.,-1.,0.));
#1158=DIRECTION('ref_axis',(1.,0.,0.));
#1159=DIRECTION('',(1.,0.,0.));
#1160=DIRECTION('',(0.,0.,1.));
#1161=DIRECTION('center_axis',(0.,0.,1.));
#1162=DIRECTION('ref_axis',(-0.785674201318387,-0.61864048475889,0.));
#1163=DIRECTION('center_axis',(-0.965925826289067,0.,-0.258819045102525));
#1164=DIRECTION('ref_axis',(-0.258819045102525,3.591835788554E-17,0.965925826289067));
#1165=DIRECTION('center_axis',(0.,0.,1.));
#1166=DIRECTION('ref_axis',(-0.785674201318387,-0.61864048475889,0.));
#1167=DIRECTION('',(0.,0.,-1.));
#1168=DIRECTION('center_axis',(0.,0.,1.));
#1169=DIRECTION('ref_axis',(-0.785674201318387,-0.61864048475889,0.));
#1170=DIRECTION('',(0.,0.,1.));
#1171=DIRECTION('center_axis',(0.,0.,1.));
#1172=DIRECTION('ref_axis',(1.,0.,0.));
#1173=DIRECTION('center_axis',(0.,0.,-1.));
#1174=DIRECTION('ref_axis',(1.,0.,0.));
#1175=DIRECTION('',(0.,-1.,0.));
#1176=DIRECTION('center_axis',(0.,0.,-1.));
#1177=DIRECTION('ref_axis',(-1.,0.,0.));
#1178=DIRECTION('center_axis',(0.,0.,1.));
#1179=DIRECTION('ref_axis',(1.,1.20185167898973E-16,-1.79828740561333E-17));
#1180=DIRECTION('',(-1.,0.,0.));
#1181=DIRECTION('center_axis',(0.,0.,1.));
#1182=DIRECTION('ref_axis',(1.,0.,0.));
#1183=DIRECTION('center_axis',(0.,0.,-1.));
#1184=DIRECTION('ref_axis',(1.,0.,0.));
#1185=DIRECTION('',(0.,0.,1.));
#1186=DIRECTION('center_axis',(0.,0.,-1.));
#1187=DIRECTION('ref_axis',(1.,0.,0.));
#1188=DIRECTION('',(0.,0.,-1.));
#1189=DIRECTION('center_axis',(0.,0.,-1.));
#1190=DIRECTION('ref_axis',(1.,0.,0.));
#1191=DIRECTION('',(0.,0.,1.));
#1192=DIRECTION('center_axis',(0.,0.,-1.));
#1193=DIRECTION('ref_axis',(1.,0.,0.));
#1194=DIRECTION('',(0.,0.,-1.));
#1195=DIRECTION('center_axis',(0.,0.,-1.));
#1196=DIRECTION('ref_axis',(1.,0.,0.));
#1197=DIRECTION('',(0.,0.,1.));
#1198=DIRECTION('center_axis',(0.,0.,1.));
#1199=DIRECTION('ref_axis',(-0.785674201318387,0.61864048475889,0.));
#1200=DIRECTION('center_axis',(-0.965925826289069,0.,-0.258819045102518));
#1201=DIRECTION('ref_axis',(-0.258819045102518,-3.5918357885539E-17,0.965925826289069));
#1202=DIRECTION('',(0.,0.,-1.));
#1203=DIRECTION('center_axis',(0.,0.,1.));
#1204=DIRECTION('ref_axis',(-0.785674201318387,0.61864048475889,0.));
#1205=DIRECTION('center_axis',(0.,0.,1.));
#1206=DIRECTION('ref_axis',(-0.785674201318387,0.61864048475889,0.));
#1207=DIRECTION('center_axis',(0.,-1.,0.));
#1208=DIRECTION('ref_axis',(1.,0.,0.));
#1209=DIRECTION('',(-0.5,0.,0.866025403784439));
#1210=DIRECTION('',(1.,0.,0.));
#1211=DIRECTION('center_axis',(-0.5,0.,0.866025403784439));
#1212=DIRECTION('ref_axis',(0.518321055348819,0.801118620914605,0.299252800832285));
#1213=DIRECTION('center_axis',(0.,0.,1.));
#1214=DIRECTION('ref_axis',(1.,-4.80740671595891E-16,0.));
#1215=DIRECTION('',(0.5,0.,-0.866025403784439));
#1216=DIRECTION('center_axis',(0.,0.,1.));
#1217=DIRECTION('ref_axis',(1.,-4.80740671595891E-16,0.));
#1218=DIRECTION('center_axis',(0.5,0.,-0.866025403784439));
#1219=DIRECTION('ref_axis',(0.51832105534882,-0.801118620914605,0.299252800832285));
#1220=DIRECTION('',(0.5,0.,-0.866025403784439));
#1221=DIRECTION('',(-0.5,0.,0.866025403784439));
#1222=DIRECTION('center_axis',(0.,0.,1.));
#1223=DIRECTION('ref_axis',(1.,1.20185167898973E-16,-1.79828740561333E-17));
#1224=DIRECTION('center_axis',(0.5,0.,-0.866025403784439));
#1225=DIRECTION('ref_axis',(0.,-1.,0.));
#1226=DIRECTION('center_axis',(0.5,0.,-0.866025403784439));
#1227=DIRECTION('ref_axis',(0.,-1.,0.));
#1228=DIRECTION('',(0.5,0.,-0.866025403784439));
#1229=DIRECTION('center_axis',(0.,0.,-1.));
#1230=DIRECTION('ref_axis',(-1.,0.,0.));
#1231=DIRECTION('center_axis',(-1.,0.,0.));
#1232=DIRECTION('ref_axis',(0.,0.,-1.));
#1233=DIRECTION('center_axis',(0.,0.,-1.));
#1234=DIRECTION('ref_axis',(-1.,0.,0.));
#1235=DIRECTION('center_axis',(-1.,0.,0.));
#1236=DIRECTION('ref_axis',(0.,0.,-1.));
#1237=DIRECTION('center_axis',(0.,0.,-1.));
#1238=DIRECTION('ref_axis',(-1.,0.,0.));
#1239=DIRECTION('center_axis',(1.,0.,0.));
#1240=DIRECTION('ref_axis',(0.,0.,-1.));
#1241=DIRECTION('center_axis',(0.,0.,-1.));
#1242=DIRECTION('ref_axis',(-1.,0.,0.));
#1243=DIRECTION('center_axis',(0.,0.,1.));
#1244=DIRECTION('ref_axis',(-1.,0.,0.));
#1245=DIRECTION('center_axis',(1.,0.,0.));
#1246=DIRECTION('ref_axis',(0.,0.,-1.));
#1247=DIRECTION('center_axis',(0.,0.,-1.));
#1248=DIRECTION('ref_axis',(-1.,0.,0.));
#1249=DIRECTION('center_axis',(0.,1.,0.));
#1250=DIRECTION('ref_axis',(-1.,0.,0.));
#1251=DIRECTION('center_axis',(0.725643581323673,0.688070776071585,0.));
#1252=DIRECTION('ref_axis',(0.,0.,-1.));
#1253=DIRECTION('',(0.,0.,-1.));
#1254=DIRECTION('center_axis',(0.725643581323673,-0.688070776071585,0.));
#1255=DIRECTION('ref_axis',(0.,0.,-1.));
#1256=DIRECTION('',(0.,0.,1.));
#1257=DIRECTION('center_axis',(0.,0.,1.));
#1258=DIRECTION('ref_axis',(1.,0.,0.));
#1259=DIRECTION('center_axis',(0.,0.,1.));
#1260=DIRECTION('ref_axis',(1.,0.,0.));
#1261=DIRECTION('center_axis',(0.,0.,-1.));
#1262=DIRECTION('ref_axis',(1.,0.,0.));
#1263=DIRECTION('center_axis',(0.,0.,1.));
#1264=DIRECTION('ref_axis',(1.,0.,0.));
#1265=DIRECTION('center_axis',(0.,0.,1.));
#1266=DIRECTION('ref_axis',(1.,0.,0.));
#1267=DIRECTION('',(0.,0.,-1.));
#1268=DIRECTION('center_axis',(0.,0.,1.));
#1269=DIRECTION('ref_axis',(1.,0.,0.));
#1270=DIRECTION('center_axis',(0.,0.,1.));
#1271=DIRECTION('ref_axis',(1.,0.,0.));
#1272=DIRECTION('',(0.,0.,1.));
#1273=DIRECTION('center_axis',(0.,0.,1.));
#1274=DIRECTION('ref_axis',(1.,0.,0.));
#1275=DIRECTION('center_axis',(0.,0.,1.));
#1276=DIRECTION('ref_axis',(1.,0.,0.));
#1277=DIRECTION('center_axis',(0.,0.,1.));
#1278=DIRECTION('ref_axis',(1.,0.,0.));
#1279=DIRECTION('center_axis',(0.,0.,1.));
#1280=DIRECTION('ref_axis',(1.,0.,0.));
#1281=DIRECTION('',(0.,0.,1.));
#1282=DIRECTION('center_axis',(0.,0.,1.));
#1283=DIRECTION('ref_axis',(1.,0.,0.));
#1284=DIRECTION('center_axis',(0.,0.,1.));
#1285=DIRECTION('ref_axis',(1.,0.,0.));
#1286=DIRECTION('center_axis',(0.,0.,1.));
#1287=DIRECTION('ref_axis',(1.,0.,0.));
#1288=DIRECTION('center_axis',(0.,0.,1.));
#1289=DIRECTION('ref_axis',(1.,0.,0.));
#1290=DIRECTION('',(0.,0.,1.));
#1291=DIRECTION('center_axis',(0.,0.,1.));
#1292=DIRECTION('ref_axis',(1.,0.,0.));
#1293=DIRECTION('center_axis',(0.,0.,1.));
#1294=DIRECTION('ref_axis',(1.,0.,0.));
#1295=DIRECTION('center_axis',(0.,0.,1.));
#1296=DIRECTION('ref_axis',(1.,0.,0.));
#1297=DIRECTION('center_axis',(0.,0.,1.));
#1298=DIRECTION('ref_axis',(1.,0.,0.));
#1299=DIRECTION('',(0.,0.,1.));
#1300=DIRECTION('center_axis',(0.,0.,1.));
#1301=DIRECTION('ref_axis',(1.,0.,0.));
#1302=DIRECTION('center_axis',(0.,0.,1.));
#1303=DIRECTION('ref_axis',(1.,0.,0.));
#1304=DIRECTION('center_axis',(0.,0.,1.));
#1305=DIRECTION('ref_axis',(1.,0.,0.));
#1306=DIRECTION('',(0.,0.,-1.));
#1307=DIRECTION('center_axis',(0.,0.,1.));
#1308=DIRECTION('ref_axis',(1.,0.,0.));
#1309=DIRECTION('',(0.,0.,1.));
#1310=DIRECTION('',(0.,0.,1.));
#1311=DIRECTION('center_axis',(0.,0.,1.));
#1312=DIRECTION('ref_axis',(1.,0.,0.));
#1313=DIRECTION('center_axis',(0.,0.,1.));
#1314=DIRECTION('ref_axis',(1.,0.,0.));
#1315=DIRECTION('',(1.,0.,0.));
#1316=DIRECTION('',(0.,-1.,0.));
#1317=DIRECTION('',(-1.,0.,0.));
#1318=DIRECTION('center_axis',(0.,0.,1.));
#1319=DIRECTION('ref_axis',(1.,0.,0.));
#1320=DIRECTION('center_axis',(0.,0.,1.));
#1321=DIRECTION('ref_axis',(1.,0.,0.));
#1322=DIRECTION('',(0.,0.,1.));
#1323=DIRECTION('',(0.,0.,-1.));
#1324=DIRECTION('center_axis',(0.,0.,1.));
#1325=DIRECTION('ref_axis',(1.,0.,0.));
#1326=DIRECTION('',(0.,0.,1.));
#1327=DIRECTION('center_axis',(0.,-1.,0.));
#1328=DIRECTION('ref_axis',(1.,0.,0.));
#1329=DIRECTION('',(0.,0.,1.));
#1330=DIRECTION('center_axis',(-1.,0.,0.));
#1331=DIRECTION('ref_axis',(0.,-1.,0.));
#1332=DIRECTION('',(0.,0.,1.));
#1333=DIRECTION('center_axis',(0.,1.,0.));
#1334=DIRECTION('ref_axis',(-1.,0.,0.));
#1335=DIRECTION('center_axis',(-1.,0.,0.));
#1336=DIRECTION('ref_axis',(0.,-1.,0.));
#1337=DIRECTION('',(0.,-1.,0.));
#1338=DIRECTION('',(0.,-1.,0.));
#1339=DIRECTION('center_axis',(0.,0.,1.));
#1340=DIRECTION('ref_axis',(1.,0.,0.));
#1341=DIRECTION('',(0.,1.,0.));
#1342=DIRECTION('center_axis',(0.,0.,1.));
#1343=DIRECTION('ref_axis',(1.,0.,0.));
#1344=DIRECTION('',(0.,1.,0.));
#1345=DIRECTION('',(1.,0.,0.));
#1346=DIRECTION('',(0.,-1.,0.));
#1347=DIRECTION('center_axis',(1.,0.,0.));
#1348=DIRECTION('ref_axis',(0.,1.,0.));
#1349=DIRECTION('',(0.,1.,0.));
#1350=DIRECTION('center_axis',(1.,0.,0.));
#1351=DIRECTION('ref_axis',(0.,1.,0.));
#1352=DIRECTION('',(0.,0.,1.));
#1353=DIRECTION('center_axis',(0.,0.,1.));
#1354=DIRECTION('ref_axis',(1.,0.,0.));
#1355=DIRECTION('',(0.,1.,0.));
#1356=DIRECTION('center_axis',(0.,0.,1.));
#1357=DIRECTION('ref_axis',(1.,0.,0.));
#1358=DIRECTION('center_axis',(1.,0.,0.));
#1359=DIRECTION('ref_axis',(0.,1.,0.));
#1360=DIRECTION('',(0.,1.,0.));
#1361=DIRECTION('',(0.,0.,1.));
#1362=DIRECTION('center_axis',(1.,0.,0.));
#1363=DIRECTION('ref_axis',(0.,1.,0.));
#1364=DIRECTION('',(0.,1.,0.));
#1365=DIRECTION('center_axis',(0.,0.,1.));
#1366=DIRECTION('ref_axis',(1.,0.,0.));
#1367=DIRECTION('',(0.,-1.,0.));
#1368=DIRECTION('',(-1.,0.,0.));
#1369=DIRECTION('center_axis',(-1.,0.,0.));
#1370=DIRECTION('ref_axis',(0.,-1.,0.));
#1371=DIRECTION('',(0.,0.,1.));
#1372=DIRECTION('center_axis',(0.,1.,0.));
#1373=DIRECTION('ref_axis',(-1.,0.,0.));
#1374=DIRECTION('center_axis',(-1.,0.,0.));
#1375=DIRECTION('ref_axis',(0.,-1.,0.));
#1376=DIRECTION('',(0.,-1.,0.));
#1377=DIRECTION('center_axis',(0.,0.,1.));
#1378=DIRECTION('ref_axis',(1.,0.,0.));
#1379=DIRECTION('center_axis',(0.,-1.,0.));
#1380=DIRECTION('ref_axis',(1.,0.,0.));
#1381=DIRECTION('',(0.,0.,1.));
#1382=DIRECTION('center_axis',(-1.,0.,0.));
#1383=DIRECTION('ref_axis',(0.,-1.,0.));
#1384=DIRECTION('center_axis',(1.41410031829988E-16,1.,0.));
#1385=DIRECTION('ref_axis',(0.,0.,-1.));
#1386=DIRECTION('center_axis',(-0.0719815750748695,3.57366073673678E-16,
-0.997405961908059));
#1387=DIRECTION('ref_axis',(-0.997405961908059,0.,0.0719815750748695));
#1388=DIRECTION('center_axis',(-0.0719815750748695,3.57366073673678E-16,
-0.997405961908059));
#1389=DIRECTION('ref_axis',(-0.997405961908059,0.,0.0719815750748695));
#1390=DIRECTION('center_axis',(0.,0.,1.));
#1391=DIRECTION('ref_axis',(-1.,0.,0.));
#1392=DIRECTION('center_axis',(0.5,0.,-0.866025403784439));
#1393=DIRECTION('ref_axis',(0.,-1.,0.));
#1394=DIRECTION('',(-0.5,0.,0.866025403784439));
#1395=DIRECTION('center_axis',(0.5,0.,-0.866025403784439));
#1396=DIRECTION('ref_axis',(0.,-1.,0.));
#1397=DIRECTION('center_axis',(0.,0.,1.));
#1398=DIRECTION('ref_axis',(1.,0.,0.));
#1399=DIRECTION('center_axis',(0.,0.,-1.));
#1400=DIRECTION('ref_axis',(1.,0.,0.));
#1401=DIRECTION('center_axis',(0.5,0.,-0.866025403784439));
#1402=DIRECTION('ref_axis',(0.,-1.,0.));
#1403=DIRECTION('center_axis',(-0.5,0.,0.866025403784439));
#1404=DIRECTION('ref_axis',(0.,-1.,0.));
#1405=DIRECTION('',(0.5,0.,-0.866025403784439));
#1406=DIRECTION('center_axis',(-0.5,0.,0.866025403784439));
#1407=DIRECTION('ref_axis',(0.,-1.,0.));
#1408=DIRECTION('center_axis',(-0.5,0.,0.866025403784439));
#1409=DIRECTION('ref_axis',(0.,-1.,0.));
#1410=DIRECTION('center_axis',(-0.5,0.,0.866025403784439));
#1411=DIRECTION('ref_axis',(0.,-1.,0.));
#1412=DIRECTION('center_axis',(0.,0.,1.));
#1413=DIRECTION('ref_axis',(1.,0.,0.));
#1414=DIRECTION('center_axis',(1.22464679914735E-16,-1.,0.));
#1415=DIRECTION('ref_axis',(-1.,-1.22464679914735E-16,0.));
#1416=CARTESIAN_POINT('',(0.,0.,0.));
#1417=CARTESIAN_POINT('Origin',(75.2076149339864,5.75,0.));
#1418=CARTESIAN_POINT('',(73.2428920114507,5.3760162601626,0.));
#1419=CARTESIAN_POINT('',(75.2076149339864,3.75,0.));
#1420=CARTESIAN_POINT('Origin',(75.2076149339864,5.75,0.));
#1421=CARTESIAN_POINT('',(75.2076149339864,3.75,5.));
#1422=CARTESIAN_POINT('',(75.2076149339864,3.75,0.));
#1423=CARTESIAN_POINT('',(73.2428920114507,5.3760162601626,5.));
#1424=CARTESIAN_POINT('Origin',(75.2076149339864,5.75,5.));
#1425=CARTESIAN_POINT('',(73.2428920114507,5.3760162601626,0.));
#1426=CARTESIAN_POINT('Origin',(85.,3.75,0.));
#1427=CARTESIAN_POINT('',(78.9120610421231,3.75,0.));
#1428=CARTESIAN_POINT('',(42.5,3.75,0.));
#1429=CARTESIAN_POINT('',(78.9120610421231,3.75,5.0011131435232));
#1430=CARTESIAN_POINT('',(78.9120610421231,3.75,0.));
#1431=CARTESIAN_POINT('',(78.9109466424019,3.75,5.));
#1432=CARTESIAN_POINT('Ctrl Pts',(78.9109466424027,3.75,4.99999999999918));
#1433=CARTESIAN_POINT('Ctrl Pts',(78.9115038383377,3.75,5.00055656783077));
#1434=CARTESIAN_POINT('Ctrl Pts',(78.9120610421238,3.75,5.00111314352234));
#1435=CARTESIAN_POINT('',(73.75,3.75,5.));
#1436=CARTESIAN_POINT('Origin',(0.,0.,0.));
#1437=CARTESIAN_POINT('',(51.,28.1169432904788,0.));
#1438=CARTESIAN_POINT('Origin',(45.,0.,0.));
#1439=CARTESIAN_POINT('',(51.,36.,0.));
#1440=CARTESIAN_POINT('',(51.,7.,0.));
#1441=CARTESIAN_POINT('',(39.,36.,0.));
#1442=CARTESIAN_POINT('',(25.5,36.,0.));
#1443=CARTESIAN_POINT('',(39.,28.1169432904788,0.));
#1444=CARTESIAN_POINT('',(39.,18.,0.));
#1445=CARTESIAN_POINT('',(16.4956143725215,3.75,0.));
#1446=CARTESIAN_POINT('Origin',(45.,0.,0.));
#1447=CARTESIAN_POINT('',(16.25,3.75,0.));
#1448=CARTESIAN_POINT('',(8.24780718626077,3.75,0.));
#1449=CARTESIAN_POINT('',(16.25,-3.75,0.));
#1450=CARTESIAN_POINT('',(16.25,1.875,0.));
#1451=CARTESIAN_POINT('',(16.4956143725215,-3.75,0.));
#1452=CARTESIAN_POINT('',(8.125,-3.75,0.));
#1453=CARTESIAN_POINT('',(39.,-28.1169432904788,0.));
#1454=CARTESIAN_POINT('Origin',(45.,0.,0.));
#1455=CARTESIAN_POINT('',(39.,-36.,0.));
#1456=CARTESIAN_POINT('',(39.,-7.,0.));
#1457=CARTESIAN_POINT('',(51.,-36.,0.));
#1458=CARTESIAN_POINT('',(19.5,-36.,0.));
#1459=CARTESIAN_POINT('',(51.,-28.1169432904788,0.));
#1460=CARTESIAN_POINT('',(51.,-18.,0.));
#1461=CARTESIAN_POINT('',(73.2428920114507,-5.3760162601626,0.));
#1462=CARTESIAN_POINT('Origin',(45.,0.,0.));
#1463=CARTESIAN_POINT('',(75.2076149339864,-3.75,0.));
#1464=CARTESIAN_POINT('Origin',(75.2076149339864,-5.75,0.));
#1465=CARTESIAN_POINT('',(78.9120610421231,-3.75,0.));
#1466=CARTESIAN_POINT('',(36.7521928137392,-3.75,0.));
#1467=CARTESIAN_POINT('',(79.8589438278904,-4.74858828430535,0.));
#1468=CARTESIAN_POINT('',(59.5324871744732,16.6878152290325,0.));
#1469=CARTESIAN_POINT('',(-80.,-9.79717439317883E-15,0.));
#1470=CARTESIAN_POINT('Origin',(0.,0.,0.));
#1471=CARTESIAN_POINT('',(79.8589438278904,4.74858828430535,0.));
#1472=CARTESIAN_POINT('Origin',(0.,0.,0.));
#1473=CARTESIAN_POINT('',(59.5324871744732,-16.6878152290325,0.));
#1474=CARTESIAN_POINT('Origin',(75.2076149339864,-5.75,0.));
#1475=CARTESIAN_POINT('',(73.2428920114507,-5.3760162601626,5.));
#1476=CARTESIAN_POINT('',(73.2428920114507,-5.3760162601626,0.));
#1477=CARTESIAN_POINT('',(75.2076149339864,-3.75,5.));
#1478=CARTESIAN_POINT('Origin',(75.2076149339864,-5.75,5.));
#1479=CARTESIAN_POINT('',(75.2076149339864,-3.75,0.));
#1480=CARTESIAN_POINT('Origin',(73.5043856274785,-3.75,0.));
#1481=CARTESIAN_POINT('',(78.9109466424019,-3.75,5.));
#1482=CARTESIAN_POINT('',(66.25,-3.75,5.));
#1483=CARTESIAN_POINT('',(78.9120610421231,-3.75,5.0011131435232));
#1484=CARTESIAN_POINT('Ctrl Pts',(78.9120610421239,-3.75,5.00111314352236));
#1485=CARTESIAN_POINT('Ctrl Pts',(78.9115038383377,-3.75,5.00055656783077));
#1486=CARTESIAN_POINT('Ctrl Pts',(78.9109466424027,-3.75,4.99999999999916));
#1487=CARTESIAN_POINT('',(78.9120610421231,-3.75,0.));
#1488=CARTESIAN_POINT('Origin',(25.3149803149705,4.75,0.));
#1489=CARTESIAN_POINT('',(25.3149803149705,3.75,1.9706974340466));
#1490=CARTESIAN_POINT('',(24.5032811387937,4.16592427940035,5.00000000000001));
#1491=CARTESIAN_POINT('Origin',(25.3149803149705,4.75,1.97069743404654));
#1492=CARTESIAN_POINT('',(24.3428805774381,4.98456790123456,5.));
#1493=CARTESIAN_POINT('Origin',(25.3149803149705,4.75,5.));
#1494=CARTESIAN_POINT('',(24.3428805774381,4.98456790123456,0.));
#1495=CARTESIAN_POINT('',(24.3428805774382,4.98456790123456,0.));
#1496=CARTESIAN_POINT('',(25.3149803149705,3.75,0.));
#1497=CARTESIAN_POINT('Origin',(25.3149803149705,4.75,0.));
#1498=CARTESIAN_POINT('',(25.3149803149705,3.75,0.));
#1499=CARTESIAN_POINT('Origin',(0.,0.,0.));
#1500=CARTESIAN_POINT('',(39.,20.3853501318962,0.));
#1501=CARTESIAN_POINT('Origin',(45.,0.,0.));
#1502=CARTESIAN_POINT('',(39.,14.8681707011993,1.77635683940025E-14));
#1503=CARTESIAN_POINT('',(39.,18.,0.));
#1504=CARTESIAN_POINT('',(27.560060739814,4.46641791044776,0.));
#1505=CARTESIAN_POINT('Origin',(45.,0.,0.));
#1506=CARTESIAN_POINT('',(26.4527630090086,3.75,0.));
#1507=CARTESIAN_POINT('Origin',(26.4527630090086,4.75,0.));
#1508=CARTESIAN_POINT('',(16.5,3.75,0.));
#1509=CARTESIAN_POINT('Origin',(45.,0.,0.));
#1510=CARTESIAN_POINT('',(24.3428805774381,-4.98456790123456,5.));
#1511=CARTESIAN_POINT('Origin',(45.,0.,5.));
#1512=CARTESIAN_POINT('',(24.3428805774381,-4.98456790123456,0.));
#1513=CARTESIAN_POINT('',(24.3428805774382,-4.98456790123456,0.));
#1514=CARTESIAN_POINT('',(39.,-20.3853501318962,0.));
#1515=CARTESIAN_POINT('Origin',(45.,0.,0.));
#1516=CARTESIAN_POINT('',(39.,-20.3853501318962,2.5));
#1517=CARTESIAN_POINT('',(39.,-20.3853501318962,0.));
#1518=CARTESIAN_POINT('',(51.,-20.3853501318962,2.5));
#1519=CARTESIAN_POINT('Origin',(45.,0.,2.5));
#1520=CARTESIAN_POINT('',(51.,-20.3853501318962,0.));
#1521=CARTESIAN_POINT('',(51.,-20.3853501318962,0.));
#1522=CARTESIAN_POINT('',(51.,20.3853501318962,0.));
#1523=CARTESIAN_POINT('Origin',(45.,0.,0.));
#1524=CARTESIAN_POINT('',(51.,20.3853501318962,2.5));
#1525=CARTESIAN_POINT('',(51.,20.3853501318962,0.));
#1526=CARTESIAN_POINT('',(39.,20.3853501318962,2.5));
#1527=CARTESIAN_POINT('Origin',(45.,0.,2.5));
#1528=CARTESIAN_POINT('',(39.,20.3853501318962,0.));
#1529=CARTESIAN_POINT('Origin',(25.3149803149705,-4.75,0.));
#1530=CARTESIAN_POINT('',(24.5032811387937,-4.16592427940035,5.00000000000001));
#1531=CARTESIAN_POINT('',(25.3149803149705,-3.75,1.9706974340466));
#1532=CARTESIAN_POINT('Origin',(25.3149803149705,-4.75,1.97069743404654));
#1533=CARTESIAN_POINT('',(25.3149803149705,-3.75,0.));
#1534=CARTESIAN_POINT('',(25.3149803149705,-3.75,0.));
#1535=CARTESIAN_POINT('Origin',(25.3149803149705,-4.75,0.));
#1536=CARTESIAN_POINT('Origin',(25.3149803149705,-4.75,5.));
#1537=CARTESIAN_POINT('Origin',(24.0834993366481,-3.75,0.));
#1538=CARTESIAN_POINT('',(26.4527630090086,-3.75,0.));
#1539=CARTESIAN_POINT('',(-18.9104277432435,-3.75,78.5713511763394));
#1540=CARTESIAN_POINT('',(12.0417496683241,-3.75,0.));
#1541=CARTESIAN_POINT('Origin',(-18.9104277432435,-4.75,78.5713511763394));
#1542=CARTESIAN_POINT('',(24.6733093938659,-4.46641791044776,5.00000000000001));
#1543=CARTESIAN_POINT('Origin',(23.5660116630605,-4.75,5.00000000000001));
#1544=CARTESIAN_POINT('',(27.560060739814,-4.46641791044776,0.));
#1545=CARTESIAN_POINT('',(-18.0799544451394,-4.46641791044776,79.0508251585546));
#1546=CARTESIAN_POINT('Origin',(26.4527630090086,-4.75,0.));
#1547=CARTESIAN_POINT('Origin',(-18.9104277432435,4.75,78.5713511763394));
#1548=CARTESIAN_POINT('',(-18.9104277432435,3.75,78.5713511763394));
#1549=CARTESIAN_POINT('',(24.6733093938659,4.46641791044776,5.00000000000001));
#1550=CARTESIAN_POINT('',(-18.0799544451394,4.46641791044776,79.0508251585546));
#1551=CARTESIAN_POINT('Origin',(23.5660116630605,4.75,5.00000000000001));
#1552=CARTESIAN_POINT('Origin',(-4.99999999999998,0.,86.6025403784439));
#1553=CARTESIAN_POINT('',(-4.99999999999998,15.75,86.6025403784439));
#1554=CARTESIAN_POINT('Origin',(-4.99999999999998,0.,86.6025403784439));
#1555=CARTESIAN_POINT('',(43.5566243270259,15.75,2.5));
#1556=CARTESIAN_POINT('',(-4.99999999999998,15.75,86.6025403784439));
#1557=CARTESIAN_POINT('',(51.,14.3704425451422,2.5));
#1558=CARTESIAN_POINT('Origin',(43.5566243270259,0.,2.5));
#1559=CARTESIAN_POINT('',(51.,14.8681707011993,0.));
#1560=CARTESIAN_POINT('Origin',(51.,0.,-10.3923048454133));
#1561=CARTESIAN_POINT('',(51.,-14.8681707011993,0.));
#1562=CARTESIAN_POINT('Origin',(45.,0.,0.));
#1563=CARTESIAN_POINT('',(51.,-14.3704425451422,2.5));
#1564=CARTESIAN_POINT('Origin',(51.,0.,-10.3923048454133));
#1565=CARTESIAN_POINT('',(39.,-15.2476352611402,2.50000000000002));
#1566=CARTESIAN_POINT('Origin',(43.5566243270259,0.,2.5));
#1567=CARTESIAN_POINT('',(39.,-14.8681707011993,1.77635683940025E-14));
#1568=CARTESIAN_POINT('Origin',(39.,0.,10.3923048454133));
#1569=CARTESIAN_POINT('Origin',(45.,0.,0.));
#1570=CARTESIAN_POINT('Origin',(42.1132486540519,0.,5.));
#1571=CARTESIAN_POINT('',(39.,15.2476352611402,2.50000000000002));
#1572=CARTESIAN_POINT('Origin',(39.,0.,10.3923048454133));
#1573=CARTESIAN_POINT('Origin',(43.5566243270259,0.,2.5));
#1574=CARTESIAN_POINT('Origin',(33.,3.75,0.));
#1575=CARTESIAN_POINT('Origin',(79.3855024350067,-4.24929414215267,0.));
#1576=CARTESIAN_POINT('',(79.8589438278904,-4.74858828430535,6.));
#1577=CARTESIAN_POINT('',(79.8589438278904,-4.74858828430535,0.));
#1578=CARTESIAN_POINT('Ctrl Pts',(78.9120610421231,-3.75,5.00111314352321));
#1579=CARTESIAN_POINT('Ctrl Pts',(79.2282874751489,-4.08349429935125,5.33281332046915));
#1580=CARTESIAN_POINT('Ctrl Pts',(79.5439467643095,-4.41639048536915,5.66583995771801));
#1581=CARTESIAN_POINT('Ctrl Pts',(79.8589438278904,-4.74858828430534,6.));
#1582=CARTESIAN_POINT('Origin',(79.3855024350067,4.24929414215267,0.));
#1583=CARTESIAN_POINT('',(79.8589438278904,4.74858828430535,6.));
#1584=CARTESIAN_POINT('',(79.8589438278904,4.74858828430535,0.));
#1585=CARTESIAN_POINT('Ctrl Pts',(79.8589438278904,4.74858828430534,6.));
#1586=CARTESIAN_POINT('Ctrl Pts',(79.5439467643095,4.41639048536915,5.66583995771801));
#1587=CARTESIAN_POINT('Ctrl Pts',(79.2282874751489,4.08349429935125,5.33281332046915));
#1588=CARTESIAN_POINT('Ctrl Pts',(78.9120610421231,3.75,5.00111314352321));
#1589=CARTESIAN_POINT('Origin',(0.,0.,5.5));
#1590=CARTESIAN_POINT('Origin',(0.,0.,5.));
#1591=CARTESIAN_POINT('Origin',(0.,0.,6.));
#1592=CARTESIAN_POINT('Origin',(0.,0.,0.));
#1593=CARTESIAN_POINT('',(-80.,-9.79717439317883E-15,7.));
#1594=CARTESIAN_POINT('Origin',(0.,0.,7.));
#1595=CARTESIAN_POINT('',(-80.,-9.79717439317883E-15,0.));
#1596=CARTESIAN_POINT('Origin',(45.,-18.5,0.));
#1597=CARTESIAN_POINT('',(43.7,-18.5,2.5));
#1598=CARTESIAN_POINT('Origin',(45.,-18.5,2.5));
#1599=CARTESIAN_POINT('',(43.7,-18.5,6.));
#1600=CARTESIAN_POINT('',(43.7,-18.5,0.));
#1601=CARTESIAN_POINT('Origin',(45.,-18.5,6.));
#1602=CARTESIAN_POINT('Origin',(45.,-18.5,6.));
#1603=CARTESIAN_POINT('Origin',(45.,31.5,0.));
#1604=CARTESIAN_POINT('',(43.7,31.5,2.5));
#1605=CARTESIAN_POINT('Origin',(45.,31.5,2.5));
#1606=CARTESIAN_POINT('',(43.7,31.5,6.));
#1607=CARTESIAN_POINT('',(43.7,31.5,0.));
#1608=CARTESIAN_POINT('Origin',(45.,31.5,6.));
#1609=CARTESIAN_POINT('Origin',(45.,31.5,6.));
#1610=CARTESIAN_POINT('Origin',(45.,18.5,0.));
#1611=CARTESIAN_POINT('',(43.7,18.5,2.5));
#1612=CARTESIAN_POINT('Origin',(45.,18.5,2.5));
#1613=CARTESIAN_POINT('',(43.7,18.5,6.));
#1614=CARTESIAN_POINT('',(43.7,18.5,0.));
#1615=CARTESIAN_POINT('Origin',(45.,18.5,6.));
#1616=CARTESIAN_POINT('Origin',(45.,18.5,6.));
#1617=CARTESIAN_POINT('Origin',(45.,-31.5,0.));
#1618=CARTESIAN_POINT('',(43.7,-31.5,2.5));
#1619=CARTESIAN_POINT('Origin',(45.,-31.5,2.5));
#1620=CARTESIAN_POINT('',(43.7,-31.5,6.));
#1621=CARTESIAN_POINT('',(43.7,-31.5,0.));
#1622=CARTESIAN_POINT('Origin',(45.,-31.5,6.));
#1623=CARTESIAN_POINT('Origin',(45.,-31.5,6.));
#1624=CARTESIAN_POINT('Origin',(45.,0.,0.));
#1625=CARTESIAN_POINT('',(51.,-28.1169432904788,2.5));
#1626=CARTESIAN_POINT('',(51.,-28.1169432904788,0.));
#1627=CARTESIAN_POINT('',(39.,-28.1169432904788,2.5));
#1628=CARTESIAN_POINT('Origin',(45.,0.,2.5));
#1629=CARTESIAN_POINT('',(39.,-28.1169432904788,0.));
#1630=CARTESIAN_POINT('',(16.4956143725215,-3.75,5.));
#1631=CARTESIAN_POINT('',(16.4956143725215,-3.75,0.));
#1632=CARTESIAN_POINT('Origin',(45.,0.,5.));
#1633=CARTESIAN_POINT('Origin',(50.625,0.,5.));
#1634=CARTESIAN_POINT('',(16.25,-3.75,5.));
#1635=CARTESIAN_POINT('',(16.25,-3.75,5.));
#1636=CARTESIAN_POINT('',(16.25,3.75,5.));
#1637=CARTESIAN_POINT('',(16.25,3.75,5.));
#1638=CARTESIAN_POINT('',(16.4956143725215,3.75,5.));
#1639=CARTESIAN_POINT('',(33.,3.75,5.));
#1640=CARTESIAN_POINT('Origin',(45.,0.,5.));
#1641=CARTESIAN_POINT('Origin',(45.,0.,0.));
#1642=CARTESIAN_POINT('',(16.4956143725215,3.75,0.));
#1643=CARTESIAN_POINT('',(39.,28.1169432904788,2.5));
#1644=CARTESIAN_POINT('',(39.,28.1169432904788,0.));
#1645=CARTESIAN_POINT('',(51.,28.1169432904788,2.5));
#1646=CARTESIAN_POINT('Origin',(45.,0.,2.5));
#1647=CARTESIAN_POINT('',(51.,28.1169432904788,0.));
#1648=CARTESIAN_POINT('Origin',(16.25,-3.75,0.));
#1649=CARTESIAN_POINT('',(16.25,-3.75,0.));
#1650=CARTESIAN_POINT('Origin',(16.25,3.75,0.));
#1651=CARTESIAN_POINT('',(16.25,3.75,0.));
#1652=CARTESIAN_POINT('Origin',(16.4956143725215,3.75,0.));
#1653=CARTESIAN_POINT('Origin',(39.,-14.,0.));
#1654=CARTESIAN_POINT('',(39.,-7.,0.));
#1655=CARTESIAN_POINT('',(39.,-14.,2.5));
#1656=CARTESIAN_POINT('Origin',(45.,-25.,2.5));
#1657=CARTESIAN_POINT('',(51.,-36.,2.5));
#1658=CARTESIAN_POINT('Origin',(45.,-25.,2.5));
#1659=CARTESIAN_POINT('',(51.,-36.,2.5));
#1660=CARTESIAN_POINT('',(51.,-36.,2.5));
#1661=CARTESIAN_POINT('',(39.,-36.,2.5));
#1662=CARTESIAN_POINT('',(39.,-36.,2.5));
#1663=CARTESIAN_POINT('',(39.,-14.,2.5));
#1664=CARTESIAN_POINT('Origin',(51.,-36.,0.));
#1665=CARTESIAN_POINT('',(51.,-18.,0.));
#1666=CARTESIAN_POINT('Origin',(51.,-36.,0.));
#1667=CARTESIAN_POINT('',(51.,-36.,0.));
#1668=CARTESIAN_POINT('Origin',(0.,0.,0.));
#1669=CARTESIAN_POINT('',(51.,7.,0.));
#1670=CARTESIAN_POINT('Origin',(0.,0.,0.));
#1671=CARTESIAN_POINT('Origin',(51.,14.,0.));
#1672=CARTESIAN_POINT('',(51.,36.,2.5));
#1673=CARTESIAN_POINT('',(51.,14.,2.5));
#1674=CARTESIAN_POINT('',(51.,36.,0.));
#1675=CARTESIAN_POINT('Origin',(51.,14.,0.));
#1676=CARTESIAN_POINT('',(51.,14.,2.5));
#1677=CARTESIAN_POINT('Origin',(45.,25.,2.5));
#1678=CARTESIAN_POINT('',(39.,36.,2.5));
#1679=CARTESIAN_POINT('',(39.,36.,2.5));
#1680=CARTESIAN_POINT('',(51.,36.,2.5));
#1681=CARTESIAN_POINT('Origin',(39.,36.,0.));
#1682=CARTESIAN_POINT('',(39.,36.,0.));
#1683=CARTESIAN_POINT('Origin',(51.,36.,0.));
#1684=CARTESIAN_POINT('Origin',(39.,36.,0.));
#1685=CARTESIAN_POINT('',(39.,36.,2.5));
#1686=CARTESIAN_POINT('Origin',(45.,25.,2.5));
#1687=CARTESIAN_POINT('Origin',(39.,-36.,0.));
#1688=CARTESIAN_POINT('',(39.,-36.,0.));
#1689=CARTESIAN_POINT('Origin',(39.,-14.,0.));
#1690=CARTESIAN_POINT('Ctrl Pts',(68.094010767585,-3.30654635769785E-15,
10.));
#1691=CARTESIAN_POINT('Ctrl Pts',(68.094010767585,-4.03919055461545,10.));
#1692=CARTESIAN_POINT('Ctrl Pts',(65.9666188429097,-12.1158746744115,10.));
#1693=CARTESIAN_POINT('Ctrl Pts',(57.0216727495671,-21.8296941167771,10.));
#1694=CARTESIAN_POINT('Ctrl Pts',(44.0888383771639,-27.2253976498812,10.));
#1695=CARTESIAN_POINT('Ctrl Pts',(31.3423411071422,-27.2177833706604,10.));
#1696=CARTESIAN_POINT('Ctrl Pts',(18.1583511284415,-22.7442786001888,10.));
#1697=CARTESIAN_POINT('Ctrl Pts',(11.2449194986813,-16.3139039559143,9.99999999999999));
#1698=CARTESIAN_POINT('Ctrl Pts',(8.33440915662083,-10.8000596086552,10.));
#1699=CARTESIAN_POINT('Ctrl Pts',(7.7388564905388,-9.5563105530879,9.99999999999999));
#1700=CARTESIAN_POINT('Ctrl Pts',(7.0973511931499,-7.96618699646939,10.));
#1701=CARTESIAN_POINT('Ctrl Pts',(6.49289498041542,-6.01404403639497,9.99999999999999));
#1702=CARTESIAN_POINT('Ctrl Pts',(5.91593199486093,-3.36635230858633,10.));
#1703=CARTESIAN_POINT('Ctrl Pts',(5.3836416564356,2.69350809173266,10.));
#1704=CARTESIAN_POINT('Ctrl Pts',(7.51419907816601,10.7677664850325,10.));
#1705=CARTESIAN_POINT('Ctrl Pts',(13.7201868710098,18.6395648138138,10.));
#1706=CARTESIAN_POINT('Ctrl Pts',(21.0944166236174,23.7369568579882,10.));
#1707=CARTESIAN_POINT('Ctrl Pts',(29.8730900805921,26.7124192455293,10.));
#1708=CARTESIAN_POINT('Ctrl Pts',(42.4249677873414,27.5519106366061,10.));
#1709=CARTESIAN_POINT('Ctrl Pts',(56.0309608855623,22.9268382897757,9.99999999999999));
#1710=CARTESIAN_POINT('Ctrl Pts',(65.964700201755,12.1067660011735,10.));
#1711=CARTESIAN_POINT('Ctrl Pts',(68.094010767585,4.03919055461545,10.));
#1712=CARTESIAN_POINT('Ctrl Pts',(68.094010767585,3.30654635769785E-15,
10.));
#1713=CARTESIAN_POINT('Ctrl Pts',(67.6950783671292,-3.25013331425138E-15,
10.));
#1714=CARTESIAN_POINT('Ctrl Pts',(67.6950783671292,-3.97026643373479,10.));
#1715=CARTESIAN_POINT('Ctrl Pts',(65.5884840817491,-11.909058911449,10.0000110199902));
#1716=CARTESIAN_POINT('Ctrl Pts',(56.7390787512913,-21.431112080306,10.0000352596404));
#1717=CARTESIAN_POINT('Ctrl Pts',(43.9689929352457,-26.6688990068223,10.0000100540167));
#1718=CARTESIAN_POINT('Ctrl Pts',(31.4309732302328,-26.5802504665829,10.000047270698));
#1719=CARTESIAN_POINT('Ctrl Pts',(18.5292813237243,-22.111045181538,9.99993221278304));
#1720=CARTESIAN_POINT('Ctrl Pts',(11.8337751631956,-15.8026465559692,10.0000246641936));
#1721=CARTESIAN_POINT('Ctrl Pts',(9.03089054605371,-10.4488654141569,10.0000071746234));
#1722=CARTESIAN_POINT('Ctrl Pts',(8.45756494534693,-9.24204207474817,9.99999160712354));
#1723=CARTESIAN_POINT('Ctrl Pts',(7.84072669420827,-7.70096618309944,9.99998758792897));
#1724=CARTESIAN_POINT('Ctrl Pts',(7.26019045546513,-5.81155875764341,9.99997910721983));
#1725=CARTESIAN_POINT('Ctrl Pts',(6.70638941491456,-3.25136820049061,9.99997030982519));
#1726=CARTESIAN_POINT('Ctrl Pts',(6.19719243035307,2.60071122636101,9.9999812858093));
#1727=CARTESIAN_POINT('Ctrl Pts',(8.235284491855,10.4033412126972,9.99995737660272));
#1728=CARTESIAN_POINT('Ctrl Pts',(14.2289625589094,18.082874521235,9.99997300965872));
#1729=CARTESIAN_POINT('Ctrl Pts',(21.4032214813446,23.1034492876436,10.0000184801003));
#1730=CARTESIAN_POINT('Ctrl Pts',(29.9929723645825,26.0748854280252,10.0000089931868));
#1731=CARTESIAN_POINT('Ctrl Pts',(42.3276049361388,26.9794465720249,10.0000112097628));
#1732=CARTESIAN_POINT('Ctrl Pts',(55.7586401761714,22.507119806854,10.0000345835747));
#1733=CARTESIAN_POINT('Ctrl Pts',(65.5867293408865,11.8998569711197,10.0000173708439));
#1734=CARTESIAN_POINT('Ctrl Pts',(67.6950783671292,3.97026643373479,10.));
#1735=CARTESIAN_POINT('Ctrl Pts',(67.6950783671292,3.25013331425138E-15,
10.));
#1736=CARTESIAN_POINT('Ctrl Pts',(66.8976407846958,-3.13736764033704E-15,
10.1206104016271));
#1737=CARTESIAN_POINT('Ctrl Pts',(66.8976407846958,-3.83248065573701,10.1206104016271));
#1738=CARTESIAN_POINT('Ctrl Pts',(64.8327190517399,-11.4956630999188,10.1296890618525));
#1739=CARTESIAN_POINT('Ctrl Pts',(56.1744157092976,-20.6346988739195,10.1696130363724));
#1740=CARTESIAN_POINT('Ctrl Pts',(43.7299065556692,-25.5578180725341,10.2330916617029));
#1741=CARTESIAN_POINT('Ctrl Pts',(31.6076256533638,-25.3087380176011,10.3049024274571));
#1742=CARTESIAN_POINT('Ctrl Pts',(19.268525316264,-20.8499479333464,10.3903958926336));
#1743=CARTESIAN_POINT('Ctrl Pts',(13.0051217055906,-14.7851037313818,10.4444725653385));
#1744=CARTESIAN_POINT('Ctrl Pts',(10.4159256693442,-9.75020092964736,10.4689644755475));
#1745=CARTESIAN_POINT('Ctrl Pts',(9.88679301259481,-8.61694872311406,10.4740153482768));
#1746=CARTESIAN_POINT('Ctrl Pts',(9.3189102625613,-7.17349483550276,10.4795115076989));
#1747=CARTESIAN_POINT('Ctrl Pts',(8.78586805799258,-5.40895807397212,10.4847677289853));
#1748=CARTESIAN_POINT('Ctrl Pts',(8.27806344896689,-3.022878695883,10.4898196941565));
#1749=CARTESIAN_POINT('Ctrl Pts',(7.81455046226003,2.41599700451109,10.4946215063647));
#1750=CARTESIAN_POINT('Ctrl Pts',(9.66950994144328,9.67858611112128,10.4753395073336));
#1751=CARTESIAN_POINT('Ctrl Pts',(15.2416946234256,16.9747936745883,10.4249605036792));
#1752=CARTESIAN_POINT('Ctrl Pts',(22.0183746352052,21.8413583687878,10.3713575222215));
#1753=CARTESIAN_POINT('Ctrl Pts',(30.2320199553506,24.8035937857887,10.3144700442604));
#1754=CARTESIAN_POINT('Ctrl Pts',(42.1333684291994,25.8365972063762,10.241577730072));
#1755=CARTESIAN_POINT('Ctrl Pts',(55.2145972257752,21.6684876175049,10.1739863323992));
#1756=CARTESIAN_POINT('Ctrl Pts',(64.8312604899415,11.4862819443515,10.1297283478836));
#1757=CARTESIAN_POINT('Ctrl Pts',(66.8976407846958,3.83248065573701,10.1206104016271));
#1758=CARTESIAN_POINT('Ctrl Pts',(66.8976407846958,3.13736764033704E-15,
10.1206104016271));
#1759=CARTESIAN_POINT('Ctrl Pts',(65.6248688978766,-2.95738492730963E-15,
10.7326468215313));
#1760=CARTESIAN_POINT('Ctrl Pts',(65.6248688978766,-3.61266539856836,10.7326468215313));
#1761=CARTESIAN_POINT('Ctrl Pts',(63.636125239745,-10.8358793851247,10.7862769129433));
#1762=CARTESIAN_POINT('Ctrl Pts',(55.3127374944314,-19.403730364996,11.0203617868081));
#1763=CARTESIAN_POINT('Ctrl Pts',(43.3931039088245,-23.9293847638641,11.384214604933));
#1764=CARTESIAN_POINT('Ctrl Pts',(31.8634884875626,-23.5609367033821,11.784778924832));
#1765=CARTESIAN_POINT('Ctrl Pts',(20.229905457016,-19.2489759226643,12.2480218608388));
#1766=CARTESIAN_POINT('Ctrl Pts',(14.4301093669215,-13.5641700462866,12.5327606405361));
#1767=CARTESIAN_POINT('Ctrl Pts',(12.0536546477196,-8.92551043261909,12.6595913597347));
#1768=CARTESIAN_POINT('Ctrl Pts',(11.5681406544701,-7.88258342034122,12.6856492476641));
#1769=CARTESIAN_POINT('Ctrl Pts',(11.0483029429691,-6.55719890798488,12.7140462896051));
#1770=CARTESIAN_POINT('Ctrl Pts',(10.5612636005399,-4.94064003244969,12.7411098399764));
#1771=CARTESIAN_POINT('Ctrl Pts',(10.097724304023,-2.75837971346245,12.7670778317168));
#1772=CARTESIAN_POINT('Ctrl Pts',(9.67749716088824,2.20439812367483,12.791838765299));
#1773=CARTESIAN_POINT('Ctrl Pts',(11.3596720543279,8.83796675299753,12.6927271580848));
#1774=CARTESIAN_POINT('Ctrl Pts',(16.4979934243284,15.6140113137549,12.4299927968663));
#1775=CARTESIAN_POINT('Ctrl Pts',(22.8241770599799,20.2089681244161,12.1451130472494));
#1776=CARTESIAN_POINT('Ctrl Pts',(30.5660945126488,23.0716359520652,11.8364766189949));
#1777=CARTESIAN_POINT('Ctrl Pts',(41.8670644764381,24.1743978981748,11.4326896702379));
#1778=CARTESIAN_POINT('Ctrl Pts',(54.389251214506,20.3736818441537,11.0459204864103));
#1779=CARTESIAN_POINT('Ctrl Pts',(63.6350981422209,10.8266489139704,10.7865061987915));
#1780=CARTESIAN_POINT('Ctrl Pts',(65.6248688978766,3.61266539856836,10.7326468215313));
#1781=CARTESIAN_POINT('Ctrl Pts',(65.6248688978766,2.95738492730963E-15,
10.7326468215313));
#1782=CARTESIAN_POINT('Ctrl Pts',(64.9291084527892,-2.85899742062377E-15,
11.4817716102188));
#1783=CARTESIAN_POINT('Ctrl Pts',(64.9291084527892,-3.49236532802555,11.4817716102188));
#1784=CARTESIAN_POINT('Ctrl Pts',(63.0005197586045,-10.4757395221116,11.5865755398355));
#1785=CARTESIAN_POINT('Ctrl Pts',(54.9132448021902,-18.8054495409451,12.0348775950269));
#1786=CARTESIAN_POINT('Ctrl Pts',(43.2898318618819,-23.3030423675115,12.7071351245768));
#1787=CARTESIAN_POINT('Ctrl Pts',(31.9516803829419,-23.1035134814259,13.4062467659665));
#1788=CARTESIAN_POINT('Ctrl Pts',(20.3790003607591,-19.0828634161821,14.1716176114294));
#1789=CARTESIAN_POINT('Ctrl Pts',(14.452211531499,-13.5684430224644,14.6054514934196));
#1790=CARTESIAN_POINT('Ctrl Pts',(11.9886345283192,-8.95728280090096,14.7938521305751));
#1791=CARTESIAN_POINT('Ctrl Pts',(11.485201483816,-7.91891309425987,14.8325638865513));
#1792=CARTESIAN_POINT('Ctrl Pts',(10.9439901725827,-6.59480669869376,14.8744183502554));
#1793=CARTESIAN_POINT('Ctrl Pts',(10.4354382004474,-4.97450509674397,14.9141233645567));
#1794=CARTESIAN_POINT('Ctrl Pts',(9.95066892312002,-2.78168683778063,14.9521364487366));
#1795=CARTESIAN_POINT('Ctrl Pts',(9.50614911450818,2.22282925862685,14.9876389232392));
#1796=CARTESIAN_POINT('Ctrl Pts',(11.284567326628,8.9016278964816,14.8452927208724));
#1797=CARTESIAN_POINT('Ctrl Pts',(16.5710398166901,15.5604578591991,14.449703023927));
#1798=CARTESIAN_POINT('Ctrl Pts',(22.9563788477445,19.9764057529685,14.0010059940377));
#1799=CARTESIAN_POINT('Ctrl Pts',(30.6623235872717,22.6482852435008,13.4917879035577));
#1800=CARTESIAN_POINT('Ctrl Pts',(41.798313418278,23.5591272644187,12.795002938938));
#1801=CARTESIAN_POINT('Ctrl Pts',(54.0169113000606,19.747547537873,12.0842979603027));
#1802=CARTESIAN_POINT('Ctrl Pts',(62.9990887074407,10.46728809183,11.586799145086));
#1803=CARTESIAN_POINT('Ctrl Pts',(64.9291084527892,3.49236532802555,11.4817716102188));
#1804=CARTESIAN_POINT('Ctrl Pts',(64.9291084527892,2.85899742062377E-15,
11.4817716102188));
#1805=CARTESIAN_POINT('Ctrl Pts',(64.6299091524473,-2.81668763803891E-15,
12.));
#1806=CARTESIAN_POINT('Ctrl Pts',(64.6299091524473,-3.44079195393168,12.));
#1807=CARTESIAN_POINT('Ctrl Pts',(62.7388941082914,-10.3209302782024,12.1364722555981));
#1808=CARTESIAN_POINT('Ctrl Pts',(54.7878309142091,-18.595665358736,12.710290815029));
#1809=CARTESIAN_POINT('Ctrl Pts',(43.2919781387395,-23.1920054054544,13.5399325268392));
#1810=CARTESIAN_POINT('Ctrl Pts',(31.9617583431648,-23.1855191675996,14.3576207079583));
#1811=CARTESIAN_POINT('Ctrl Pts',(20.2426561398752,-19.3747558446053,15.2033740594246));
#1812=CARTESIAN_POINT('Ctrl Pts',(14.0973835800884,-13.8970292957788,15.6468709052541));
#1813=CARTESIAN_POINT('Ctrl Pts',(11.5102632760347,-9.20005077774332,15.8335802307505));
#1814=CARTESIAN_POINT('Ctrl Pts',(10.9808831284062,-8.14056084151932,15.8717849520927));
#1815=CARTESIAN_POINT('Ctrl Pts',(10.4106561973938,-6.78601114514059,15.9129375361076));
#1816=CARTESIAN_POINT('Ctrl Pts',(9.8733617860743,-5.12307454952163,15.9517134202337));
#1817=CARTESIAN_POINT('Ctrl Pts',(9.36050579891476,-2.86763344805502,15.988725613014));
#1818=CARTESIAN_POINT('Ctrl Pts',(8.88735883142558,2.29446985592041,16.0228720541448));
#1819=CARTESIAN_POINT('Ctrl Pts',(10.7811876507415,9.17254182058321,15.8861967318159));
#1820=CARTESIAN_POINT('Ctrl Pts',(16.2976212443804,15.8781478043599,15.4880824292841));
#1821=CARTESIAN_POINT('Ctrl Pts',(22.8524921355871,20.2203706568047,15.0150253700914));
#1822=CARTESIAN_POINT('Ctrl Pts',(30.6557574306758,22.7550238017471,14.4518732052567));
#1823=CARTESIAN_POINT('Ctrl Pts',(41.8129820588974,23.4701460978497,13.6466698749426));
#1824=CARTESIAN_POINT('Ctrl Pts',(53.9071981462049,19.5302696542534,12.773845010737));
#1825=CARTESIAN_POINT('Ctrl Pts',(62.7371886494872,10.3131710380367,12.1365953364856));
#1826=CARTESIAN_POINT('Ctrl Pts',(64.6299091524473,3.44079195393168,12.));
#1827=CARTESIAN_POINT('Ctrl Pts',(64.6299091524473,2.81668763803891E-15,
12.));
#1828=CARTESIAN_POINT('',(68.094010767585,3.30654635769785E-15,10.));
#1829=CARTESIAN_POINT('',(64.6299091524473,-2.81668763803891E-15,12.));
#1830=CARTESIAN_POINT('Origin',(68.094010767585,-3.30654635769785E-15,14.));
#1831=CARTESIAN_POINT('',(36.9170962313452,23.,14.));
#1832=CARTESIAN_POINT('Origin',(36.9170962313452,0.,14.));
#1833=CARTESIAN_POINT('Origin',(36.9170962313452,0.,14.));
#1834=CARTESIAN_POINT('Origin',(36.9170962313452,0.,10.));
#1835=CARTESIAN_POINT('Origin',(-4.99999999999998,0.,86.6025403784439));
#1836=CARTESIAN_POINT('',(20.,23.,43.3012701892219));
#1837=CARTESIAN_POINT('',(-4.99999999999998,23.,86.6025403784439));
#1838=CARTESIAN_POINT('Origin',(20.,0.,43.3012701892219));
#1839=CARTESIAN_POINT('Origin',(0.,0.,10.));
#1840=CARTESIAN_POINT('',(-77.,9.42978035343462E-15,10.));
#1841=CARTESIAN_POINT('Origin',(0.,0.,10.));
#1842=CARTESIAN_POINT('Origin',(-4.99999999999998,0.,86.6025403784439));
#1843=CARTESIAN_POINT('',(-4.99999999999998,20.,86.6025403784439));
#1844=CARTESIAN_POINT('Origin',(-4.99999999999998,0.,86.6025403784439));
#1845=CARTESIAN_POINT('',(20.,20.,43.3012701892219));
#1846=CARTESIAN_POINT('',(-4.99999999999998,20.,86.6025403784439));
#1847=CARTESIAN_POINT('Origin',(20.,0.,43.3012701892219));
#1848=CARTESIAN_POINT('Origin',(20.,0.,43.3012701892219));
#1849=CARTESIAN_POINT('Origin',(-4.99999999999998,0.,86.6025403784439));
#1850=CARTESIAN_POINT('Origin',(0.,0.,7.));
#1851=CARTESIAN_POINT('Origin',(-77.,-9.42978035343462E-15,7.));
#1852=UNCERTAINTY_MEASURE_WITH_UNIT(LENGTH_MEASURE(0.01),#1856,
'DISTANCE_ACCURACY_VALUE',
'Maximum model space distance between geometric entities at asserted c
onnectivities');
#1853=UNCERTAINTY_MEASURE_WITH_UNIT(LENGTH_MEASURE(0.01),#1856,
'DISTANCE_ACCURACY_VALUE',
'Maximum model space distance between geometric entities at asserted c
onnectivities');
#1854=(
GEOMETRIC_REPRESENTATION_CONTEXT(3)
GLOBAL_UNCERTAINTY_ASSIGNED_CONTEXT((#1852))
GLOBAL_UNIT_ASSIGNED_CONTEXT((#1856,#1858,#1859))
REPRESENTATION_CONTEXT('','3D')
);
#1855=(
GEOMETRIC_REPRESENTATION_CONTEXT(3)
GLOBAL_UNCERTAINTY_ASSIGNED_CONTEXT((#1853))
GLOBAL_UNIT_ASSIGNED_CONTEXT((#1856,#1858,#1859))
REPRESENTATION_CONTEXT('','3D')
);
#1856=(
LENGTH_UNIT()
NAMED_UNIT(*)
SI_UNIT(.MILLI.,.METRE.)
);
#1857=(
LENGTH_UNIT()
NAMED_UNIT(*)
SI_UNIT($,.METRE.)
);
#1858=(
NAMED_UNIT(*)
PLANE_ANGLE_UNIT()
SI_UNIT($,.RADIAN.)
);
#1859=(
NAMED_UNIT(*)
SI_UNIT($,.STERADIAN.)
SOLID_ANGLE_UNIT()
);
#1860=SHAPE_DEFINITION_REPRESENTATION(#1861,#1862);
#1861=PRODUCT_DEFINITION_SHAPE('',$,#1864);
#1862=SHAPE_REPRESENTATION('',(#991),#1854);
#1863=PRODUCT_DEFINITION_CONTEXT('part definition',#1868,'design');
#1864=PRODUCT_DEFINITION('(Nicht gespeichert)','(Nicht gespeichert)',#1865,
#1863);
#1865=PRODUCT_DEFINITION_FORMATION('',$,#1870);
#1866=PRODUCT_RELATED_PRODUCT_CATEGORY('(Nicht gespeichert)',
'(Nicht gespeichert)',(#1870));
#1867=APPLICATION_PROTOCOL_DEFINITION('international standard',
'automotive_design',2009,#1868);
#1868=APPLICATION_CONTEXT(
'Core Data for Automotive Mechanical Design Process');
#1869=PRODUCT_CONTEXT('part definition',#1868,'mechanical');
#1870=PRODUCT('(Nicht gespeichert)','(Nicht gespeichert)',$,(#1869));
#1871=PRESENTATION_STYLE_ASSIGNMENT((#1872));
#1872=SURFACE_STYLE_USAGE(.BOTH.,#1873);
#1873=SURFACE_SIDE_STYLE('',(#1874));
#1874=SURFACE_STYLE_FILL_AREA(#1875);
#1875=FILL_AREA_STYLE('Stahl - satiniert',(#1876));
#1876=FILL_AREA_STYLE_COLOUR('Stahl - satiniert',#1877);
#1877=COLOUR_RGB('Stahl - satiniert',0.627450980392157,0.627450980392157,
0.627450980392157);
ENDSEC;
END-ISO-10303-21;
