ISO-10303-21;
HEADER;
/* Generated by software containing ST-Developer
 * from STEP Tools, Inc. (www.steptools.com) 
 */

FILE_DESCRIPTION(
/* description */ (''),
/* implementation_level */ '2;1');

FILE_NAME(
/* name */ 'al-base-plate-deckel.step',
/* time_stamp */ '2026-08-19T18:46:36+02:00',
/* author */ (''),
/* organization */ (''),
/* preprocessor_version */ 'ST-DEVELOPER v20.1',
/* originating_system */ 'Autodesk Translation Framework v15.8.0.0',
/* authorisation */ '');

FILE_SCHEMA (('AUTOMOTIVE_DESIGN { 1 0 10303 214 3 1 1 }'));
ENDSEC;

DATA;
#10=MECHANICAL_DESIGN_GEOMETRIC_PRESENTATION_REPRESENTATION('',(#13),#852);
#11=SHAPE_REPRESENTATION_RELATIONSHIP('SRR','None',#859,#12);
#12=ADVANCED_BREP_SHAPE_REPRESENTATION('',(#14),#851);
#13=STYLED_ITEM('',(#868),#14);
#14=MANIFOLD_SOLID_BREP('K\X\F6rper6',#480);
#15=FACE_BOUND('',#75,.T.);
#16=FACE_BOUND('',#76,.T.);
#17=FACE_BOUND('',#89,.T.);
#18=FACE_BOUND('',#90,.T.);
#19=TOROIDAL_SURFACE('',#519,71.7,0.5);
#20=TOROIDAL_SURFACE('',#536,71.7,0.5);
#21=TOROIDAL_SURFACE('',#538,71.7,0.5);
#22=TOROIDAL_SURFACE('',#551,71.7,0.5);
#23=PLANE('',#500);
#24=PLANE('',#502);
#25=PLANE('',#507);
#26=PLANE('',#522);
#27=PLANE('',#524);
#28=PLANE('',#526);
#29=PLANE('',#530);
#30=PLANE('',#539);
#31=PLANE('',#541);
#32=PLANE('',#544);
#33=PLANE('',#545);
#34=PLANE('',#547);
#35=PLANE('',#549);
#36=PLANE('',#552);
#37=FACE_OUTER_BOUND('',#62,.T.);
#38=FACE_OUTER_BOUND('',#63,.T.);
#39=FACE_OUTER_BOUND('',#64,.T.);
#40=FACE_OUTER_BOUND('',#65,.T.);
#41=FACE_OUTER_BOUND('',#66,.T.);
#42=FACE_OUTER_BOUND('',#67,.T.);
#43=FACE_OUTER_BOUND('',#68,.T.);
#44=FACE_OUTER_BOUND('',#69,.T.);
#45=FACE_OUTER_BOUND('',#70,.T.);
#46=FACE_OUTER_BOUND('',#71,.T.);
#47=FACE_OUTER_BOUND('',#72,.T.);
#48=FACE_OUTER_BOUND('',#73,.T.);
#49=FACE_OUTER_BOUND('',#74,.T.);
#50=FACE_OUTER_BOUND('',#77,.T.);
#51=FACE_OUTER_BOUND('',#78,.T.);
#52=FACE_OUTER_BOUND('',#79,.T.);
#53=FACE_OUTER_BOUND('',#80,.T.);
#54=FACE_OUTER_BOUND('',#81,.T.);
#55=FACE_OUTER_BOUND('',#82,.T.);
#56=FACE_OUTER_BOUND('',#83,.T.);
#57=FACE_OUTER_BOUND('',#84,.T.);
#58=FACE_OUTER_BOUND('',#85,.T.);
#59=FACE_OUTER_BOUND('',#86,.T.);
#60=FACE_OUTER_BOUND('',#87,.T.);
#61=FACE_OUTER_BOUND('',#88,.T.);
#62=EDGE_LOOP('',(#310,#311,#312,#313));
#63=EDGE_LOOP('',(#314,#315,#316,#317));
#64=EDGE_LOOP('',(#318,#319,#320,#321,#322));
#65=EDGE_LOOP('',(#323,#324,#325,#326,#327));
#66=EDGE_LOOP('',(#328,#329,#330,#331));
#67=EDGE_LOOP('',(#332,#333,#334,#335));
#68=EDGE_LOOP('',(#336,#337,#338,#339,#340,#341,#342,#343,#344,#345,#346,
#347,#348,#349,#350,#351,#352,#353,#354,#355));
#69=EDGE_LOOP('',(#356,#357,#358,#359));
#70=EDGE_LOOP('',(#360,#361,#362,#363,#364));
#71=EDGE_LOOP('',(#365,#366,#367,#368));
#72=EDGE_LOOP('',(#369,#370,#371,#372,#373));
#73=EDGE_LOOP('',(#374,#375,#376,#377));
#74=EDGE_LOOP('',(#378,#379,#380,#381,#382,#383,#384,#385,#386,#387,#388,
#389,#390,#391,#392,#393));
#75=EDGE_LOOP('',(#394));
#76=EDGE_LOOP('',(#395));
#77=EDGE_LOOP('',(#396,#397,#398,#399));
#78=EDGE_LOOP('',(#400,#401,#402,#403));
#79=EDGE_LOOP('',(#404,#405,#406,#407,#408));
#80=EDGE_LOOP('',(#409,#410,#411,#412,#413));
#81=EDGE_LOOP('',(#414,#415,#416,#417));
#82=EDGE_LOOP('',(#418,#419,#420,#421));
#83=EDGE_LOOP('',(#422,#423,#424,#425,#426));
#84=EDGE_LOOP('',(#427,#428,#429,#430,#431));
#85=EDGE_LOOP('',(#432,#433,#434,#435,#436));
#86=EDGE_LOOP('',(#437,#438,#439,#440));
#87=EDGE_LOOP('',(#441,#442,#443,#444));
#88=EDGE_LOOP('',(#445));
#89=EDGE_LOOP('',(#446));
#90=EDGE_LOOP('',(#447));
#91=LINE('',#713,#126);
#92=LINE('',#719,#127);
#93=LINE('',#724,#128);
#94=LINE('',#728,#129);
#95=LINE('',#730,#130);
#96=LINE('',#731,#131);
#97=LINE('',#735,#132);
#98=LINE('',#737,#133);
#99=LINE('',#739,#134);
#100=LINE('',#741,#135);
#101=LINE('',#752,#136);
#102=LINE('',#756,#137);
#103=LINE('',#761,#138);
#104=LINE('',#765,#139);
#105=LINE('',#769,#140);
#106=LINE('',#773,#141);
#107=LINE('',#777,#142);
#108=LINE('',#787,#143);
#109=LINE('',#789,#144);
#110=LINE('',#790,#145);
#111=LINE('',#793,#146);
#112=LINE('',#799,#147);
#113=LINE('',#800,#148);
#114=LINE('',#808,#149);
#115=LINE('',#812,#150);
#116=LINE('',#816,#151);
#117=LINE('',#819,#152);
#118=LINE('',#826,#153);
#119=LINE('',#827,#154);
#120=LINE('',#830,#155);
#121=LINE('',#831,#156);
#122=LINE('',#838,#157);
#123=LINE('',#839,#158);
#124=LINE('',#842,#159);
#125=LINE('',#845,#160);
#126=VECTOR('',#559,9.);
#127=VECTOR('',#566,9.);
#128=VECTOR('',#571,10.);
#129=VECTOR('',#574,10.);
#130=VECTOR('',#575,10.);
#131=VECTOR('',#576,10.);
#132=VECTOR('',#579,10.);
#133=VECTOR('',#580,10.);
#134=VECTOR('',#581,10.);
#135=VECTOR('',#582,10.);
#136=VECTOR('',#599,10.);
#137=VECTOR('',#602,72.2);
#138=VECTOR('',#607,10.);
#139=VECTOR('',#610,10.);
#140=VECTOR('',#613,10.);
#141=VECTOR('',#616,10.);
#142=VECTOR('',#619,10.);
#143=VECTOR('',#632,10.);
#144=VECTOR('',#633,10.);
#145=VECTOR('',#634,10.);
#146=VECTOR('',#637,10.);
#147=VECTOR('',#644,10.);
#148=VECTOR('',#645,10.);
#149=VECTOR('',#656,10.);
#150=VECTOR('',#659,10.);
#151=VECTOR('',#662,10.);
#152=VECTOR('',#665,10.);
#153=VECTOR('',#676,10.);
#154=VECTOR('',#677,10.);
#155=VECTOR('',#680,10.);
#156=VECTOR('',#681,10.);
#157=VECTOR('',#692,10.);
#158=VECTOR('',#693,10.);
#159=VECTOR('',#696,10.);
#160=VECTOR('',#701,10.);
#161=CIRCLE('',#495,9.);
#162=CIRCLE('',#496,9.);
#163=CIRCLE('',#498,9.);
#164=CIRCLE('',#499,9.);
#165=CIRCLE('',#501,0.5);
#166=CIRCLE('',#503,0.5);
#167=CIRCLE('',#505,73.7);
#168=CIRCLE('',#506,73.7);
#169=CIRCLE('',#508,72.2);
#170=CIRCLE('',#510,72.2);
#171=CIRCLE('',#511,72.2);
#172=CIRCLE('',#512,72.2);
#173=CIRCLE('',#513,72.2);
#174=CIRCLE('',#514,72.2);
#175=CIRCLE('',#515,72.2);
#176=CIRCLE('',#516,72.2);
#177=CIRCLE('',#517,72.2);
#178=CIRCLE('',#518,72.2);
#179=CIRCLE('',#520,71.7);
#180=CIRCLE('',#521,0.5);
#181=CIRCLE('',#523,0.5);
#182=CIRCLE('',#525,73.7);
#183=CIRCLE('',#527,0.5);
#184=CIRCLE('',#529,73.7);
#185=CIRCLE('',#531,71.7);
#186=CIRCLE('',#532,71.7);
#187=CIRCLE('',#533,73.7);
#188=CIRCLE('',#534,71.7);
#189=CIRCLE('',#535,73.7);
#190=CIRCLE('',#537,0.5);
#191=CIRCLE('',#540,0.5);
#192=CIRCLE('',#543,73.7);
#193=CIRCLE('',#546,0.5);
#194=CIRCLE('',#548,73.7);
#195=VERTEX_POINT('',#710);
#196=VERTEX_POINT('',#712);
#197=VERTEX_POINT('',#716);
#198=VERTEX_POINT('',#718);
#199=VERTEX_POINT('',#722);
#200=VERTEX_POINT('',#723);
#201=VERTEX_POINT('',#725);
#202=VERTEX_POINT('',#727);
#203=VERTEX_POINT('',#729);
#204=VERTEX_POINT('',#733);
#205=VERTEX_POINT('',#734);
#206=VERTEX_POINT('',#736);
#207=VERTEX_POINT('',#738);
#208=VERTEX_POINT('',#740);
#209=VERTEX_POINT('',#749);
#210=VERTEX_POINT('',#751);
#211=VERTEX_POINT('',#753);
#212=VERTEX_POINT('',#755);
#213=VERTEX_POINT('',#758);
#214=VERTEX_POINT('',#760);
#215=VERTEX_POINT('',#762);
#216=VERTEX_POINT('',#764);
#217=VERTEX_POINT('',#766);
#218=VERTEX_POINT('',#768);
#219=VERTEX_POINT('',#770);
#220=VERTEX_POINT('',#772);
#221=VERTEX_POINT('',#774);
#222=VERTEX_POINT('',#776);
#223=VERTEX_POINT('',#780);
#224=VERTEX_POINT('',#784);
#225=VERTEX_POINT('',#786);
#226=VERTEX_POINT('',#788);
#227=VERTEX_POINT('',#792);
#228=VERTEX_POINT('',#796);
#229=VERTEX_POINT('',#798);
#230=VERTEX_POINT('',#805);
#231=VERTEX_POINT('',#807);
#232=VERTEX_POINT('',#809);
#233=VERTEX_POINT('',#811);
#234=VERTEX_POINT('',#813);
#235=VERTEX_POINT('',#815);
#236=VERTEX_POINT('',#817);
#237=VERTEX_POINT('',#825);
#238=VERTEX_POINT('',#829);
#239=VERTEX_POINT('',#837);
#240=VERTEX_POINT('',#841);
#241=EDGE_CURVE('',#195,#195,#161,.T.);
#242=EDGE_CURVE('',#195,#196,#91,.T.);
#243=EDGE_CURVE('',#196,#196,#162,.T.);
#244=EDGE_CURVE('',#197,#197,#163,.T.);
#245=EDGE_CURVE('',#197,#198,#92,.T.);
#246=EDGE_CURVE('',#198,#198,#164,.T.);
#247=EDGE_CURVE('',#199,#200,#93,.T.);
#248=EDGE_CURVE('',#201,#199,#165,.T.);
#249=EDGE_CURVE('',#202,#201,#94,.T.);
#250=EDGE_CURVE('',#203,#202,#95,.T.);
#251=EDGE_CURVE('',#203,#200,#96,.T.);
#252=EDGE_CURVE('',#204,#205,#97,.T.);
#253=EDGE_CURVE('',#204,#206,#98,.T.);
#254=EDGE_CURVE('',#206,#207,#99,.T.);
#255=EDGE_CURVE('',#208,#207,#100,.T.);
#256=EDGE_CURVE('',#205,#208,#166,.T.);
#257=EDGE_CURVE('',#206,#203,#167,.T.);
#258=EDGE_CURVE('',#207,#202,#168,.T.);
#259=EDGE_CURVE('',#200,#204,#169,.T.);
#260=EDGE_CURVE('',#209,#205,#170,.T.);
#261=EDGE_CURVE('',#209,#210,#101,.T.);
#262=EDGE_CURVE('',#210,#211,#171,.T.);
#263=EDGE_CURVE('',#211,#212,#102,.T.);
#264=EDGE_CURVE('',#212,#212,#172,.T.);
#265=EDGE_CURVE('',#211,#213,#173,.T.);
#266=EDGE_CURVE('',#213,#214,#103,.T.);
#267=EDGE_CURVE('',#215,#214,#174,.T.);
#268=EDGE_CURVE('',#215,#216,#104,.T.);
#269=EDGE_CURVE('',#216,#217,#175,.T.);
#270=EDGE_CURVE('',#217,#218,#105,.T.);
#271=EDGE_CURVE('',#219,#218,#176,.T.);
#272=EDGE_CURVE('',#219,#220,#106,.T.);
#273=EDGE_CURVE('',#220,#221,#177,.T.);
#274=EDGE_CURVE('',#221,#222,#107,.T.);
#275=EDGE_CURVE('',#199,#222,#178,.T.);
#276=EDGE_CURVE('',#208,#223,#179,.T.);
#277=EDGE_CURVE('',#223,#209,#180,.T.);
#278=EDGE_CURVE('',#222,#224,#181,.T.);
#279=EDGE_CURVE('',#221,#225,#108,.T.);
#280=EDGE_CURVE('',#225,#226,#109,.T.);
#281=EDGE_CURVE('',#224,#226,#110,.T.);
#282=EDGE_CURVE('',#227,#220,#111,.T.);
#283=EDGE_CURVE('',#225,#227,#182,.T.);
#284=EDGE_CURVE('',#228,#219,#183,.T.);
#285=EDGE_CURVE('',#229,#228,#112,.T.);
#286=EDGE_CURVE('',#227,#229,#113,.T.);
#287=EDGE_CURVE('',#226,#229,#184,.T.);
#288=EDGE_CURVE('',#224,#201,#185,.T.);
#289=EDGE_CURVE('',#230,#228,#186,.T.);
#290=EDGE_CURVE('',#230,#231,#114,.T.);
#291=EDGE_CURVE('',#231,#232,#187,.T.);
#292=EDGE_CURVE('',#232,#233,#115,.T.);
#293=EDGE_CURVE('',#234,#233,#188,.T.);
#294=EDGE_CURVE('',#234,#235,#116,.T.);
#295=EDGE_CURVE('',#235,#236,#189,.T.);
#296=EDGE_CURVE('',#236,#223,#117,.T.);
#297=EDGE_CURVE('',#218,#230,#190,.T.);
#298=EDGE_CURVE('',#233,#215,#191,.T.);
#299=EDGE_CURVE('',#237,#232,#118,.T.);
#300=EDGE_CURVE('',#237,#216,#119,.T.);
#301=EDGE_CURVE('',#217,#238,#120,.T.);
#302=EDGE_CURVE('',#238,#231,#121,.T.);
#303=EDGE_CURVE('',#238,#237,#192,.T.);
#304=EDGE_CURVE('',#214,#234,#193,.T.);
#305=EDGE_CURVE('',#213,#239,#122,.T.);
#306=EDGE_CURVE('',#239,#235,#123,.T.);
#307=EDGE_CURVE('',#240,#210,#124,.T.);
#308=EDGE_CURVE('',#239,#240,#194,.T.);
#309=EDGE_CURVE('',#240,#236,#125,.T.);
#310=ORIENTED_EDGE('',*,*,#241,.F.);
#311=ORIENTED_EDGE('',*,*,#242,.T.);
#312=ORIENTED_EDGE('',*,*,#243,.F.);
#313=ORIENTED_EDGE('',*,*,#242,.F.);
#314=ORIENTED_EDGE('',*,*,#244,.F.);
#315=ORIENTED_EDGE('',*,*,#245,.T.);
#316=ORIENTED_EDGE('',*,*,#246,.F.);
#317=ORIENTED_EDGE('',*,*,#245,.F.);
#318=ORIENTED_EDGE('',*,*,#247,.F.);
#319=ORIENTED_EDGE('',*,*,#248,.F.);
#320=ORIENTED_EDGE('',*,*,#249,.F.);
#321=ORIENTED_EDGE('',*,*,#250,.F.);
#322=ORIENTED_EDGE('',*,*,#251,.T.);
#323=ORIENTED_EDGE('',*,*,#252,.F.);
#324=ORIENTED_EDGE('',*,*,#253,.T.);
#325=ORIENTED_EDGE('',*,*,#254,.T.);
#326=ORIENTED_EDGE('',*,*,#255,.F.);
#327=ORIENTED_EDGE('',*,*,#256,.F.);
#328=ORIENTED_EDGE('',*,*,#257,.T.);
#329=ORIENTED_EDGE('',*,*,#250,.T.);
#330=ORIENTED_EDGE('',*,*,#258,.F.);
#331=ORIENTED_EDGE('',*,*,#254,.F.);
#332=ORIENTED_EDGE('',*,*,#259,.F.);
#333=ORIENTED_EDGE('',*,*,#251,.F.);
#334=ORIENTED_EDGE('',*,*,#257,.F.);
#335=ORIENTED_EDGE('',*,*,#253,.F.);
#336=ORIENTED_EDGE('',*,*,#247,.T.);
#337=ORIENTED_EDGE('',*,*,#259,.T.);
#338=ORIENTED_EDGE('',*,*,#252,.T.);
#339=ORIENTED_EDGE('',*,*,#260,.F.);
#340=ORIENTED_EDGE('',*,*,#261,.T.);
#341=ORIENTED_EDGE('',*,*,#262,.T.);
#342=ORIENTED_EDGE('',*,*,#263,.T.);
#343=ORIENTED_EDGE('',*,*,#264,.T.);
#344=ORIENTED_EDGE('',*,*,#263,.F.);
#345=ORIENTED_EDGE('',*,*,#265,.T.);
#346=ORIENTED_EDGE('',*,*,#266,.T.);
#347=ORIENTED_EDGE('',*,*,#267,.F.);
#348=ORIENTED_EDGE('',*,*,#268,.T.);
#349=ORIENTED_EDGE('',*,*,#269,.T.);
#350=ORIENTED_EDGE('',*,*,#270,.T.);
#351=ORIENTED_EDGE('',*,*,#271,.F.);
#352=ORIENTED_EDGE('',*,*,#272,.T.);
#353=ORIENTED_EDGE('',*,*,#273,.T.);
#354=ORIENTED_EDGE('',*,*,#274,.T.);
#355=ORIENTED_EDGE('',*,*,#275,.F.);
#356=ORIENTED_EDGE('',*,*,#256,.T.);
#357=ORIENTED_EDGE('',*,*,#276,.T.);
#358=ORIENTED_EDGE('',*,*,#277,.T.);
#359=ORIENTED_EDGE('',*,*,#260,.T.);
#360=ORIENTED_EDGE('',*,*,#278,.F.);
#361=ORIENTED_EDGE('',*,*,#274,.F.);
#362=ORIENTED_EDGE('',*,*,#279,.T.);
#363=ORIENTED_EDGE('',*,*,#280,.T.);
#364=ORIENTED_EDGE('',*,*,#281,.F.);
#365=ORIENTED_EDGE('',*,*,#273,.F.);
#366=ORIENTED_EDGE('',*,*,#282,.F.);
#367=ORIENTED_EDGE('',*,*,#283,.F.);
#368=ORIENTED_EDGE('',*,*,#279,.F.);
#369=ORIENTED_EDGE('',*,*,#284,.F.);
#370=ORIENTED_EDGE('',*,*,#285,.F.);
#371=ORIENTED_EDGE('',*,*,#286,.F.);
#372=ORIENTED_EDGE('',*,*,#282,.T.);
#373=ORIENTED_EDGE('',*,*,#272,.F.);
#374=ORIENTED_EDGE('',*,*,#283,.T.);
#375=ORIENTED_EDGE('',*,*,#286,.T.);
#376=ORIENTED_EDGE('',*,*,#287,.F.);
#377=ORIENTED_EDGE('',*,*,#280,.F.);
#378=ORIENTED_EDGE('',*,*,#288,.F.);
#379=ORIENTED_EDGE('',*,*,#281,.T.);
#380=ORIENTED_EDGE('',*,*,#287,.T.);
#381=ORIENTED_EDGE('',*,*,#285,.T.);
#382=ORIENTED_EDGE('',*,*,#289,.F.);
#383=ORIENTED_EDGE('',*,*,#290,.T.);
#384=ORIENTED_EDGE('',*,*,#291,.T.);
#385=ORIENTED_EDGE('',*,*,#292,.T.);
#386=ORIENTED_EDGE('',*,*,#293,.F.);
#387=ORIENTED_EDGE('',*,*,#294,.T.);
#388=ORIENTED_EDGE('',*,*,#295,.T.);
#389=ORIENTED_EDGE('',*,*,#296,.T.);
#390=ORIENTED_EDGE('',*,*,#276,.F.);
#391=ORIENTED_EDGE('',*,*,#255,.T.);
#392=ORIENTED_EDGE('',*,*,#258,.T.);
#393=ORIENTED_EDGE('',*,*,#249,.T.);
#394=ORIENTED_EDGE('',*,*,#243,.T.);
#395=ORIENTED_EDGE('',*,*,#246,.T.);
#396=ORIENTED_EDGE('',*,*,#284,.T.);
#397=ORIENTED_EDGE('',*,*,#271,.T.);
#398=ORIENTED_EDGE('',*,*,#297,.T.);
#399=ORIENTED_EDGE('',*,*,#289,.T.);
#400=ORIENTED_EDGE('',*,*,#248,.T.);
#401=ORIENTED_EDGE('',*,*,#275,.T.);
#402=ORIENTED_EDGE('',*,*,#278,.T.);
#403=ORIENTED_EDGE('',*,*,#288,.T.);
#404=ORIENTED_EDGE('',*,*,#268,.F.);
#405=ORIENTED_EDGE('',*,*,#298,.F.);
#406=ORIENTED_EDGE('',*,*,#292,.F.);
#407=ORIENTED_EDGE('',*,*,#299,.F.);
#408=ORIENTED_EDGE('',*,*,#300,.T.);
#409=ORIENTED_EDGE('',*,*,#270,.F.);
#410=ORIENTED_EDGE('',*,*,#301,.T.);
#411=ORIENTED_EDGE('',*,*,#302,.T.);
#412=ORIENTED_EDGE('',*,*,#290,.F.);
#413=ORIENTED_EDGE('',*,*,#297,.F.);
#414=ORIENTED_EDGE('',*,*,#303,.T.);
#415=ORIENTED_EDGE('',*,*,#299,.T.);
#416=ORIENTED_EDGE('',*,*,#291,.F.);
#417=ORIENTED_EDGE('',*,*,#302,.F.);
#418=ORIENTED_EDGE('',*,*,#269,.F.);
#419=ORIENTED_EDGE('',*,*,#300,.F.);
#420=ORIENTED_EDGE('',*,*,#303,.F.);
#421=ORIENTED_EDGE('',*,*,#301,.F.);
#422=ORIENTED_EDGE('',*,*,#304,.F.);
#423=ORIENTED_EDGE('',*,*,#266,.F.);
#424=ORIENTED_EDGE('',*,*,#305,.T.);
#425=ORIENTED_EDGE('',*,*,#306,.T.);
#426=ORIENTED_EDGE('',*,*,#294,.F.);
#427=ORIENTED_EDGE('',*,*,#262,.F.);
#428=ORIENTED_EDGE('',*,*,#307,.F.);
#429=ORIENTED_EDGE('',*,*,#308,.F.);
#430=ORIENTED_EDGE('',*,*,#305,.F.);
#431=ORIENTED_EDGE('',*,*,#265,.F.);
#432=ORIENTED_EDGE('',*,*,#261,.F.);
#433=ORIENTED_EDGE('',*,*,#277,.F.);
#434=ORIENTED_EDGE('',*,*,#296,.F.);
#435=ORIENTED_EDGE('',*,*,#309,.F.);
#436=ORIENTED_EDGE('',*,*,#307,.T.);
#437=ORIENTED_EDGE('',*,*,#308,.T.);
#438=ORIENTED_EDGE('',*,*,#309,.T.);
#439=ORIENTED_EDGE('',*,*,#295,.F.);
#440=ORIENTED_EDGE('',*,*,#306,.F.);
#441=ORIENTED_EDGE('',*,*,#298,.T.);
#442=ORIENTED_EDGE('',*,*,#267,.T.);
#443=ORIENTED_EDGE('',*,*,#304,.T.);
#444=ORIENTED_EDGE('',*,*,#293,.T.);
#445=ORIENTED_EDGE('',*,*,#264,.F.);
#446=ORIENTED_EDGE('',*,*,#241,.T.);
#447=ORIENTED_EDGE('',*,*,#244,.T.);
#448=CYLINDRICAL_SURFACE('',#494,9.);
#449=CYLINDRICAL_SURFACE('',#497,9.);
#450=CYLINDRICAL_SURFACE('',#504,73.7);
#451=CYLINDRICAL_SURFACE('',#509,72.2);
#452=CYLINDRICAL_SURFACE('',#528,73.7);
#453=CYLINDRICAL_SURFACE('',#542,73.7);
#454=CYLINDRICAL_SURFACE('',#550,73.7);
#455=ADVANCED_FACE('',(#37),#448,.F.);
#456=ADVANCED_FACE('',(#38),#449,.F.);
#457=ADVANCED_FACE('',(#39),#23,.T.);
#458=ADVANCED_FACE('',(#40),#24,.T.);
#459=ADVANCED_FACE('',(#41),#450,.T.);
#460=ADVANCED_FACE('',(#42),#25,.F.);
#461=ADVANCED_FACE('',(#43),#451,.T.);
#462=ADVANCED_FACE('',(#44),#19,.T.);
#463=ADVANCED_FACE('',(#45),#26,.T.);
#464=ADVANCED_FACE('',(#46),#27,.F.);
#465=ADVANCED_FACE('',(#47),#28,.T.);
#466=ADVANCED_FACE('',(#48),#452,.T.);
#467=ADVANCED_FACE('',(#49,#15,#16),#29,.T.);
#468=ADVANCED_FACE('',(#50),#20,.T.);
#469=ADVANCED_FACE('',(#51),#21,.T.);
#470=ADVANCED_FACE('',(#52),#30,.T.);
#471=ADVANCED_FACE('',(#53),#31,.T.);
#472=ADVANCED_FACE('',(#54),#453,.T.);
#473=ADVANCED_FACE('',(#55),#32,.F.);
#474=ADVANCED_FACE('',(#56),#33,.T.);
#475=ADVANCED_FACE('',(#57),#34,.F.);
#476=ADVANCED_FACE('',(#58),#35,.T.);
#477=ADVANCED_FACE('',(#59),#454,.T.);
#478=ADVANCED_FACE('',(#60),#22,.T.);
#479=ADVANCED_FACE('',(#61,#17,#18),#36,.F.);
#480=CLOSED_SHELL('',(#455,#456,#457,#458,#459,#460,#461,#462,#463,#464,
#465,#466,#467,#468,#469,#470,#471,#472,#473,#474,#475,#476,#477,#478,#479));
#481=DERIVED_UNIT_ELEMENT(#483,1.);
#482=DERIVED_UNIT_ELEMENT(#854,-3.);
#483=(
MASS_UNIT()
NAMED_UNIT(*)
SI_UNIT(.KILO.,.GRAM.)
);
#484=DERIVED_UNIT((#481,#482));
#485=MEASURE_REPRESENTATION_ITEM('density measure',
POSITIVE_RATIO_MEASURE(7850.),#484);
#486=PROPERTY_DEFINITION_REPRESENTATION(#491,#488);
#487=PROPERTY_DEFINITION_REPRESENTATION(#492,#489);
#488=REPRESENTATION('material name',(#490),#851);
#489=REPRESENTATION('density',(#485),#851);
#490=DESCRIPTIVE_REPRESENTATION_ITEM('Stahl','Stahl');
#491=PROPERTY_DEFINITION('material property','material name',#861);
#492=PROPERTY_DEFINITION('material property','density of part',#861);
#493=AXIS2_PLACEMENT_3D('',#708,#553,#554);
#494=AXIS2_PLACEMENT_3D('',#709,#555,#556);
#495=AXIS2_PLACEMENT_3D('',#711,#557,#558);
#496=AXIS2_PLACEMENT_3D('',#714,#560,#561);
#497=AXIS2_PLACEMENT_3D('',#715,#562,#563);
#498=AXIS2_PLACEMENT_3D('',#717,#564,#565);
#499=AXIS2_PLACEMENT_3D('',#720,#567,#568);
#500=AXIS2_PLACEMENT_3D('',#721,#569,#570);
#501=AXIS2_PLACEMENT_3D('',#726,#572,#573);
#502=AXIS2_PLACEMENT_3D('',#732,#577,#578);
#503=AXIS2_PLACEMENT_3D('',#742,#583,#584);
#504=AXIS2_PLACEMENT_3D('',#743,#585,#586);
#505=AXIS2_PLACEMENT_3D('',#744,#587,#588);
#506=AXIS2_PLACEMENT_3D('',#745,#589,#590);
#507=AXIS2_PLACEMENT_3D('',#746,#591,#592);
#508=AXIS2_PLACEMENT_3D('',#747,#593,#594);
#509=AXIS2_PLACEMENT_3D('',#748,#595,#596);
#510=AXIS2_PLACEMENT_3D('',#750,#597,#598);
#511=AXIS2_PLACEMENT_3D('',#754,#600,#601);
#512=AXIS2_PLACEMENT_3D('',#757,#603,#604);
#513=AXIS2_PLACEMENT_3D('',#759,#605,#606);
#514=AXIS2_PLACEMENT_3D('',#763,#608,#609);
#515=AXIS2_PLACEMENT_3D('',#767,#611,#612);
#516=AXIS2_PLACEMENT_3D('',#771,#614,#615);
#517=AXIS2_PLACEMENT_3D('',#775,#617,#618);
#518=AXIS2_PLACEMENT_3D('',#778,#620,#621);
#519=AXIS2_PLACEMENT_3D('',#779,#622,#623);
#520=AXIS2_PLACEMENT_3D('',#781,#624,#625);
#521=AXIS2_PLACEMENT_3D('',#782,#626,#627);
#522=AXIS2_PLACEMENT_3D('',#783,#628,#629);
#523=AXIS2_PLACEMENT_3D('',#785,#630,#631);
#524=AXIS2_PLACEMENT_3D('',#791,#635,#636);
#525=AXIS2_PLACEMENT_3D('',#794,#638,#639);
#526=AXIS2_PLACEMENT_3D('',#795,#640,#641);
#527=AXIS2_PLACEMENT_3D('',#797,#642,#643);
#528=AXIS2_PLACEMENT_3D('',#801,#646,#647);
#529=AXIS2_PLACEMENT_3D('',#802,#648,#649);
#530=AXIS2_PLACEMENT_3D('',#803,#650,#651);
#531=AXIS2_PLACEMENT_3D('',#804,#652,#653);
#532=AXIS2_PLACEMENT_3D('',#806,#654,#655);
#533=AXIS2_PLACEMENT_3D('',#810,#657,#658);
#534=AXIS2_PLACEMENT_3D('',#814,#660,#661);
#535=AXIS2_PLACEMENT_3D('',#818,#663,#664);
#536=AXIS2_PLACEMENT_3D('',#820,#666,#667);
#537=AXIS2_PLACEMENT_3D('',#821,#668,#669);
#538=AXIS2_PLACEMENT_3D('',#822,#670,#671);
#539=AXIS2_PLACEMENT_3D('',#823,#672,#673);
#540=AXIS2_PLACEMENT_3D('',#824,#674,#675);
#541=AXIS2_PLACEMENT_3D('',#828,#678,#679);
#542=AXIS2_PLACEMENT_3D('',#832,#682,#683);
#543=AXIS2_PLACEMENT_3D('',#833,#684,#685);
#544=AXIS2_PLACEMENT_3D('',#834,#686,#687);
#545=AXIS2_PLACEMENT_3D('',#835,#688,#689);
#546=AXIS2_PLACEMENT_3D('',#836,#690,#691);
#547=AXIS2_PLACEMENT_3D('',#840,#694,#695);
#548=AXIS2_PLACEMENT_3D('',#843,#697,#698);
#549=AXIS2_PLACEMENT_3D('',#844,#699,#700);
#550=AXIS2_PLACEMENT_3D('',#846,#702,#703);
#551=AXIS2_PLACEMENT_3D('',#847,#704,#705);
#552=AXIS2_PLACEMENT_3D('',#848,#706,#707);
#553=DIRECTION('axis',(0.,0.,1.));
#554=DIRECTION('refdir',(1.,0.,0.));
#555=DIRECTION('center_axis',(0.,0.,1.));
#556=DIRECTION('ref_axis',(1.,0.,0.));
#557=DIRECTION('center_axis',(0.,0.,1.));
#558=DIRECTION('ref_axis',(1.,0.,0.));
#559=DIRECTION('',(0.,0.,1.));
#560=DIRECTION('center_axis',(0.,0.,-1.));
#561=DIRECTION('ref_axis',(1.,0.,0.));
#562=DIRECTION('center_axis',(0.,0.,1.));
#563=DIRECTION('ref_axis',(1.,0.,0.));
#564=DIRECTION('center_axis',(0.,0.,1.));
#565=DIRECTION('ref_axis',(1.,0.,0.));
#566=DIRECTION('',(0.,0.,1.));
#567=DIRECTION('center_axis',(0.,0.,-1.));
#568=DIRECTION('ref_axis',(1.,0.,0.));
#569=DIRECTION('center_axis',(0.997564050259824,0.0697564737441254,0.));
#570=DIRECTION('ref_axis',(-0.0697564737441254,0.997564050259824,0.));
#571=DIRECTION('',(0.,0.,-1.));
#572=DIRECTION('center_axis',(0.997564050259824,0.0697564737441254,0.));
#573=DIRECTION('ref_axis',(0.0697564737441254,-0.997564050259824,0.));
#574=DIRECTION('',(-0.0697564737441254,0.997564050259824,0.));
#575=DIRECTION('',(0.,0.,1.));
#576=DIRECTION('',(-0.0697564737441254,0.997564050259824,0.));
#577=DIRECTION('center_axis',(-0.997564050259824,0.0697564737441256,0.));
#578=DIRECTION('ref_axis',(-0.0697564737441256,-0.997564050259824,0.));
#579=DIRECTION('',(0.,0.,1.));
#580=DIRECTION('',(-0.0697564737441256,-0.997564050259824,0.));
#581=DIRECTION('',(0.,0.,1.));
#582=DIRECTION('',(-0.0697564737441256,-0.997564050259824,0.));
#583=DIRECTION('center_axis',(-0.997564050259824,0.0697564737441256,0.));
#584=DIRECTION('ref_axis',(-0.0697564737441256,-0.997564050259824,0.));
#585=DIRECTION('center_axis',(0.,0.,1.));
#586=DIRECTION('ref_axis',(-0.0697564737441256,-0.997564050259824,0.));
#587=DIRECTION('center_axis',(0.,0.,1.));
#588=DIRECTION('ref_axis',(-0.0697564737441256,-0.997564050259824,0.));
#589=DIRECTION('center_axis',(0.,0.,1.));
#590=DIRECTION('ref_axis',(-0.0697564737441256,-0.997564050259824,0.));
#591=DIRECTION('center_axis',(0.,0.,1.));
#592=DIRECTION('ref_axis',(1.,0.,0.));
#593=DIRECTION('center_axis',(0.,0.,-1.));
#594=DIRECTION('ref_axis',(1.,0.,0.));
#595=DIRECTION('center_axis',(0.,0.,1.));
#596=DIRECTION('ref_axis',(1.,0.,0.));
#597=DIRECTION('center_axis',(0.,0.,1.));
#598=DIRECTION('ref_axis',(1.,0.,0.));
#599=DIRECTION('',(0.,0.,-1.));
#600=DIRECTION('center_axis',(0.,0.,-1.));
#601=DIRECTION('ref_axis',(1.,0.,0.));
#602=DIRECTION('',(0.,0.,-1.));
#603=DIRECTION('center_axis',(0.,0.,1.));
#604=DIRECTION('ref_axis',(1.,0.,0.));
#605=DIRECTION('center_axis',(0.,0.,-1.));
#606=DIRECTION('ref_axis',(1.,0.,0.));
#607=DIRECTION('',(0.,0.,1.));
#608=DIRECTION('center_axis',(0.,0.,1.));
#609=DIRECTION('ref_axis',(1.,0.,0.));
#610=DIRECTION('',(0.,0.,-1.));
#611=DIRECTION('center_axis',(0.,0.,-1.));
#612=DIRECTION('ref_axis',(1.,0.,0.));
#613=DIRECTION('',(0.,0.,1.));
#614=DIRECTION('center_axis',(0.,0.,1.));
#615=DIRECTION('ref_axis',(1.,0.,0.));
#616=DIRECTION('',(0.,0.,-1.));
#617=DIRECTION('center_axis',(0.,0.,-1.));
#618=DIRECTION('ref_axis',(1.,0.,0.));
#619=DIRECTION('',(0.,0.,1.));
#620=DIRECTION('center_axis',(0.,0.,1.));
#621=DIRECTION('ref_axis',(1.,0.,0.));
#622=DIRECTION('center_axis',(0.,0.,1.));
#623=DIRECTION('ref_axis',(1.,0.,0.));
#624=DIRECTION('center_axis',(0.,0.,-1.));
#625=DIRECTION('ref_axis',(1.,0.,0.));
#626=DIRECTION('center_axis',(0.0697564737441256,-0.997564050259824,0.));
#627=DIRECTION('ref_axis',(-0.997564050259824,-0.0697564737441256,0.));
#628=DIRECTION('center_axis',(-0.0697564737441256,-0.997564050259824,0.));
#629=DIRECTION('ref_axis',(0.997564050259824,-0.0697564737441256,0.));
#630=DIRECTION('center_axis',(-0.0697564737441256,-0.997564050259824,0.));
#631=DIRECTION('ref_axis',(0.997564050259824,-0.0697564737441256,0.));
#632=DIRECTION('',(0.997564050259824,-0.0697564737441256,0.));
#633=DIRECTION('',(0.,0.,1.));
#634=DIRECTION('',(0.997564050259824,-0.0697564737441256,0.));
#635=DIRECTION('center_axis',(0.,0.,1.));
#636=DIRECTION('ref_axis',(1.,0.,0.));
#637=DIRECTION('',(-0.997564050259824,-0.0697564737441256,0.));
#638=DIRECTION('center_axis',(0.,0.,1.));
#639=DIRECTION('ref_axis',(0.997564050259824,-0.0697564737441253,0.));
#640=DIRECTION('center_axis',(-0.0697564737441256,0.997564050259824,0.));
#641=DIRECTION('ref_axis',(-0.997564050259824,-0.0697564737441256,0.));
#642=DIRECTION('center_axis',(-0.0697564737441256,0.997564050259824,0.));
#643=DIRECTION('ref_axis',(0.997564050259824,0.0697564737441256,0.));
#644=DIRECTION('',(-0.997564050259824,-0.0697564737441256,0.));
#645=DIRECTION('',(0.,0.,1.));
#646=DIRECTION('center_axis',(0.,0.,1.));
#647=DIRECTION('ref_axis',(0.997564050259824,-0.0697564737441253,0.));
#648=DIRECTION('center_axis',(0.,0.,1.));
#649=DIRECTION('ref_axis',(0.997564050259824,-0.0697564737441253,0.));
#650=DIRECTION('center_axis',(0.,0.,1.));
#651=DIRECTION('ref_axis',(1.,0.,0.));
#652=DIRECTION('center_axis',(0.,0.,-1.));
#653=DIRECTION('ref_axis',(1.,0.,0.));
#654=DIRECTION('center_axis',(0.,0.,-1.));
#655=DIRECTION('ref_axis',(1.,0.,0.));
#656=DIRECTION('',(0.0697564737441256,0.997564050259824,0.));
#657=DIRECTION('center_axis',(0.,0.,1.));
#658=DIRECTION('ref_axis',(0.0697564737441255,0.997564050259824,0.));
#659=DIRECTION('',(0.0697564737441254,-0.997564050259824,0.));
#660=DIRECTION('center_axis',(0.,0.,-1.));
#661=DIRECTION('ref_axis',(1.,0.,0.));
#662=DIRECTION('',(-0.997564050259824,0.0697564737441256,0.));
#663=DIRECTION('center_axis',(0.,0.,1.));
#664=DIRECTION('ref_axis',(-0.997564050259824,0.0697564737441255,0.));
#665=DIRECTION('',(0.997564050259824,0.0697564737441256,0.));
#666=DIRECTION('center_axis',(0.,0.,1.));
#667=DIRECTION('ref_axis',(1.,0.,0.));
#668=DIRECTION('center_axis',(0.997564050259824,-0.0697564737441256,0.));
#669=DIRECTION('ref_axis',(0.0697564737441256,0.997564050259824,0.));
#670=DIRECTION('center_axis',(0.,0.,1.));
#671=DIRECTION('ref_axis',(1.,0.,0.));
#672=DIRECTION('center_axis',(-0.997564050259824,-0.0697564737441254,0.));
#673=DIRECTION('ref_axis',(0.0697564737441254,-0.997564050259824,0.));
#674=DIRECTION('center_axis',(-0.997564050259824,-0.0697564737441254,0.));
#675=DIRECTION('ref_axis',(-0.0697564737441254,0.997564050259824,0.));
#676=DIRECTION('',(0.,0.,1.));
#677=DIRECTION('',(0.0697564737441254,-0.997564050259824,0.));
#678=DIRECTION('center_axis',(0.997564050259824,-0.0697564737441256,0.));
#679=DIRECTION('ref_axis',(0.0697564737441256,0.997564050259824,0.));
#680=DIRECTION('',(0.0697564737441256,0.997564050259824,0.));
#681=DIRECTION('',(0.,0.,1.));
#682=DIRECTION('center_axis',(0.,0.,1.));
#683=DIRECTION('ref_axis',(0.0697564737441255,0.997564050259824,0.));
#684=DIRECTION('center_axis',(0.,0.,1.));
#685=DIRECTION('ref_axis',(0.0697564737441255,0.997564050259824,0.));
#686=DIRECTION('center_axis',(0.,0.,1.));
#687=DIRECTION('ref_axis',(1.,0.,0.));
#688=DIRECTION('center_axis',(0.0697564737441256,0.997564050259824,0.));
#689=DIRECTION('ref_axis',(-0.997564050259824,0.0697564737441256,0.));
#690=DIRECTION('center_axis',(0.0697564737441256,0.997564050259824,0.));
#691=DIRECTION('ref_axis',(-0.997564050259824,0.0697564737441256,0.));
#692=DIRECTION('',(-0.997564050259824,0.0697564737441256,0.));
#693=DIRECTION('',(0.,0.,1.));
#694=DIRECTION('center_axis',(0.,0.,1.));
#695=DIRECTION('ref_axis',(1.,0.,0.));
#696=DIRECTION('',(0.997564050259824,0.0697564737441256,0.));
#697=DIRECTION('center_axis',(0.,0.,1.));
#698=DIRECTION('ref_axis',(-0.997564050259824,0.0697564737441255,0.));
#699=DIRECTION('center_axis',(0.0697564737441256,-0.997564050259824,0.));
#700=DIRECTION('ref_axis',(0.997564050259824,0.0697564737441256,0.));
#701=DIRECTION('',(0.,0.,1.));
#702=DIRECTION('center_axis',(0.,0.,1.));
#703=DIRECTION('ref_axis',(-0.997564050259824,0.0697564737441255,0.));
#704=DIRECTION('center_axis',(0.,0.,1.));
#705=DIRECTION('ref_axis',(1.,0.,0.));
#706=DIRECTION('center_axis',(0.,0.,1.));
#707=DIRECTION('ref_axis',(1.,0.,0.));
#708=CARTESIAN_POINT('',(0.,0.,0.));
#709=CARTESIAN_POINT('Origin',(0.,39.875,0.));
#710=CARTESIAN_POINT('',(-9.,39.875,0.));
#711=CARTESIAN_POINT('Origin',(0.,39.875,0.));
#712=CARTESIAN_POINT('',(-9.,39.875,3.));
#713=CARTESIAN_POINT('',(-9.,39.875,0.));
#714=CARTESIAN_POINT('Origin',(0.,39.875,3.));
#715=CARTESIAN_POINT('Origin',(0.,-39.875,0.));
#716=CARTESIAN_POINT('',(-9.,-39.875,0.));
#717=CARTESIAN_POINT('Origin',(0.,-39.875,0.));
#718=CARTESIAN_POINT('',(-9.,-39.875,3.));
#719=CARTESIAN_POINT('',(-9.,-39.875,0.));
#720=CARTESIAN_POINT('Origin',(0.,-39.875,3.));
#721=CARTESIAN_POINT('Origin',(5.14105211494203,-73.520470504149,1.9));
#722=CARTESIAN_POINT('',(5.03641740432584,-72.0241244287593,2.5));
#723=CARTESIAN_POINT('',(5.03641740432584,-72.0241244287593,1.9));
#724=CARTESIAN_POINT('',(5.03641740432584,-72.0241244287593,0.));
#725=CARTESIAN_POINT('',(5.00153916745378,-71.5253424036294,3.));
#726=CARTESIAN_POINT('Origin',(5.00153916745379,-71.5253424036294,2.5));
#727=CARTESIAN_POINT('',(5.14105211494203,-73.520470504149,3.));
#728=CARTESIAN_POINT('',(5.14105211494203,-73.520470504149,3.));
#729=CARTESIAN_POINT('',(5.14105211494203,-73.520470504149,1.9));
#730=CARTESIAN_POINT('',(5.14105211494203,-73.520470504149,1.9));
#731=CARTESIAN_POINT('',(5.14105211494203,-73.520470504149,1.9));
#732=CARTESIAN_POINT('Origin',(-4.96666093058174,-71.0265603784995,1.9));
#733=CARTESIAN_POINT('',(-5.03641740432587,-72.0241244287593,1.9));
#734=CARTESIAN_POINT('',(-5.03641740432587,-72.0241244287593,2.5));
#735=CARTESIAN_POINT('',(-5.03641740432587,-72.0241244287593,0.));
#736=CARTESIAN_POINT('',(-5.14105211494206,-73.520470504149,1.9));
#737=CARTESIAN_POINT('',(-4.96666093058174,-71.0265603784995,1.9));
#738=CARTESIAN_POINT('',(-5.14105211494206,-73.520470504149,3.));
#739=CARTESIAN_POINT('',(-5.14105211494206,-73.520470504149,1.9));
#740=CARTESIAN_POINT('',(-5.0015391674538,-71.5253424036294,3.));
#741=CARTESIAN_POINT('',(-4.96666093058174,-71.0265603784995,3.));
#742=CARTESIAN_POINT('Origin',(-5.0015391674538,-71.5253424036294,2.5));
#743=CARTESIAN_POINT('Origin',(0.,0.,1.9));
#744=CARTESIAN_POINT('Origin',(0.,0.,1.9));
#745=CARTESIAN_POINT('Origin',(0.,0.,3.));
#746=CARTESIAN_POINT('Origin',(-4.44089209850063E-15,-72.3632801892497,
1.9));
#747=CARTESIAN_POINT('Origin',(0.,0.,1.9));
#748=CARTESIAN_POINT('Origin',(0.,0.,0.));
#749=CARTESIAN_POINT('',(-72.0241244287593,-5.03641740432584,2.5));
#750=CARTESIAN_POINT('Origin',(0.,0.,2.5));
#751=CARTESIAN_POINT('',(-72.0241244287593,-5.03641740432584,1.9));
#752=CARTESIAN_POINT('',(-72.0241244287593,-5.03641740432584,0.));
#753=CARTESIAN_POINT('',(-72.2,-8.84194988984389E-15,1.9));
#754=CARTESIAN_POINT('Origin',(0.,0.,1.9));
#755=CARTESIAN_POINT('',(-72.2,-8.84194988984389E-15,0.));
#756=CARTESIAN_POINT('',(-72.2,-8.84194988984389E-15,0.));
#757=CARTESIAN_POINT('Origin',(0.,0.,0.));
#758=CARTESIAN_POINT('',(-72.0241244287593,5.03641740432586,1.9));
#759=CARTESIAN_POINT('Origin',(0.,0.,1.9));
#760=CARTESIAN_POINT('',(-72.0241244287593,5.03641740432586,2.5));
#761=CARTESIAN_POINT('',(-72.0241244287593,5.03641740432586,0.));
#762=CARTESIAN_POINT('',(-5.03641740432583,72.0241244287593,2.5));
#763=CARTESIAN_POINT('Origin',(0.,0.,2.5));
#764=CARTESIAN_POINT('',(-5.03641740432583,72.0241244287593,1.9));
#765=CARTESIAN_POINT('',(-5.03641740432583,72.0241244287593,0.));
#766=CARTESIAN_POINT('',(5.03641740432586,72.0241244287593,1.9));
#767=CARTESIAN_POINT('Origin',(0.,0.,1.9));
#768=CARTESIAN_POINT('',(5.03641740432586,72.0241244287593,2.5));
#769=CARTESIAN_POINT('',(5.03641740432586,72.0241244287593,0.));
#770=CARTESIAN_POINT('',(72.0241244287593,5.03641740432585,2.5));
#771=CARTESIAN_POINT('Origin',(0.,0.,2.5));
#772=CARTESIAN_POINT('',(72.0241244287593,5.03641740432585,1.9));
#773=CARTESIAN_POINT('',(72.0241244287593,5.03641740432585,0.));
#774=CARTESIAN_POINT('',(72.0241244287593,-5.03641740432585,1.9));
#775=CARTESIAN_POINT('Origin',(0.,0.,1.9));
#776=CARTESIAN_POINT('',(72.0241244287593,-5.03641740432585,2.5));
#777=CARTESIAN_POINT('',(72.0241244287593,-5.03641740432585,0.));
#778=CARTESIAN_POINT('Origin',(0.,0.,2.5));
#779=CARTESIAN_POINT('Origin',(0.,0.,2.5));
#780=CARTESIAN_POINT('',(-71.5253424036294,-5.00153916745378,3.));
#781=CARTESIAN_POINT('Origin',(0.,0.,3.));
#782=CARTESIAN_POINT('Origin',(-71.5253424036294,-5.0015391674538,2.5));
#783=CARTESIAN_POINT('Origin',(71.0265603784995,-4.96666093058172,1.9));
#784=CARTESIAN_POINT('',(71.5253424036294,-5.00153916745378,3.));
#785=CARTESIAN_POINT('Origin',(71.5253424036294,-5.0015391674538,2.5));
#786=CARTESIAN_POINT('',(73.520470504149,-5.14105211494203,1.9));
#787=CARTESIAN_POINT('',(71.0265603784995,-4.96666093058172,1.9));
#788=CARTESIAN_POINT('',(73.520470504149,-5.14105211494203,3.));
#789=CARTESIAN_POINT('',(73.520470504149,-5.14105211494203,1.9));
#790=CARTESIAN_POINT('',(71.0265603784995,-4.96666093058172,3.));
#791=CARTESIAN_POINT('Origin',(72.3632801892497,1.55431223447522E-14,1.9));
#792=CARTESIAN_POINT('',(73.520470504149,5.14105211494203,1.9));
#793=CARTESIAN_POINT('',(73.520470504149,5.14105211494203,1.9));
#794=CARTESIAN_POINT('Origin',(0.,0.,1.9));
#795=CARTESIAN_POINT('Origin',(73.520470504149,5.14105211494203,1.9));
#796=CARTESIAN_POINT('',(71.5253424036294,5.00153916745378,3.));
#797=CARTESIAN_POINT('Origin',(71.5253424036294,5.0015391674538,2.5));
#798=CARTESIAN_POINT('',(73.520470504149,5.14105211494203,3.));
#799=CARTESIAN_POINT('',(73.520470504149,5.14105211494203,3.));
#800=CARTESIAN_POINT('',(73.520470504149,5.14105211494203,1.9));
#801=CARTESIAN_POINT('Origin',(0.,0.,1.9));
#802=CARTESIAN_POINT('Origin',(0.,0.,3.));
#803=CARTESIAN_POINT('Origin',(0.,0.,3.));
#804=CARTESIAN_POINT('Origin',(0.,0.,3.));
#805=CARTESIAN_POINT('',(5.00153916745379,71.5253424036294,3.));
#806=CARTESIAN_POINT('Origin',(0.,0.,3.));
#807=CARTESIAN_POINT('',(5.14105211494205,73.520470504149,3.));
#808=CARTESIAN_POINT('',(4.96666093058173,71.0265603784995,3.));
#809=CARTESIAN_POINT('',(-5.14105211494202,73.520470504149,3.));
#810=CARTESIAN_POINT('Origin',(0.,0.,3.));
#811=CARTESIAN_POINT('',(-5.00153916745377,71.5253424036294,3.));
#812=CARTESIAN_POINT('',(-5.14105211494202,73.520470504149,3.));
#813=CARTESIAN_POINT('',(-71.5253424036294,5.0015391674538,3.));
#814=CARTESIAN_POINT('Origin',(0.,0.,3.));
#815=CARTESIAN_POINT('',(-73.520470504149,5.14105211494205,3.));
#816=CARTESIAN_POINT('',(-71.0265603784995,4.96666093058174,3.));
#817=CARTESIAN_POINT('',(-73.520470504149,-5.14105211494203,3.));
#818=CARTESIAN_POINT('Origin',(0.,0.,3.));
#819=CARTESIAN_POINT('',(-73.520470504149,-5.14105211494203,3.));
#820=CARTESIAN_POINT('Origin',(0.,0.,2.5));
#821=CARTESIAN_POINT('Origin',(5.0015391674538,71.5253424036294,2.5));
#822=CARTESIAN_POINT('Origin',(0.,0.,2.5));
#823=CARTESIAN_POINT('Origin',(-5.14105211494202,73.520470504149,1.9));
#824=CARTESIAN_POINT('Origin',(-5.00153916745379,71.5253424036294,2.5));
#825=CARTESIAN_POINT('',(-5.14105211494202,73.520470504149,1.9));
#826=CARTESIAN_POINT('',(-5.14105211494202,73.520470504149,1.9));
#827=CARTESIAN_POINT('',(-5.14105211494202,73.520470504149,1.9));
#828=CARTESIAN_POINT('Origin',(4.96666093058173,71.0265603784995,1.9));
#829=CARTESIAN_POINT('',(5.14105211494205,73.520470504149,1.9));
#830=CARTESIAN_POINT('',(4.96666093058173,71.0265603784995,1.9));
#831=CARTESIAN_POINT('',(5.14105211494205,73.520470504149,1.9));
#832=CARTESIAN_POINT('Origin',(0.,0.,1.9));
#833=CARTESIAN_POINT('Origin',(0.,0.,1.9));
#834=CARTESIAN_POINT('Origin',(-4.44089209850063E-15,72.3632801892497,1.9));
#835=CARTESIAN_POINT('Origin',(-71.0265603784995,4.96666093058174,1.9));
#836=CARTESIAN_POINT('Origin',(-71.5253424036294,5.0015391674538,2.5));
#837=CARTESIAN_POINT('',(-73.520470504149,5.14105211494205,1.9));
#838=CARTESIAN_POINT('',(-71.0265603784995,4.96666093058174,1.9));
#839=CARTESIAN_POINT('',(-73.520470504149,5.14105211494205,1.9));
#840=CARTESIAN_POINT('Origin',(-72.3632801892497,0.,1.9));
#841=CARTESIAN_POINT('',(-73.520470504149,-5.14105211494203,1.9));
#842=CARTESIAN_POINT('',(-73.520470504149,-5.14105211494203,1.9));
#843=CARTESIAN_POINT('Origin',(0.,0.,1.9));
#844=CARTESIAN_POINT('Origin',(-73.520470504149,-5.14105211494203,1.9));
#845=CARTESIAN_POINT('',(-73.520470504149,-5.14105211494203,1.9));
#846=CARTESIAN_POINT('Origin',(0.,0.,1.9));
#847=CARTESIAN_POINT('Origin',(0.,0.,2.5));
#848=CARTESIAN_POINT('Origin',(0.,0.,0.));
#849=UNCERTAINTY_MEASURE_WITH_UNIT(LENGTH_MEASURE(0.01),#853,
'DISTANCE_ACCURACY_VALUE',
'Maximum model space distance between geometric entities at asserted c
onnectivities');
#850=UNCERTAINTY_MEASURE_WITH_UNIT(LENGTH_MEASURE(0.01),#853,
'DISTANCE_ACCURACY_VALUE',
'Maximum model space distance between geometric entities at asserted c
onnectivities');
#851=(
GEOMETRIC_REPRESENTATION_CONTEXT(3)
GLOBAL_UNCERTAINTY_ASSIGNED_CONTEXT((#849))
GLOBAL_UNIT_ASSIGNED_CONTEXT((#853,#855,#856))
REPRESENTATION_CONTEXT('','3D')
);
#852=(
GEOMETRIC_REPRESENTATION_CONTEXT(3)
GLOBAL_UNCERTAINTY_ASSIGNED_CONTEXT((#850))
GLOBAL_UNIT_ASSIGNED_CONTEXT((#853,#855,#856))
REPRESENTATION_CONTEXT('','3D')
);
#853=(
LENGTH_UNIT()
NAMED_UNIT(*)
SI_UNIT(.MILLI.,.METRE.)
);
#854=(
LENGTH_UNIT()
NAMED_UNIT(*)
SI_UNIT($,.METRE.)
);
#855=(
NAMED_UNIT(*)
PLANE_ANGLE_UNIT()
SI_UNIT($,.RADIAN.)
);
#856=(
NAMED_UNIT(*)
SI_UNIT($,.STERADIAN.)
SOLID_ANGLE_UNIT()
);
#857=SHAPE_DEFINITION_REPRESENTATION(#858,#859);
#858=PRODUCT_DEFINITION_SHAPE('',$,#861);
#859=SHAPE_REPRESENTATION('',(#493),#851);
#860=PRODUCT_DEFINITION_CONTEXT('part definition',#865,'design');
#861=PRODUCT_DEFINITION('al-base-plate-deckel',
'al-base-plate-deckel v1',#862,#860);
#862=PRODUCT_DEFINITION_FORMATION('',$,#867);
#863=PRODUCT_RELATED_PRODUCT_CATEGORY('al-base-plate-deckel v1',
'al-base-plate-deckel v1',(#867));
#864=APPLICATION_PROTOCOL_DEFINITION('international standard',
'automotive_design',2009,#865);
#865=APPLICATION_CONTEXT(
'Core Data for Automotive Mechanical Design Process');
#866=PRODUCT_CONTEXT('part definition',#865,'mechanical');
#867=PRODUCT('al-base-plate-deckel','al-base-plate-deckel v1',$,(#866));
#868=PRESENTATION_STYLE_ASSIGNMENT((#869));
#869=SURFACE_STYLE_USAGE(.BOTH.,#870);
#870=SURFACE_SIDE_STYLE('',(#871));
#871=SURFACE_STYLE_FILL_AREA(#872);
#872=FILL_AREA_STYLE('Stahl - satiniert',(#873));
#873=FILL_AREA_STYLE_COLOUR('Stahl - satiniert',#874);
#874=COLOUR_RGB('Stahl - satiniert',0.627450980392157,0.627450980392157,
0.627450980392157);
ENDSEC;
END-ISO-10303-21;
