ISO-10303-21;
HEADER;
/* Generated by software containing ST-Developer
 * from STEP Tools, Inc. (www.steptools.com) 
 */

FILE_DESCRIPTION(
/* description */ (''),
/* implementation_level */ '2;1');

FILE_NAME(
/* name */ 'al-base-plate-base.step',
/* time_stamp */ '2026-08-19T18:49:23+02:00',
/* author */ (''),
/* organization */ (''),
/* preprocessor_version */ 'ST-DEVELOPER v20.1',
/* originating_system */ 'Autodesk Translation Framework v15.8.0.0',
/* authorisation */ '');

FILE_SCHEMA (('AUTOMOTIVE_DESIGN { 1 0 10303 214 3 1 1 }'));
ENDSEC;

DATA;
#10=MECHANICAL_DESIGN_GEOMETRIC_PRESENTATION_REPRESENTATION('',(#13),#1563);
#11=SHAPE_REPRESENTATION_RELATIONSHIP('SRR','None',#1570,#12);
#12=ADVANCED_BREP_SHAPE_REPRESENTATION('',(#14),#1562);
#13=STYLED_ITEM('',(#1579),#14);
#14=MANIFOLD_SOLID_BREP('K\X\F6rper1',#814);
#15=TOROIDAL_SURFACE('',#921,78.,2.);
#16=FACE_BOUND('',#168,.T.);
#17=FACE_BOUND('',#171,.T.);
#18=FACE_BOUND('',#173,.T.);
#19=B_SPLINE_SURFACE_WITH_KNOTS('',3,3,((#1398,#1399,#1400,#1401,#1402,
#1403,#1404,#1405,#1406,#1407,#1408,#1409,#1410,#1411,#1412,#1413,#1414,
#1415,#1416,#1417,#1418,#1419,#1420),(#1421,#1422,#1423,#1424,#1425,#1426,
#1427,#1428,#1429,#1430,#1431,#1432,#1433,#1434,#1435,#1436,#1437,#1438,
#1439,#1440,#1441,#1442,#1443),(#1444,#1445,#1446,#1447,#1448,#1449,#1450,
#1451,#1452,#1453,#1454,#1455,#1456,#1457,#1458,#1459,#1460,#1461,#1462,
#1463,#1464,#1465,#1466),(#1467,#1468,#1469,#1470,#1471,#1472,#1473,#1474,
#1475,#1476,#1477,#1478,#1479,#1480,#1481,#1482,#1483,#1484,#1485,#1486,
#1487,#1488,#1489),(#1490,#1491,#1492,#1493,#1494,#1495,#1496,#1497,#1498,
#1499,#1500,#1501,#1502,#1503,#1504,#1505,#1506,#1507,#1508,#1509,#1510,
#1511,#1512),(#1513,#1514,#1515,#1516,#1517,#1518,#1519,#1520,#1521,#1522,
#1523,#1524,#1525,#1526,#1527,#1528,#1529,#1530,#1531,#1532,#1533,#1534,
#1535)),.UNSPECIFIED.,.F.,.T.,.F.,(4,1,1,4),(4,1,1,1,1,1,1,1,1,1,1,1,1,
1,1,1,1,1,1,1,4),(0.,0.285714285714286,0.571428571428571,1.),(-3.14159265358979,
-2.69279370307697,-2.24399475256414,-1.79519580205131,-1.34639685153848,
-1.0471975511966,-0.448798950512828,-0.411399037970092,-0.373999125427356,
-0.299199300341885,-0.224399475256414,-0.149599650170943,2.77555756156289E-17,
0.448798950512828,0.747998250854713,1.0471975511966,1.34639685153848,1.64559615188037,
2.24399475256414,2.69279370307697,3.14159265358979),.UNSPECIFIED.);
#20=ELLIPSE('',#860,165.469030334984,74.);
#21=ELLIPSE('',#863,165.469030334984,74.);
#22=ELLIPSE('',#871,178.885438199983,80.);
#23=ELLIPSE('',#872,40.6663251351779,15.75);
#24=ELLIPSE('',#886,18.1865334794732,15.75);
#25=ELLIPSE('',#887,18.1865334794732,15.75);
#26=ELLIPSE('',#889,40.6663251351779,15.75);
#27=ELLIPSE('',#890,178.885438199983,80.);
#28=ELLIPSE('',#893,25.7196422992234,15.75);
#29=ELLIPSE('',#894,18.1865334794732,15.75);
#30=ELLIPSE('',#895,25.7196422992234,15.75);
#31=ELLIPSE('',#897,113.137084989848,80.);
#32=ELLIPSE('',#901,113.137084989848,80.);
#33=ELLIPSE('',#909,27.7848879788996,23.);
#34=ELLIPSE('',#910,27.7848879788996,23.);
#35=ELLIPSE('',#911,31.1769145362398,27.);
#36=CYLINDRICAL_SURFACE('',#845,74.);
#37=CYLINDRICAL_SURFACE('',#849,74.);
#38=CYLINDRICAL_SURFACE('',#853,74.);
#39=CYLINDRICAL_SURFACE('',#858,74.);
#40=CYLINDRICAL_SURFACE('',#862,74.);
#41=CYLINDRICAL_SURFACE('',#873,72.5);
#42=CYLINDRICAL_SURFACE('',#876,72.5);
#43=CYLINDRICAL_SURFACE('',#879,72.5);
#44=CYLINDRICAL_SURFACE('',#882,72.5);
#45=CYLINDRICAL_SURFACE('',#891,15.75);
#46=CYLINDRICAL_SURFACE('',#906,80.);
#47=CYLINDRICAL_SURFACE('',#912,23.);
#48=CYLINDRICAL_SURFACE('',#916,20.);
#49=CIRCLE('',#830,74.);
#50=CIRCLE('',#831,72.5);
#51=CIRCLE('',#834,74.);
#52=CIRCLE('',#835,72.5);
#53=CIRCLE('',#838,74.);
#54=CIRCLE('',#839,72.5);
#55=CIRCLE('',#842,74.);
#56=CIRCLE('',#843,72.5);
#57=CIRCLE('',#846,74.);
#58=CIRCLE('',#847,74.);
#59=CIRCLE('',#850,74.);
#60=CIRCLE('',#851,74.);
#61=CIRCLE('',#854,74.);
#62=CIRCLE('',#855,74.);
#63=CIRCLE('',#859,74.);
#64=CIRCLE('',#861,74.);
#65=CIRCLE('',#864,74.);
#66=CIRCLE('',#865,74.);
#67=CIRCLE('',#874,72.5);
#68=CIRCLE('',#875,72.5);
#69=CIRCLE('',#877,72.5);
#70=CIRCLE('',#878,72.5);
#71=CIRCLE('',#880,72.5);
#72=CIRCLE('',#881,72.5);
#73=CIRCLE('',#883,72.5);
#74=CIRCLE('',#884,72.5);
#75=CIRCLE('',#892,15.75);
#76=CIRCLE('',#899,80.);
#77=CIRCLE('',#904,80.);
#78=CIRCLE('',#905,80.);
#79=CIRCLE('',#907,80.);
#80=CIRCLE('',#908,4.00000000000001);
#81=CIRCLE('',#913,23.);
#82=CIRCLE('',#915,78.);
#83=CIRCLE('',#917,20.);
#84=CIRCLE('',#918,20.);
#85=CIRCLE('',#922,2.);
#86=FACE_OUTER_BOUND('',#129,.T.);
#87=FACE_OUTER_BOUND('',#130,.T.);
#88=FACE_OUTER_BOUND('',#131,.T.);
#89=FACE_OUTER_BOUND('',#132,.T.);
#90=FACE_OUTER_BOUND('',#133,.T.);
#91=FACE_OUTER_BOUND('',#134,.T.);
#92=FACE_OUTER_BOUND('',#135,.T.);
#93=FACE_OUTER_BOUND('',#136,.T.);
#94=FACE_OUTER_BOUND('',#137,.T.);
#95=FACE_OUTER_BOUND('',#138,.T.);
#96=FACE_OUTER_BOUND('',#139,.T.);
#97=FACE_OUTER_BOUND('',#140,.T.);
#98=FACE_OUTER_BOUND('',#141,.T.);
#99=FACE_OUTER_BOUND('',#142,.T.);
#100=FACE_OUTER_BOUND('',#143,.T.);
#101=FACE_OUTER_BOUND('',#144,.T.);
#102=FACE_OUTER_BOUND('',#145,.T.);
#103=FACE_OUTER_BOUND('',#146,.T.);
#104=FACE_OUTER_BOUND('',#147,.T.);
#105=FACE_OUTER_BOUND('',#148,.T.);
#106=FACE_OUTER_BOUND('',#149,.T.);
#107=FACE_OUTER_BOUND('',#150,.T.);
#108=FACE_OUTER_BOUND('',#151,.T.);
#109=FACE_OUTER_BOUND('',#152,.T.);
#110=FACE_OUTER_BOUND('',#153,.T.);
#111=FACE_OUTER_BOUND('',#154,.T.);
#112=FACE_OUTER_BOUND('',#155,.T.);
#113=FACE_OUTER_BOUND('',#156,.T.);
#114=FACE_OUTER_BOUND('',#157,.T.);
#115=FACE_OUTER_BOUND('',#158,.T.);
#116=FACE_OUTER_BOUND('',#159,.T.);
#117=FACE_OUTER_BOUND('',#160,.T.);
#118=FACE_OUTER_BOUND('',#161,.T.);
#119=FACE_OUTER_BOUND('',#162,.T.);
#120=FACE_OUTER_BOUND('',#163,.T.);
#121=FACE_OUTER_BOUND('',#164,.T.);
#122=FACE_OUTER_BOUND('',#165,.T.);
#123=FACE_OUTER_BOUND('',#166,.T.);
#124=FACE_OUTER_BOUND('',#167,.T.);
#125=FACE_OUTER_BOUND('',#169,.T.);
#126=FACE_OUTER_BOUND('',#170,.T.);
#127=FACE_OUTER_BOUND('',#172,.T.);
#128=FACE_OUTER_BOUND('',#174,.T.);
#129=EDGE_LOOP('',(#505,#506,#507,#508));
#130=EDGE_LOOP('',(#509,#510,#511,#512));
#131=EDGE_LOOP('',(#513,#514,#515,#516));
#132=EDGE_LOOP('',(#517,#518,#519,#520));
#133=EDGE_LOOP('',(#521,#522,#523,#524));
#134=EDGE_LOOP('',(#525,#526,#527,#528));
#135=EDGE_LOOP('',(#529,#530,#531,#532));
#136=EDGE_LOOP('',(#533,#534,#535,#536));
#137=EDGE_LOOP('',(#537,#538,#539,#540));
#138=EDGE_LOOP('',(#541,#542,#543,#544,#545,#546));
#139=EDGE_LOOP('',(#547,#548,#549,#550));
#140=EDGE_LOOP('',(#551,#552,#553,#554,#555,#556));
#141=EDGE_LOOP('',(#557,#558,#559,#560));
#142=EDGE_LOOP('',(#561,#562,#563,#564,#565,#566));
#143=EDGE_LOOP('',(#567,#568,#569,#570));
#144=EDGE_LOOP('',(#571,#572,#573,#574));
#145=EDGE_LOOP('',(#575,#576,#577,#578,#579,#580,#581));
#146=EDGE_LOOP('',(#582,#583,#584,#585,#586));
#147=EDGE_LOOP('',(#587,#588,#589,#590));
#148=EDGE_LOOP('',(#591,#592,#593,#594));
#149=EDGE_LOOP('',(#595,#596,#597,#598));
#150=EDGE_LOOP('',(#599,#600,#601,#602));
#151=EDGE_LOOP('',(#603,#604,#605,#606,#607,#608));
#152=EDGE_LOOP('',(#609,#610,#611,#612,#613,#614));
#153=EDGE_LOOP('',(#615,#616,#617,#618,#619,#620));
#154=EDGE_LOOP('',(#621,#622,#623,#624,#625,#626));
#155=EDGE_LOOP('',(#627,#628,#629,#630,#631,#632));
#156=EDGE_LOOP('',(#633,#634,#635,#636,#637,#638,#639,#640,#641,#642,#643,
#644,#645,#646,#647,#648,#649,#650,#651,#652,#653));
#157=EDGE_LOOP('',(#654,#655,#656,#657,#658,#659));
#158=EDGE_LOOP('',(#660,#661,#662,#663,#664,#665,#666,#667,#668,#669));
#159=EDGE_LOOP('',(#670,#671,#672,#673));
#160=EDGE_LOOP('',(#674,#675,#676,#677));
#161=EDGE_LOOP('',(#678,#679,#680,#681));
#162=EDGE_LOOP('',(#682,#683,#684,#685));
#163=EDGE_LOOP('',(#686,#687,#688,#689,#690,#691,#692,#693,#694,#695,#696,
#697,#698,#699,#700,#701,#702,#703,#704,#705,#706));
#164=EDGE_LOOP('',(#707,#708,#709,#710,#711,#712,#713,#714,#715,#716,#717,
#718));
#165=EDGE_LOOP('',(#719,#720,#721,#722,#723));
#166=EDGE_LOOP('',(#724,#725,#726,#727,#728));
#167=EDGE_LOOP('',(#729));
#168=EDGE_LOOP('',(#730));
#169=EDGE_LOOP('',(#731,#732,#733,#734));
#170=EDGE_LOOP('',(#735));
#171=EDGE_LOOP('',(#736));
#172=EDGE_LOOP('',(#737));
#173=EDGE_LOOP('',(#738));
#174=EDGE_LOOP('',(#739,#740,#741,#742));
#175=LINE('',#1185,#241);
#176=LINE('',#1187,#242);
#177=LINE('',#1189,#243);
#178=LINE('',#1190,#244);
#179=LINE('',#1194,#245);
#180=LINE('',#1200,#246);
#181=LINE('',#1202,#247);
#182=LINE('',#1204,#248);
#183=LINE('',#1205,#249);
#184=LINE('',#1209,#250);
#185=LINE('',#1215,#251);
#186=LINE('',#1217,#252);
#187=LINE('',#1219,#253);
#188=LINE('',#1220,#254);
#189=LINE('',#1224,#255);
#190=LINE('',#1230,#256);
#191=LINE('',#1232,#257);
#192=LINE('',#1234,#258);
#193=LINE('',#1235,#259);
#194=LINE('',#1239,#260);
#195=LINE('',#1245,#261);
#196=LINE('',#1247,#262);
#197=LINE('',#1249,#263);
#198=LINE('',#1250,#264);
#199=LINE('',#1253,#265);
#200=LINE('',#1259,#266);
#201=LINE('',#1261,#267);
#202=LINE('',#1263,#268);
#203=LINE('',#1264,#269);
#204=LINE('',#1267,#270);
#205=LINE('',#1273,#271);
#206=LINE('',#1275,#272);
#207=LINE('',#1277,#273);
#208=LINE('',#1278,#274);
#209=LINE('',#1281,#275);
#210=LINE('',#1286,#276);
#211=LINE('',#1287,#277);
#212=LINE('',#1290,#278);
#213=LINE('',#1291,#279);
#214=LINE('',#1294,#280);
#215=LINE('',#1298,#281);
#216=LINE('',#1307,#282);
#217=LINE('',#1311,#283);
#218=LINE('',#1315,#284);
#219=LINE('',#1317,#285);
#220=LINE('',#1318,#286);
#221=LINE('',#1321,#287);
#222=LINE('',#1322,#288);
#223=LINE('',#1325,#289);
#224=LINE('',#1326,#290);
#225=LINE('',#1329,#291);
#226=LINE('',#1331,#292);
#227=LINE('',#1332,#293);
#228=LINE('',#1335,#294);
#229=LINE('',#1337,#295);
#230=LINE('',#1341,#296);
#231=LINE('',#1360,#297);
#232=LINE('',#1365,#298);
#233=LINE('',#1370,#299);
#234=LINE('',#1378,#300);
#235=LINE('',#1382,#301);
#236=LINE('',#1388,#302);
#237=LINE('',#1389,#303);
#238=LINE('',#1397,#304);
#239=LINE('',#1545,#305);
#240=LINE('',#1554,#306);
#241=VECTOR('',#927,10.);
#242=VECTOR('',#928,10.);
#243=VECTOR('',#929,10.);
#244=VECTOR('',#930,10.);
#245=VECTOR('',#933,10.);
#246=VECTOR('',#940,10.);
#247=VECTOR('',#941,10.);
#248=VECTOR('',#942,10.);
#249=VECTOR('',#943,10.);
#250=VECTOR('',#946,10.);
#251=VECTOR('',#953,10.);
#252=VECTOR('',#954,10.);
#253=VECTOR('',#955,10.);
#254=VECTOR('',#956,10.);
#255=VECTOR('',#959,10.);
#256=VECTOR('',#966,10.);
#257=VECTOR('',#967,10.);
#258=VECTOR('',#968,10.);
#259=VECTOR('',#969,10.);
#260=VECTOR('',#972,10.);
#261=VECTOR('',#979,10.);
#262=VECTOR('',#980,10.);
#263=VECTOR('',#981,10.);
#264=VECTOR('',#982,10.);
#265=VECTOR('',#985,10.);
#266=VECTOR('',#992,10.);
#267=VECTOR('',#993,10.);
#268=VECTOR('',#994,10.);
#269=VECTOR('',#995,10.);
#270=VECTOR('',#998,10.);
#271=VECTOR('',#1005,10.);
#272=VECTOR('',#1006,10.);
#273=VECTOR('',#1007,10.);
#274=VECTOR('',#1008,10.);
#275=VECTOR('',#1011,10.);
#276=VECTOR('',#1018,10.);
#277=VECTOR('',#1019,10.);
#278=VECTOR('',#1022,10.);
#279=VECTOR('',#1023,10.);
#280=VECTOR('',#1026,10.);
#281=VECTOR('',#1029,10.);
#282=VECTOR('',#1038,10.);
#283=VECTOR('',#1041,10.);
#284=VECTOR('',#1046,10.);
#285=VECTOR('',#1047,10.);
#286=VECTOR('',#1048,10.);
#287=VECTOR('',#1051,10.);
#288=VECTOR('',#1052,10.);
#289=VECTOR('',#1055,10.);
#290=VECTOR('',#1056,10.);
#291=VECTOR('',#1059,10.);
#292=VECTOR('',#1060,10.);
#293=VECTOR('',#1061,10.);
#294=VECTOR('',#1064,10.);
#295=VECTOR('',#1065,10.);
#296=VECTOR('',#1068,10.);
#297=VECTOR('',#1101,10.);
#298=VECTOR('',#1106,10.);
#299=VECTOR('',#1113,15.75);
#300=VECTOR('',#1122,10.);
#301=VECTOR('',#1127,10.);
#302=VECTOR('',#1136,10.);
#303=VECTOR('',#1137,10.);
#304=VECTOR('',#1148,80.);
#305=VECTOR('',#1159,23.);
#306=VECTOR('',#1170,20.);
#307=VERTEX_POINT('',#1183);
#308=VERTEX_POINT('',#1184);
#309=VERTEX_POINT('',#1186);
#310=VERTEX_POINT('',#1188);
#311=VERTEX_POINT('',#1192);
#312=VERTEX_POINT('',#1193);
#313=VERTEX_POINT('',#1198);
#314=VERTEX_POINT('',#1199);
#315=VERTEX_POINT('',#1201);
#316=VERTEX_POINT('',#1203);
#317=VERTEX_POINT('',#1207);
#318=VERTEX_POINT('',#1208);
#319=VERTEX_POINT('',#1213);
#320=VERTEX_POINT('',#1214);
#321=VERTEX_POINT('',#1216);
#322=VERTEX_POINT('',#1218);
#323=VERTEX_POINT('',#1222);
#324=VERTEX_POINT('',#1223);
#325=VERTEX_POINT('',#1228);
#326=VERTEX_POINT('',#1229);
#327=VERTEX_POINT('',#1231);
#328=VERTEX_POINT('',#1233);
#329=VERTEX_POINT('',#1237);
#330=VERTEX_POINT('',#1238);
#331=VERTEX_POINT('',#1243);
#332=VERTEX_POINT('',#1244);
#333=VERTEX_POINT('',#1246);
#334=VERTEX_POINT('',#1248);
#335=VERTEX_POINT('',#1252);
#336=VERTEX_POINT('',#1257);
#337=VERTEX_POINT('',#1258);
#338=VERTEX_POINT('',#1260);
#339=VERTEX_POINT('',#1262);
#340=VERTEX_POINT('',#1266);
#341=VERTEX_POINT('',#1271);
#342=VERTEX_POINT('',#1272);
#343=VERTEX_POINT('',#1274);
#344=VERTEX_POINT('',#1276);
#345=VERTEX_POINT('',#1280);
#346=VERTEX_POINT('',#1285);
#347=VERTEX_POINT('',#1289);
#348=VERTEX_POINT('',#1293);
#349=VERTEX_POINT('',#1295);
#350=VERTEX_POINT('',#1297);
#351=VERTEX_POINT('',#1299);
#352=VERTEX_POINT('',#1303);
#353=VERTEX_POINT('',#1304);
#354=VERTEX_POINT('',#1306);
#355=VERTEX_POINT('',#1308);
#356=VERTEX_POINT('',#1310);
#357=VERTEX_POINT('',#1314);
#358=VERTEX_POINT('',#1316);
#359=VERTEX_POINT('',#1320);
#360=VERTEX_POINT('',#1324);
#361=VERTEX_POINT('',#1328);
#362=VERTEX_POINT('',#1330);
#363=VERTEX_POINT('',#1334);
#364=VERTEX_POINT('',#1336);
#365=VERTEX_POINT('',#1338);
#366=VERTEX_POINT('',#1340);
#367=VERTEX_POINT('',#1356);
#368=VERTEX_POINT('',#1358);
#369=VERTEX_POINT('',#1362);
#370=VERTEX_POINT('',#1364);
#371=VERTEX_POINT('',#1368);
#372=VERTEX_POINT('',#1371);
#373=VERTEX_POINT('',#1373);
#374=VERTEX_POINT('',#1377);
#375=VERTEX_POINT('',#1381);
#376=VERTEX_POINT('',#1387);
#377=VERTEX_POINT('',#1391);
#378=VERTEX_POINT('',#1395);
#379=VERTEX_POINT('',#1536);
#380=VERTEX_POINT('',#1537);
#381=VERTEX_POINT('',#1539);
#382=VERTEX_POINT('',#1544);
#383=VERTEX_POINT('',#1548);
#384=VERTEX_POINT('',#1551);
#385=VERTEX_POINT('',#1553);
#386=EDGE_CURVE('',#307,#308,#175,.T.);
#387=EDGE_CURVE('',#307,#309,#176,.T.);
#388=EDGE_CURVE('',#309,#310,#177,.T.);
#389=EDGE_CURVE('',#308,#310,#178,.T.);
#390=EDGE_CURVE('',#311,#312,#179,.T.);
#391=EDGE_CURVE('',#311,#307,#49,.T.);
#392=EDGE_CURVE('',#312,#308,#50,.T.);
#393=EDGE_CURVE('',#313,#314,#180,.T.);
#394=EDGE_CURVE('',#313,#315,#181,.T.);
#395=EDGE_CURVE('',#315,#316,#182,.T.);
#396=EDGE_CURVE('',#314,#316,#183,.T.);
#397=EDGE_CURVE('',#317,#318,#184,.T.);
#398=EDGE_CURVE('',#317,#313,#51,.T.);
#399=EDGE_CURVE('',#318,#314,#52,.T.);
#400=EDGE_CURVE('',#319,#320,#185,.T.);
#401=EDGE_CURVE('',#319,#321,#186,.T.);
#402=EDGE_CURVE('',#321,#322,#187,.T.);
#403=EDGE_CURVE('',#320,#322,#188,.T.);
#404=EDGE_CURVE('',#323,#324,#189,.T.);
#405=EDGE_CURVE('',#323,#319,#53,.T.);
#406=EDGE_CURVE('',#324,#320,#54,.T.);
#407=EDGE_CURVE('',#325,#326,#190,.T.);
#408=EDGE_CURVE('',#325,#327,#191,.T.);
#409=EDGE_CURVE('',#327,#328,#192,.T.);
#410=EDGE_CURVE('',#326,#328,#193,.T.);
#411=EDGE_CURVE('',#329,#330,#194,.T.);
#412=EDGE_CURVE('',#329,#325,#55,.T.);
#413=EDGE_CURVE('',#330,#326,#56,.T.);
#414=EDGE_CURVE('',#331,#332,#195,.T.);
#415=EDGE_CURVE('',#333,#331,#196,.T.);
#416=EDGE_CURVE('',#334,#333,#197,.T.);
#417=EDGE_CURVE('',#334,#332,#198,.T.);
#418=EDGE_CURVE('',#335,#311,#199,.T.);
#419=EDGE_CURVE('',#331,#335,#57,.T.);
#420=EDGE_CURVE('',#332,#309,#58,.T.);
#421=EDGE_CURVE('',#336,#337,#200,.T.);
#422=EDGE_CURVE('',#338,#336,#201,.T.);
#423=EDGE_CURVE('',#339,#338,#202,.T.);
#424=EDGE_CURVE('',#339,#337,#203,.T.);
#425=EDGE_CURVE('',#340,#317,#204,.T.);
#426=EDGE_CURVE('',#336,#340,#59,.T.);
#427=EDGE_CURVE('',#337,#315,#60,.T.);
#428=EDGE_CURVE('',#341,#342,#205,.T.);
#429=EDGE_CURVE('',#343,#341,#206,.T.);
#430=EDGE_CURVE('',#344,#343,#207,.T.);
#431=EDGE_CURVE('',#344,#342,#208,.T.);
#432=EDGE_CURVE('',#345,#329,#209,.T.);
#433=EDGE_CURVE('',#341,#345,#61,.T.);
#434=EDGE_CURVE('',#342,#327,#62,.T.);
#435=EDGE_CURVE('',#346,#312,#210,.T.);
#436=EDGE_CURVE('',#335,#346,#211,.T.);
#437=EDGE_CURVE('',#347,#318,#212,.T.);
#438=EDGE_CURVE('',#340,#347,#213,.T.);
#439=EDGE_CURVE('',#348,#323,#214,.T.);
#440=EDGE_CURVE('',#349,#348,#63,.T.);
#441=EDGE_CURVE('',#350,#349,#215,.T.);
#442=EDGE_CURVE('',#351,#350,#20,.T.);
#443=EDGE_CURVE('',#351,#321,#64,.T.);
#444=EDGE_CURVE('',#352,#353,#21,.T.);
#445=EDGE_CURVE('',#354,#352,#216,.T.);
#446=EDGE_CURVE('',#355,#354,#65,.T.);
#447=EDGE_CURVE('',#355,#356,#217,.T.);
#448=EDGE_CURVE('',#356,#353,#66,.T.);
#449=EDGE_CURVE('',#357,#355,#218,.T.);
#450=EDGE_CURVE('',#358,#357,#219,.T.);
#451=EDGE_CURVE('',#358,#356,#220,.T.);
#452=EDGE_CURVE('',#359,#324,#221,.T.);
#453=EDGE_CURVE('',#348,#359,#222,.T.);
#454=EDGE_CURVE('',#360,#330,#223,.T.);
#455=EDGE_CURVE('',#345,#360,#224,.T.);
#456=EDGE_CURVE('',#352,#361,#225,.T.);
#457=EDGE_CURVE('',#362,#361,#226,.T.);
#458=EDGE_CURVE('',#354,#362,#227,.T.);
#459=EDGE_CURVE('',#363,#351,#228,.T.);
#460=EDGE_CURVE('',#350,#364,#229,.T.);
#461=EDGE_CURVE('',#365,#364,#22,.T.);
#462=EDGE_CURVE('',#366,#365,#230,.T.);
#463=EDGE_CURVE('',#363,#366,#23,.T.);
#464=EDGE_CURVE('',#328,#358,#67,.T.);
#465=EDGE_CURVE('',#360,#357,#68,.T.);
#466=EDGE_CURVE('',#322,#339,#69,.T.);
#467=EDGE_CURVE('',#359,#338,#70,.T.);
#468=EDGE_CURVE('',#316,#334,#71,.T.);
#469=EDGE_CURVE('',#347,#333,#72,.T.);
#470=EDGE_CURVE('',#310,#344,#73,.T.);
#471=EDGE_CURVE('',#346,#343,#74,.T.);
#472=EDGE_CURVE('',#367,#363,#24,.T.);
#473=EDGE_CURVE('',#368,#367,#25,.T.);
#474=EDGE_CURVE('',#353,#368,#231,.T.);
#475=EDGE_CURVE('',#369,#368,#26,.T.);
#476=EDGE_CURVE('',#369,#370,#232,.T.);
#477=EDGE_CURVE('',#361,#370,#27,.T.);
#478=EDGE_CURVE('',#371,#371,#75,.T.);
#479=EDGE_CURVE('',#371,#367,#233,.T.);
#480=EDGE_CURVE('',#366,#372,#28,.T.);
#481=EDGE_CURVE('',#372,#373,#29,.T.);
#482=EDGE_CURVE('',#373,#369,#30,.T.);
#483=EDGE_CURVE('',#373,#374,#234,.T.);
#484=EDGE_CURVE('',#370,#374,#31,.T.);
#485=EDGE_CURVE('',#372,#375,#235,.T.);
#486=EDGE_CURVE('',#374,#375,#76,.T.);
#487=EDGE_CURVE('',#375,#365,#32,.T.);
#488=EDGE_CURVE('',#376,#349,#236,.T.);
#489=EDGE_CURVE('',#364,#376,#237,.T.);
#490=EDGE_CURVE('',#377,#362,#77,.T.);
#491=EDGE_CURVE('',#376,#377,#78,.T.);
#492=EDGE_CURVE('',#378,#378,#79,.T.);
#493=EDGE_CURVE('',#378,#377,#238,.T.);
#494=EDGE_CURVE('',#379,#380,#80,.T.);
#495=EDGE_CURVE('',#380,#381,#33,.T.);
#496=EDGE_CURVE('',#381,#380,#34,.T.);
#497=EDGE_CURVE('',#379,#379,#35,.T.);
#498=EDGE_CURVE('',#381,#382,#239,.T.);
#499=EDGE_CURVE('',#382,#382,#81,.T.);
#500=EDGE_CURVE('',#383,#383,#82,.T.);
#501=EDGE_CURVE('',#384,#384,#83,.T.);
#502=EDGE_CURVE('',#384,#385,#240,.T.);
#503=EDGE_CURVE('',#385,#385,#84,.T.);
#504=EDGE_CURVE('',#383,#378,#85,.T.);
#505=ORIENTED_EDGE('',*,*,#386,.F.);
#506=ORIENTED_EDGE('',*,*,#387,.T.);
#507=ORIENTED_EDGE('',*,*,#388,.T.);
#508=ORIENTED_EDGE('',*,*,#389,.F.);
#509=ORIENTED_EDGE('',*,*,#390,.F.);
#510=ORIENTED_EDGE('',*,*,#391,.T.);
#511=ORIENTED_EDGE('',*,*,#386,.T.);
#512=ORIENTED_EDGE('',*,*,#392,.F.);
#513=ORIENTED_EDGE('',*,*,#393,.F.);
#514=ORIENTED_EDGE('',*,*,#394,.T.);
#515=ORIENTED_EDGE('',*,*,#395,.T.);
#516=ORIENTED_EDGE('',*,*,#396,.F.);
#517=ORIENTED_EDGE('',*,*,#397,.F.);
#518=ORIENTED_EDGE('',*,*,#398,.T.);
#519=ORIENTED_EDGE('',*,*,#393,.T.);
#520=ORIENTED_EDGE('',*,*,#399,.F.);
#521=ORIENTED_EDGE('',*,*,#400,.F.);
#522=ORIENTED_EDGE('',*,*,#401,.T.);
#523=ORIENTED_EDGE('',*,*,#402,.T.);
#524=ORIENTED_EDGE('',*,*,#403,.F.);
#525=ORIENTED_EDGE('',*,*,#404,.F.);
#526=ORIENTED_EDGE('',*,*,#405,.T.);
#527=ORIENTED_EDGE('',*,*,#400,.T.);
#528=ORIENTED_EDGE('',*,*,#406,.F.);
#529=ORIENTED_EDGE('',*,*,#407,.F.);
#530=ORIENTED_EDGE('',*,*,#408,.T.);
#531=ORIENTED_EDGE('',*,*,#409,.T.);
#532=ORIENTED_EDGE('',*,*,#410,.F.);
#533=ORIENTED_EDGE('',*,*,#411,.F.);
#534=ORIENTED_EDGE('',*,*,#412,.T.);
#535=ORIENTED_EDGE('',*,*,#407,.T.);
#536=ORIENTED_EDGE('',*,*,#413,.F.);
#537=ORIENTED_EDGE('',*,*,#414,.F.);
#538=ORIENTED_EDGE('',*,*,#415,.F.);
#539=ORIENTED_EDGE('',*,*,#416,.F.);
#540=ORIENTED_EDGE('',*,*,#417,.T.);
#541=ORIENTED_EDGE('',*,*,#418,.F.);
#542=ORIENTED_EDGE('',*,*,#419,.F.);
#543=ORIENTED_EDGE('',*,*,#414,.T.);
#544=ORIENTED_EDGE('',*,*,#420,.T.);
#545=ORIENTED_EDGE('',*,*,#387,.F.);
#546=ORIENTED_EDGE('',*,*,#391,.F.);
#547=ORIENTED_EDGE('',*,*,#421,.F.);
#548=ORIENTED_EDGE('',*,*,#422,.F.);
#549=ORIENTED_EDGE('',*,*,#423,.F.);
#550=ORIENTED_EDGE('',*,*,#424,.T.);
#551=ORIENTED_EDGE('',*,*,#425,.F.);
#552=ORIENTED_EDGE('',*,*,#426,.F.);
#553=ORIENTED_EDGE('',*,*,#421,.T.);
#554=ORIENTED_EDGE('',*,*,#427,.T.);
#555=ORIENTED_EDGE('',*,*,#394,.F.);
#556=ORIENTED_EDGE('',*,*,#398,.F.);
#557=ORIENTED_EDGE('',*,*,#428,.F.);
#558=ORIENTED_EDGE('',*,*,#429,.F.);
#559=ORIENTED_EDGE('',*,*,#430,.F.);
#560=ORIENTED_EDGE('',*,*,#431,.T.);
#561=ORIENTED_EDGE('',*,*,#432,.F.);
#562=ORIENTED_EDGE('',*,*,#433,.F.);
#563=ORIENTED_EDGE('',*,*,#428,.T.);
#564=ORIENTED_EDGE('',*,*,#434,.T.);
#565=ORIENTED_EDGE('',*,*,#408,.F.);
#566=ORIENTED_EDGE('',*,*,#412,.F.);
#567=ORIENTED_EDGE('',*,*,#390,.T.);
#568=ORIENTED_EDGE('',*,*,#435,.F.);
#569=ORIENTED_EDGE('',*,*,#436,.F.);
#570=ORIENTED_EDGE('',*,*,#418,.T.);
#571=ORIENTED_EDGE('',*,*,#397,.T.);
#572=ORIENTED_EDGE('',*,*,#437,.F.);
#573=ORIENTED_EDGE('',*,*,#438,.F.);
#574=ORIENTED_EDGE('',*,*,#425,.T.);
#575=ORIENTED_EDGE('',*,*,#439,.F.);
#576=ORIENTED_EDGE('',*,*,#440,.F.);
#577=ORIENTED_EDGE('',*,*,#441,.F.);
#578=ORIENTED_EDGE('',*,*,#442,.F.);
#579=ORIENTED_EDGE('',*,*,#443,.T.);
#580=ORIENTED_EDGE('',*,*,#401,.F.);
#581=ORIENTED_EDGE('',*,*,#405,.F.);
#582=ORIENTED_EDGE('',*,*,#444,.F.);
#583=ORIENTED_EDGE('',*,*,#445,.F.);
#584=ORIENTED_EDGE('',*,*,#446,.F.);
#585=ORIENTED_EDGE('',*,*,#447,.T.);
#586=ORIENTED_EDGE('',*,*,#448,.T.);
#587=ORIENTED_EDGE('',*,*,#447,.F.);
#588=ORIENTED_EDGE('',*,*,#449,.F.);
#589=ORIENTED_EDGE('',*,*,#450,.F.);
#590=ORIENTED_EDGE('',*,*,#451,.T.);
#591=ORIENTED_EDGE('',*,*,#404,.T.);
#592=ORIENTED_EDGE('',*,*,#452,.F.);
#593=ORIENTED_EDGE('',*,*,#453,.F.);
#594=ORIENTED_EDGE('',*,*,#439,.T.);
#595=ORIENTED_EDGE('',*,*,#411,.T.);
#596=ORIENTED_EDGE('',*,*,#454,.F.);
#597=ORIENTED_EDGE('',*,*,#455,.F.);
#598=ORIENTED_EDGE('',*,*,#432,.T.);
#599=ORIENTED_EDGE('',*,*,#445,.T.);
#600=ORIENTED_EDGE('',*,*,#456,.T.);
#601=ORIENTED_EDGE('',*,*,#457,.F.);
#602=ORIENTED_EDGE('',*,*,#458,.F.);
#603=ORIENTED_EDGE('',*,*,#459,.T.);
#604=ORIENTED_EDGE('',*,*,#442,.T.);
#605=ORIENTED_EDGE('',*,*,#460,.T.);
#606=ORIENTED_EDGE('',*,*,#461,.F.);
#607=ORIENTED_EDGE('',*,*,#462,.F.);
#608=ORIENTED_EDGE('',*,*,#463,.F.);
#609=ORIENTED_EDGE('',*,*,#410,.T.);
#610=ORIENTED_EDGE('',*,*,#464,.T.);
#611=ORIENTED_EDGE('',*,*,#450,.T.);
#612=ORIENTED_EDGE('',*,*,#465,.F.);
#613=ORIENTED_EDGE('',*,*,#454,.T.);
#614=ORIENTED_EDGE('',*,*,#413,.T.);
#615=ORIENTED_EDGE('',*,*,#403,.T.);
#616=ORIENTED_EDGE('',*,*,#466,.T.);
#617=ORIENTED_EDGE('',*,*,#423,.T.);
#618=ORIENTED_EDGE('',*,*,#467,.F.);
#619=ORIENTED_EDGE('',*,*,#452,.T.);
#620=ORIENTED_EDGE('',*,*,#406,.T.);
#621=ORIENTED_EDGE('',*,*,#396,.T.);
#622=ORIENTED_EDGE('',*,*,#468,.T.);
#623=ORIENTED_EDGE('',*,*,#416,.T.);
#624=ORIENTED_EDGE('',*,*,#469,.F.);
#625=ORIENTED_EDGE('',*,*,#437,.T.);
#626=ORIENTED_EDGE('',*,*,#399,.T.);
#627=ORIENTED_EDGE('',*,*,#389,.T.);
#628=ORIENTED_EDGE('',*,*,#470,.T.);
#629=ORIENTED_EDGE('',*,*,#430,.T.);
#630=ORIENTED_EDGE('',*,*,#471,.F.);
#631=ORIENTED_EDGE('',*,*,#435,.T.);
#632=ORIENTED_EDGE('',*,*,#392,.T.);
#633=ORIENTED_EDGE('',*,*,#468,.F.);
#634=ORIENTED_EDGE('',*,*,#395,.F.);
#635=ORIENTED_EDGE('',*,*,#427,.F.);
#636=ORIENTED_EDGE('',*,*,#424,.F.);
#637=ORIENTED_EDGE('',*,*,#466,.F.);
#638=ORIENTED_EDGE('',*,*,#402,.F.);
#639=ORIENTED_EDGE('',*,*,#443,.F.);
#640=ORIENTED_EDGE('',*,*,#459,.F.);
#641=ORIENTED_EDGE('',*,*,#472,.F.);
#642=ORIENTED_EDGE('',*,*,#473,.F.);
#643=ORIENTED_EDGE('',*,*,#474,.F.);
#644=ORIENTED_EDGE('',*,*,#448,.F.);
#645=ORIENTED_EDGE('',*,*,#451,.F.);
#646=ORIENTED_EDGE('',*,*,#464,.F.);
#647=ORIENTED_EDGE('',*,*,#409,.F.);
#648=ORIENTED_EDGE('',*,*,#434,.F.);
#649=ORIENTED_EDGE('',*,*,#431,.F.);
#650=ORIENTED_EDGE('',*,*,#470,.F.);
#651=ORIENTED_EDGE('',*,*,#388,.F.);
#652=ORIENTED_EDGE('',*,*,#420,.F.);
#653=ORIENTED_EDGE('',*,*,#417,.F.);
#654=ORIENTED_EDGE('',*,*,#474,.T.);
#655=ORIENTED_EDGE('',*,*,#475,.F.);
#656=ORIENTED_EDGE('',*,*,#476,.T.);
#657=ORIENTED_EDGE('',*,*,#477,.F.);
#658=ORIENTED_EDGE('',*,*,#456,.F.);
#659=ORIENTED_EDGE('',*,*,#444,.T.);
#660=ORIENTED_EDGE('',*,*,#478,.F.);
#661=ORIENTED_EDGE('',*,*,#479,.T.);
#662=ORIENTED_EDGE('',*,*,#472,.T.);
#663=ORIENTED_EDGE('',*,*,#463,.T.);
#664=ORIENTED_EDGE('',*,*,#480,.T.);
#665=ORIENTED_EDGE('',*,*,#481,.T.);
#666=ORIENTED_EDGE('',*,*,#482,.T.);
#667=ORIENTED_EDGE('',*,*,#475,.T.);
#668=ORIENTED_EDGE('',*,*,#473,.T.);
#669=ORIENTED_EDGE('',*,*,#479,.F.);
#670=ORIENTED_EDGE('',*,*,#482,.F.);
#671=ORIENTED_EDGE('',*,*,#483,.T.);
#672=ORIENTED_EDGE('',*,*,#484,.F.);
#673=ORIENTED_EDGE('',*,*,#476,.F.);
#674=ORIENTED_EDGE('',*,*,#481,.F.);
#675=ORIENTED_EDGE('',*,*,#485,.T.);
#676=ORIENTED_EDGE('',*,*,#486,.F.);
#677=ORIENTED_EDGE('',*,*,#483,.F.);
#678=ORIENTED_EDGE('',*,*,#480,.F.);
#679=ORIENTED_EDGE('',*,*,#462,.T.);
#680=ORIENTED_EDGE('',*,*,#487,.F.);
#681=ORIENTED_EDGE('',*,*,#485,.F.);
#682=ORIENTED_EDGE('',*,*,#441,.T.);
#683=ORIENTED_EDGE('',*,*,#488,.F.);
#684=ORIENTED_EDGE('',*,*,#489,.F.);
#685=ORIENTED_EDGE('',*,*,#460,.F.);
#686=ORIENTED_EDGE('',*,*,#436,.T.);
#687=ORIENTED_EDGE('',*,*,#471,.T.);
#688=ORIENTED_EDGE('',*,*,#429,.T.);
#689=ORIENTED_EDGE('',*,*,#433,.T.);
#690=ORIENTED_EDGE('',*,*,#455,.T.);
#691=ORIENTED_EDGE('',*,*,#465,.T.);
#692=ORIENTED_EDGE('',*,*,#449,.T.);
#693=ORIENTED_EDGE('',*,*,#446,.T.);
#694=ORIENTED_EDGE('',*,*,#458,.T.);
#695=ORIENTED_EDGE('',*,*,#490,.F.);
#696=ORIENTED_EDGE('',*,*,#491,.F.);
#697=ORIENTED_EDGE('',*,*,#488,.T.);
#698=ORIENTED_EDGE('',*,*,#440,.T.);
#699=ORIENTED_EDGE('',*,*,#453,.T.);
#700=ORIENTED_EDGE('',*,*,#467,.T.);
#701=ORIENTED_EDGE('',*,*,#422,.T.);
#702=ORIENTED_EDGE('',*,*,#426,.T.);
#703=ORIENTED_EDGE('',*,*,#438,.T.);
#704=ORIENTED_EDGE('',*,*,#469,.T.);
#705=ORIENTED_EDGE('',*,*,#415,.T.);
#706=ORIENTED_EDGE('',*,*,#419,.T.);
#707=ORIENTED_EDGE('',*,*,#492,.F.);
#708=ORIENTED_EDGE('',*,*,#493,.T.);
#709=ORIENTED_EDGE('',*,*,#490,.T.);
#710=ORIENTED_EDGE('',*,*,#457,.T.);
#711=ORIENTED_EDGE('',*,*,#477,.T.);
#712=ORIENTED_EDGE('',*,*,#484,.T.);
#713=ORIENTED_EDGE('',*,*,#486,.T.);
#714=ORIENTED_EDGE('',*,*,#487,.T.);
#715=ORIENTED_EDGE('',*,*,#461,.T.);
#716=ORIENTED_EDGE('',*,*,#489,.T.);
#717=ORIENTED_EDGE('',*,*,#491,.T.);
#718=ORIENTED_EDGE('',*,*,#493,.F.);
#719=ORIENTED_EDGE('',*,*,#494,.T.);
#720=ORIENTED_EDGE('',*,*,#495,.T.);
#721=ORIENTED_EDGE('',*,*,#496,.T.);
#722=ORIENTED_EDGE('',*,*,#494,.F.);
#723=ORIENTED_EDGE('',*,*,#497,.T.);
#724=ORIENTED_EDGE('',*,*,#495,.F.);
#725=ORIENTED_EDGE('',*,*,#496,.F.);
#726=ORIENTED_EDGE('',*,*,#498,.T.);
#727=ORIENTED_EDGE('',*,*,#499,.T.);
#728=ORIENTED_EDGE('',*,*,#498,.F.);
#729=ORIENTED_EDGE('',*,*,#500,.F.);
#730=ORIENTED_EDGE('',*,*,#497,.F.);
#731=ORIENTED_EDGE('',*,*,#501,.F.);
#732=ORIENTED_EDGE('',*,*,#502,.T.);
#733=ORIENTED_EDGE('',*,*,#503,.T.);
#734=ORIENTED_EDGE('',*,*,#502,.F.);
#735=ORIENTED_EDGE('',*,*,#499,.F.);
#736=ORIENTED_EDGE('',*,*,#503,.F.);
#737=ORIENTED_EDGE('',*,*,#501,.T.);
#738=ORIENTED_EDGE('',*,*,#478,.T.);
#739=ORIENTED_EDGE('',*,*,#500,.T.);
#740=ORIENTED_EDGE('',*,*,#504,.T.);
#741=ORIENTED_EDGE('',*,*,#492,.T.);
#742=ORIENTED_EDGE('',*,*,#504,.F.);
#743=PLANE('',#828);
#744=PLANE('',#829);
#745=PLANE('',#832);
#746=PLANE('',#833);
#747=PLANE('',#836);
#748=PLANE('',#837);
#749=PLANE('',#840);
#750=PLANE('',#841);
#751=PLANE('',#844);
#752=PLANE('',#848);
#753=PLANE('',#852);
#754=PLANE('',#856);
#755=PLANE('',#857);
#756=PLANE('',#866);
#757=PLANE('',#867);
#758=PLANE('',#868);
#759=PLANE('',#869);
#760=PLANE('',#870);
#761=PLANE('',#885);
#762=PLANE('',#888);
#763=PLANE('',#896);
#764=PLANE('',#898);
#765=PLANE('',#900);
#766=PLANE('',#902);
#767=PLANE('',#903);
#768=PLANE('',#914);
#769=PLANE('',#919);
#770=PLANE('',#920);
#771=ADVANCED_FACE('',(#86),#743,.F.);
#772=ADVANCED_FACE('',(#87),#744,.T.);
#773=ADVANCED_FACE('',(#88),#745,.F.);
#774=ADVANCED_FACE('',(#89),#746,.T.);
#775=ADVANCED_FACE('',(#90),#747,.F.);
#776=ADVANCED_FACE('',(#91),#748,.T.);
#777=ADVANCED_FACE('',(#92),#749,.F.);
#778=ADVANCED_FACE('',(#93),#750,.T.);
#779=ADVANCED_FACE('',(#94),#751,.F.);
#780=ADVANCED_FACE('',(#95),#36,.F.);
#781=ADVANCED_FACE('',(#96),#752,.F.);
#782=ADVANCED_FACE('',(#97),#37,.F.);
#783=ADVANCED_FACE('',(#98),#753,.F.);
#784=ADVANCED_FACE('',(#99),#38,.F.);
#785=ADVANCED_FACE('',(#100),#754,.F.);
#786=ADVANCED_FACE('',(#101),#755,.F.);
#787=ADVANCED_FACE('',(#102),#39,.F.);
#788=ADVANCED_FACE('',(#103),#40,.F.);
#789=ADVANCED_FACE('',(#104),#756,.F.);
#790=ADVANCED_FACE('',(#105),#757,.F.);
#791=ADVANCED_FACE('',(#106),#758,.F.);
#792=ADVANCED_FACE('',(#107),#759,.F.);
#793=ADVANCED_FACE('',(#108),#760,.F.);
#794=ADVANCED_FACE('',(#109),#41,.F.);
#795=ADVANCED_FACE('',(#110),#42,.F.);
#796=ADVANCED_FACE('',(#111),#43,.F.);
#797=ADVANCED_FACE('',(#112),#44,.F.);
#798=ADVANCED_FACE('',(#113),#761,.F.);
#799=ADVANCED_FACE('',(#114),#762,.F.);
#800=ADVANCED_FACE('',(#115),#45,.F.);
#801=ADVANCED_FACE('',(#116),#763,.F.);
#802=ADVANCED_FACE('',(#117),#764,.F.);
#803=ADVANCED_FACE('',(#118),#765,.F.);
#804=ADVANCED_FACE('',(#119),#766,.F.);
#805=ADVANCED_FACE('',(#120),#767,.F.);
#806=ADVANCED_FACE('',(#121),#46,.T.);
#807=ADVANCED_FACE('',(#122),#19,.T.);
#808=ADVANCED_FACE('',(#123),#47,.T.);
#809=ADVANCED_FACE('',(#124,#16),#768,.T.);
#810=ADVANCED_FACE('',(#125),#48,.T.);
#811=ADVANCED_FACE('',(#126,#17),#769,.T.);
#812=ADVANCED_FACE('',(#127,#18),#770,.T.);
#813=ADVANCED_FACE('',(#128),#15,.T.);
#814=CLOSED_SHELL('',(#771,#772,#773,#774,#775,#776,#777,#778,#779,#780,
#781,#782,#783,#784,#785,#786,#787,#788,#789,#790,#791,#792,#793,#794,#795,
#796,#797,#798,#799,#800,#801,#802,#803,#804,#805,#806,#807,#808,#809,#810,
#811,#812,#813));
#815=DERIVED_UNIT_ELEMENT(#817,1.);
#816=DERIVED_UNIT_ELEMENT(#1565,-3.);
#817=(
MASS_UNIT()
NAMED_UNIT(*)
SI_UNIT(.KILO.,.GRAM.)
);
#818=DERIVED_UNIT((#815,#816));
#819=MEASURE_REPRESENTATION_ITEM('density measure',
POSITIVE_RATIO_MEASURE(7850.),#818);
#820=PROPERTY_DEFINITION_REPRESENTATION(#825,#822);
#821=PROPERTY_DEFINITION_REPRESENTATION(#826,#823);
#822=REPRESENTATION('material name',(#824),#1562);
#823=REPRESENTATION('density',(#819),#1562);
#824=DESCRIPTIVE_REPRESENTATION_ITEM('Stahl','Stahl');
#825=PROPERTY_DEFINITION('material property','material name',#1572);
#826=PROPERTY_DEFINITION('material property','density of part',#1572);
#827=AXIS2_PLACEMENT_3D('',#1181,#923,#924);
#828=AXIS2_PLACEMENT_3D('',#1182,#925,#926);
#829=AXIS2_PLACEMENT_3D('',#1191,#931,#932);
#830=AXIS2_PLACEMENT_3D('',#1195,#934,#935);
#831=AXIS2_PLACEMENT_3D('',#1196,#936,#937);
#832=AXIS2_PLACEMENT_3D('',#1197,#938,#939);
#833=AXIS2_PLACEMENT_3D('',#1206,#944,#945);
#834=AXIS2_PLACEMENT_3D('',#1210,#947,#948);
#835=AXIS2_PLACEMENT_3D('',#1211,#949,#950);
#836=AXIS2_PLACEMENT_3D('',#1212,#951,#952);
#837=AXIS2_PLACEMENT_3D('',#1221,#957,#958);
#838=AXIS2_PLACEMENT_3D('',#1225,#960,#961);
#839=AXIS2_PLACEMENT_3D('',#1226,#962,#963);
#840=AXIS2_PLACEMENT_3D('',#1227,#964,#965);
#841=AXIS2_PLACEMENT_3D('',#1236,#970,#971);
#842=AXIS2_PLACEMENT_3D('',#1240,#973,#974);
#843=AXIS2_PLACEMENT_3D('',#1241,#975,#976);
#844=AXIS2_PLACEMENT_3D('',#1242,#977,#978);
#845=AXIS2_PLACEMENT_3D('',#1251,#983,#984);
#846=AXIS2_PLACEMENT_3D('',#1254,#986,#987);
#847=AXIS2_PLACEMENT_3D('',#1255,#988,#989);
#848=AXIS2_PLACEMENT_3D('',#1256,#990,#991);
#849=AXIS2_PLACEMENT_3D('',#1265,#996,#997);
#850=AXIS2_PLACEMENT_3D('',#1268,#999,#1000);
#851=AXIS2_PLACEMENT_3D('',#1269,#1001,#1002);
#852=AXIS2_PLACEMENT_3D('',#1270,#1003,#1004);
#853=AXIS2_PLACEMENT_3D('',#1279,#1009,#1010);
#854=AXIS2_PLACEMENT_3D('',#1282,#1012,#1013);
#855=AXIS2_PLACEMENT_3D('',#1283,#1014,#1015);
#856=AXIS2_PLACEMENT_3D('',#1284,#1016,#1017);
#857=AXIS2_PLACEMENT_3D('',#1288,#1020,#1021);
#858=AXIS2_PLACEMENT_3D('',#1292,#1024,#1025);
#859=AXIS2_PLACEMENT_3D('',#1296,#1027,#1028);
#860=AXIS2_PLACEMENT_3D('',#1300,#1030,#1031);
#861=AXIS2_PLACEMENT_3D('',#1301,#1032,#1033);
#862=AXIS2_PLACEMENT_3D('',#1302,#1034,#1035);
#863=AXIS2_PLACEMENT_3D('',#1305,#1036,#1037);
#864=AXIS2_PLACEMENT_3D('',#1309,#1039,#1040);
#865=AXIS2_PLACEMENT_3D('',#1312,#1042,#1043);
#866=AXIS2_PLACEMENT_3D('',#1313,#1044,#1045);
#867=AXIS2_PLACEMENT_3D('',#1319,#1049,#1050);
#868=AXIS2_PLACEMENT_3D('',#1323,#1053,#1054);
#869=AXIS2_PLACEMENT_3D('',#1327,#1057,#1058);
#870=AXIS2_PLACEMENT_3D('',#1333,#1062,#1063);
#871=AXIS2_PLACEMENT_3D('',#1339,#1066,#1067);
#872=AXIS2_PLACEMENT_3D('',#1342,#1069,#1070);
#873=AXIS2_PLACEMENT_3D('',#1343,#1071,#1072);
#874=AXIS2_PLACEMENT_3D('',#1344,#1073,#1074);
#875=AXIS2_PLACEMENT_3D('',#1345,#1075,#1076);
#876=AXIS2_PLACEMENT_3D('',#1346,#1077,#1078);
#877=AXIS2_PLACEMENT_3D('',#1347,#1079,#1080);
#878=AXIS2_PLACEMENT_3D('',#1348,#1081,#1082);
#879=AXIS2_PLACEMENT_3D('',#1349,#1083,#1084);
#880=AXIS2_PLACEMENT_3D('',#1350,#1085,#1086);
#881=AXIS2_PLACEMENT_3D('',#1351,#1087,#1088);
#882=AXIS2_PLACEMENT_3D('',#1352,#1089,#1090);
#883=AXIS2_PLACEMENT_3D('',#1353,#1091,#1092);
#884=AXIS2_PLACEMENT_3D('',#1354,#1093,#1094);
#885=AXIS2_PLACEMENT_3D('',#1355,#1095,#1096);
#886=AXIS2_PLACEMENT_3D('',#1357,#1097,#1098);
#887=AXIS2_PLACEMENT_3D('',#1359,#1099,#1100);
#888=AXIS2_PLACEMENT_3D('',#1361,#1102,#1103);
#889=AXIS2_PLACEMENT_3D('',#1363,#1104,#1105);
#890=AXIS2_PLACEMENT_3D('',#1366,#1107,#1108);
#891=AXIS2_PLACEMENT_3D('',#1367,#1109,#1110);
#892=AXIS2_PLACEMENT_3D('',#1369,#1111,#1112);
#893=AXIS2_PLACEMENT_3D('',#1372,#1114,#1115);
#894=AXIS2_PLACEMENT_3D('',#1374,#1116,#1117);
#895=AXIS2_PLACEMENT_3D('',#1375,#1118,#1119);
#896=AXIS2_PLACEMENT_3D('',#1376,#1120,#1121);
#897=AXIS2_PLACEMENT_3D('',#1379,#1123,#1124);
#898=AXIS2_PLACEMENT_3D('',#1380,#1125,#1126);
#899=AXIS2_PLACEMENT_3D('',#1383,#1128,#1129);
#900=AXIS2_PLACEMENT_3D('',#1384,#1130,#1131);
#901=AXIS2_PLACEMENT_3D('',#1385,#1132,#1133);
#902=AXIS2_PLACEMENT_3D('',#1386,#1134,#1135);
#903=AXIS2_PLACEMENT_3D('',#1390,#1138,#1139);
#904=AXIS2_PLACEMENT_3D('',#1392,#1140,#1141);
#905=AXIS2_PLACEMENT_3D('',#1393,#1142,#1143);
#906=AXIS2_PLACEMENT_3D('',#1394,#1144,#1145);
#907=AXIS2_PLACEMENT_3D('',#1396,#1146,#1147);
#908=AXIS2_PLACEMENT_3D('',#1538,#1149,#1150);
#909=AXIS2_PLACEMENT_3D('',#1540,#1151,#1152);
#910=AXIS2_PLACEMENT_3D('',#1541,#1153,#1154);
#911=AXIS2_PLACEMENT_3D('',#1542,#1155,#1156);
#912=AXIS2_PLACEMENT_3D('',#1543,#1157,#1158);
#913=AXIS2_PLACEMENT_3D('',#1546,#1160,#1161);
#914=AXIS2_PLACEMENT_3D('',#1547,#1162,#1163);
#915=AXIS2_PLACEMENT_3D('',#1549,#1164,#1165);
#916=AXIS2_PLACEMENT_3D('',#1550,#1166,#1167);
#917=AXIS2_PLACEMENT_3D('',#1552,#1168,#1169);
#918=AXIS2_PLACEMENT_3D('',#1555,#1171,#1172);
#919=AXIS2_PLACEMENT_3D('',#1556,#1173,#1174);
#920=AXIS2_PLACEMENT_3D('',#1557,#1175,#1176);
#921=AXIS2_PLACEMENT_3D('',#1558,#1177,#1178);
#922=AXIS2_PLACEMENT_3D('',#1559,#1179,#1180);
#923=DIRECTION('axis',(0.,0.,1.));
#924=DIRECTION('refdir',(1.,0.,0.));
#925=DIRECTION('center_axis',(0.342020143325669,-0.939692620785908,0.));
#926=DIRECTION('ref_axis',(0.939692620785908,0.342020143325669,0.));
#927=DIRECTION('',(0.939692620785908,0.342020143325669,0.));
#928=DIRECTION('',(0.,0.,1.));
#929=DIRECTION('',(0.939692620785908,0.342020143325669,0.));
#930=DIRECTION('',(0.,0.,1.));
#931=DIRECTION('center_axis',(0.,0.,1.));
#932=DIRECTION('ref_axis',(1.,0.,0.));
#933=DIRECTION('',(0.996194698091746,0.0871557427476584,0.));
#934=DIRECTION('center_axis',(0.,0.,1.));
#935=DIRECTION('ref_axis',(-0.996194698091746,0.0871557427476582,0.));
#936=DIRECTION('center_axis',(0.,0.,1.));
#937=DIRECTION('ref_axis',(1.,0.,0.));
#938=DIRECTION('center_axis',(-0.939692620785908,-0.342020143325669,0.));
#939=DIRECTION('ref_axis',(0.342020143325669,-0.939692620785908,0.));
#940=DIRECTION('',(0.342020143325669,-0.939692620785908,0.));
#941=DIRECTION('',(0.,0.,1.));
#942=DIRECTION('',(0.342020143325669,-0.939692620785908,0.));
#943=DIRECTION('',(0.,0.,1.));
#944=DIRECTION('center_axis',(0.,0.,1.));
#945=DIRECTION('ref_axis',(1.,0.,0.));
#946=DIRECTION('',(0.0871557427476584,-0.996194698091746,0.));
#947=DIRECTION('center_axis',(0.,0.,1.));
#948=DIRECTION('ref_axis',(0.0871557427476581,0.996194698091746,0.));
#949=DIRECTION('center_axis',(0.,0.,1.));
#950=DIRECTION('ref_axis',(1.,0.,0.));
#951=DIRECTION('center_axis',(-0.342020143325669,0.939692620785908,0.));
#952=DIRECTION('ref_axis',(-0.939692620785908,-0.342020143325669,0.));
#953=DIRECTION('',(-0.939692620785908,-0.342020143325669,0.));
#954=DIRECTION('',(0.,0.,1.));
#955=DIRECTION('',(-0.939692620785908,-0.342020143325669,0.));
#956=DIRECTION('',(0.,0.,1.));
#957=DIRECTION('center_axis',(0.,0.,1.));
#958=DIRECTION('ref_axis',(1.,0.,0.));
#959=DIRECTION('',(-0.996194698091746,-0.0871557427476584,0.));
#960=DIRECTION('center_axis',(0.,0.,1.));
#961=DIRECTION('ref_axis',(0.996194698091746,-0.0871557427476582,0.));
#962=DIRECTION('center_axis',(0.,0.,1.));
#963=DIRECTION('ref_axis',(1.,0.,0.));
#964=DIRECTION('center_axis',(0.939692620785909,0.342020143325666,0.));
#965=DIRECTION('ref_axis',(-0.342020143325666,0.939692620785909,0.));
#966=DIRECTION('',(-0.342020143325666,0.939692620785909,0.));
#967=DIRECTION('',(0.,0.,1.));
#968=DIRECTION('',(-0.342020143325666,0.939692620785909,0.));
#969=DIRECTION('',(0.,0.,1.));
#970=DIRECTION('center_axis',(0.,0.,1.));
#971=DIRECTION('ref_axis',(1.,0.,0.));
#972=DIRECTION('',(-0.0871557427476576,0.996194698091746,0.));
#973=DIRECTION('center_axis',(0.,0.,1.));
#974=DIRECTION('ref_axis',(-0.0871557427476582,-0.996194698091745,0.));
#975=DIRECTION('center_axis',(0.,0.,1.));
#976=DIRECTION('ref_axis',(1.,0.,0.));
#977=DIRECTION('center_axis',(0.0871557427476584,0.996194698091746,0.));
#978=DIRECTION('ref_axis',(-0.996194698091746,0.0871557427476584,0.));
#979=DIRECTION('',(0.,0.,1.));
#980=DIRECTION('',(-0.996194698091746,0.0871557427476584,0.));
#981=DIRECTION('',(0.,0.,-1.));
#982=DIRECTION('',(-0.996194698091746,0.0871557427476583,0.));
#983=DIRECTION('center_axis',(0.,0.,1.));
#984=DIRECTION('ref_axis',(-0.996194698091746,0.0871557427476582,0.));
#985=DIRECTION('',(0.,0.,1.));
#986=DIRECTION('center_axis',(0.,0.,1.));
#987=DIRECTION('ref_axis',(-0.996194698091746,0.0871557427476582,0.));
#988=DIRECTION('center_axis',(0.,0.,1.));
#989=DIRECTION('ref_axis',(-0.996194698091746,0.0871557427476582,0.));
#990=DIRECTION('center_axis',(0.996194698091746,-0.0871557427476584,0.));
#991=DIRECTION('ref_axis',(0.0871557427476584,0.996194698091746,0.));
#992=DIRECTION('',(0.,0.,1.));
#993=DIRECTION('',(0.0871557427476584,0.996194698091746,0.));
#994=DIRECTION('',(0.,0.,-1.));
#995=DIRECTION('',(0.0871557427476583,0.996194698091746,0.));
#996=DIRECTION('center_axis',(0.,0.,1.));
#997=DIRECTION('ref_axis',(0.0871557427476581,0.996194698091746,0.));
#998=DIRECTION('',(0.,0.,1.));
#999=DIRECTION('center_axis',(0.,0.,1.));
#1000=DIRECTION('ref_axis',(0.0871557427476581,0.996194698091746,0.));
#1001=DIRECTION('center_axis',(0.,0.,1.));
#1002=DIRECTION('ref_axis',(0.0871557427476581,0.996194698091746,0.));
#1003=DIRECTION('center_axis',(-0.996194698091746,0.0871557427476584,0.));
#1004=DIRECTION('ref_axis',(-0.0871557427476584,-0.996194698091746,0.));
#1005=DIRECTION('',(0.,0.,1.));
#1006=DIRECTION('',(-0.0871557427476584,-0.996194698091746,0.));
#1007=DIRECTION('',(0.,0.,-1.));
#1008=DIRECTION('',(-0.0871557427476583,-0.996194698091746,0.));
#1009=DIRECTION('center_axis',(0.,0.,1.));
#1010=DIRECTION('ref_axis',(-0.0871557427476582,-0.996194698091745,0.));
#1011=DIRECTION('',(0.,0.,1.));
#1012=DIRECTION('center_axis',(0.,0.,1.));
#1013=DIRECTION('ref_axis',(-0.0871557427476582,-0.996194698091745,0.));
#1014=DIRECTION('center_axis',(0.,0.,1.));
#1015=DIRECTION('ref_axis',(-0.0871557427476582,-0.996194698091745,0.));
#1016=DIRECTION('center_axis',(0.0871557427476584,-0.996194698091746,0.));
#1017=DIRECTION('ref_axis',(0.996194698091746,0.0871557427476584,0.));
#1018=DIRECTION('',(0.,0.,1.));
#1019=DIRECTION('',(0.996194698091746,0.0871557427476584,0.));
#1020=DIRECTION('center_axis',(-0.996194698091746,-0.0871557427476584,0.));
#1021=DIRECTION('ref_axis',(0.0871557427476584,-0.996194698091746,0.));
#1022=DIRECTION('',(0.,0.,1.));
#1023=DIRECTION('',(0.0871557427476584,-0.996194698091746,0.));
#1024=DIRECTION('center_axis',(0.,0.,1.));
#1025=DIRECTION('ref_axis',(0.996194698091746,-0.0871557427476582,0.));
#1026=DIRECTION('',(0.,0.,1.));
#1027=DIRECTION('center_axis',(0.,0.,1.));
#1028=DIRECTION('ref_axis',(0.996194698091746,-0.0871557427476582,0.));
#1029=DIRECTION('',(0.,0.,-1.));
#1030=DIRECTION('center_axis',(0.,0.894427190999916,0.447213595499958));
#1031=DIRECTION('ref_axis',(-2.01286552965995E-17,-0.447213595499958,0.894427190999916));
#1032=DIRECTION('center_axis',(0.,0.,1.));
#1033=DIRECTION('ref_axis',(0.996194698091746,-0.0871557427476582,0.));
#1034=DIRECTION('center_axis',(0.,0.,1.));
#1035=DIRECTION('ref_axis',(0.996194698091746,-0.0871557427476582,0.));
#1036=DIRECTION('center_axis',(0.,-0.894427190999916,0.447213595499958));
#1037=DIRECTION('ref_axis',(-2.01286552965995E-17,-0.447213595499958,-0.894427190999916));
#1038=DIRECTION('',(0.,0.,1.));
#1039=DIRECTION('center_axis',(0.,0.,1.));
#1040=DIRECTION('ref_axis',(0.996194698091746,-0.0871557427476582,0.));
#1041=DIRECTION('',(0.,0.,1.));
#1042=DIRECTION('center_axis',(0.,0.,1.));
#1043=DIRECTION('ref_axis',(0.996194698091746,-0.0871557427476582,0.));
#1044=DIRECTION('center_axis',(-0.0871557427476584,-0.996194698091746,0.));
#1045=DIRECTION('ref_axis',(0.996194698091746,-0.0871557427476584,0.));
#1046=DIRECTION('',(0.996194698091746,-0.0871557427476584,0.));
#1047=DIRECTION('',(0.,0.,-1.));
#1048=DIRECTION('',(0.996194698091746,-0.0871557427476583,0.));
#1049=DIRECTION('center_axis',(-0.0871557427476584,0.996194698091746,0.));
#1050=DIRECTION('ref_axis',(-0.996194698091746,-0.0871557427476584,0.));
#1051=DIRECTION('',(0.,0.,1.));
#1052=DIRECTION('',(-0.996194698091746,-0.0871557427476584,0.));
#1053=DIRECTION('center_axis',(0.996194698091746,0.0871557427476576,0.));
#1054=DIRECTION('ref_axis',(-0.0871557427476576,0.996194698091746,0.));
#1055=DIRECTION('',(0.,0.,1.));
#1056=DIRECTION('',(-0.0871557427476576,0.996194698091746,0.));
#1057=DIRECTION('center_axis',(0.,-1.,0.));
#1058=DIRECTION('ref_axis',(0.,0.,-1.));
#1059=DIRECTION('',(1.,0.,0.));
#1060=DIRECTION('',(0.,0.,1.));
#1061=DIRECTION('',(1.,0.,0.));
#1062=DIRECTION('center_axis',(0.,0.894427190999916,0.447213595499958));
#1063=DIRECTION('ref_axis',(0.,-0.447213595499958,0.894427190999916));
#1064=DIRECTION('',(1.,0.,0.));
#1065=DIRECTION('',(1.,0.,0.));
#1066=DIRECTION('center_axis',(0.,0.894427190999916,0.447213595499958));
#1067=DIRECTION('ref_axis',(0.,0.447213595499958,-0.894427190999916));
#1068=DIRECTION('',(1.,0.,0.));
#1069=DIRECTION('center_axis',(0.,-0.894427190999916,-0.447213595499958));
#1070=DIRECTION('ref_axis',(-0.54232614454664,-0.37573457465109,0.751469149302179));
#1071=DIRECTION('center_axis',(0.,0.,1.));
#1072=DIRECTION('ref_axis',(1.,0.,0.));
#1073=DIRECTION('center_axis',(0.,0.,1.));
#1074=DIRECTION('ref_axis',(1.,0.,0.));
#1075=DIRECTION('center_axis',(0.,0.,1.));
#1076=DIRECTION('ref_axis',(1.,0.,0.));
#1077=DIRECTION('center_axis',(0.,0.,1.));
#1078=DIRECTION('ref_axis',(1.,0.,0.));
#1079=DIRECTION('center_axis',(0.,0.,1.));
#1080=DIRECTION('ref_axis',(1.,0.,0.));
#1081=DIRECTION('center_axis',(0.,0.,1.));
#1082=DIRECTION('ref_axis',(1.,0.,0.));
#1083=DIRECTION('center_axis',(0.,0.,1.));
#1084=DIRECTION('ref_axis',(1.,0.,0.));
#1085=DIRECTION('center_axis',(0.,0.,1.));
#1086=DIRECTION('ref_axis',(1.,0.,0.));
#1087=DIRECTION('center_axis',(0.,0.,1.));
#1088=DIRECTION('ref_axis',(1.,0.,0.));
#1089=DIRECTION('center_axis',(0.,0.,1.));
#1090=DIRECTION('ref_axis',(1.,0.,0.));
#1091=DIRECTION('center_axis',(0.,0.,1.));
#1092=DIRECTION('ref_axis',(1.,0.,0.));
#1093=DIRECTION('center_axis',(0.,0.,1.));
#1094=DIRECTION('ref_axis',(1.,0.,0.));
#1095=DIRECTION('center_axis',(0.,0.,1.));
#1096=DIRECTION('ref_axis',(1.,0.,0.));
#1097=DIRECTION('center_axis',(0.,0.,-1.));
#1098=DIRECTION('ref_axis',(-1.,0.,0.));
#1099=DIRECTION('center_axis',(0.,0.,-1.));
#1100=DIRECTION('ref_axis',(-1.,0.,0.));
#1101=DIRECTION('',(-1.,0.,0.));
#1102=DIRECTION('center_axis',(0.,-0.894427190999916,0.447213595499958));
#1103=DIRECTION('ref_axis',(0.,-0.447213595499958,-0.894427190999916));
#1104=DIRECTION('center_axis',(0.,0.894427190999916,-0.447213595499958));
#1105=DIRECTION('ref_axis',(0.54232614454664,-0.37573457465109,-0.751469149302179));
#1106=DIRECTION('',(1.,0.,0.));
#1107=DIRECTION('center_axis',(0.,-0.894427190999916,0.447213595499958));
#1108=DIRECTION('ref_axis',(0.,0.447213595499958,0.894427190999916));
#1109=DIRECTION('center_axis',(0.5,0.,-0.866025403784439));
#1110=DIRECTION('ref_axis',(0.,-1.,0.));
#1111=DIRECTION('center_axis',(0.5,0.,-0.866025403784439));
#1112=DIRECTION('ref_axis',(0.,-1.,0.));
#1113=DIRECTION('',(0.5,0.,-0.866025403784439));
#1114=DIRECTION('center_axis',(0.,-0.707106781186548,-0.707106781186548));
#1115=DIRECTION('ref_axis',(-0.632455532033676,-0.547722557505166,0.547722557505166));
#1116=DIRECTION('center_axis',(0.,0.,-1.));
#1117=DIRECTION('ref_axis',(-1.,0.,0.));
#1118=DIRECTION('center_axis',(0.,0.707106781186548,-0.707106781186548));
#1119=DIRECTION('ref_axis',(0.632455532033676,-0.547722557505166,-0.547722557505166));
#1120=DIRECTION('center_axis',(0.,-0.707106781186548,0.707106781186548));
#1121=DIRECTION('ref_axis',(0.,-0.707106781186548,-0.707106781186548));
#1122=DIRECTION('',(1.,0.,0.));
#1123=DIRECTION('center_axis',(0.,-0.707106781186548,0.707106781186548));
#1124=DIRECTION('ref_axis',(0.,0.707106781186547,0.707106781186547));
#1125=DIRECTION('center_axis',(0.,0.,1.));
#1126=DIRECTION('ref_axis',(0.,-1.,0.));
#1127=DIRECTION('',(1.,0.,0.));
#1128=DIRECTION('center_axis',(0.,0.,1.));
#1129=DIRECTION('ref_axis',(1.,0.,0.));
#1130=DIRECTION('center_axis',(0.,0.707106781186548,0.707106781186548));
#1131=DIRECTION('ref_axis',(0.,-0.707106781186548,0.707106781186548));
#1132=DIRECTION('center_axis',(0.,0.707106781186548,0.707106781186548));
#1133=DIRECTION('ref_axis',(0.,0.707106781186547,-0.707106781186547));
#1134=DIRECTION('center_axis',(0.,1.,0.));
#1135=DIRECTION('ref_axis',(0.,0.,1.));
#1136=DIRECTION('',(-1.,0.,0.));
#1137=DIRECTION('',(0.,0.,-1.));
#1138=DIRECTION('center_axis',(0.,0.,1.));
#1139=DIRECTION('ref_axis',(1.,0.,0.));
#1140=DIRECTION('center_axis',(0.,0.,1.));
#1141=DIRECTION('ref_axis',(1.,0.,0.));
#1142=DIRECTION('center_axis',(0.,0.,1.));
#1143=DIRECTION('ref_axis',(1.,0.,0.));
#1144=DIRECTION('center_axis',(0.,0.,1.));
#1145=DIRECTION('ref_axis',(1.,0.,0.));
#1146=DIRECTION('center_axis',(0.,0.,1.));
#1147=DIRECTION('ref_axis',(1.,0.,0.));
#1148=DIRECTION('',(0.,0.,-1.));
#1149=DIRECTION('center_axis',(1.41410031829988E-16,1.,0.));
#1150=DIRECTION('ref_axis',(0.,0.,-1.));
#1151=DIRECTION('center_axis',(-0.0719815750748695,3.57366073673678E-16,
-0.997405961908059));
#1152=DIRECTION('ref_axis',(-0.997405961908059,0.,0.0719815750748695));
#1153=DIRECTION('center_axis',(-0.0719815750748695,3.57366073673678E-16,
-0.997405961908059));
#1154=DIRECTION('ref_axis',(-0.997405961908059,0.,0.0719815750748695));
#1155=DIRECTION('center_axis',(0.,0.,1.));
#1156=DIRECTION('ref_axis',(-1.,0.,0.));
#1157=DIRECTION('center_axis',(0.5,0.,-0.866025403784439));
#1158=DIRECTION('ref_axis',(0.,-1.,0.));
#1159=DIRECTION('',(-0.5,0.,0.866025403784439));
#1160=DIRECTION('center_axis',(0.5,0.,-0.866025403784439));
#1161=DIRECTION('ref_axis',(0.,-1.,0.));
#1162=DIRECTION('center_axis',(0.,0.,1.));
#1163=DIRECTION('ref_axis',(1.,0.,0.));
#1164=DIRECTION('center_axis',(0.,0.,-1.));
#1165=DIRECTION('ref_axis',(1.,0.,0.));
#1166=DIRECTION('center_axis',(0.5,0.,-0.866025403784439));
#1167=DIRECTION('ref_axis',(0.,-1.,0.));
#1168=DIRECTION('center_axis',(-0.5,0.,0.866025403784439));
#1169=DIRECTION('ref_axis',(0.,-1.,0.));
#1170=DIRECTION('',(0.5,0.,-0.866025403784439));
#1171=DIRECTION('center_axis',(-0.5,0.,0.866025403784439));
#1172=DIRECTION('ref_axis',(0.,-1.,0.));
#1173=DIRECTION('center_axis',(-0.5,0.,0.866025403784439));
#1174=DIRECTION('ref_axis',(0.,-1.,0.));
#1175=DIRECTION('center_axis',(-0.5,0.,0.866025403784439));
#1176=DIRECTION('ref_axis',(0.,-1.,0.));
#1177=DIRECTION('center_axis',(0.,0.,1.));
#1178=DIRECTION('ref_axis',(1.,0.,0.));
#1179=DIRECTION('center_axis',(1.22464679914735E-16,-1.,0.));
#1180=DIRECTION('ref_axis',(-1.,-1.22464679914735E-16,0.));
#1181=CARTESIAN_POINT('',(0.,0.,0.));
#1182=CARTESIAN_POINT('Origin',(-69.5372539381572,-25.3094906060995,1.75));
#1183=CARTESIAN_POINT('',(-69.5372539381572,-25.3094906060995,1.75));
#1184=CARTESIAN_POINT('',(-68.1277150069784,-24.796460391111,1.75));
#1185=CARTESIAN_POINT('',(-69.5372539381572,-25.3094906060995,1.75));
#1186=CARTESIAN_POINT('',(-69.5372539381572,-25.3094906060995,3.));
#1187=CARTESIAN_POINT('',(-69.5372539381572,-25.3094906060995,1.75));
#1188=CARTESIAN_POINT('',(-68.1277150069784,-24.796460391111,3.));
#1189=CARTESIAN_POINT('',(-69.5372539381572,-25.3094906060995,3.));
#1190=CARTESIAN_POINT('',(-68.1277150069784,-24.796460391111,0.));
#1191=CARTESIAN_POINT('Origin',(-71.0638575034892,-9.42998282138639,1.75));
#1192=CARTESIAN_POINT('',(-73.7184076587892,-6.44952496332669,1.75));
#1193=CARTESIAN_POINT('',(-72.2241156116516,-6.3187913492052,1.75));
#1194=CARTESIAN_POINT('',(-72.5306024954557,-6.34560547705745,1.75));
#1195=CARTESIAN_POINT('Origin',(0.,0.,1.75));
#1196=CARTESIAN_POINT('Origin',(0.,0.,1.75));
#1197=CARTESIAN_POINT('Origin',(-25.3094906060995,69.5372539381572,1.75));
#1198=CARTESIAN_POINT('',(-25.3094906060995,69.5372539381572,1.75));
#1199=CARTESIAN_POINT('',(-24.796460391111,68.1277150069784,1.75));
#1200=CARTESIAN_POINT('',(-25.3094906060995,69.5372539381572,1.75));
#1201=CARTESIAN_POINT('',(-25.3094906060995,69.5372539381572,3.));
#1202=CARTESIAN_POINT('',(-25.3094906060995,69.5372539381572,1.75));
#1203=CARTESIAN_POINT('',(-24.796460391111,68.1277150069784,3.));
#1204=CARTESIAN_POINT('',(-25.3094906060995,69.5372539381572,3.));
#1205=CARTESIAN_POINT('',(-24.796460391111,68.1277150069784,0.));
#1206=CARTESIAN_POINT('Origin',(-9.42998282138639,71.0638575034892,1.75));
#1207=CARTESIAN_POINT('',(-6.44952496332671,73.7184076587892,1.75));
#1208=CARTESIAN_POINT('',(-6.31879134920522,72.2241156116516,1.75));
#1209=CARTESIAN_POINT('',(-6.34560547705747,72.5306024954557,1.75));
#1210=CARTESIAN_POINT('Origin',(0.,0.,1.75));
#1211=CARTESIAN_POINT('Origin',(0.,0.,1.75));
#1212=CARTESIAN_POINT('Origin',(69.5372539381572,25.3094906060995,1.75));
#1213=CARTESIAN_POINT('',(69.5372539381572,25.3094906060995,1.75));
#1214=CARTESIAN_POINT('',(68.1277150069784,24.796460391111,1.75));
#1215=CARTESIAN_POINT('',(69.5372539381572,25.3094906060995,1.75));
#1216=CARTESIAN_POINT('',(69.5372539381572,25.3094906060995,3.));
#1217=CARTESIAN_POINT('',(69.5372539381572,25.3094906060995,1.75));
#1218=CARTESIAN_POINT('',(68.1277150069784,24.796460391111,3.));
#1219=CARTESIAN_POINT('',(69.5372539381572,25.3094906060995,3.));
#1220=CARTESIAN_POINT('',(68.1277150069784,24.796460391111,0.));
#1221=CARTESIAN_POINT('Origin',(71.0638575034892,9.42998282138639,1.75));
#1222=CARTESIAN_POINT('',(73.7184076587892,6.4495249633267,1.75));
#1223=CARTESIAN_POINT('',(72.2241156116516,6.31879134920522,1.75));
#1224=CARTESIAN_POINT('',(72.5306024954557,6.34560547705746,1.75));
#1225=CARTESIAN_POINT('Origin',(0.,0.,1.75));
#1226=CARTESIAN_POINT('Origin',(0.,0.,1.75));
#1227=CARTESIAN_POINT('Origin',(25.3094906060994,-69.5372539381572,1.75));
#1228=CARTESIAN_POINT('',(25.3094906060994,-69.5372539381572,1.75));
#1229=CARTESIAN_POINT('',(24.796460391111,-68.1277150069784,1.75));
#1230=CARTESIAN_POINT('',(25.3094906060994,-69.5372539381572,1.75));
#1231=CARTESIAN_POINT('',(25.3094906060994,-69.5372539381572,3.));
#1232=CARTESIAN_POINT('',(25.3094906060994,-69.5372539381572,1.75));
#1233=CARTESIAN_POINT('',(24.796460391111,-68.1277150069784,3.));
#1234=CARTESIAN_POINT('',(25.3094906060994,-69.5372539381572,3.));
#1235=CARTESIAN_POINT('',(24.7964603911109,-68.1277150069784,0.));
#1236=CARTESIAN_POINT('Origin',(9.42998282138639,-71.0638575034892,1.75));
#1237=CARTESIAN_POINT('',(6.44952496332668,-73.7184076587892,1.75));
#1238=CARTESIAN_POINT('',(6.3187913492052,-72.2241156116516,1.75));
#1239=CARTESIAN_POINT('',(6.34560547705744,-72.5306024954557,1.75));
#1240=CARTESIAN_POINT('Origin',(0.,0.,1.75));
#1241=CARTESIAN_POINT('Origin',(0.,0.,1.75));
#1242=CARTESIAN_POINT('Origin',(-72.2241156116516,6.31879134920522,0.));
#1243=CARTESIAN_POINT('',(-73.7184076587892,6.44952496332671,0.));
#1244=CARTESIAN_POINT('',(-73.7184076587892,6.44952496332671,3.));
#1245=CARTESIAN_POINT('',(-73.7184076587892,6.44952496332671,0.));
#1246=CARTESIAN_POINT('',(-72.2241156116516,6.31879134920522,0.));
#1247=CARTESIAN_POINT('',(-36.1120578058258,3.1593956746026,0.));
#1248=CARTESIAN_POINT('',(-72.2241156116516,6.31879134920522,3.));
#1249=CARTESIAN_POINT('',(-72.2241156116516,6.31879134920522,0.));
#1250=CARTESIAN_POINT('',(-72.2241156116516,6.31879134920522,3.));
#1251=CARTESIAN_POINT('Origin',(0.,0.,0.));
#1252=CARTESIAN_POINT('',(-73.7184076587892,-6.44952496332669,0.));
#1253=CARTESIAN_POINT('',(-73.7184076587892,-6.44952496332669,0.));
#1254=CARTESIAN_POINT('Origin',(0.,0.,0.));
#1255=CARTESIAN_POINT('Origin',(0.,0.,3.));
#1256=CARTESIAN_POINT('Origin',(6.31879134920522,72.2241156116516,0.));
#1257=CARTESIAN_POINT('',(6.4495249633267,73.7184076587892,0.));
#1258=CARTESIAN_POINT('',(6.4495249633267,73.7184076587892,3.));
#1259=CARTESIAN_POINT('',(6.4495249633267,73.7184076587892,0.));
#1260=CARTESIAN_POINT('',(6.31879134920522,72.2241156116516,0.));
#1261=CARTESIAN_POINT('',(3.1593956746026,36.1120578058258,0.));
#1262=CARTESIAN_POINT('',(6.31879134920522,72.2241156116516,3.));
#1263=CARTESIAN_POINT('',(6.31879134920522,72.2241156116516,0.));
#1264=CARTESIAN_POINT('',(6.31879134920522,72.2241156116516,3.));
#1265=CARTESIAN_POINT('Origin',(0.,0.,0.));
#1266=CARTESIAN_POINT('',(-6.44952496332671,73.7184076587892,0.));
#1267=CARTESIAN_POINT('',(-6.44952496332671,73.7184076587892,0.));
#1268=CARTESIAN_POINT('Origin',(0.,0.,0.));
#1269=CARTESIAN_POINT('Origin',(0.,0.,3.));
#1270=CARTESIAN_POINT('Origin',(-6.31879134920522,-72.2241156116516,0.));
#1271=CARTESIAN_POINT('',(-6.44952496332671,-73.7184076587892,0.));
#1272=CARTESIAN_POINT('',(-6.44952496332671,-73.7184076587892,3.));
#1273=CARTESIAN_POINT('',(-6.44952496332671,-73.7184076587892,0.));
#1274=CARTESIAN_POINT('',(-6.31879134920522,-72.2241156116516,0.));
#1275=CARTESIAN_POINT('',(-3.15939567460261,-36.1120578058258,0.));
#1276=CARTESIAN_POINT('',(-6.31879134920522,-72.2241156116516,3.));
#1277=CARTESIAN_POINT('',(-6.31879134920522,-72.2241156116515,0.));
#1278=CARTESIAN_POINT('',(-6.31879134920522,-72.2241156116516,3.));
#1279=CARTESIAN_POINT('Origin',(0.,0.,0.));
#1280=CARTESIAN_POINT('',(6.44952496332668,-73.7184076587892,0.));
#1281=CARTESIAN_POINT('',(6.44952496332668,-73.7184076587892,0.));
#1282=CARTESIAN_POINT('Origin',(0.,0.,0.));
#1283=CARTESIAN_POINT('Origin',(0.,0.,3.));
#1284=CARTESIAN_POINT('Origin',(-73.7184076587892,-6.44952496332669,0.));
#1285=CARTESIAN_POINT('',(-72.2241156116516,-6.31879134920529,0.));
#1286=CARTESIAN_POINT('',(-72.2241156116516,-6.3187913492052,0.));
#1287=CARTESIAN_POINT('',(-36.8592038293946,-3.22476248166333,0.));
#1288=CARTESIAN_POINT('Origin',(-6.44952496332671,73.7184076587892,0.));
#1289=CARTESIAN_POINT('',(-6.31879134920529,72.2241156116516,0.));
#1290=CARTESIAN_POINT('',(-6.31879134920522,72.2241156116516,0.));
#1291=CARTESIAN_POINT('',(-3.22476248166335,36.8592038293946,0.));
#1292=CARTESIAN_POINT('Origin',(0.,0.,0.));
#1293=CARTESIAN_POINT('',(73.7184076587892,6.4495249633267,0.));
#1294=CARTESIAN_POINT('',(73.7184076587892,6.4495249633267,0.));
#1295=CARTESIAN_POINT('',(73.8918128076447,4.,0.));
#1296=CARTESIAN_POINT('Origin',(0.,0.,0.));
#1297=CARTESIAN_POINT('',(73.8918128076447,4.,1.7));
#1298=CARTESIAN_POINT('',(73.8918128076447,4.,0.));
#1299=CARTESIAN_POINT('',(73.9241334071628,3.35,3.));
#1300=CARTESIAN_POINT('Origin',(0.,0.,9.7));
#1301=CARTESIAN_POINT('Origin',(0.,0.,3.));
#1302=CARTESIAN_POINT('Origin',(0.,0.,0.));
#1303=CARTESIAN_POINT('',(73.8918128076447,-4.,1.7));
#1304=CARTESIAN_POINT('',(73.9241334071628,-3.35,3.));
#1305=CARTESIAN_POINT('Origin',(0.,0.,9.7));
#1306=CARTESIAN_POINT('',(73.8918128076447,-4.,0.));
#1307=CARTESIAN_POINT('',(73.8918128076447,-4.,0.));
#1308=CARTESIAN_POINT('',(73.7184076587892,-6.44952496332671,0.));
#1309=CARTESIAN_POINT('Origin',(0.,0.,0.));
#1310=CARTESIAN_POINT('',(73.7184076587892,-6.44952496332671,3.));
#1311=CARTESIAN_POINT('',(73.7184076587892,-6.44952496332671,0.));
#1312=CARTESIAN_POINT('Origin',(0.,0.,3.));
#1313=CARTESIAN_POINT('Origin',(72.2241156116516,-6.31879134920522,0.));
#1314=CARTESIAN_POINT('',(72.2241156116516,-6.31879134920522,0.));
#1315=CARTESIAN_POINT('',(36.1120578058258,-3.1593956746026,0.));
#1316=CARTESIAN_POINT('',(72.2241156116516,-6.31879134920522,3.));
#1317=CARTESIAN_POINT('',(72.2241156116516,-6.31879134920522,0.));
#1318=CARTESIAN_POINT('',(72.2241156116516,-6.31879134920522,3.));
#1319=CARTESIAN_POINT('Origin',(73.7184076587892,6.4495249633267,0.));
#1320=CARTESIAN_POINT('',(72.2241156116516,6.31879134920529,0.));
#1321=CARTESIAN_POINT('',(72.2241156116516,6.31879134920522,0.));
#1322=CARTESIAN_POINT('',(36.8592038293946,3.22476248166335,0.));
#1323=CARTESIAN_POINT('Origin',(6.44952496332668,-73.7184076587892,0.));
#1324=CARTESIAN_POINT('',(6.31879134920528,-72.2241156116516,0.));
#1325=CARTESIAN_POINT('',(6.3187913492052,-72.2241156116516,0.));
#1326=CARTESIAN_POINT('',(3.22476248166335,-36.8592038293946,0.));
#1327=CARTESIAN_POINT('Origin',(45.,-4.,1.7));
#1328=CARTESIAN_POINT('',(79.8999374217527,-4.,1.7));
#1329=CARTESIAN_POINT('',(45.,-4.,1.7));
#1330=CARTESIAN_POINT('',(79.8999374217527,-4.,0.));
#1331=CARTESIAN_POINT('',(79.8999374217527,-4.,0.));
#1332=CARTESIAN_POINT('',(22.5,-4.,0.));
#1333=CARTESIAN_POINT('Origin',(45.,4.,1.7));
#1334=CARTESIAN_POINT('',(61.038336545178,3.35,3.));
#1335=CARTESIAN_POINT('',(59.0560289029129,3.35,3.));
#1336=CARTESIAN_POINT('',(79.8999374217527,4.,1.7));
#1337=CARTESIAN_POINT('',(45.,4.,1.7));
#1338=CARTESIAN_POINT('',(79.9359743794995,3.2,3.3));
#1339=CARTESIAN_POINT('Origin',(0.,0.,9.7));
#1340=CARTESIAN_POINT('',(60.9019523899717,3.2,3.3));
#1341=CARTESIAN_POINT('',(45.,3.2,3.3));
#1342=CARTESIAN_POINT('Origin',(39.3997023888606,0.,9.7));
#1343=CARTESIAN_POINT('Origin',(0.,0.,0.));
#1344=CARTESIAN_POINT('Origin',(0.,0.,3.));
#1345=CARTESIAN_POINT('Origin',(0.,0.,0.));
#1346=CARTESIAN_POINT('Origin',(0.,0.,0.));
#1347=CARTESIAN_POINT('Origin',(0.,0.,3.));
#1348=CARTESIAN_POINT('Origin',(0.,0.,0.));
#1349=CARTESIAN_POINT('Origin',(0.,0.,0.));
#1350=CARTESIAN_POINT('Origin',(0.,0.,3.));
#1351=CARTESIAN_POINT('Origin',(0.,0.,0.));
#1352=CARTESIAN_POINT('Origin',(0.,0.,0.));
#1353=CARTESIAN_POINT('Origin',(0.,0.,3.));
#1354=CARTESIAN_POINT('Origin',(0.,0.,0.));
#1355=CARTESIAN_POINT('Origin',(0.,0.,3.));
#1356=CARTESIAN_POINT('',(43.2679491924311,15.75,3.00000000000001));
#1357=CARTESIAN_POINT('Origin',(43.2679491924311,0.,3.00000000000001));
#1358=CARTESIAN_POINT('',(61.038336545178,-3.35000000000001,3.));
#1359=CARTESIAN_POINT('Origin',(43.2679491924311,0.,3.00000000000001));
#1360=CARTESIAN_POINT('',(59.0560289029129,-3.35,3.));
#1361=CARTESIAN_POINT('Origin',(45.,-3.2,3.3));
#1362=CARTESIAN_POINT('',(60.9019523899717,-3.2,3.3));
#1363=CARTESIAN_POINT('Origin',(39.3997023888606,0.,9.70000000000002));
#1364=CARTESIAN_POINT('',(79.9359743794995,-3.2,3.3));
#1365=CARTESIAN_POINT('',(45.,-3.2,3.3));
#1366=CARTESIAN_POINT('Origin',(0.,0.,9.7));
#1367=CARTESIAN_POINT('Origin',(-4.99999999999998,0.,86.6025403784439));
#1368=CARTESIAN_POINT('',(-4.99999999999998,15.75,86.6025403784439));
#1369=CARTESIAN_POINT('Origin',(-4.99999999999998,0.,86.6025403784439));
#1370=CARTESIAN_POINT('',(-4.99999999999998,15.75,86.6025403784439));
#1371=CARTESIAN_POINT('',(59.9744128208577,1.,5.50000000000001));
#1372=CARTESIAN_POINT('Origin',(41.2472232502674,0.,6.5));
#1373=CARTESIAN_POINT('',(59.9744128208577,-1.,5.50000000000001));
#1374=CARTESIAN_POINT('Origin',(41.824573519457,0.,5.50000000000001));
#1375=CARTESIAN_POINT('Origin',(41.2472232502674,0.,6.5));
#1376=CARTESIAN_POINT('Origin',(45.,-1.,5.5));
#1377=CARTESIAN_POINT('',(79.9937497558403,-1.,5.5));
#1378=CARTESIAN_POINT('',(45.,-1.,5.5));
#1379=CARTESIAN_POINT('Origin',(0.,0.,6.5));
#1380=CARTESIAN_POINT('Origin',(45.,1.,5.5));
#1381=CARTESIAN_POINT('',(79.9937497558403,1.,5.5));
#1382=CARTESIAN_POINT('',(45.,1.,5.5));
#1383=CARTESIAN_POINT('Origin',(0.,0.,5.5));
#1384=CARTESIAN_POINT('Origin',(45.,3.2,3.3));
#1385=CARTESIAN_POINT('Origin',(0.,0.,6.5));
#1386=CARTESIAN_POINT('Origin',(45.,4.,0.));
#1387=CARTESIAN_POINT('',(79.8999374217527,4.,0.));
#1388=CARTESIAN_POINT('',(22.5,4.,0.));
#1389=CARTESIAN_POINT('',(79.8999374217527,4.,0.));
#1390=CARTESIAN_POINT('Origin',(0.,0.,0.));
#1391=CARTESIAN_POINT('',(-80.,-9.79717439317883E-15,0.));
#1392=CARTESIAN_POINT('Origin',(0.,0.,0.));
#1393=CARTESIAN_POINT('Origin',(0.,0.,0.));
#1394=CARTESIAN_POINT('Origin',(0.,0.,0.));
#1395=CARTESIAN_POINT('',(-80.,-9.79717439317883E-15,8.));
#1396=CARTESIAN_POINT('Origin',(0.,0.,8.));
#1397=CARTESIAN_POINT('',(-80.,-9.79717439317883E-15,0.));
#1398=CARTESIAN_POINT('Ctrl Pts',(68.094010767585,-3.30654635769785E-15,
10.));
#1399=CARTESIAN_POINT('Ctrl Pts',(68.094010767585,-4.03919055461545,10.));
#1400=CARTESIAN_POINT('Ctrl Pts',(65.9666188429097,-12.1158746744115,10.));
#1401=CARTESIAN_POINT('Ctrl Pts',(57.0216727495671,-21.8296941167771,10.));
#1402=CARTESIAN_POINT('Ctrl Pts',(44.0888383771639,-27.2253976498812,10.));
#1403=CARTESIAN_POINT('Ctrl Pts',(31.3423411071422,-27.2177833706604,10.));
#1404=CARTESIAN_POINT('Ctrl Pts',(18.1583511284415,-22.7442786001888,10.));
#1405=CARTESIAN_POINT('Ctrl Pts',(11.2449194986813,-16.3139039559143,9.99999999999999));
#1406=CARTESIAN_POINT('Ctrl Pts',(8.33440915662083,-10.8000596086552,10.));
#1407=CARTESIAN_POINT('Ctrl Pts',(7.7388564905388,-9.5563105530879,9.99999999999999));
#1408=CARTESIAN_POINT('Ctrl Pts',(7.0973511931499,-7.96618699646939,10.));
#1409=CARTESIAN_POINT('Ctrl Pts',(6.49289498041542,-6.01404403639497,9.99999999999999));
#1410=CARTESIAN_POINT('Ctrl Pts',(5.91593199486093,-3.36635230858633,10.));
#1411=CARTESIAN_POINT('Ctrl Pts',(5.3836416564356,2.69350809173266,10.));
#1412=CARTESIAN_POINT('Ctrl Pts',(7.51419907816601,10.7677664850325,10.));
#1413=CARTESIAN_POINT('Ctrl Pts',(13.7201868710098,18.6395648138138,10.));
#1414=CARTESIAN_POINT('Ctrl Pts',(21.0944166236174,23.7369568579882,10.));
#1415=CARTESIAN_POINT('Ctrl Pts',(29.8730900805921,26.7124192455293,10.));
#1416=CARTESIAN_POINT('Ctrl Pts',(42.4249677873414,27.5519106366061,10.));
#1417=CARTESIAN_POINT('Ctrl Pts',(56.0309608855623,22.9268382897757,9.99999999999999));
#1418=CARTESIAN_POINT('Ctrl Pts',(65.964700201755,12.1067660011735,10.));
#1419=CARTESIAN_POINT('Ctrl Pts',(68.094010767585,4.03919055461545,10.));
#1420=CARTESIAN_POINT('Ctrl Pts',(68.094010767585,3.30654635769785E-15,
10.));
#1421=CARTESIAN_POINT('Ctrl Pts',(67.6950783671292,-3.25013331425138E-15,
10.));
#1422=CARTESIAN_POINT('Ctrl Pts',(67.6950783671292,-3.97026643373479,10.));
#1423=CARTESIAN_POINT('Ctrl Pts',(65.5884840817491,-11.909058911449,10.0000110199902));
#1424=CARTESIAN_POINT('Ctrl Pts',(56.7390787512913,-21.431112080306,10.0000352596404));
#1425=CARTESIAN_POINT('Ctrl Pts',(43.9689929352457,-26.6688990068223,10.0000100540167));
#1426=CARTESIAN_POINT('Ctrl Pts',(31.4309732302328,-26.5802504665829,10.000047270698));
#1427=CARTESIAN_POINT('Ctrl Pts',(18.5292813237243,-22.111045181538,9.99993221278304));
#1428=CARTESIAN_POINT('Ctrl Pts',(11.8337751631956,-15.8026465559692,10.0000246641936));
#1429=CARTESIAN_POINT('Ctrl Pts',(9.03089054605371,-10.4488654141569,10.0000071746234));
#1430=CARTESIAN_POINT('Ctrl Pts',(8.45756494534693,-9.24204207474817,9.99999160712354));
#1431=CARTESIAN_POINT('Ctrl Pts',(7.84072669420827,-7.70096618309944,9.99998758792897));
#1432=CARTESIAN_POINT('Ctrl Pts',(7.26019045546513,-5.81155875764341,9.99997910721983));
#1433=CARTESIAN_POINT('Ctrl Pts',(6.70638941491456,-3.25136820049061,9.99997030982519));
#1434=CARTESIAN_POINT('Ctrl Pts',(6.19719243035307,2.60071122636101,9.9999812858093));
#1435=CARTESIAN_POINT('Ctrl Pts',(8.235284491855,10.4033412126972,9.99995737660272));
#1436=CARTESIAN_POINT('Ctrl Pts',(14.2289625589094,18.082874521235,9.99997300965872));
#1437=CARTESIAN_POINT('Ctrl Pts',(21.4032214813446,23.1034492876436,10.0000184801003));
#1438=CARTESIAN_POINT('Ctrl Pts',(29.9929723645825,26.0748854280252,10.0000089931868));
#1439=CARTESIAN_POINT('Ctrl Pts',(42.3276049361388,26.9794465720249,10.0000112097628));
#1440=CARTESIAN_POINT('Ctrl Pts',(55.7586401761714,22.507119806854,10.0000345835747));
#1441=CARTESIAN_POINT('Ctrl Pts',(65.5867293408865,11.8998569711197,10.0000173708439));
#1442=CARTESIAN_POINT('Ctrl Pts',(67.6950783671292,3.97026643373479,10.));
#1443=CARTESIAN_POINT('Ctrl Pts',(67.6950783671292,3.25013331425138E-15,
10.));
#1444=CARTESIAN_POINT('Ctrl Pts',(66.8976407846958,-3.13736764033704E-15,
10.1206104016271));
#1445=CARTESIAN_POINT('Ctrl Pts',(66.8976407846958,-3.83248065573701,10.1206104016271));
#1446=CARTESIAN_POINT('Ctrl Pts',(64.8327190517399,-11.4956630999188,10.1296890618525));
#1447=CARTESIAN_POINT('Ctrl Pts',(56.1744157092976,-20.6346988739195,10.1696130363724));
#1448=CARTESIAN_POINT('Ctrl Pts',(43.7299065556692,-25.5578180725341,10.2330916617029));
#1449=CARTESIAN_POINT('Ctrl Pts',(31.6076256533638,-25.3087380176011,10.3049024274571));
#1450=CARTESIAN_POINT('Ctrl Pts',(19.268525316264,-20.8499479333464,10.3903958926336));
#1451=CARTESIAN_POINT('Ctrl Pts',(13.0051217055906,-14.7851037313818,10.4444725653385));
#1452=CARTESIAN_POINT('Ctrl Pts',(10.4159256693442,-9.75020092964736,10.4689644755475));
#1453=CARTESIAN_POINT('Ctrl Pts',(9.88679301259481,-8.61694872311406,10.4740153482768));
#1454=CARTESIAN_POINT('Ctrl Pts',(9.3189102625613,-7.17349483550276,10.4795115076989));
#1455=CARTESIAN_POINT('Ctrl Pts',(8.78586805799258,-5.40895807397212,10.4847677289853));
#1456=CARTESIAN_POINT('Ctrl Pts',(8.27806344896689,-3.022878695883,10.4898196941565));
#1457=CARTESIAN_POINT('Ctrl Pts',(7.81455046226003,2.41599700451109,10.4946215063647));
#1458=CARTESIAN_POINT('Ctrl Pts',(9.66950994144328,9.67858611112128,10.4753395073336));
#1459=CARTESIAN_POINT('Ctrl Pts',(15.2416946234256,16.9747936745883,10.4249605036792));
#1460=CARTESIAN_POINT('Ctrl Pts',(22.0183746352052,21.8413583687878,10.3713575222215));
#1461=CARTESIAN_POINT('Ctrl Pts',(30.2320199553506,24.8035937857887,10.3144700442604));
#1462=CARTESIAN_POINT('Ctrl Pts',(42.1333684291994,25.8365972063762,10.241577730072));
#1463=CARTESIAN_POINT('Ctrl Pts',(55.2145972257752,21.6684876175049,10.1739863323992));
#1464=CARTESIAN_POINT('Ctrl Pts',(64.8312604899415,11.4862819443515,10.1297283478836));
#1465=CARTESIAN_POINT('Ctrl Pts',(66.8976407846958,3.83248065573701,10.1206104016271));
#1466=CARTESIAN_POINT('Ctrl Pts',(66.8976407846958,3.13736764033704E-15,
10.1206104016271));
#1467=CARTESIAN_POINT('Ctrl Pts',(65.6248688978766,-2.95738492730963E-15,
10.7326468215313));
#1468=CARTESIAN_POINT('Ctrl Pts',(65.6248688978766,-3.61266539856836,10.7326468215313));
#1469=CARTESIAN_POINT('Ctrl Pts',(63.636125239745,-10.8358793851247,10.7862769129433));
#1470=CARTESIAN_POINT('Ctrl Pts',(55.3127374944314,-19.403730364996,11.0203617868081));
#1471=CARTESIAN_POINT('Ctrl Pts',(43.3931039088245,-23.9293847638641,11.384214604933));
#1472=CARTESIAN_POINT('Ctrl Pts',(31.8634884875626,-23.5609367033821,11.784778924832));
#1473=CARTESIAN_POINT('Ctrl Pts',(20.229905457016,-19.2489759226643,12.2480218608388));
#1474=CARTESIAN_POINT('Ctrl Pts',(14.4301093669215,-13.5641700462866,12.5327606405361));
#1475=CARTESIAN_POINT('Ctrl Pts',(12.0536546477196,-8.92551043261909,12.6595913597347));
#1476=CARTESIAN_POINT('Ctrl Pts',(11.5681406544701,-7.88258342034122,12.6856492476641));
#1477=CARTESIAN_POINT('Ctrl Pts',(11.0483029429691,-6.55719890798488,12.7140462896051));
#1478=CARTESIAN_POINT('Ctrl Pts',(10.5612636005399,-4.94064003244969,12.7411098399764));
#1479=CARTESIAN_POINT('Ctrl Pts',(10.097724304023,-2.75837971346245,12.7670778317168));
#1480=CARTESIAN_POINT('Ctrl Pts',(9.67749716088824,2.20439812367483,12.791838765299));
#1481=CARTESIAN_POINT('Ctrl Pts',(11.3596720543279,8.83796675299753,12.6927271580848));
#1482=CARTESIAN_POINT('Ctrl Pts',(16.4979934243284,15.6140113137549,12.4299927968663));
#1483=CARTESIAN_POINT('Ctrl Pts',(22.8241770599799,20.2089681244161,12.1451130472494));
#1484=CARTESIAN_POINT('Ctrl Pts',(30.5660945126488,23.0716359520652,11.8364766189949));
#1485=CARTESIAN_POINT('Ctrl Pts',(41.8670644764381,24.1743978981748,11.4326896702379));
#1486=CARTESIAN_POINT('Ctrl Pts',(54.389251214506,20.3736818441537,11.0459204864103));
#1487=CARTESIAN_POINT('Ctrl Pts',(63.6350981422209,10.8266489139704,10.7865061987915));
#1488=CARTESIAN_POINT('Ctrl Pts',(65.6248688978766,3.61266539856836,10.7326468215313));
#1489=CARTESIAN_POINT('Ctrl Pts',(65.6248688978766,2.95738492730963E-15,
10.7326468215313));
#1490=CARTESIAN_POINT('Ctrl Pts',(64.9291084527892,-2.85899742062377E-15,
11.4817716102188));
#1491=CARTESIAN_POINT('Ctrl Pts',(64.9291084527892,-3.49236532802555,11.4817716102188));
#1492=CARTESIAN_POINT('Ctrl Pts',(63.0005197586045,-10.4757395221116,11.5865755398355));
#1493=CARTESIAN_POINT('Ctrl Pts',(54.9132448021902,-18.8054495409451,12.0348775950269));
#1494=CARTESIAN_POINT('Ctrl Pts',(43.2898318618819,-23.3030423675115,12.7071351245768));
#1495=CARTESIAN_POINT('Ctrl Pts',(31.9516803829419,-23.1035134814259,13.4062467659665));
#1496=CARTESIAN_POINT('Ctrl Pts',(20.3790003607591,-19.0828634161821,14.1716176114294));
#1497=CARTESIAN_POINT('Ctrl Pts',(14.452211531499,-13.5684430224644,14.6054514934196));
#1498=CARTESIAN_POINT('Ctrl Pts',(11.9886345283192,-8.95728280090096,14.7938521305751));
#1499=CARTESIAN_POINT('Ctrl Pts',(11.485201483816,-7.91891309425987,14.8325638865513));
#1500=CARTESIAN_POINT('Ctrl Pts',(10.9439901725827,-6.59480669869376,14.8744183502554));
#1501=CARTESIAN_POINT('Ctrl Pts',(10.4354382004474,-4.97450509674397,14.9141233645567));
#1502=CARTESIAN_POINT('Ctrl Pts',(9.95066892312002,-2.78168683778063,14.9521364487366));
#1503=CARTESIAN_POINT('Ctrl Pts',(9.50614911450818,2.22282925862685,14.9876389232392));
#1504=CARTESIAN_POINT('Ctrl Pts',(11.284567326628,8.9016278964816,14.8452927208724));
#1505=CARTESIAN_POINT('Ctrl Pts',(16.5710398166901,15.5604578591991,14.449703023927));
#1506=CARTESIAN_POINT('Ctrl Pts',(22.9563788477445,19.9764057529685,14.0010059940377));
#1507=CARTESIAN_POINT('Ctrl Pts',(30.6623235872717,22.6482852435008,13.4917879035577));
#1508=CARTESIAN_POINT('Ctrl Pts',(41.798313418278,23.5591272644187,12.795002938938));
#1509=CARTESIAN_POINT('Ctrl Pts',(54.0169113000606,19.747547537873,12.0842979603027));
#1510=CARTESIAN_POINT('Ctrl Pts',(62.9990887074407,10.46728809183,11.586799145086));
#1511=CARTESIAN_POINT('Ctrl Pts',(64.9291084527892,3.49236532802555,11.4817716102188));
#1512=CARTESIAN_POINT('Ctrl Pts',(64.9291084527892,2.85899742062377E-15,
11.4817716102188));
#1513=CARTESIAN_POINT('Ctrl Pts',(64.6299091524473,-2.81668763803891E-15,
12.));
#1514=CARTESIAN_POINT('Ctrl Pts',(64.6299091524473,-3.44079195393168,12.));
#1515=CARTESIAN_POINT('Ctrl Pts',(62.7388941082914,-10.3209302782024,12.1364722555981));
#1516=CARTESIAN_POINT('Ctrl Pts',(54.7878309142091,-18.595665358736,12.710290815029));
#1517=CARTESIAN_POINT('Ctrl Pts',(43.2919781387395,-23.1920054054544,13.5399325268392));
#1518=CARTESIAN_POINT('Ctrl Pts',(31.9617583431648,-23.1855191675996,14.3576207079583));
#1519=CARTESIAN_POINT('Ctrl Pts',(20.2426561398752,-19.3747558446053,15.2033740594246));
#1520=CARTESIAN_POINT('Ctrl Pts',(14.0973835800884,-13.8970292957788,15.6468709052541));
#1521=CARTESIAN_POINT('Ctrl Pts',(11.5102632760347,-9.20005077774332,15.8335802307505));
#1522=CARTESIAN_POINT('Ctrl Pts',(10.9808831284062,-8.14056084151932,15.8717849520927));
#1523=CARTESIAN_POINT('Ctrl Pts',(10.4106561973938,-6.78601114514059,15.9129375361076));
#1524=CARTESIAN_POINT('Ctrl Pts',(9.8733617860743,-5.12307454952163,15.9517134202337));
#1525=CARTESIAN_POINT('Ctrl Pts',(9.36050579891476,-2.86763344805502,15.988725613014));
#1526=CARTESIAN_POINT('Ctrl Pts',(8.88735883142558,2.29446985592041,16.0228720541448));
#1527=CARTESIAN_POINT('Ctrl Pts',(10.7811876507415,9.17254182058321,15.8861967318159));
#1528=CARTESIAN_POINT('Ctrl Pts',(16.2976212443804,15.8781478043599,15.4880824292841));
#1529=CARTESIAN_POINT('Ctrl Pts',(22.8524921355871,20.2203706568047,15.0150253700914));
#1530=CARTESIAN_POINT('Ctrl Pts',(30.6557574306758,22.7550238017471,14.4518732052567));
#1531=CARTESIAN_POINT('Ctrl Pts',(41.8129820588974,23.4701460978497,13.6466698749426));
#1532=CARTESIAN_POINT('Ctrl Pts',(53.9071981462049,19.5302696542534,12.773845010737));
#1533=CARTESIAN_POINT('Ctrl Pts',(62.7371886494872,10.3131710380367,12.1365953364856));
#1534=CARTESIAN_POINT('Ctrl Pts',(64.6299091524473,3.44079195393168,12.));
#1535=CARTESIAN_POINT('Ctrl Pts',(64.6299091524473,2.81668763803891E-15,
12.));
#1536=CARTESIAN_POINT('',(68.094010767585,3.30654635769785E-15,10.));
#1537=CARTESIAN_POINT('',(64.6299091524473,-2.81668763803891E-15,12.));
#1538=CARTESIAN_POINT('Origin',(68.094010767585,-3.30654635769785E-15,14.));
#1539=CARTESIAN_POINT('',(36.9170962313452,23.,14.));
#1540=CARTESIAN_POINT('Origin',(36.9170962313452,0.,14.));
#1541=CARTESIAN_POINT('Origin',(36.9170962313452,0.,14.));
#1542=CARTESIAN_POINT('Origin',(36.9170962313452,0.,10.));
#1543=CARTESIAN_POINT('Origin',(-4.99999999999998,0.,86.6025403784439));
#1544=CARTESIAN_POINT('',(20.,23.,43.3012701892219));
#1545=CARTESIAN_POINT('',(-4.99999999999998,23.,86.6025403784439));
#1546=CARTESIAN_POINT('Origin',(20.,0.,43.3012701892219));
#1547=CARTESIAN_POINT('Origin',(0.,0.,10.));
#1548=CARTESIAN_POINT('',(-78.,9.55224503334935E-15,10.));
#1549=CARTESIAN_POINT('Origin',(0.,0.,10.));
#1550=CARTESIAN_POINT('Origin',(-4.99999999999998,0.,86.6025403784439));
#1551=CARTESIAN_POINT('',(-4.99999999999998,20.,86.6025403784439));
#1552=CARTESIAN_POINT('Origin',(-4.99999999999998,0.,86.6025403784439));
#1553=CARTESIAN_POINT('',(20.,20.,43.3012701892219));
#1554=CARTESIAN_POINT('',(-4.99999999999998,20.,86.6025403784439));
#1555=CARTESIAN_POINT('Origin',(20.,0.,43.3012701892219));
#1556=CARTESIAN_POINT('Origin',(20.,0.,43.3012701892219));
#1557=CARTESIAN_POINT('Origin',(-4.99999999999998,0.,86.6025403784439));
#1558=CARTESIAN_POINT('Origin',(0.,0.,8.));
#1559=CARTESIAN_POINT('Origin',(-78.,-9.55224503334935E-15,8.));
#1560=UNCERTAINTY_MEASURE_WITH_UNIT(LENGTH_MEASURE(0.01),#1564,
'DISTANCE_ACCURACY_VALUE',
'Maximum model space distance between geometric entities at asserted c
onnectivities');
#1561=UNCERTAINTY_MEASURE_WITH_UNIT(LENGTH_MEASURE(0.01),#1564,
'DISTANCE_ACCURACY_VALUE',
'Maximum model space distance between geometric entities at asserted c
onnectivities');
#1562=(
GEOMETRIC_REPRESENTATION_CONTEXT(3)
GLOBAL_UNCERTAINTY_ASSIGNED_CONTEXT((#1560))
GLOBAL_UNIT_ASSIGNED_CONTEXT((#1564,#1566,#1567))
REPRESENTATION_CONTEXT('','3D')
);
#1563=(
GEOMETRIC_REPRESENTATION_CONTEXT(3)
GLOBAL_UNCERTAINTY_ASSIGNED_CONTEXT((#1561))
GLOBAL_UNIT_ASSIGNED_CONTEXT((#1564,#1566,#1567))
REPRESENTATION_CONTEXT('','3D')
);
#1564=(
LENGTH_UNIT()
NAMED_UNIT(*)
SI_UNIT(.MILLI.,.METRE.)
);
#1565=(
LENGTH_UNIT()
NAMED_UNIT(*)
SI_UNIT($,.METRE.)
);
#1566=(
NAMED_UNIT(*)
PLANE_ANGLE_UNIT()
SI_UNIT($,.RADIAN.)
);
#1567=(
NAMED_UNIT(*)
SI_UNIT($,.STERADIAN.)
SOLID_ANGLE_UNIT()
);
#1568=SHAPE_DEFINITION_REPRESENTATION(#1569,#1570);
#1569=PRODUCT_DEFINITION_SHAPE('',$,#1572);
#1570=SHAPE_REPRESENTATION('',(#827),#1562);
#1571=PRODUCT_DEFINITION_CONTEXT('part definition',#1576,'design');
#1572=PRODUCT_DEFINITION('al-base-plate-base','al-base-plate-base v1',#1573,
#1571);
#1573=PRODUCT_DEFINITION_FORMATION('',$,#1578);
#1574=PRODUCT_RELATED_PRODUCT_CATEGORY('al-base-plate-base v1',
'al-base-plate-base v1',(#1578));
#1575=APPLICATION_PROTOCOL_DEFINITION('international standard',
'automotive_design',2009,#1576);
#1576=APPLICATION_CONTEXT(
'Core Data for Automotive Mechanical Design Process');
#1577=PRODUCT_CONTEXT('part definition',#1576,'mechanical');
#1578=PRODUCT('al-base-plate-base','al-base-plate-base v1',$,(#1577));
#1579=PRESENTATION_STYLE_ASSIGNMENT((#1580));
#1580=SURFACE_STYLE_USAGE(.BOTH.,#1581);
#1581=SURFACE_SIDE_STYLE('',(#1582));
#1582=SURFACE_STYLE_FILL_AREA(#1583);
#1583=FILL_AREA_STYLE('Stahl - satiniert',(#1584));
#1584=FILL_AREA_STYLE_COLOUR('Stahl - satiniert',#1585);
#1585=COLOUR_RGB('Stahl - satiniert',0.627450980392157,0.627450980392157,
0.627450980392157);
ENDSEC;
END-ISO-10303-21;
