ISO-10303-21;
HEADER;
/* Generated by software containing ST-Developer
 * from STEP Tools, Inc. (www.steptools.com) 
 */

FILE_DESCRIPTION(
/* description */ (''),
/* implementation_level */ '2;1');

FILE_NAME(
/* name */ 'alkane-lamp-connector-pipe-43mm.step',
/* time_stamp */ '2026-08-29T09:50:47+02:00',
/* author */ (''),
/* organization */ (''),
/* preprocessor_version */ 'ST-DEVELOPER v20.1',
/* originating_system */ 'Autodesk Translation Framework v15.8.0.0',
/* authorisation */ '');

FILE_SCHEMA (('AUTOMOTIVE_DESIGN { 1 0 10303 214 3 1 1 }'));
ENDSEC;

DATA;
#10=MECHANICAL_DESIGN_GEOMETRIC_PRESENTATION_REPRESENTATION('',(#13,#14),
#268);
#11=SHAPE_REPRESENTATION_RELATIONSHIP('SRR','None',#275,#12);
#12=ADVANCED_BREP_SHAPE_REPRESENTATION('',(#15,#16),#267);
#13=STYLED_ITEM('',(#284),#15);
#14=STYLED_ITEM('',(#284),#16);
#15=MANIFOLD_SOLID_BREP('connector-pipe-43mm',#145);
#16=MANIFOLD_SOLID_BREP('connector-pipe-ring-48mm',#146);
#17=FACE_BOUND('',#42,.T.);
#18=FACE_BOUND('',#45,.T.);
#19=FACE_BOUND('',#50,.T.);
#20=FACE_BOUND('',#52,.T.);
#21=PLANE('',#165);
#22=PLANE('',#169);
#23=PLANE('',#178);
#24=PLANE('',#179);
#25=CYLINDRICAL_SURFACE('',#163,21.45);
#26=CYLINDRICAL_SURFACE('',#171,18.);
#27=CYLINDRICAL_SURFACE('',#172,21.525);
#28=CYLINDRICAL_SURFACE('',#175,24.);
#29=FACE_OUTER_BOUND('',#39,.T.);
#30=FACE_OUTER_BOUND('',#40,.T.);
#31=FACE_OUTER_BOUND('',#41,.T.);
#32=FACE_OUTER_BOUND('',#43,.T.);
#33=FACE_OUTER_BOUND('',#44,.T.);
#34=FACE_OUTER_BOUND('',#46,.T.);
#35=FACE_OUTER_BOUND('',#47,.T.);
#36=FACE_OUTER_BOUND('',#48,.T.);
#37=FACE_OUTER_BOUND('',#49,.T.);
#38=FACE_OUTER_BOUND('',#51,.T.);
#39=EDGE_LOOP('',(#101,#102,#103,#104));
#40=EDGE_LOOP('',(#105,#106,#107,#108));
#41=EDGE_LOOP('',(#109));
#42=EDGE_LOOP('',(#110));
#43=EDGE_LOOP('',(#111,#112,#113,#114));
#44=EDGE_LOOP('',(#115));
#45=EDGE_LOOP('',(#116));
#46=EDGE_LOOP('',(#117,#118,#119,#120));
#47=EDGE_LOOP('',(#121,#122,#123,#124));
#48=EDGE_LOOP('',(#125,#126,#127,#128));
#49=EDGE_LOOP('',(#129));
#50=EDGE_LOOP('',(#130));
#51=EDGE_LOOP('',(#131));
#52=EDGE_LOOP('',(#132));
#53=LINE('',#233,#59);
#54=LINE('',#238,#60);
#55=LINE('',#245,#61);
#56=LINE('',#250,#62);
#57=LINE('',#255,#63);
#58=LINE('',#261,#64);
#59=VECTOR('',#186,20.95);
#60=VECTOR('',#193,21.45);
#61=VECTOR('',#202,20.95);
#62=VECTOR('',#209,18.);
#63=VECTOR('',#214,21.525);
#64=VECTOR('',#221,24.);
#65=CIRCLE('',#161,21.45);
#66=CIRCLE('',#162,20.45);
#67=CIRCLE('',#164,21.45);
#68=CIRCLE('',#166,18.);
#69=CIRCLE('',#168,20.45);
#70=CIRCLE('',#170,18.);
#71=CIRCLE('',#173,21.525);
#72=CIRCLE('',#174,21.525);
#73=CIRCLE('',#176,24.);
#74=CIRCLE('',#177,24.);
#75=VERTEX_POINT('',#230);
#76=VERTEX_POINT('',#232);
#77=VERTEX_POINT('',#236);
#78=VERTEX_POINT('',#240);
#79=VERTEX_POINT('',#243);
#80=VERTEX_POINT('',#247);
#81=VERTEX_POINT('',#252);
#82=VERTEX_POINT('',#254);
#83=VERTEX_POINT('',#258);
#84=VERTEX_POINT('',#260);
#85=EDGE_CURVE('',#75,#75,#65,.T.);
#86=EDGE_CURVE('',#75,#76,#53,.T.);
#87=EDGE_CURVE('',#76,#76,#66,.T.);
#88=EDGE_CURVE('',#77,#77,#67,.T.);
#89=EDGE_CURVE('',#77,#75,#54,.T.);
#90=EDGE_CURVE('',#78,#78,#68,.T.);
#91=EDGE_CURVE('',#79,#79,#69,.T.);
#92=EDGE_CURVE('',#79,#77,#55,.T.);
#93=EDGE_CURVE('',#80,#80,#70,.T.);
#94=EDGE_CURVE('',#80,#78,#56,.T.);
#95=EDGE_CURVE('',#81,#81,#71,.T.);
#96=EDGE_CURVE('',#81,#82,#57,.T.);
#97=EDGE_CURVE('',#82,#82,#72,.T.);
#98=EDGE_CURVE('',#83,#83,#73,.T.);
#99=EDGE_CURVE('',#83,#84,#58,.T.);
#100=EDGE_CURVE('',#84,#84,#74,.T.);
#101=ORIENTED_EDGE('',*,*,#85,.T.);
#102=ORIENTED_EDGE('',*,*,#86,.T.);
#103=ORIENTED_EDGE('',*,*,#87,.T.);
#104=ORIENTED_EDGE('',*,*,#86,.F.);
#105=ORIENTED_EDGE('',*,*,#88,.F.);
#106=ORIENTED_EDGE('',*,*,#89,.T.);
#107=ORIENTED_EDGE('',*,*,#85,.F.);
#108=ORIENTED_EDGE('',*,*,#89,.F.);
#109=ORIENTED_EDGE('',*,*,#87,.F.);
#110=ORIENTED_EDGE('',*,*,#90,.F.);
#111=ORIENTED_EDGE('',*,*,#91,.T.);
#112=ORIENTED_EDGE('',*,*,#92,.T.);
#113=ORIENTED_EDGE('',*,*,#88,.T.);
#114=ORIENTED_EDGE('',*,*,#92,.F.);
#115=ORIENTED_EDGE('',*,*,#91,.F.);
#116=ORIENTED_EDGE('',*,*,#93,.T.);
#117=ORIENTED_EDGE('',*,*,#93,.F.);
#118=ORIENTED_EDGE('',*,*,#94,.T.);
#119=ORIENTED_EDGE('',*,*,#90,.T.);
#120=ORIENTED_EDGE('',*,*,#94,.F.);
#121=ORIENTED_EDGE('',*,*,#95,.F.);
#122=ORIENTED_EDGE('',*,*,#96,.T.);
#123=ORIENTED_EDGE('',*,*,#97,.T.);
#124=ORIENTED_EDGE('',*,*,#96,.F.);
#125=ORIENTED_EDGE('',*,*,#98,.F.);
#126=ORIENTED_EDGE('',*,*,#99,.T.);
#127=ORIENTED_EDGE('',*,*,#100,.T.);
#128=ORIENTED_EDGE('',*,*,#99,.F.);
#129=ORIENTED_EDGE('',*,*,#98,.T.);
#130=ORIENTED_EDGE('',*,*,#95,.T.);
#131=ORIENTED_EDGE('',*,*,#100,.F.);
#132=ORIENTED_EDGE('',*,*,#97,.F.);
#133=CONICAL_SURFACE('',#160,20.95,0.785398163397449);
#134=CONICAL_SURFACE('',#167,20.95,0.785398163397451);
#135=ADVANCED_FACE('',(#29),#133,.T.);
#136=ADVANCED_FACE('',(#30),#25,.T.);
#137=ADVANCED_FACE('',(#31,#17),#21,.F.);
#138=ADVANCED_FACE('',(#32),#134,.T.);
#139=ADVANCED_FACE('',(#33,#18),#22,.T.);
#140=ADVANCED_FACE('',(#34),#26,.F.);
#141=ADVANCED_FACE('',(#35),#27,.F.);
#142=ADVANCED_FACE('',(#36),#28,.T.);
#143=ADVANCED_FACE('',(#37,#19),#23,.T.);
#144=ADVANCED_FACE('',(#38,#20),#24,.F.);
#145=CLOSED_SHELL('',(#135,#136,#137,#138,#139,#140));
#146=CLOSED_SHELL('',(#141,#142,#143,#144));
#147=DERIVED_UNIT_ELEMENT(#149,1.);
#148=DERIVED_UNIT_ELEMENT(#270,-3.);
#149=(
MASS_UNIT()
NAMED_UNIT(*)
SI_UNIT(.KILO.,.GRAM.)
);
#150=DERIVED_UNIT((#147,#148));
#151=MEASURE_REPRESENTATION_ITEM('density measure',
POSITIVE_RATIO_MEASURE(7850.),#150);
#152=PROPERTY_DEFINITION_REPRESENTATION(#157,#154);
#153=PROPERTY_DEFINITION_REPRESENTATION(#158,#155);
#154=REPRESENTATION('material name',(#156),#267);
#155=REPRESENTATION('density',(#151),#267);
#156=DESCRIPTIVE_REPRESENTATION_ITEM('Stahl','Stahl');
#157=PROPERTY_DEFINITION('material property','material name',#277);
#158=PROPERTY_DEFINITION('material property','density of part',#277);
#159=AXIS2_PLACEMENT_3D('',#228,#180,#181);
#160=AXIS2_PLACEMENT_3D('',#229,#182,#183);
#161=AXIS2_PLACEMENT_3D('',#231,#184,#185);
#162=AXIS2_PLACEMENT_3D('',#234,#187,#188);
#163=AXIS2_PLACEMENT_3D('',#235,#189,#190);
#164=AXIS2_PLACEMENT_3D('',#237,#191,#192);
#165=AXIS2_PLACEMENT_3D('',#239,#194,#195);
#166=AXIS2_PLACEMENT_3D('',#241,#196,#197);
#167=AXIS2_PLACEMENT_3D('',#242,#198,#199);
#168=AXIS2_PLACEMENT_3D('',#244,#200,#201);
#169=AXIS2_PLACEMENT_3D('',#246,#203,#204);
#170=AXIS2_PLACEMENT_3D('',#248,#205,#206);
#171=AXIS2_PLACEMENT_3D('',#249,#207,#208);
#172=AXIS2_PLACEMENT_3D('',#251,#210,#211);
#173=AXIS2_PLACEMENT_3D('',#253,#212,#213);
#174=AXIS2_PLACEMENT_3D('',#256,#215,#216);
#175=AXIS2_PLACEMENT_3D('',#257,#217,#218);
#176=AXIS2_PLACEMENT_3D('',#259,#219,#220);
#177=AXIS2_PLACEMENT_3D('',#262,#222,#223);
#178=AXIS2_PLACEMENT_3D('',#263,#224,#225);
#179=AXIS2_PLACEMENT_3D('',#264,#226,#227);
#180=DIRECTION('axis',(0.,0.,1.));
#181=DIRECTION('refdir',(1.,0.,0.));
#182=DIRECTION('center_axis',(0.,0.,1.));
#183=DIRECTION('ref_axis',(1.,0.,0.));
#184=DIRECTION('center_axis',(0.,0.,-1.));
#185=DIRECTION('ref_axis',(1.,0.,0.));
#186=DIRECTION('',(0.707106781186548,8.65956056235494E-17,-0.707106781186547));
#187=DIRECTION('center_axis',(0.,0.,1.));
#188=DIRECTION('ref_axis',(1.,0.,0.));
#189=DIRECTION('center_axis',(0.,0.,1.));
#190=DIRECTION('ref_axis',(1.,0.,0.));
#191=DIRECTION('center_axis',(0.,0.,1.));
#192=DIRECTION('ref_axis',(1.,0.,0.));
#193=DIRECTION('',(0.,0.,-1.));
#194=DIRECTION('center_axis',(0.,0.,1.));
#195=DIRECTION('ref_axis',(1.,0.,0.));
#196=DIRECTION('center_axis',(0.,0.,-1.));
#197=DIRECTION('ref_axis',(1.,0.,0.));
#198=DIRECTION('center_axis',(0.,0.,-1.));
#199=DIRECTION('ref_axis',(1.,0.,0.));
#200=DIRECTION('center_axis',(0.,0.,-1.));
#201=DIRECTION('ref_axis',(1.,0.,0.));
#202=DIRECTION('',(-0.707106781186549,-8.65956056235495E-17,-0.707106781186546));
#203=DIRECTION('center_axis',(0.,0.,1.));
#204=DIRECTION('ref_axis',(1.,0.,0.));
#205=DIRECTION('center_axis',(0.,0.,-1.));
#206=DIRECTION('ref_axis',(1.,0.,0.));
#207=DIRECTION('center_axis',(0.,0.,1.));
#208=DIRECTION('ref_axis',(1.,0.,0.));
#209=DIRECTION('',(0.,0.,-1.));
#210=DIRECTION('center_axis',(0.,0.,1.));
#211=DIRECTION('ref_axis',(1.,0.,0.));
#212=DIRECTION('center_axis',(0.,0.,-1.));
#213=DIRECTION('ref_axis',(1.,0.,0.));
#214=DIRECTION('',(0.,0.,-1.));
#215=DIRECTION('center_axis',(0.,0.,-1.));
#216=DIRECTION('ref_axis',(1.,0.,0.));
#217=DIRECTION('center_axis',(0.,0.,1.));
#218=DIRECTION('ref_axis',(1.,0.,0.));
#219=DIRECTION('center_axis',(0.,0.,1.));
#220=DIRECTION('ref_axis',(1.,0.,0.));
#221=DIRECTION('',(0.,0.,-1.));
#222=DIRECTION('center_axis',(0.,0.,1.));
#223=DIRECTION('ref_axis',(1.,0.,0.));
#224=DIRECTION('center_axis',(0.,0.,1.));
#225=DIRECTION('ref_axis',(1.,0.,0.));
#226=DIRECTION('center_axis',(0.,0.,1.));
#227=DIRECTION('ref_axis',(1.,0.,0.));
#228=CARTESIAN_POINT('',(0.,0.,0.));
#229=CARTESIAN_POINT('Origin',(0.,0.,0.5));
#230=CARTESIAN_POINT('',(-21.45,2.62686738417107E-15,1.));
#231=CARTESIAN_POINT('Origin',(0.,0.,1.));
#232=CARTESIAN_POINT('',(-20.45,-2.50440270425634E-15,0.));
#233=CARTESIAN_POINT('',(-20.95,-2.5656350442137E-15,0.5));
#234=CARTESIAN_POINT('Origin',(0.,0.,0.));
#235=CARTESIAN_POINT('Origin',(0.,0.,0.));
#236=CARTESIAN_POINT('',(-21.45,-2.62686738417107E-15,49.));
#237=CARTESIAN_POINT('Origin',(0.,0.,49.));
#238=CARTESIAN_POINT('',(-21.45,-2.62686738417107E-15,0.));
#239=CARTESIAN_POINT('Origin',(0.,0.,0.));
#240=CARTESIAN_POINT('',(-18.,-2.20436423846524E-15,0.));
#241=CARTESIAN_POINT('Origin',(0.,0.,0.));
#242=CARTESIAN_POINT('Origin',(0.,0.,49.5));
#243=CARTESIAN_POINT('',(-20.45,2.50440270425634E-15,50.));
#244=CARTESIAN_POINT('Origin',(0.,0.,50.));
#245=CARTESIAN_POINT('',(-20.95,-2.5656350442137E-15,49.5));
#246=CARTESIAN_POINT('Origin',(0.,0.,50.));
#247=CARTESIAN_POINT('',(-18.,-2.20436423846524E-15,50.));
#248=CARTESIAN_POINT('Origin',(0.,0.,50.));
#249=CARTESIAN_POINT('Origin',(0.,0.,0.));
#250=CARTESIAN_POINT('',(-18.,-2.20436423846524E-15,0.));
#251=CARTESIAN_POINT('Origin',(60.5,0.,0.));
#252=CARTESIAN_POINT('',(38.975,-2.63605223516468E-15,3.));
#253=CARTESIAN_POINT('Origin',(60.5,0.,3.));
#254=CARTESIAN_POINT('',(38.975,-2.63605223516468E-15,0.));
#255=CARTESIAN_POINT('',(38.975,-2.63605223516468E-15,0.));
#256=CARTESIAN_POINT('Origin',(60.5,0.,0.));
#257=CARTESIAN_POINT('Origin',(60.5,0.,0.));
#258=CARTESIAN_POINT('',(36.5,-2.93915231795365E-15,3.));
#259=CARTESIAN_POINT('Origin',(60.5,0.,3.));
#260=CARTESIAN_POINT('',(36.5,-2.93915231795365E-15,0.));
#261=CARTESIAN_POINT('',(36.5,-2.93915231795365E-15,0.));
#262=CARTESIAN_POINT('Origin',(60.5,0.,0.));
#263=CARTESIAN_POINT('Origin',(60.5,0.,3.));
#264=CARTESIAN_POINT('Origin',(60.5,0.,0.));
#265=UNCERTAINTY_MEASURE_WITH_UNIT(LENGTH_MEASURE(0.01),#269,
'DISTANCE_ACCURACY_VALUE',
'Maximum model space distance between geometric entities at asserted c
onnectivities');
#266=UNCERTAINTY_MEASURE_WITH_UNIT(LENGTH_MEASURE(0.01),#269,
'DISTANCE_ACCURACY_VALUE',
'Maximum model space distance between geometric entities at asserted c
onnectivities');
#267=(
GEOMETRIC_REPRESENTATION_CONTEXT(3)
GLOBAL_UNCERTAINTY_ASSIGNED_CONTEXT((#265))
GLOBAL_UNIT_ASSIGNED_CONTEXT((#269,#271,#272))
REPRESENTATION_CONTEXT('','3D')
);
#268=(
GEOMETRIC_REPRESENTATION_CONTEXT(3)
GLOBAL_UNCERTAINTY_ASSIGNED_CONTEXT((#266))
GLOBAL_UNIT_ASSIGNED_CONTEXT((#269,#271,#272))
REPRESENTATION_CONTEXT('','3D')
);
#269=(
LENGTH_UNIT()
NAMED_UNIT(*)
SI_UNIT(.MILLI.,.METRE.)
);
#270=(
LENGTH_UNIT()
NAMED_UNIT(*)
SI_UNIT($,.METRE.)
);
#271=(
NAMED_UNIT(*)
PLANE_ANGLE_UNIT()
SI_UNIT($,.RADIAN.)
);
#272=(
NAMED_UNIT(*)
SI_UNIT($,.STERADIAN.)
SOLID_ANGLE_UNIT()
);
#273=SHAPE_DEFINITION_REPRESENTATION(#274,#275);
#274=PRODUCT_DEFINITION_SHAPE('',$,#277);
#275=SHAPE_REPRESENTATION('',(#159),#267);
#276=PRODUCT_DEFINITION_CONTEXT('part definition',#281,'design');
#277=PRODUCT_DEFINITION('alkane-lamp-connector-pipe-43mm',
'alkane-lamp-connector-pipe-43mm v4',#278,#276);
#278=PRODUCT_DEFINITION_FORMATION('',$,#283);
#279=PRODUCT_RELATED_PRODUCT_CATEGORY(
'alkane-lamp-connector-pipe-43mm v4',
'alkane-lamp-connector-pipe-43mm v4',(#283));
#280=APPLICATION_PROTOCOL_DEFINITION('international standard',
'automotive_design',2009,#281);
#281=APPLICATION_CONTEXT(
'Core Data for Automotive Mechanical Design Process');
#282=PRODUCT_CONTEXT('part definition',#281,'mechanical');
#283=PRODUCT('alkane-lamp-connector-pipe-43mm',
'alkane-lamp-connector-pipe-43mm v4',$,(#282));
#284=PRESENTATION_STYLE_ASSIGNMENT((#285));
#285=SURFACE_STYLE_USAGE(.BOTH.,#286);
#286=SURFACE_SIDE_STYLE('',(#287));
#287=SURFACE_STYLE_FILL_AREA(#288);
#288=FILL_AREA_STYLE('Stahl - satiniert',(#289));
#289=FILL_AREA_STYLE_COLOUR('Stahl - satiniert',#290);
#290=COLOUR_RGB('Stahl - satiniert',0.627450980392157,0.627450980392157,
0.627450980392157);
ENDSEC;
END-ISO-10303-21;
