ISO-10303-21;
HEADER;
/* Generated by software containing ST-Developer
 * from STEP Tools, Inc. (www.steptools.com) 
 */

FILE_DESCRIPTION(
/* description */ (''),
/* implementation_level */ '2;1');

FILE_NAME(
/* name */ 'alkane-lamp-plate-v5.step',
/* time_stamp */ '2026-08-29T09:47:54+02:00',
/* author */ (''),
/* organization */ (''),
/* preprocessor_version */ 'ST-DEVELOPER v20.1',
/* originating_system */ 'Autodesk Translation Framework v15.8.0.0',
/* authorisation */ '');

FILE_SCHEMA (('AUTOMOTIVE_DESIGN { 1 0 10303 214 3 1 1 }'));
ENDSEC;

DATA;
#10=MECHANICAL_DESIGN_GEOMETRIC_PRESENTATION_REPRESENTATION('',(#13),#889);
#11=SHAPE_REPRESENTATION_RELATIONSHIP('SRR','None',#896,#12);
#12=ADVANCED_BREP_SHAPE_REPRESENTATION('',(#14),#888);
#13=STYLED_ITEM('',(#905),#14);
#14=MANIFOLD_SOLID_BREP('Plate_Foot',#266);
#15=PLANE('',#297);
#16=PLANE('',#301);
#17=PLANE('',#302);
#18=PLANE('',#303);
#19=FACE_BOUND('',#68,.T.);
#20=FACE_BOUND('',#73,.T.);
#21=FACE_BOUND('',#76,.T.);
#22=FACE_BOUND('',#78,.T.);
#23=FACE_BOUND('',#80,.T.);
#24=ELLIPSE('',#288,18.7574246223624,17.);
#25=ELLIPSE('',#292,27.3216979767059,24.);
#26=ELLIPSE('',#293,27.3216979767059,24.);
#27=ELLIPSE('',#294,30.8945817309498,28.);
#28=CYLINDRICAL_SURFACE('',#285,3.5);
#29=CYLINDRICAL_SURFACE('',#286,17.);
#30=CYLINDRICAL_SURFACE('',#289,80.);
#31=CYLINDRICAL_SURFACE('',#295,24.);
#32=CYLINDRICAL_SURFACE('',#298,21.5);
#33=CIRCLE('',#281,78.);
#34=CIRCLE('',#282,2.);
#35=CIRCLE('',#283,80.);
#36=CIRCLE('',#284,80.);
#37=CIRCLE('',#287,17.);
#38=CIRCLE('',#290,80.);
#39=CIRCLE('',#291,4.00000000000001);
#40=CIRCLE('',#296,24.);
#41=CIRCLE('',#299,21.5);
#42=CIRCLE('',#300,21.5);
#43=TOROIDAL_SURFACE('',#280,78.,2.);
#44=FACE_OUTER_BOUND('',#60,.T.);
#45=FACE_OUTER_BOUND('',#61,.T.);
#46=FACE_OUTER_BOUND('',#62,.T.);
#47=FACE_OUTER_BOUND('',#63,.T.);
#48=FACE_OUTER_BOUND('',#64,.T.);
#49=FACE_OUTER_BOUND('',#65,.T.);
#50=FACE_OUTER_BOUND('',#66,.T.);
#51=FACE_OUTER_BOUND('',#67,.T.);
#52=FACE_OUTER_BOUND('',#69,.T.);
#53=FACE_OUTER_BOUND('',#70,.T.);
#54=FACE_OUTER_BOUND('',#71,.T.);
#55=FACE_OUTER_BOUND('',#72,.T.);
#56=FACE_OUTER_BOUND('',#74,.T.);
#57=FACE_OUTER_BOUND('',#75,.T.);
#58=FACE_OUTER_BOUND('',#77,.T.);
#59=FACE_OUTER_BOUND('',#79,.T.);
#60=EDGE_LOOP('',(#172,#173,#174,#175));
#61=EDGE_LOOP('',(#176,#177,#178,#179,#180));
#62=EDGE_LOOP('',(#181,#182,#183,#184));
#63=EDGE_LOOP('',(#185,#186,#187,#188));
#64=EDGE_LOOP('',(#189,#190,#191,#192,#193,#194,#195,#196));
#65=EDGE_LOOP('',(#197,#198,#199,#200,#201,#202,#203,#204,#205));
#66=EDGE_LOOP('',(#206,#207,#208,#209,#210));
#67=EDGE_LOOP('',(#211,#212,#213,#214));
#68=EDGE_LOOP('',(#215));
#69=EDGE_LOOP('',(#216,#217,#218,#219,#220,#221));
#70=EDGE_LOOP('',(#222,#223,#224,#225,#226));
#71=EDGE_LOOP('',(#227,#228,#229,#230,#231));
#72=EDGE_LOOP('',(#232));
#73=EDGE_LOOP('',(#233));
#74=EDGE_LOOP('',(#234,#235,#236,#237));
#75=EDGE_LOOP('',(#238));
#76=EDGE_LOOP('',(#239));
#77=EDGE_LOOP('',(#240));
#78=EDGE_LOOP('',(#241));
#79=EDGE_LOOP('',(#242));
#80=EDGE_LOOP('',(#243));
#81=B_SPLINE_CURVE_WITH_KNOTS('',3,(#441,#442,#443,#444,#445,#446,#447,
#448,#449,#450,#451,#452,#453,#454,#455,#456,#457,#458),.UNSPECIFIED.,.F.,
 .F.,(4,1,1,1,1,1,1,1,1,1,1,1,1,1,1,4),(-1.32213647240542,-1.20860748710299,
-1.09507850180056,-0.981549516498123,-0.86802053119569,-0.811256038544473,
-0.754491545893257,-0.640962560590823,-0.413904589985957,-0.300375604683524,
-0.243611112032307,-0.186846619381091,-0.0733176340786575,0.0402113512237756,
0.153740336526209,0.267269321828642),.UNSPECIFIED.);
#82=B_SPLINE_CURVE_WITH_KNOTS('',3,(#461,#462,#463,#464,#465,#466,#467,
#468,#469,#470,#471,#472,#473,#474,#475,#476,#477,#478),.UNSPECIFIED.,.F.,
 .F.,(4,1,1,1,1,1,1,1,1,1,1,1,1,1,1,4),(-0.267269321828642,-0.153740336526209,
-0.0402113512237756,0.0733176340786575,0.186846619381091,0.243611112032307,
0.300375604683524,0.413904589985957,0.640962560590823,0.754491545893257,
0.811256038544473,0.86802053119569,0.981549516498123,1.09507850180056,1.20860748710299,
1.32213647240542),.UNSPECIFIED.);
#83=B_SPLINE_CURVE_WITH_KNOTS('',3,(#507,#508,#509,#510,#511,#512),
 .UNSPECIFIED.,.F.,.F.,(4,1,1,4),(-7.36076950155353E-17,0.101942376105176,
0.203884752210352,0.356798316368115),.UNSPECIFIED.);
#84=B_SPLINE_CURVE_WITH_KNOTS('',3,(#516,#517,#518,#519,#520),
 .UNSPECIFIED.,.F.,.F.,(4,1,4),(-0.356798316368115,-0.203884752210352,-0.179984689632981),
 .UNSPECIFIED.);
#85=B_SPLINE_CURVE_WITH_KNOTS('',3,(#521,#522,#523,#524,#525),
 .UNSPECIFIED.,.F.,.F.,(4,1,4),(-0.179984689632981,-0.101942376105176,7.36076950155353E-17),
 .UNSPECIFIED.);
#86=B_SPLINE_CURVE_WITH_KNOTS('',3,(#542,#543,#544,#545),.UNSPECIFIED.,
 .F.,.F.,(4,4),(-0.346561565860089,-0.267269321828642),.UNSPECIFIED.);
#87=B_SPLINE_CURVE_WITH_KNOTS('',3,(#546,#547,#548,#549),.UNSPECIFIED.,
 .F.,.F.,(4,4),(0.267269321828642,0.346561565860089),.UNSPECIFIED.);
#88=B_SPLINE_CURVE_WITH_KNOTS('',3,(#566,#567,#568,#569),.UNSPECIFIED.,
 .F.,.F.,(4,4),(1.32213647240542,1.40142871643454),.UNSPECIFIED.);
#89=B_SPLINE_CURVE_WITH_KNOTS('',3,(#570,#571,#572,#573),.UNSPECIFIED.,
 .F.,.F.,(4,4),(-1.40142871643454,-1.32213647240542),.UNSPECIFIED.);
#90=B_SPLINE_CURVE_WITH_KNOTS('',3,(#585,#586,#587,#588,#589,#590,#591,
#592),.UNSPECIFIED.,.F.,.F.,(4,1,1,1,1,4),(0.,0.159057189236513,0.23858578385477,
0.318114378473027,0.47717156770954,0.545363631879839),.UNSPECIFIED.);
#91=B_SPLINE_CURVE_WITH_KNOTS('',3,(#593,#594,#595,#596,#597,#598,#599,
#600,#601,#602,#603,#604,#605,#606,#607,#608,#609,#610,#611),
 .UNSPECIFIED.,.F.,.F.,(4,1,1,1,1,1,1,1,1,1,1,1,1,1,1,1,4),(0.545363631879839,
0.556700162327797,0.636228756946054,0.742266883103729,0.848305009261405,
0.95434313541908,1.06038126157676,1.16641938773443,1.27245751389211,1.35198610851036,
1.43151470312862,1.59057189236513,1.74962908160165,1.90868627083816,1.98821486545642,
2.06774346007467,2.22680064931119),.UNSPECIFIED.);
#92=B_SPLINE_CURVE_WITH_KNOTS('',3,(#706,#707,#708,#709,#710,#711,#712,
#713,#714,#715,#716,#717,#718,#719,#720,#721,#722,#723,#724,#725,#726,#727,
#728),.UNSPECIFIED.,.T.,.F.,(4,1,1,1,1,1,1,1,1,1,1,1,1,1,1,1,1,1,1,1,4),
(-2.22680064931119,-2.06774346007467,-1.98821486545642,-1.90868627083816,
-1.74962908160165,-1.59057189236513,-1.43151470312862,-1.35198610851036,
-1.27245751389211,-1.16641938773443,-1.06038126157676,-0.95434313541908,
-0.848305009261405,-0.742266883103729,-0.636228756946054,-0.556700162327797,
-0.47717156770954,-0.318114378473027,-0.23858578385477,-0.159057189236513,
0.),.UNSPECIFIED.);
#93=LINE('',#439,#103);
#94=LINE('',#460,#104);
#95=LINE('',#505,#105);
#96=LINE('',#514,#106);
#97=LINE('',#583,#107);
#98=LINE('',#705,#108);
#99=LINE('',#733,#109);
#100=LINE('',#737,#110);
#101=LINE('',#874,#111);
#102=LINE('',#881,#112);
#103=VECTOR('',#306,10.);
#104=VECTOR('',#307,10.);
#105=VECTOR('',#308,10.);
#106=VECTOR('',#309,10.);
#107=VECTOR('',#322,3.5);
#108=VECTOR('',#323,10.);
#109=VECTOR('',#328,17.);
#110=VECTOR('',#333,80.);
#111=VECTOR('',#346,24.);
#112=VECTOR('',#355,21.5);
#113=VERTEX_POINT('',#437);
#114=VERTEX_POINT('',#438);
#115=VERTEX_POINT('',#440);
#116=VERTEX_POINT('',#459);
#117=VERTEX_POINT('',#503);
#118=VERTEX_POINT('',#504);
#119=VERTEX_POINT('',#506);
#120=VERTEX_POINT('',#513);
#121=VERTEX_POINT('',#515);
#122=VERTEX_POINT('',#575);
#123=VERTEX_POINT('',#577);
#124=VERTEX_POINT('',#582);
#125=VERTEX_POINT('',#584);
#126=VERTEX_POINT('',#704);
#127=VERTEX_POINT('',#730);
#128=VERTEX_POINT('',#732);
#129=VERTEX_POINT('',#736);
#130=VERTEX_POINT('',#865);
#131=VERTEX_POINT('',#866);
#132=VERTEX_POINT('',#868);
#133=VERTEX_POINT('',#873);
#134=VERTEX_POINT('',#878);
#135=VERTEX_POINT('',#880);
#136=EDGE_CURVE('',#113,#114,#93,.T.);
#137=EDGE_CURVE('',#114,#115,#81,.T.);
#138=EDGE_CURVE('',#115,#116,#94,.T.);
#139=EDGE_CURVE('',#116,#113,#82,.T.);
#140=EDGE_CURVE('',#117,#118,#95,.T.);
#141=EDGE_CURVE('',#118,#119,#83,.T.);
#142=EDGE_CURVE('',#119,#120,#96,.T.);
#143=EDGE_CURVE('',#120,#121,#84,.T.);
#144=EDGE_CURVE('',#121,#117,#85,.T.);
#145=EDGE_CURVE('',#119,#116,#86,.T.);
#146=EDGE_CURVE('',#115,#120,#87,.T.);
#147=EDGE_CURVE('',#113,#118,#88,.T.);
#148=EDGE_CURVE('',#117,#114,#89,.T.);
#149=EDGE_CURVE('',#122,#122,#33,.T.);
#150=EDGE_CURVE('',#122,#123,#34,.T.);
#151=EDGE_CURVE('',#123,#116,#35,.T.);
#152=EDGE_CURVE('',#113,#123,#36,.T.);
#153=EDGE_CURVE('',#121,#124,#97,.T.);
#154=EDGE_CURVE('',#125,#124,#90,.T.);
#155=EDGE_CURVE('',#124,#125,#91,.T.);
#156=EDGE_CURVE('',#126,#125,#98,.T.);
#157=EDGE_CURVE('',#126,#126,#92,.T.);
#158=EDGE_CURVE('',#127,#127,#37,.T.);
#159=EDGE_CURVE('',#127,#128,#99,.T.);
#160=EDGE_CURVE('',#128,#128,#24,.T.);
#161=EDGE_CURVE('',#123,#129,#100,.T.);
#162=EDGE_CURVE('',#129,#129,#38,.T.);
#163=EDGE_CURVE('',#130,#131,#39,.T.);
#164=EDGE_CURVE('',#131,#132,#25,.T.);
#165=EDGE_CURVE('',#132,#131,#26,.T.);
#166=EDGE_CURVE('',#130,#130,#27,.T.);
#167=EDGE_CURVE('',#132,#133,#101,.T.);
#168=EDGE_CURVE('',#133,#133,#40,.T.);
#169=EDGE_CURVE('',#134,#134,#41,.T.);
#170=EDGE_CURVE('',#134,#135,#102,.T.);
#171=EDGE_CURVE('',#135,#135,#42,.T.);
#172=ORIENTED_EDGE('',*,*,#136,.T.);
#173=ORIENTED_EDGE('',*,*,#137,.T.);
#174=ORIENTED_EDGE('',*,*,#138,.T.);
#175=ORIENTED_EDGE('',*,*,#139,.T.);
#176=ORIENTED_EDGE('',*,*,#140,.T.);
#177=ORIENTED_EDGE('',*,*,#141,.T.);
#178=ORIENTED_EDGE('',*,*,#142,.T.);
#179=ORIENTED_EDGE('',*,*,#143,.T.);
#180=ORIENTED_EDGE('',*,*,#144,.T.);
#181=ORIENTED_EDGE('',*,*,#142,.F.);
#182=ORIENTED_EDGE('',*,*,#145,.T.);
#183=ORIENTED_EDGE('',*,*,#138,.F.);
#184=ORIENTED_EDGE('',*,*,#146,.T.);
#185=ORIENTED_EDGE('',*,*,#136,.F.);
#186=ORIENTED_EDGE('',*,*,#147,.T.);
#187=ORIENTED_EDGE('',*,*,#140,.F.);
#188=ORIENTED_EDGE('',*,*,#148,.T.);
#189=ORIENTED_EDGE('',*,*,#149,.T.);
#190=ORIENTED_EDGE('',*,*,#150,.T.);
#191=ORIENTED_EDGE('',*,*,#151,.T.);
#192=ORIENTED_EDGE('',*,*,#145,.F.);
#193=ORIENTED_EDGE('',*,*,#141,.F.);
#194=ORIENTED_EDGE('',*,*,#147,.F.);
#195=ORIENTED_EDGE('',*,*,#152,.T.);
#196=ORIENTED_EDGE('',*,*,#150,.F.);
#197=ORIENTED_EDGE('',*,*,#143,.F.);
#198=ORIENTED_EDGE('',*,*,#146,.F.);
#199=ORIENTED_EDGE('',*,*,#137,.F.);
#200=ORIENTED_EDGE('',*,*,#148,.F.);
#201=ORIENTED_EDGE('',*,*,#144,.F.);
#202=ORIENTED_EDGE('',*,*,#153,.T.);
#203=ORIENTED_EDGE('',*,*,#154,.F.);
#204=ORIENTED_EDGE('',*,*,#155,.F.);
#205=ORIENTED_EDGE('',*,*,#153,.F.);
#206=ORIENTED_EDGE('',*,*,#156,.T.);
#207=ORIENTED_EDGE('',*,*,#154,.T.);
#208=ORIENTED_EDGE('',*,*,#155,.T.);
#209=ORIENTED_EDGE('',*,*,#156,.F.);
#210=ORIENTED_EDGE('',*,*,#157,.T.);
#211=ORIENTED_EDGE('',*,*,#158,.F.);
#212=ORIENTED_EDGE('',*,*,#159,.T.);
#213=ORIENTED_EDGE('',*,*,#160,.T.);
#214=ORIENTED_EDGE('',*,*,#159,.F.);
#215=ORIENTED_EDGE('',*,*,#157,.F.);
#216=ORIENTED_EDGE('',*,*,#139,.F.);
#217=ORIENTED_EDGE('',*,*,#151,.F.);
#218=ORIENTED_EDGE('',*,*,#161,.T.);
#219=ORIENTED_EDGE('',*,*,#162,.T.);
#220=ORIENTED_EDGE('',*,*,#161,.F.);
#221=ORIENTED_EDGE('',*,*,#152,.F.);
#222=ORIENTED_EDGE('',*,*,#163,.T.);
#223=ORIENTED_EDGE('',*,*,#164,.T.);
#224=ORIENTED_EDGE('',*,*,#165,.T.);
#225=ORIENTED_EDGE('',*,*,#163,.F.);
#226=ORIENTED_EDGE('',*,*,#166,.T.);
#227=ORIENTED_EDGE('',*,*,#164,.F.);
#228=ORIENTED_EDGE('',*,*,#165,.F.);
#229=ORIENTED_EDGE('',*,*,#167,.T.);
#230=ORIENTED_EDGE('',*,*,#168,.T.);
#231=ORIENTED_EDGE('',*,*,#167,.F.);
#232=ORIENTED_EDGE('',*,*,#149,.F.);
#233=ORIENTED_EDGE('',*,*,#166,.F.);
#234=ORIENTED_EDGE('',*,*,#169,.F.);
#235=ORIENTED_EDGE('',*,*,#170,.T.);
#236=ORIENTED_EDGE('',*,*,#171,.T.);
#237=ORIENTED_EDGE('',*,*,#170,.F.);
#238=ORIENTED_EDGE('',*,*,#168,.F.);
#239=ORIENTED_EDGE('',*,*,#171,.F.);
#240=ORIENTED_EDGE('',*,*,#169,.T.);
#241=ORIENTED_EDGE('',*,*,#158,.T.);
#242=ORIENTED_EDGE('',*,*,#162,.F.);
#243=ORIENTED_EDGE('',*,*,#160,.F.);
#244=B_SPLINE_SURFACE_WITH_KNOTS('',3,3,((#365,#366,#367,#368,#369,#370,
#371,#372,#373,#374,#375,#376,#377,#378,#379,#380,#381,#382),(#383,#384,
#385,#386,#387,#388,#389,#390,#391,#392,#393,#394,#395,#396,#397,#398,#399,
#400),(#401,#402,#403,#404,#405,#406,#407,#408,#409,#410,#411,#412,#413,
#414,#415,#416,#417,#418),(#419,#420,#421,#422,#423,#424,#425,#426,#427,
#428,#429,#430,#431,#432,#433,#434,#435,#436)),.UNSPECIFIED.,.F.,.F.,.F.,
(4,4),(4,1,1,1,1,1,1,1,1,1,1,1,1,1,1,4),(0.,1.),(-1.32213647240542,-1.20860748710299,
-1.09507850180056,-0.981549516498123,-0.86802053119569,-0.811256038544473,
-0.754491545893257,-0.640962560590823,-0.413904589985957,-0.300375604683524,
-0.243611112032307,-0.186846619381091,-0.0733176340786575,0.0402113512237756,
0.153740336526209,0.267269321828642),.UNSPECIFIED.);
#245=B_SPLINE_SURFACE_WITH_KNOTS('',3,3,((#479,#480,#481,#482,#483,#484),
(#485,#486,#487,#488,#489,#490),(#491,#492,#493,#494,#495,#496),(#497,#498,
#499,#500,#501,#502)),.UNSPECIFIED.,.F.,.F.,.F.,(4,4),(4,1,1,4),(0.,1.),
(-0.356798316368115,-0.203884752210352,-0.101942376105176,7.36076950155353E-17),
 .UNSPECIFIED.);
#246=B_SPLINE_SURFACE_WITH_KNOTS('',3,3,((#526,#527,#528,#529),(#530,#531,
#532,#533),(#534,#535,#536,#537),(#538,#539,#540,#541)),.UNSPECIFIED.,.F.,
 .F.,.F.,(4,4),(4,4),(0.,1.),(0.267269321828642,0.346561565860089),
 .UNSPECIFIED.);
#247=B_SPLINE_SURFACE_WITH_KNOTS('',3,3,((#550,#551,#552,#553),(#554,#555,
#556,#557),(#558,#559,#560,#561),(#562,#563,#564,#565)),.UNSPECIFIED.,.F.,
 .F.,.F.,(4,4),(4,4),(0.,1.),(-1.40142871643454,-1.32213647240542),
 .UNSPECIFIED.);
#248=B_SPLINE_SURFACE_WITH_KNOTS('',3,3,((#612,#613,#614,#615,#616,#617,
#618,#619,#620,#621,#622,#623,#624,#625,#626,#627,#628,#629,#630,#631,#632,
#633,#634),(#635,#636,#637,#638,#639,#640,#641,#642,#643,#644,#645,#646,
#647,#648,#649,#650,#651,#652,#653,#654,#655,#656,#657),(#658,#659,#660,
#661,#662,#663,#664,#665,#666,#667,#668,#669,#670,#671,#672,#673,#674,#675,
#676,#677,#678,#679,#680),(#681,#682,#683,#684,#685,#686,#687,#688,#689,
#690,#691,#692,#693,#694,#695,#696,#697,#698,#699,#700,#701,#702,#703)),
 .UNSPECIFIED.,.F.,.T.,.F.,(4,4),(4,1,1,1,1,1,1,1,1,1,1,1,1,1,1,1,1,1,1,
1,4),(0.,1.),(0.,0.159057189236513,0.23858578385477,0.318114378473027,0.47717156770954,
0.556700162327797,0.636228756946054,0.742266883103729,0.848305009261405,
0.95434313541908,1.06038126157676,1.16641938773443,1.27245751389211,1.35198610851036,
1.43151470312862,1.59057189236513,1.74962908160165,1.90868627083816,1.98821486545642,
2.06774346007467,2.22680064931119),.UNSPECIFIED.);
#249=B_SPLINE_SURFACE_WITH_KNOTS('',3,3,((#739,#740,#741,#742,#743,#744,
#745,#746,#747,#748,#749,#750,#751,#752,#753,#754,#755,#756,#757,#758,#759),
(#760,#761,#762,#763,#764,#765,#766,#767,#768,#769,#770,#771,#772,#773,
#774,#775,#776,#777,#778,#779,#780),(#781,#782,#783,#784,#785,#786,#787,
#788,#789,#790,#791,#792,#793,#794,#795,#796,#797,#798,#799,#800,#801),
(#802,#803,#804,#805,#806,#807,#808,#809,#810,#811,#812,#813,#814,#815,
#816,#817,#818,#819,#820,#821,#822),(#823,#824,#825,#826,#827,#828,#829,
#830,#831,#832,#833,#834,#835,#836,#837,#838,#839,#840,#841,#842,#843),
(#844,#845,#846,#847,#848,#849,#850,#851,#852,#853,#854,#855,#856,#857,
#858,#859,#860,#861,#862,#863,#864)),.UNSPECIFIED.,.F.,.T.,.F.,(4,1,1,4),
(4,1,1,1,1,1,1,1,1,1,1,1,1,1,1,1,1,1,4),(0.,0.285714285714286,0.571428571428571,
1.),(-3.14159265358979,-2.69279370307697,-2.24399475256414,-1.79519580205131,
-1.34639685153848,-1.0471975511966,-0.448798950512828,-0.373999125427356,
-0.299199300341885,-0.149599650170943,2.77555756156289E-17,0.448798950512828,
0.747998250854713,1.0471975511966,1.34639685153848,1.64559615188037,2.24399475256414,
2.69279370307697,3.14159265358979),.UNSPECIFIED.);
#250=ADVANCED_FACE('',(#44),#244,.T.);
#251=ADVANCED_FACE('',(#45),#245,.T.);
#252=ADVANCED_FACE('',(#46),#246,.T.);
#253=ADVANCED_FACE('',(#47),#247,.T.);
#254=ADVANCED_FACE('',(#48),#43,.T.);
#255=ADVANCED_FACE('',(#49),#28,.F.);
#256=ADVANCED_FACE('',(#50),#248,.T.);
#257=ADVANCED_FACE('',(#51,#19),#29,.F.);
#258=ADVANCED_FACE('',(#52),#30,.T.);
#259=ADVANCED_FACE('',(#53),#249,.T.);
#260=ADVANCED_FACE('',(#54),#31,.T.);
#261=ADVANCED_FACE('',(#55,#20),#15,.T.);
#262=ADVANCED_FACE('',(#56),#32,.T.);
#263=ADVANCED_FACE('',(#57,#21),#16,.T.);
#264=ADVANCED_FACE('',(#58,#22),#17,.T.);
#265=ADVANCED_FACE('',(#59,#23),#18,.F.);
#266=CLOSED_SHELL('',(#250,#251,#252,#253,#254,#255,#256,#257,#258,#259,
#260,#261,#262,#263,#264,#265));
#267=DERIVED_UNIT_ELEMENT(#269,1.);
#268=DERIVED_UNIT_ELEMENT(#891,-3.);
#269=(
MASS_UNIT()
NAMED_UNIT(*)
SI_UNIT(.KILO.,.GRAM.)
);
#270=DERIVED_UNIT((#267,#268));
#271=MEASURE_REPRESENTATION_ITEM('density measure',
POSITIVE_RATIO_MEASURE(7850.),#270);
#272=PROPERTY_DEFINITION_REPRESENTATION(#277,#274);
#273=PROPERTY_DEFINITION_REPRESENTATION(#278,#275);
#274=REPRESENTATION('material name',(#276),#888);
#275=REPRESENTATION('density',(#271),#888);
#276=DESCRIPTIVE_REPRESENTATION_ITEM('Stahl','Stahl');
#277=PROPERTY_DEFINITION('material property','material name',#898);
#278=PROPERTY_DEFINITION('material property','density of part',#898);
#279=AXIS2_PLACEMENT_3D('',#364,#304,#305);
#280=AXIS2_PLACEMENT_3D('',#574,#310,#311);
#281=AXIS2_PLACEMENT_3D('',#576,#312,#313);
#282=AXIS2_PLACEMENT_3D('',#578,#314,#315);
#283=AXIS2_PLACEMENT_3D('',#579,#316,#317);
#284=AXIS2_PLACEMENT_3D('',#580,#318,#319);
#285=AXIS2_PLACEMENT_3D('',#581,#320,#321);
#286=AXIS2_PLACEMENT_3D('',#729,#324,#325);
#287=AXIS2_PLACEMENT_3D('',#731,#326,#327);
#288=AXIS2_PLACEMENT_3D('',#734,#329,#330);
#289=AXIS2_PLACEMENT_3D('',#735,#331,#332);
#290=AXIS2_PLACEMENT_3D('',#738,#334,#335);
#291=AXIS2_PLACEMENT_3D('',#867,#336,#337);
#292=AXIS2_PLACEMENT_3D('',#869,#338,#339);
#293=AXIS2_PLACEMENT_3D('',#870,#340,#341);
#294=AXIS2_PLACEMENT_3D('',#871,#342,#343);
#295=AXIS2_PLACEMENT_3D('',#872,#344,#345);
#296=AXIS2_PLACEMENT_3D('',#875,#347,#348);
#297=AXIS2_PLACEMENT_3D('',#876,#349,#350);
#298=AXIS2_PLACEMENT_3D('',#877,#351,#352);
#299=AXIS2_PLACEMENT_3D('',#879,#353,#354);
#300=AXIS2_PLACEMENT_3D('',#882,#356,#357);
#301=AXIS2_PLACEMENT_3D('',#883,#358,#359);
#302=AXIS2_PLACEMENT_3D('',#884,#360,#361);
#303=AXIS2_PLACEMENT_3D('',#885,#362,#363);
#304=DIRECTION('axis',(0.,0.,1.));
#305=DIRECTION('refdir',(1.,0.,0.));
#306=DIRECTION('',(-0.698538900567254,-0.511618765543871,-0.500289559293073));
#307=DIRECTION('',(0.698538900567254,-0.51161876554387,0.500289559293074));
#308=DIRECTION('',(0.654856888402557,0.400062344127192,0.641180611468545));
#309=DIRECTION('',(-0.654856888402553,0.400062344127194,-0.641180611468548));
#310=DIRECTION('center_axis',(0.,0.,1.));
#311=DIRECTION('ref_axis',(1.,0.,0.));
#312=DIRECTION('center_axis',(0.,0.,-1.));
#313=DIRECTION('ref_axis',(1.,0.,0.));
#314=DIRECTION('center_axis',(1.22464679914735E-16,-1.,0.));
#315=DIRECTION('ref_axis',(-1.,-1.22464679914735E-16,0.));
#316=DIRECTION('center_axis',(0.,0.,1.));
#317=DIRECTION('ref_axis',(1.,0.,0.));
#318=DIRECTION('center_axis',(0.,0.,1.));
#319=DIRECTION('ref_axis',(1.,0.,0.));
#320=DIRECTION('center_axis',(-1.,0.,0.));
#321=DIRECTION('ref_axis',(0.,0.,-1.));
#322=DIRECTION('',(-1.,0.,0.));
#323=DIRECTION('',(0.704512385343141,-0.629076484630729,0.328519520550547));
#324=DIRECTION('center_axis',(0.422618261740699,0.,-0.90630778703665));
#325=DIRECTION('ref_axis',(0.,-1.,0.));
#326=DIRECTION('center_axis',(0.422618261740699,0.,-0.90630778703665));
#327=DIRECTION('ref_axis',(0.,-1.,0.));
#328=DIRECTION('',(0.422618261740699,0.,-0.90630778703665));
#329=DIRECTION('center_axis',(0.,0.,-1.));
#330=DIRECTION('ref_axis',(-1.,0.,0.));
#331=DIRECTION('center_axis',(0.,0.,1.));
#332=DIRECTION('ref_axis',(1.,0.,0.));
#333=DIRECTION('',(0.,0.,-1.));
#334=DIRECTION('center_axis',(0.,0.,1.));
#335=DIRECTION('ref_axis',(1.,0.,0.));
#336=DIRECTION('center_axis',(1.35124823670728E-16,1.,0.));
#337=DIRECTION('ref_axis',(0.,0.,-1.));
#338=DIRECTION('center_axis',(-0.061872913184388,3.69365292369647E-16,-0.998084035847722));
#339=DIRECTION('ref_axis',(-0.998084035847722,0.,0.061872913184388));
#340=DIRECTION('center_axis',(-0.061872913184388,3.69365292369647E-16,-0.998084035847722));
#341=DIRECTION('ref_axis',(-0.998084035847722,0.,0.061872913184388));
#342=DIRECTION('center_axis',(0.,0.,1.));
#343=DIRECTION('ref_axis',(-1.,0.,0.));
#344=DIRECTION('center_axis',(0.422618261740699,0.,-0.90630778703665));
#345=DIRECTION('ref_axis',(0.,-1.,0.));
#346=DIRECTION('',(-0.422618261740699,0.,0.90630778703665));
#347=DIRECTION('center_axis',(0.422618261740699,0.,-0.90630778703665));
#348=DIRECTION('ref_axis',(0.,-1.,0.));
#349=DIRECTION('center_axis',(0.,0.,1.));
#350=DIRECTION('ref_axis',(1.,0.,0.));
#351=DIRECTION('center_axis',(0.422618261740699,0.,-0.90630778703665));
#352=DIRECTION('ref_axis',(0.,-1.,0.));
#353=DIRECTION('center_axis',(-0.422618261740699,0.,0.90630778703665));
#354=DIRECTION('ref_axis',(0.,-1.,0.));
#355=DIRECTION('',(0.422618261740699,0.,-0.90630778703665));
#356=DIRECTION('center_axis',(-0.422618261740699,0.,0.90630778703665));
#357=DIRECTION('ref_axis',(0.,-1.,0.));
#358=DIRECTION('center_axis',(-0.422618261740699,0.,0.90630778703665));
#359=DIRECTION('ref_axis',(0.,-1.,0.));
#360=DIRECTION('center_axis',(-0.422618261740699,0.,0.90630778703665));
#361=DIRECTION('ref_axis',(0.,-1.,0.));
#362=DIRECTION('center_axis',(0.,0.,1.));
#363=DIRECTION('ref_axis',(1.,0.,0.));
#364=CARTESIAN_POINT('',(0.,0.,0.));
#365=CARTESIAN_POINT('Ctrl Pts',(79.9459919795927,2.93910979701377,7.9999999999989));
#366=CARTESIAN_POINT('Ctrl Pts',(79.9340310036319,3.26445731863308,7.68113538403818));
#367=CARTESIAN_POINT('Ctrl Pts',(79.9084566452696,3.84288934417488,6.90084359612754));
#368=CARTESIAN_POINT('Ctrl Pts',(79.8870559340722,4.24694845717292,5.48896165664193));
#369=CARTESIAN_POINT('Ctrl Pts',(79.8906459525908,4.18241930724372,4.09957261069936));
#370=CARTESIAN_POINT('Ctrl Pts',(79.9141726389035,3.71928440023052,2.9408258731317));
#371=CARTESIAN_POINT('Ctrl Pts',(79.9385229480012,3.14397685247357,2.18955076281476));
#372=CARTESIAN_POINT('Ctrl Pts',(79.9625102352279,2.49027398294355,1.55885063526147));
#373=CARTESIAN_POINT('Ctrl Pts',(80.0038731523258,0.957143591482504,0.715624800080012));
#374=CARTESIAN_POINT('Ctrl Pts',(80.0035462204588,-0.956708179631649,0.709504658740964));
#375=CARTESIAN_POINT('Ctrl Pts',(79.9624707374825,-2.49100171630914,1.55634765030037));
#376=CARTESIAN_POINT('Ctrl Pts',(79.9384134664998,-3.14337845974332,2.18976355051932));
#377=CARTESIAN_POINT('Ctrl Pts',(79.9140801678778,-3.71963388393751,2.94113179666631));
#378=CARTESIAN_POINT('Ctrl Pts',(79.8905896997499,-4.18214068618551,4.09964940850654));
#379=CARTESIAN_POINT('Ctrl Pts',(79.8870099012774,-4.24701910143464,5.48909223981861));
#380=CARTESIAN_POINT('Ctrl Pts',(79.9084385945336,-3.8428140785602,6.90087137225118));
#381=CARTESIAN_POINT('Ctrl Pts',(79.934031003632,-3.26445731863096,7.68113538404027));
#382=CARTESIAN_POINT('Ctrl Pts',(79.9459919795927,-2.93910979701377,7.9999999999989));
#383=CARTESIAN_POINT('Ctrl Pts',(79.7182132375613,2.77228175247611,7.83686616969315));
#384=CARTESIAN_POINT('Ctrl Pts',(79.7074703097194,3.07995408489266,7.53611804709415));
#385=CARTESIAN_POINT('Ctrl Pts',(79.6844804580252,3.62785261504484,6.79933223480519));
#386=CARTESIAN_POINT('Ctrl Pts',(79.6652152447032,4.01150476603535,5.46310665819214));
#387=CARTESIAN_POINT('Ctrl Pts',(79.6684486525177,3.95018044700058,4.14729319474276));
#388=CARTESIAN_POINT('Ctrl Pts',(79.6896202063394,3.51070666904296,3.05119604179046));
#389=CARTESIAN_POINT('Ctrl Pts',(79.711504718372,2.96599752656451,2.34187750080637));
#390=CARTESIAN_POINT('Ctrl Pts',(79.7330498347751,2.34781529256357,1.74704889502365));
#391=CARTESIAN_POINT('Ctrl Pts',(79.7701402925142,0.900850309741354,0.953932193796985));
#392=CARTESIAN_POINT('Ctrl Pts',(79.7698531740692,-0.900418430417607,0.947992734702789));
#393=CARTESIAN_POINT('Ctrl Pts',(79.733015821867,-2.34849090301868,1.74464899227155));
#394=CARTESIAN_POINT('Ctrl Pts',(79.7114073412503,-2.96543951000803,2.34205092208603));
#395=CARTESIAN_POINT('Ctrl Pts',(79.6895379187331,-3.51104058871968,3.0514627369068));
#396=CARTESIAN_POINT('Ctrl Pts',(79.6683986334149,-3.9499207355822,4.14735124025098));
#397=CARTESIAN_POINT('Ctrl Pts',(79.6651742889199,-4.01157363742298,5.46321872984975));
#398=CARTESIAN_POINT('Ctrl Pts',(79.684464406494,-3.62778260034844,6.79935384706479));
#399=CARTESIAN_POINT('Ctrl Pts',(79.7074703097194,-3.07995408489065,7.53611804709612));
#400=CARTESIAN_POINT('Ctrl Pts',(79.7182132375613,-2.77228175247611,7.83686616969315));
#401=CARTESIAN_POINT('Ctrl Pts',(79.49043449553,2.60545370793845,7.6737323393874));
#402=CARTESIAN_POINT('Ctrl Pts',(79.4809096158068,2.89545085115224,7.39110071015012));
#403=CARTESIAN_POINT('Ctrl Pts',(79.4605042707807,3.41281588591481,6.69782087348284));
#404=CARTESIAN_POINT('Ctrl Pts',(79.4433745553343,3.77606107489779,5.43725165974235));
#405=CARTESIAN_POINT('Ctrl Pts',(79.4462513524448,3.71794158675744,4.19501377878615));
#406=CARTESIAN_POINT('Ctrl Pts',(79.4650677737754,3.30212893785541,3.16156621044921));
#407=CARTESIAN_POINT('Ctrl Pts',(79.4844864887429,2.78801820065545,2.49420423879798));
#408=CARTESIAN_POINT('Ctrl Pts',(79.5035894343223,2.20535660218359,1.93524715478583));
#409=CARTESIAN_POINT('Ctrl Pts',(79.5364074327027,0.844557028000207,1.19223958751395));
#410=CARTESIAN_POINT('Ctrl Pts',(79.5361601276795,-0.844128681203569,1.18648081066461));
#411=CARTESIAN_POINT('Ctrl Pts',(79.5035609062516,-2.20598008972823,1.93295033424271));
#412=CARTESIAN_POINT('Ctrl Pts',(79.4844012160008,-2.78750056027274,2.49433829365273));
#413=CARTESIAN_POINT('Ctrl Pts',(79.4649956695884,-3.30244729350185,3.16179367714729));
#414=CARTESIAN_POINT('Ctrl Pts',(79.4462075670799,-3.71770078497889,4.19505307199542));
#415=CARTESIAN_POINT('Ctrl Pts',(79.4433386765623,-3.77612817341132,5.43734521988088));
#416=CARTESIAN_POINT('Ctrl Pts',(79.4604902184544,-3.41275112213667,6.69783632187841));
#417=CARTESIAN_POINT('Ctrl Pts',(79.4809096158069,-2.89545085115035,7.39110071015196));
#418=CARTESIAN_POINT('Ctrl Pts',(79.49043449553,-2.60545370793845,7.67373233938741));
#419=CARTESIAN_POINT('Ctrl Pts',(79.2626557534987,2.43862566340079,7.51059850908166));
#420=CARTESIAN_POINT('Ctrl Pts',(79.2543489218942,2.71094761741183,7.24608337320608));
#421=CARTESIAN_POINT('Ctrl Pts',(79.2365280835363,3.19777915678477,6.59630951216049));
#422=CARTESIAN_POINT('Ctrl Pts',(79.2215338659654,3.54061738376024,5.41139666129255));
#423=CARTESIAN_POINT('Ctrl Pts',(79.2240540523717,3.4857027265143,4.24273436282955));
#424=CARTESIAN_POINT('Ctrl Pts',(79.2405153412114,3.09355120666785,3.27193637910797));
#425=CARTESIAN_POINT('Ctrl Pts',(79.2574682591137,2.61003887474639,2.64653097678958));
#426=CARTESIAN_POINT('Ctrl Pts',(79.2741290338694,2.06289791180361,2.12344541454801));
#427=CARTESIAN_POINT('Ctrl Pts',(79.3026745728911,0.78826374625906,1.43054698123092));
#428=CARTESIAN_POINT('Ctrl Pts',(79.3024670812898,-0.787838931989526,1.42496888662643));
#429=CARTESIAN_POINT('Ctrl Pts',(79.2741059906361,-2.06346927643777,2.12125167621389));
#430=CARTESIAN_POINT('Ctrl Pts',(79.2573950907513,-2.60956161053745,2.64662566521944));
#431=CARTESIAN_POINT('Ctrl Pts',(79.2404534204436,-3.09385399828402,3.27212461738779));
#432=CARTESIAN_POINT('Ctrl Pts',(79.2240165007449,-3.48548083437558,4.24275490373987));
#433=CARTESIAN_POINT('Ctrl Pts',(79.2215030642048,-3.54068270939967,5.41147170991201));
#434=CARTESIAN_POINT('Ctrl Pts',(79.2365160304148,-3.19771964392491,6.59631879669202));
#435=CARTESIAN_POINT('Ctrl Pts',(79.2543489218943,-2.71094761741004,7.24608337320781));
#436=CARTESIAN_POINT('Ctrl Pts',(79.2626557534987,-2.43862566340079,7.51059850908166));
#437=CARTESIAN_POINT('',(79.9459919795927,2.93910979701414,7.99999999999927));
#438=CARTESIAN_POINT('',(79.2626557534987,2.43862566340079,7.51059850908166));
#439=CARTESIAN_POINT('',(79.9459919795927,2.93910979701414,7.99999999999927));
#440=CARTESIAN_POINT('',(79.2626557534987,-2.43862566340079,7.51059850908166));
#441=CARTESIAN_POINT('Ctrl Pts',(79.2626557534987,2.43862566340079,7.51059850908166));
#442=CARTESIAN_POINT('Ctrl Pts',(79.2543489218942,2.71094761741183,7.24608337320608));
#443=CARTESIAN_POINT('Ctrl Pts',(79.2365280835363,3.19777915678477,6.59630951216049));
#444=CARTESIAN_POINT('Ctrl Pts',(79.2215338659654,3.54061738376024,5.41139666129255));
#445=CARTESIAN_POINT('Ctrl Pts',(79.2240540523717,3.4857027265143,4.24273436282955));
#446=CARTESIAN_POINT('Ctrl Pts',(79.2405153412114,3.09355120666785,3.27193637910797));
#447=CARTESIAN_POINT('Ctrl Pts',(79.2574682591137,2.61003887474639,2.64653097678958));
#448=CARTESIAN_POINT('Ctrl Pts',(79.2741290338694,2.06289791180361,2.12344541454801));
#449=CARTESIAN_POINT('Ctrl Pts',(79.3026745728911,0.78826374625906,1.43054698123092));
#450=CARTESIAN_POINT('Ctrl Pts',(79.3024670812898,-0.787838931989526,1.42496888662643));
#451=CARTESIAN_POINT('Ctrl Pts',(79.2741059906361,-2.06346927643777,2.12125167621389));
#452=CARTESIAN_POINT('Ctrl Pts',(79.2573950907513,-2.60956161053745,2.64662566521944));
#453=CARTESIAN_POINT('Ctrl Pts',(79.2404534204436,-3.09385399828402,3.27212461738779));
#454=CARTESIAN_POINT('Ctrl Pts',(79.2240165007449,-3.48548083437558,4.24275490373987));
#455=CARTESIAN_POINT('Ctrl Pts',(79.2215030642048,-3.54068270939967,5.41147170991201));
#456=CARTESIAN_POINT('Ctrl Pts',(79.2365160304148,-3.19771964392491,6.59631879669202));
#457=CARTESIAN_POINT('Ctrl Pts',(79.2543489218943,-2.71094761741004,7.24608337320781));
#458=CARTESIAN_POINT('Ctrl Pts',(79.2626557534987,-2.43862566340079,7.51059850908166));
#459=CARTESIAN_POINT('',(79.9459919795927,-2.93910979701414,7.99999999999927));
#460=CARTESIAN_POINT('',(79.2626557534987,-2.43862566340079,7.51059850908166));
#461=CARTESIAN_POINT('Ctrl Pts',(79.9459919795927,-2.93910979701377,7.9999999999989));
#462=CARTESIAN_POINT('Ctrl Pts',(79.934031003632,-3.26445731863096,7.68113538404027));
#463=CARTESIAN_POINT('Ctrl Pts',(79.9084385945336,-3.8428140785602,6.90087137225118));
#464=CARTESIAN_POINT('Ctrl Pts',(79.8870099012774,-4.24701910143464,5.48909223981861));
#465=CARTESIAN_POINT('Ctrl Pts',(79.8905896997499,-4.18214068618551,4.09964940850654));
#466=CARTESIAN_POINT('Ctrl Pts',(79.9140801678778,-3.71963388393751,2.94113179666631));
#467=CARTESIAN_POINT('Ctrl Pts',(79.9384134664998,-3.14337845974332,2.18976355051932));
#468=CARTESIAN_POINT('Ctrl Pts',(79.9624707374825,-2.49100171630914,1.55634765030037));
#469=CARTESIAN_POINT('Ctrl Pts',(80.0035462204588,-0.956708179631649,0.709504658740964));
#470=CARTESIAN_POINT('Ctrl Pts',(80.0038731523258,0.957143591482504,0.715624800080012));
#471=CARTESIAN_POINT('Ctrl Pts',(79.9625102352279,2.49027398294355,1.55885063526147));
#472=CARTESIAN_POINT('Ctrl Pts',(79.9385229480012,3.14397685247357,2.18955076281476));
#473=CARTESIAN_POINT('Ctrl Pts',(79.9141726389035,3.71928440023052,2.9408258731317));
#474=CARTESIAN_POINT('Ctrl Pts',(79.8906459525908,4.18241930724372,4.09957261069936));
#475=CARTESIAN_POINT('Ctrl Pts',(79.8870559340722,4.24694845717292,5.48896165664193));
#476=CARTESIAN_POINT('Ctrl Pts',(79.9084566452696,3.84288934417488,6.90084359612754));
#477=CARTESIAN_POINT('Ctrl Pts',(79.9340310036319,3.26445731863308,7.68113538403818));
#478=CARTESIAN_POINT('Ctrl Pts',(79.9459919795927,2.93910979701377,7.9999999999989));
#479=CARTESIAN_POINT('Ctrl Pts',(79.8803259849519,-2.1580333861114,8.59491153470188));
#480=CARTESIAN_POINT('Ctrl Pts',(79.7953784823206,-1.59632375160346,8.91615493880872));
#481=CARTESIAN_POINT('Ctrl Pts',(79.5987589182961,-0.541523375480541,9.20142672133904));
#482=CARTESIAN_POINT('Ctrl Pts',(79.6817753693653,1.02080739332609,9.09287903067545));
#483=CARTESIAN_POINT('Ctrl Pts',(79.8273458861171,1.80770605416105,8.79526477373077));
#484=CARTESIAN_POINT('Ctrl Pts',(79.8803259849519,2.15803338611141,8.59491153470188));
#485=CARTESIAN_POINT('Ctrl Pts',(79.6801558337126,-2.03574630118138,8.39892181199703));
#486=CARTESIAN_POINT('Ctrl Pts',(79.6266922845651,-1.52039514535788,8.69700217335074));
#487=CARTESIAN_POINT('Ctrl Pts',(79.4718521611001,-0.520206065701678,8.99215339599867));
#488=CARTESIAN_POINT('Ctrl Pts',(79.5383293409768,0.978644941256697,8.87762490509702));
#489=CARTESIAN_POINT('Ctrl Pts',(79.6468116619577,1.71433184726102,8.58482871350731));
#490=CARTESIAN_POINT('Ctrl Pts',(79.6801558337126,2.03574630118138,8.39892181199703));
#491=CARTESIAN_POINT('Ctrl Pts',(79.4799856824733,-1.91345921625135,8.20293208929218));
#492=CARTESIAN_POINT('Ctrl Pts',(79.4580060868096,-1.4444665391123,8.47784940789276));
#493=CARTESIAN_POINT('Ctrl Pts',(79.3449454039041,-0.498888755922818,8.78288007065831));
#494=CARTESIAN_POINT('Ctrl Pts',(79.3948833125883,0.936482489187301,8.66237077951858));
#495=CARTESIAN_POINT('Ctrl Pts',(79.4662774377982,1.62095764036099,8.37439265328385));
#496=CARTESIAN_POINT('Ctrl Pts',(79.4799856824733,1.91345921625135,8.20293208929218));
#497=CARTESIAN_POINT('Ctrl Pts',(79.279815531234,-1.79117213132132,8.00694236658733));
#498=CARTESIAN_POINT('Ctrl Pts',(79.2893198890541,-1.36853793286672,8.25869664243478));
#499=CARTESIAN_POINT('Ctrl Pts',(79.2180386467081,-0.477571446143955,8.57360674531794));
#500=CARTESIAN_POINT('Ctrl Pts',(79.2514372841999,0.894320037117903,8.44711665394015));
#501=CARTESIAN_POINT('Ctrl Pts',(79.2857432136387,1.52758343346096,8.16395659306039));
#502=CARTESIAN_POINT('Ctrl Pts',(79.279815531234,1.79117213132132,8.00694236658733));
#503=CARTESIAN_POINT('',(79.279815531234,1.79117213132132,8.00694236658733));
#504=CARTESIAN_POINT('',(79.8803259849519,2.1580333861114,8.59491153470188));
#505=CARTESIAN_POINT('',(79.279815531234,1.79117213132132,8.00694236658733));
#506=CARTESIAN_POINT('',(79.8803259849519,-2.1580333861114,8.59491153470188));
#507=CARTESIAN_POINT('Ctrl Pts',(79.8803259849519,2.15803338611141,8.59491153470188));
#508=CARTESIAN_POINT('Ctrl Pts',(79.8273458861171,1.80770605416105,8.79526477373077));
#509=CARTESIAN_POINT('Ctrl Pts',(79.6817753693653,1.02080739332609,9.09287903067545));
#510=CARTESIAN_POINT('Ctrl Pts',(79.5987589182961,-0.541523375480541,9.20142672133904));
#511=CARTESIAN_POINT('Ctrl Pts',(79.7953784823206,-1.59632375160346,8.91615493880872));
#512=CARTESIAN_POINT('Ctrl Pts',(79.8803259849519,-2.1580333861114,8.59491153470188));
#513=CARTESIAN_POINT('',(79.279815531234,-1.79117213132132,8.00694236658733));
#514=CARTESIAN_POINT('',(79.8803259849519,-2.1580333861114,8.59491153470188));
#515=CARTESIAN_POINT('',(79.2364001540827,1.14115107831964E-6,8.50034618654259));
#516=CARTESIAN_POINT('Ctrl Pts',(79.279815531234,-1.79117213132132,8.00694236658733));
#517=CARTESIAN_POINT('Ctrl Pts',(79.2893198890541,-1.36853793286672,8.25869664243478));
#518=CARTESIAN_POINT('Ctrl Pts',(79.2398664803386,-0.750404348637211,8.47717456894048));
#519=CARTESIAN_POINT('Ctrl Pts',(79.2362054579888,-0.0894536696691893,8.5005890623355));
#520=CARTESIAN_POINT('Ctrl Pts',(79.2364001540827,1.14115107838209E-6,8.50034618654259));
#521=CARTESIAN_POINT('Ctrl Pts',(79.2364001540827,1.14115107838209E-6,8.50034618654259));
#522=CARTESIAN_POINT('Ctrl Pts',(79.2370359069619,0.292103321637254,8.49955310959069));
#523=CARTESIAN_POINT('Ctrl Pts',(79.2554587416726,0.968553321541948,8.41392367064409));
#524=CARTESIAN_POINT('Ctrl Pts',(79.2857432136387,1.52758343346096,8.16395659306039));
#525=CARTESIAN_POINT('Ctrl Pts',(79.279815531234,1.79117213132132,8.00694236658733));
#526=CARTESIAN_POINT('Ctrl Pts',(79.9459919795927,-2.93910979701377,7.99999999999889));
#527=CARTESIAN_POINT('Ctrl Pts',(79.9543459045592,-2.71187676916302,8.22270516092526));
#528=CARTESIAN_POINT('Ctrl Pts',(79.9242706945781,-2.44861481603073,8.4287271540489));
#529=CARTESIAN_POINT('Ctrl Pts',(79.8803259849519,-2.1580333861114,8.59491153470188));
#530=CARTESIAN_POINT('Ctrl Pts',(79.7182132375613,-2.77228175247611,7.83686616969315));
#531=CARTESIAN_POINT('Ctrl Pts',(79.7257164390899,-2.55739363735248,8.04691819707133));
#532=CARTESIAN_POINT('Ctrl Pts',(79.7076648101005,-2.3089526071555,8.24078447717071));
#533=CARTESIAN_POINT('Ctrl Pts',(79.6801558337126,-2.03574630118138,8.39892181199703));
#534=CARTESIAN_POINT('Ctrl Pts',(79.49043449553,-2.60545370793845,7.6737323393874));
#535=CARTESIAN_POINT('Ctrl Pts',(79.4970869736207,-2.40291050554195,7.8711312332174));
#536=CARTESIAN_POINT('Ctrl Pts',(79.4910589256228,-2.16929039828028,8.05284180029253));
#537=CARTESIAN_POINT('Ctrl Pts',(79.4799856824733,-1.91345921625135,8.20293208929218));
#538=CARTESIAN_POINT('Ctrl Pts',(79.2626557534987,-2.43862566340079,7.51059850908166));
#539=CARTESIAN_POINT('Ctrl Pts',(79.2684575081514,-2.24842737373142,7.69534426936347));
#540=CARTESIAN_POINT('Ctrl Pts',(79.2744530411451,-2.02962818940506,7.86489912341434));
#541=CARTESIAN_POINT('Ctrl Pts',(79.279815531234,-1.79117213132132,8.00694236658733));
#542=CARTESIAN_POINT('Ctrl Pts',(79.8803259849519,-2.1580333861114,8.59491153470188));
#543=CARTESIAN_POINT('Ctrl Pts',(79.9242706945781,-2.44861481603073,8.4287271540489));
#544=CARTESIAN_POINT('Ctrl Pts',(79.9543459045592,-2.71187676916302,8.22270516092526));
#545=CARTESIAN_POINT('Ctrl Pts',(79.9459919795927,-2.93910979701377,7.99999999999889));
#546=CARTESIAN_POINT('Ctrl Pts',(79.2626557534987,-2.43862566340079,7.51059850908166));
#547=CARTESIAN_POINT('Ctrl Pts',(79.2684575081514,-2.24842737373142,7.69534426936347));
#548=CARTESIAN_POINT('Ctrl Pts',(79.2744530411451,-2.02962818940506,7.86489912341434));
#549=CARTESIAN_POINT('Ctrl Pts',(79.279815531234,-1.79117213132132,8.00694236658733));
#550=CARTESIAN_POINT('Ctrl Pts',(79.8803259849519,2.1580333861114,8.59491153470188));
#551=CARTESIAN_POINT('Ctrl Pts',(79.9242706945772,2.44861481602451,8.42872715405245));
#552=CARTESIAN_POINT('Ctrl Pts',(79.954345904559,2.71187676916822,8.22270516092016));
#553=CARTESIAN_POINT('Ctrl Pts',(79.9459919795927,2.93910979701377,7.9999999999989));
#554=CARTESIAN_POINT('Ctrl Pts',(79.6801558337126,2.03574630118138,8.39892181199703));
#555=CARTESIAN_POINT('Ctrl Pts',(79.7076648100999,2.30895260714967,8.24078447717409));
#556=CARTESIAN_POINT('Ctrl Pts',(79.7257164390898,2.5573936373574,8.04691819706652));
#557=CARTESIAN_POINT('Ctrl Pts',(79.7182132375613,2.77228175247611,7.83686616969315));
#558=CARTESIAN_POINT('Ctrl Pts',(79.4799856824733,1.91345921625135,8.20293208929218));
#559=CARTESIAN_POINT('Ctrl Pts',(79.4910589256226,2.16929039827482,8.05284180029573));
#560=CARTESIAN_POINT('Ctrl Pts',(79.4970869736205,2.40291050554659,7.87113123321288));
#561=CARTESIAN_POINT('Ctrl Pts',(79.49043449553,2.60545370793845,7.67373233938741));
#562=CARTESIAN_POINT('Ctrl Pts',(79.279815531234,1.79117213132132,8.00694236658733));
#563=CARTESIAN_POINT('Ctrl Pts',(79.2744530411452,2.02962818939997,7.86489912341738));
#564=CARTESIAN_POINT('Ctrl Pts',(79.2684575081513,2.24842737373577,7.69534426935924));
#565=CARTESIAN_POINT('Ctrl Pts',(79.2626557534987,2.43862566340079,7.51059850908166));
#566=CARTESIAN_POINT('Ctrl Pts',(79.9459919795927,2.93910979701377,7.9999999999989));
#567=CARTESIAN_POINT('Ctrl Pts',(79.954345904559,2.71187676916822,8.22270516092016));
#568=CARTESIAN_POINT('Ctrl Pts',(79.9242706945772,2.44861481602451,8.42872715405245));
#569=CARTESIAN_POINT('Ctrl Pts',(79.8803259849519,2.1580333861114,8.59491153470188));
#570=CARTESIAN_POINT('Ctrl Pts',(79.279815531234,1.79117213132132,8.00694236658733));
#571=CARTESIAN_POINT('Ctrl Pts',(79.2744530411452,2.02962818939997,7.86489912341738));
#572=CARTESIAN_POINT('Ctrl Pts',(79.2684575081513,2.24842737373577,7.69534426935924));
#573=CARTESIAN_POINT('Ctrl Pts',(79.2626557534987,2.43862566340079,7.51059850908166));
#574=CARTESIAN_POINT('Origin',(0.,0.,8.));
#575=CARTESIAN_POINT('',(-78.,9.55224503334935E-15,10.));
#576=CARTESIAN_POINT('Origin',(0.,0.,10.));
#577=CARTESIAN_POINT('',(-80.,-9.79717439317883E-15,8.));
#578=CARTESIAN_POINT('Origin',(-78.,-9.55224503334935E-15,8.));
#579=CARTESIAN_POINT('Origin',(0.,0.,8.));
#580=CARTESIAN_POINT('Origin',(0.,0.,8.));
#581=CARTESIAN_POINT('Origin',(90.,0.,5.));
#582=CARTESIAN_POINT('',(40.4937738640241,0.000390057415416606,8.50004729445845));
#583=CARTESIAN_POINT('',(90.,4.28626379701574E-16,8.5));
#584=CARTESIAN_POINT('',(41.6583553001516,3.48747917050061,5.29578545488982));
#585=CARTESIAN_POINT('Ctrl Pts',(41.6583553001516,3.48747917050061,5.29578545488982));
#586=CARTESIAN_POINT('Ctrl Pts',(41.4420530057107,3.44827815225437,5.75798781249759));
#587=CARTESIAN_POINT('Ctrl Pts',(41.1287079185101,3.23989966636606,6.49612514940725));
#588=CARTESIAN_POINT('Ctrl Pts',(40.8351055597322,2.64937956358161,7.32494501632607));
#589=CARTESIAN_POINT('Ctrl Pts',(40.6243401948061,1.94240984991776,7.99330823679878));
#590=CARTESIAN_POINT('Ctrl Pts',(40.5100146690768,0.957552794490555,8.43462903678592));
#591=CARTESIAN_POINT('Ctrl Pts',(40.4936796534471,0.221725509730204,8.50042381614808));
#592=CARTESIAN_POINT('Ctrl Pts',(40.4937738640241,0.000390057415416561,
8.50004729445845));
#593=CARTESIAN_POINT('Ctrl Pts',(40.4937738640241,0.000390057415416561,
8.50004729445845));
#594=CARTESIAN_POINT('Ctrl Pts',(40.4937895259796,-0.0364056625104806,8.49998469993736));
#595=CARTESIAN_POINT('Ctrl Pts',(40.4950217568483,-0.33145024478715,8.49502604860522));
#596=CARTESIAN_POINT('Ctrl Pts',(40.5161728135214,-0.972829169343477,8.40903853957235));
#597=CARTESIAN_POINT('Ctrl Pts',(40.6232880592675,-1.89096200011999,8.00543408424416));
#598=CARTESIAN_POINT('Ctrl Pts',(40.8188293463476,-2.6418908387608,7.36406523107332));
#599=CARTESIAN_POINT('Ctrl Pts',(41.1228765861122,-3.21088953051195,6.5162777108224));
#600=CARTESIAN_POINT('Ctrl Pts',(41.5261030662323,-3.49763730356368,5.56364108567877));
#601=CARTESIAN_POINT('Ctrl Pts',(41.9777852781028,-3.5241004939474,4.62299404189087));
#602=CARTESIAN_POINT('Ctrl Pts',(42.4604056017771,-3.30105781886358,3.71227044389054));
#603=CARTESIAN_POINT('Ctrl Pts',(42.8863756687637,-2.87679124913063,2.96047804906952));
#604=CARTESIAN_POINT('Ctrl Pts',(43.3394458253929,-2.20670351197786,2.18777540949965));
#605=CARTESIAN_POINT('Ctrl Pts',(43.8066098318561,-0.830424016029477,1.4201427066479));
#606=CARTESIAN_POINT('Ctrl Pts',(43.7553548791416,1.0986600789843,1.50370714054235));
#607=CARTESIAN_POINT('Ctrl Pts',(43.2476443251638,2.39030152709001,2.34109758060639));
#608=CARTESIAN_POINT('Ctrl Pts',(42.7808969688075,2.99814217714431,3.14434403918284));
#609=CARTESIAN_POINT('Ctrl Pts',(42.2572934703835,3.45126009560629,4.08129904775576));
#610=CARTESIAN_POINT('Ctrl Pts',(41.8746575945926,3.52668018874685,4.83358309728204));
#611=CARTESIAN_POINT('Ctrl Pts',(41.6583553001516,3.48747917050061,5.29578545488982));
#612=CARTESIAN_POINT('Ctrl Pts',(40.8806724096214,4.18189140385538,4.93314596741946));
#613=CARTESIAN_POINT('Ctrl Pts',(40.61899664031,4.18189140385538,5.49431146563742));
#614=CARTESIAN_POINT('Ctrl Pts',(40.236065590494,4.00020209892561,6.4352359962347));
#615=CARTESIAN_POINT('Ctrl Pts',(39.88400707945,3.31333484539889,7.5433836785073));
#616=CARTESIAN_POINT('Ctrl Pts',(39.6386146834428,2.44906628950133,8.44864073914751));
#617=CARTESIAN_POINT('Ctrl Pts',(39.5104923965676,1.16227672307245,9.06871521373371));
#618=CARTESIAN_POINT('Ctrl Pts',(39.4915539337649,-0.137938225602649,9.16763144490611));
#619=CARTESIAN_POINT('Ctrl Pts',(39.5215035916909,-1.22765921466073,9.0119391988778));
#620=CARTESIAN_POINT('Ctrl Pts',(39.6384264846207,-2.38271172331667,8.46533089864799));
#621=CARTESIAN_POINT('Ctrl Pts',(39.86378931204,-3.30845130300311,7.59469881409605));
#622=CARTESIAN_POINT('Ctrl Pts',(40.2295867372589,-3.96364918667522,6.46239779076493));
#623=CARTESIAN_POINT('Ctrl Pts',(40.7211988714304,-4.22376780677332,5.24925833511222));
#624=CARTESIAN_POINT('Ctrl Pts',(41.2669081867012,-4.15479974600072,4.12202604124593));
#625=CARTESIAN_POINT('Ctrl Pts',(41.8407838801438,-3.79989203059287,3.09893165542187));
#626=CARTESIAN_POINT('Ctrl Pts',(42.3407246324457,-3.24911942643334,2.30334611416645));
#627=CARTESIAN_POINT('Ctrl Pts',(42.8688386062682,-2.43734234881324,1.51680710165794));
#628=CARTESIAN_POINT('Ctrl Pts',(43.4101523433644,-0.892716696857499,0.790198545721569));
#629=CARTESIAN_POINT('Ctrl Pts',(43.3507885920512,1.1849205773999,0.866829742647435));
#630=CARTESIAN_POINT('Ctrl Pts',(42.76223648199,2.65086160964212,1.66734273563323));
#631=CARTESIAN_POINT('Ctrl Pts',(42.217240547987,3.40220537050934,2.49531930852798));
#632=CARTESIAN_POINT('Ctrl Pts',(41.6010896903882,4.00830713990158,3.50028732579339));
#633=CARTESIAN_POINT('Ctrl Pts',(41.1423481789328,4.18189140385538,4.37198046920153));
#634=CARTESIAN_POINT('Ctrl Pts',(40.8806724096214,4.18189140385538,4.93314596741946));
#635=CARTESIAN_POINT('Ctrl Pts',(41.1399000397981,3.95042065940379,5.05402579657625));
#636=CARTESIAN_POINT('Ctrl Pts',(40.8933487621102,3.93735365332171,5.58220358125747));
#637=CARTESIAN_POINT('Ctrl Pts',(40.533613033166,3.74676795473909,6.45553238062555));
#638=CARTESIAN_POINT('Ctrl Pts',(40.2010399062107,3.09201641812647,7.47057079111356));
#639=CARTESIAN_POINT('Ctrl Pts',(39.9671898538973,2.28018080964014,8.2968632383646));
#640=CARTESIAN_POINT('Ctrl Pts',(39.8422582427391,1.08190409216975,8.86278927812028));
#641=CARTESIAN_POINT('Ctrl Pts',(39.823601511159,-0.128400873260866,8.95335612136216));
#642=CARTESIAN_POINT('Ctrl Pts',(39.8530599989677,-1.14271586622164,8.81097231244265));
#643=CARTESIAN_POINT('Ctrl Pts',(39.9667136761696,-2.21879514891778,8.31203196051338));
#644=CARTESIAN_POINT('Ctrl Pts',(40.1821359901425,-3.086264481589,7.51782095308847));
#645=CARTESIAN_POINT('Ctrl Pts',(40.52735002021,-3.71272930128747,6.48035776411742));
#646=CARTESIAN_POINT('Ctrl Pts',(40.9895002696977,-3.98172430570344,5.35405258530107));
#647=CARTESIAN_POINT('Ctrl Pts',(41.5038672171684,-3.94456666198295,4.28901537479425));
#648=CARTESIAN_POINT('Ctrl Pts',(42.0473244540215,-3.63361396001644,3.30337791824476));
#649=CARTESIAN_POINT('Ctrl Pts',(42.5226083112184,-3.1250100339991,2.52239009246747));
#650=CARTESIAN_POINT('Ctrl Pts',(43.0257076793098,-2.36046273653478,1.74046320427184));
#651=CARTESIAN_POINT('Ctrl Pts',(43.5423048395283,-0.871952469914825,1.00017993269701));
#652=CARTESIAN_POINT('Ctrl Pts',(43.4856440210813,1.15616707792803,1.07912220861241));
#653=CARTESIAN_POINT('Ctrl Pts',(42.9240390963813,2.56400824879142,1.89192768395762));
#654=CARTESIAN_POINT('Ctrl Pts',(42.4051260215938,3.26751763938766,2.71166088541293));
#655=CARTESIAN_POINT('Ctrl Pts',(41.81982428372,3.82262479180315,3.69395789978085));
#656=CARTESIAN_POINT('Ctrl Pts',(41.386451317486,3.96348766548587,4.52584801189503));
#657=CARTESIAN_POINT('Ctrl Pts',(41.1399000397981,3.95042065940379,5.05402579657624));
#658=CARTESIAN_POINT('Ctrl Pts',(41.3991276699749,3.7189499149522,5.17490562573303));
#659=CARTESIAN_POINT('Ctrl Pts',(41.1677008839104,3.69281590278804,5.67009569687753));
#660=CARTESIAN_POINT('Ctrl Pts',(40.831160475838,3.49333381055258,6.4758287650164));
#661=CARTESIAN_POINT('Ctrl Pts',(40.5180727329714,2.87069799085404,7.39775790371981));
#662=CARTESIAN_POINT('Ctrl Pts',(40.2957650243517,2.11129532977895,8.1450857375817));
#663=CARTESIAN_POINT('Ctrl Pts',(40.1740240889105,1.00153146126705,8.65686334250685));
#664=CARTESIAN_POINT('Ctrl Pts',(40.1556490885532,-0.118863520919084,8.73908079781821));
#665=CARTESIAN_POINT('Ctrl Pts',(40.1846164062446,-1.05777251778256,8.6100054260075));
#666=CARTESIAN_POINT('Ctrl Pts',(40.2950008677186,-2.05487857451888,8.15873302237877));
#667=CARTESIAN_POINT('Ctrl Pts',(40.5004826682451,-2.8640776601749,7.4409430920809));
#668=CARTESIAN_POINT('Ctrl Pts',(40.8251133031611,-3.46180941589971,6.49831773746991));
#669=CARTESIAN_POINT('Ctrl Pts',(41.257801667965,-3.73968080463356,5.45884683548992));
#670=CARTESIAN_POINT('Ctrl Pts',(41.7408262476356,-3.73433357796518,4.45600470834256));
#671=CARTESIAN_POINT('Ctrl Pts',(42.2538650278993,-3.46733588944001,3.50782418106765));
#672=CARTESIAN_POINT('Ctrl Pts',(42.7044919899911,-3.00090064156486,2.7414340707685));
#673=CARTESIAN_POINT('Ctrl Pts',(43.1825767523513,-2.28358312425632,1.96411930688574));
#674=CARTESIAN_POINT('Ctrl Pts',(43.6744573356922,-0.851188242972151,1.21016131967245));
#675=CARTESIAN_POINT('Ctrl Pts',(43.6204994501115,1.12741357845617,1.29141467457737));
#676=CARTESIAN_POINT('Ctrl Pts',(43.0858417107726,2.47715488794072,2.11651263228201));
#677=CARTESIAN_POINT('Ctrl Pts',(42.5930114952007,3.13282990826599,2.92800246229789));
#678=CARTESIAN_POINT('Ctrl Pts',(42.0385588770517,3.63694244370472,3.8876284737683));
#679=CARTESIAN_POINT('Ctrl Pts',(41.6305544560393,3.74508392711636,4.67971555458854));
#680=CARTESIAN_POINT('Ctrl Pts',(41.3991276699749,3.7189499149522,5.17490562573303));
#681=CARTESIAN_POINT('Ctrl Pts',(41.6583553001516,3.48747917050061,5.29578545488982));
#682=CARTESIAN_POINT('Ctrl Pts',(41.4420530057107,3.44827815225437,5.75798781249759));
#683=CARTESIAN_POINT('Ctrl Pts',(41.1287079185101,3.23989966636606,6.49612514940725));
#684=CARTESIAN_POINT('Ctrl Pts',(40.8351055597322,2.64937956358161,7.32494501632607));
#685=CARTESIAN_POINT('Ctrl Pts',(40.6243401948061,1.94240984991776,7.99330823679878));
#686=CARTESIAN_POINT('Ctrl Pts',(40.505789935082,0.921158830364356,8.45093740689341));
#687=CARTESIAN_POINT('Ctrl Pts',(40.4876966659473,-0.109326168577301,8.52480547427425));
#688=CARTESIAN_POINT('Ctrl Pts',(40.5161728135214,-0.972829169343477,8.40903853957235));
#689=CARTESIAN_POINT('Ctrl Pts',(40.6232880592675,-1.89096200011999,8.00543408424416));
#690=CARTESIAN_POINT('Ctrl Pts',(40.8188293463476,-2.6418908387608,7.36406523107332));
#691=CARTESIAN_POINT('Ctrl Pts',(41.1228765861122,-3.21088953051195,6.5162777108224));
#692=CARTESIAN_POINT('Ctrl Pts',(41.5261030662323,-3.49763730356368,5.56364108567877));
#693=CARTESIAN_POINT('Ctrl Pts',(41.9777852781028,-3.5241004939474,4.62299404189087));
#694=CARTESIAN_POINT('Ctrl Pts',(42.4604056017771,-3.30105781886358,3.71227044389054));
#695=CARTESIAN_POINT('Ctrl Pts',(42.8863756687637,-2.87679124913063,2.96047804906952));
#696=CARTESIAN_POINT('Ctrl Pts',(43.3394458253929,-2.20670351197786,2.18777540949965));
#697=CARTESIAN_POINT('Ctrl Pts',(43.8066098318561,-0.830424016029477,1.4201427066479));
#698=CARTESIAN_POINT('Ctrl Pts',(43.7553548791416,1.0986600789843,1.50370714054235));
#699=CARTESIAN_POINT('Ctrl Pts',(43.2476443251638,2.39030152709001,2.34109758060639));
#700=CARTESIAN_POINT('Ctrl Pts',(42.7808969688075,2.99814217714431,3.14434403918284));
#701=CARTESIAN_POINT('Ctrl Pts',(42.2572934703835,3.45126009560629,4.08129904775576));
#702=CARTESIAN_POINT('Ctrl Pts',(41.8746575945926,3.52668018874685,4.83358309728204));
#703=CARTESIAN_POINT('Ctrl Pts',(41.6583553001516,3.48747917050061,5.29578545488982));
#704=CARTESIAN_POINT('',(40.8806724096214,4.18189140385538,4.93314596741946));
#705=CARTESIAN_POINT('',(40.8806724096214,4.18189140385538,4.93314596741946));
#706=CARTESIAN_POINT('Ctrl Pts',(40.8806724096214,4.18189140385538,4.93314596741946));
#707=CARTESIAN_POINT('Ctrl Pts',(41.1423481789328,4.18189140385538,4.37198046920153));
#708=CARTESIAN_POINT('Ctrl Pts',(41.6010896903882,4.00830713990158,3.50028732579339));
#709=CARTESIAN_POINT('Ctrl Pts',(42.217240547987,3.40220537050934,2.49531930852798));
#710=CARTESIAN_POINT('Ctrl Pts',(42.76223648199,2.65086160964212,1.66734273563323));
#711=CARTESIAN_POINT('Ctrl Pts',(43.3507885920512,1.1849205773999,0.866829742647435));
#712=CARTESIAN_POINT('Ctrl Pts',(43.4101523433644,-0.892716696857499,0.790198545721569));
#713=CARTESIAN_POINT('Ctrl Pts',(42.8688386062682,-2.43734234881324,1.51680710165794));
#714=CARTESIAN_POINT('Ctrl Pts',(42.3407246324457,-3.24911942643334,2.30334611416645));
#715=CARTESIAN_POINT('Ctrl Pts',(41.8407838801438,-3.79989203059287,3.09893165542187));
#716=CARTESIAN_POINT('Ctrl Pts',(41.2669081867012,-4.15479974600072,4.12202604124593));
#717=CARTESIAN_POINT('Ctrl Pts',(40.7211988714304,-4.22376780677332,5.24925833511222));
#718=CARTESIAN_POINT('Ctrl Pts',(40.2295867372589,-3.96364918667522,6.46239779076493));
#719=CARTESIAN_POINT('Ctrl Pts',(39.86378931204,-3.30845130300311,7.59469881409605));
#720=CARTESIAN_POINT('Ctrl Pts',(39.6384264846207,-2.38271172331667,8.46533089864799));
#721=CARTESIAN_POINT('Ctrl Pts',(39.5215035916909,-1.22765921466073,9.0119391988778));
#722=CARTESIAN_POINT('Ctrl Pts',(39.4915539337649,-0.137938225602649,9.16763144490611));
#723=CARTESIAN_POINT('Ctrl Pts',(39.5104923965676,1.16227672307245,9.06871521373371));
#724=CARTESIAN_POINT('Ctrl Pts',(39.6386146834428,2.44906628950133,8.44864073914751));
#725=CARTESIAN_POINT('Ctrl Pts',(39.88400707945,3.31333484539889,7.5433836785073));
#726=CARTESIAN_POINT('Ctrl Pts',(40.236065590494,4.00020209892561,6.4352359962347));
#727=CARTESIAN_POINT('Ctrl Pts',(40.61899664031,4.18189140385538,5.49431146563742));
#728=CARTESIAN_POINT('Ctrl Pts',(40.8806724096214,4.18189140385538,4.93314596741946));
#729=CARTESIAN_POINT('Origin',(-17.2618261740699,0.,90.630778703665));
#730=CARTESIAN_POINT('',(-17.2618261740699,17.,90.630778703665));
#731=CARTESIAN_POINT('Origin',(-17.2618261740699,0.,90.630778703665));
#732=CARTESIAN_POINT('',(25.,17.,0.));
#733=CARTESIAN_POINT('',(-17.2618261740699,17.,90.630778703665));
#734=CARTESIAN_POINT('Origin',(25.,0.,0.));
#735=CARTESIAN_POINT('Origin',(0.,0.,0.));
#736=CARTESIAN_POINT('',(-80.,-9.79717439317883E-15,0.));
#737=CARTESIAN_POINT('',(-80.,-9.79717439317883E-15,0.));
#738=CARTESIAN_POINT('Origin',(0.,0.,0.));
#739=CARTESIAN_POINT('Ctrl Pts',(49.3662745167798,-3.42901103761259E-15,
10.));
#740=CARTESIAN_POINT('Ctrl Pts',(49.3662745167798,-4.18879020478639,10.));
#741=CARTESIAN_POINT('Ctrl Pts',(47.2581921361294,-12.5646427332131,10.));
#742=CARTESIAN_POINT('Ctrl Pts',(38.3942368723285,-22.6381746084683,10.));
#743=CARTESIAN_POINT('Ctrl Pts',(25.5783855975865,-28.2339467172098,10.));
#744=CARTESIAN_POINT('Ctrl Pts',(12.947528059675,-28.225669979849,10.));
#745=CARTESIAN_POINT('Ctrl Pts',(-0.117472893186783,-23.5869430898077,10.));
#746=CARTESIAN_POINT('Ctrl Pts',(-7.24229574694104,-16.6514635806894,10.));
#747=CARTESIAN_POINT('Ctrl Pts',(-10.3139891691303,-10.2391495020597,10.));
#748=CARTESIAN_POINT('Ctrl Pts',(-11.3341719709385,-7.60244107549273,10.));
#749=CARTESIAN_POINT('Ctrl Pts',(-12.1900156497572,-4.18902181557775,10.));
#750=CARTESIAN_POINT('Ctrl Pts',(-12.7759904814631,2.79305611084385,10.));
#751=CARTESIAN_POINT('Ctrl Pts',(-10.6649672929242,11.1667116797715,10.));
#752=CARTESIAN_POINT('Ctrl Pts',(-4.5150790927812,19.3298440710376,10.));
#753=CARTESIAN_POINT('Ctrl Pts',(2.7922839187192,24.6161786009452,10.));
#754=CARTESIAN_POINT('Ctrl Pts',(11.4914427528989,27.7016708860217,10.));
#755=CARTESIAN_POINT('Ctrl Pts',(23.9297098558642,28.5724220208472,10.));
#756=CARTESIAN_POINT('Ctrl Pts',(37.4124320406135,23.7759338853197,9.99999999999999));
#757=CARTESIAN_POINT('Ctrl Pts',(47.2563503348656,12.5552412197393,10.));
#758=CARTESIAN_POINT('Ctrl Pts',(49.3662745167798,4.18879020478639,10.));
#759=CARTESIAN_POINT('Ctrl Pts',(49.3662745167798,3.42901103761259E-15,
10.));
#760=CARTESIAN_POINT('Ctrl Pts',(48.9340977496193,-3.37061322815544E-15,
10.));
#761=CARTESIAN_POINT('Ctrl Pts',(48.9340977496193,-4.11743385875572,10.));
#762=CARTESIAN_POINT('Ctrl Pts',(46.8493326105161,-12.3505533003356,10.0000103806936));
#763=CARTESIAN_POINT('Ctrl Pts',(38.0913123020484,-22.2287192505126,10.000025291992));
#764=CARTESIAN_POINT('Ctrl Pts',(25.4528545921081,-27.6703037987239,10.0000070806201));
#765=CARTESIAN_POINT('Ctrl Pts',(13.0410626663177,-27.5931011063163,10.000031421316));
#766=CARTESIAN_POINT('Ctrl Pts',(0.259988156084664,-22.9776201069996,9.9999512036208));
#767=CARTESIAN_POINT('Ctrl Pts',(-6.65394756294275,-16.178245142083,10.0000095206447));
#768=CARTESIAN_POINT('Ctrl Pts',(-9.62276052787871,-9.93945964505859,9.9999984972876));
#769=CARTESIAN_POINT('Ctrl Pts',(-10.6081598188718,-7.37642478165155,9.9999826263137));
#770=CARTESIAN_POINT('Ctrl Pts',(-11.4338990506411,-4.06263854702001,9.9999831656819));
#771=CARTESIAN_POINT('Ctrl Pts',(-11.9980630459196,2.70837255137691,9.99998662921889));
#772=CARTESIAN_POINT('Ctrl Pts',(-9.96583866681479,10.8319693605653,9.99997224371365));
#773=CARTESIAN_POINT('Ctrl Pts',(-4.00873830943741,18.8028884032112,9.9999788341661));
#774=CARTESIAN_POINT('Ctrl Pts',(3.10692283784643,24.0023379769695,10.0000126803966));
#775=CARTESIAN_POINT('Ctrl Pts',(11.6165920897761,27.0712889882015,10.0000038672168));
#776=CARTESIAN_POINT('Ctrl Pts',(23.8285340575287,27.9937981825849,10.0000056191099));
#777=CARTESIAN_POINT('Ctrl Pts',(37.1209296863383,23.3448590365486,10.0000267203631));
#778=CARTESIAN_POINT('Ctrl Pts',(46.847661399226,12.3411019489799,10.0000145705921));
#779=CARTESIAN_POINT('Ctrl Pts',(48.9340977496193,4.11743385875572,10.));
#780=CARTESIAN_POINT('Ctrl Pts',(48.9340977496193,3.37061322815544E-15,
10.));
#781=CARTESIAN_POINT('Ctrl Pts',(48.070424802297,-3.25390957343933E-15,
10.1417920570803));
#782=CARTESIAN_POINT('Ctrl Pts',(48.070424802297,-3.97482324553812,10.1417920570803));
#783=CARTESIAN_POINT('Ctrl Pts',(46.0323523099647,-11.9227229525529,10.1497666392201));
#784=CARTESIAN_POINT('Ctrl Pts',(37.4862315626456,-21.4107850594164,10.1846359391007));
#785=CARTESIAN_POINT('Ctrl Pts',(25.2024562209098,-26.5452263035232,10.2394403271089));
#786=CARTESIAN_POINT('Ctrl Pts',(13.2275805900359,-26.3316879100274,10.3002085888078));
#787=CARTESIAN_POINT('Ctrl Pts',(1.01211538790871,-21.7641481471101,10.3708723188341));
#788=CARTESIAN_POINT('Ctrl Pts',(-5.48325260291611,-15.2364500112538,10.4156466410087));
#789=CARTESIAN_POINT('Ctrl Pts',(-8.24781064097193,-9.34323207080422,10.436101853255));
#790=CARTESIAN_POINT('Ctrl Pts',(-9.16411543864165,-6.92689301326679,10.4429708096705));
#791=CARTESIAN_POINT('Ctrl Pts',(-9.93013281385458,-3.81126909868218,10.4487955756612));
#792=CARTESIAN_POINT('Ctrl Pts',(-10.4510670556234,2.53984130704211,10.4528883725716));
#793=CARTESIAN_POINT('Ctrl Pts',(-8.57503483382102,10.1661756789369,10.4381174403564));
#794=CARTESIAN_POINT('Ctrl Pts',(-3.00073612246677,17.7539278019512,10.3984262126133));
#795=CARTESIAN_POINT('Ctrl Pts',(3.7337495361105,22.7794746348443,10.3551187827017));
#796=CARTESIAN_POINT('Ctrl Pts',(11.8661551982569,25.8144291381779,10.3081252145195));
#797=CARTESIAN_POINT('Ctrl Pts',(23.6267523936825,26.8389312282973,10.2467371969927));
#798=CARTESIAN_POINT('Ctrl Pts',(36.5387380433342,22.4837523774415,10.1884603586509));
#799=CARTESIAN_POINT('Ctrl Pts',(46.0310035471871,11.9131772902734,10.149797592899));
#800=CARTESIAN_POINT('Ctrl Pts',(48.070424802297,3.97482324553812,10.1417920570803));
#801=CARTESIAN_POINT('Ctrl Pts',(48.070424802297,3.25390957343933E-15,10.1417920570803));
#802=CARTESIAN_POINT('Ctrl Pts',(46.7143965605999,-3.07067649638749E-15,
10.8571616312539));
#803=CARTESIAN_POINT('Ctrl Pts',(46.7143965605999,-3.75106597959522,10.8571616312539));
#804=CARTESIAN_POINT('Ctrl Pts',(44.758740261537,-11.2510136940576,10.9038441200253));
#805=CARTESIAN_POINT('Ctrl Pts',(36.5731482104264,-20.1625269697335,11.1067629166661));
#806=CARTESIAN_POINT('Ctrl Pts',(24.849869830831,-24.9059109601316,11.4195210722481));
#807=CARTESIAN_POINT('Ctrl Pts',(13.4963273755924,-24.5909346655804,11.7586587761759));
#808=CARTESIAN_POINT('Ctrl Pts',(2.00352870767431,-20.1954639376401,12.1436087442892));
#809=CARTESIAN_POINT('Ctrl Pts',(-4.02108002938934,-14.0730844536653,12.3821968120071));
#810=CARTESIAN_POINT('Ctrl Pts',(-6.56902809648498,-8.61627448326968,12.4897061859424));
#811=CARTESIAN_POINT('Ctrl Pts',(-7.41279787788822,-6.38224791852242,12.5256737859486));
#812=CARTESIAN_POINT('Ctrl Pts',(-8.11657833452771,-3.50896713494524,12.5562343178274));
#813=CARTESIAN_POINT('Ctrl Pts',(-8.59331388432478,2.33829934359226,12.5776707780849));
#814=CARTESIAN_POINT('Ctrl Pts',(-6.87675040171563,9.36270642987129,12.5003568670601));
#815=CARTESIAN_POINT('Ctrl Pts',(-1.72046205270471,16.4320120268278,12.2904122766164));
#816=CARTESIAN_POINT('Ctrl Pts',(4.56529512960839,21.1736981028189,12.0580379923968));
#817=CARTESIAN_POINT('Ctrl Pts',(12.2152445272209,24.0924449457707,11.8016383138189));
#818=CARTESIAN_POINT('Ctrl Pts',(23.3491242465834,25.1674885051427,11.4610535962337));
#819=CARTESIAN_POINT('Ctrl Pts',(35.6648614626161,21.1709128584649,11.1289422897461));
#820=CARTESIAN_POINT('Ctrl Pts',(44.75781648959,11.2416935664124,10.9040325538008));
#821=CARTESIAN_POINT('Ctrl Pts',(46.7143965605999,3.75106597959522,10.8571616312539));
#822=CARTESIAN_POINT('Ctrl Pts',(46.7143965605999,3.07067649638749E-15,
10.8571616312539));
#823=CARTESIAN_POINT('Ctrl Pts',(46.0150120597863,-2.97617228903701E-15,
11.7219991988564));
#824=CARTESIAN_POINT('Ctrl Pts',(46.0150120597863,-3.63546032606875,11.7219991988564));
#825=CARTESIAN_POINT('Ctrl Pts',(44.1193775917044,-10.9051407163755,11.8118561311953));
#826=CARTESIAN_POINT('Ctrl Pts',(36.1697418252296,-19.5859775555873,12.1955164133112));
#827=CARTESIAN_POINT('Ctrl Pts',(24.7421089418715,-24.2945376153127,12.7683477477982));
#828=CARTESIAN_POINT('Ctrl Pts',(13.5872954729603,-24.1234068624934,13.3596744571004));
#829=CARTESIAN_POINT('Ctrl Pts',(2.18210171473124,-19.9780601166151,14.0008401270654));
#830=CARTESIAN_POINT('Ctrl Pts',(-3.92121169300516,-14.0118762898315,14.3730043906895));
#831=CARTESIAN_POINT('Ctrl Pts',(-6.52817006427959,-8.5983794363773,14.5373547868867));
#832=CARTESIAN_POINT('Ctrl Pts',(-7.39250650123642,-6.37733509196591,14.5922158551152));
#833=CARTESIAN_POINT('Ctrl Pts',(-8.11615397653469,-3.5100210743584,14.6384402794055));
#834=CARTESIAN_POINT('Ctrl Pts',(-8.60936168778276,2.33889833418679,14.6704522297582));
#835=CARTESIAN_POINT('Ctrl Pts',(-6.8330188646289,9.36107430707763,14.5550441935911));
#836=CARTESIAN_POINT('Ctrl Pts',(-1.58710444878562,16.3137118749709,14.2302951117898));
#837=CARTESIAN_POINT('Ctrl Pts',(4.72207428852023,20.8990669849221,13.8579261459087));
#838=CARTESIAN_POINT('Ctrl Pts',(12.3167067792877,23.654246148859,13.4313256089166));
#839=CARTESIAN_POINT('Ctrl Pts',(23.2758812532783,24.5652990518617,12.8431093322185));
#840=CARTESIAN_POINT('Ctrl Pts',(35.2885408369958,20.5675411360967,12.2378200540073));
#841=CARTESIAN_POINT('Ctrl Pts',(44.1180560471343,10.8964928100082,11.8120396586773));
#842=CARTESIAN_POINT('Ctrl Pts',(46.0150120597863,3.63546032606875,11.7219991988564));
#843=CARTESIAN_POINT('Ctrl Pts',(46.0150120597863,2.97617228903701E-15,
11.7219991988564));
#844=CARTESIAN_POINT('Ctrl Pts',(45.7410433686332,-2.93915231795365E-15,
12.3095269530372));
#845=CARTESIAN_POINT('Ctrl Pts',(45.7410433686332,-3.59039160410262,12.3095269530372));
#846=CARTESIAN_POINT('Ctrl Pts',(43.8803275319207,-10.7696937713255,12.4248758668468));
#847=CARTESIAN_POINT('Ctrl Pts',(36.0564862595618,-19.4041496644014,12.9098889864104));
#848=CARTESIAN_POINT('Ctrl Pts',(24.7444722478007,-24.2005257576084,13.6111398187572));
#849=CARTESIAN_POINT('Ctrl Pts',(13.5957444429603,-24.1934314112992,14.3022682636675));
#850=CARTESIAN_POINT('Ctrl Pts',(2.06381646766317,-20.2173797912637,15.0171519336164));
#851=CARTESIAN_POINT('Ctrl Pts',(-4.2249656214226,-14.2726830691624,15.407004144711));
#852=CARTESIAN_POINT('Ctrl Pts',(-6.93622047970273,-8.77641385890833,15.5750794073563));
#853=CARTESIAN_POINT('Ctrl Pts',(-7.83669301962335,-6.51637806470805,15.6309012192342));
#854=CARTESIAN_POINT('Ctrl Pts',(-8.59211031334259,-3.59059012763807,15.6777308116869));
#855=CARTESIAN_POINT('Ctrl Pts',(-9.10932570268321,2.39404809500901,15.7097938662323));
#856=CARTESIAN_POINT('Ctrl Pts',(-7.24601413827952,9.57146715408987,15.594284038884));
#857=CARTESIAN_POINT('Ctrl Pts',(-1.81776594786166,16.5684377751751,15.2577777759181));
#858=CARTESIAN_POINT('Ctrl Pts',(4.63213667686913,21.099581657953,14.8579374310029));
#859=CARTESIAN_POINT('Ctrl Pts',(12.310519057657,23.7442893308757,14.381941553522));
#860=CARTESIAN_POINT('Ctrl Pts',(23.2892553689992,24.4906474464404,13.7013511680751));
#861=CARTESIAN_POINT('Ctrl Pts',(35.1898883430377,20.3793719017026,12.9636108532362));
#862=CARTESIAN_POINT('Ctrl Pts',(43.8787018512495,10.7616353312051,12.4249766455342));
#863=CARTESIAN_POINT('Ctrl Pts',(45.7410433686332,3.59039160410262,12.3095269530372));
#864=CARTESIAN_POINT('Ctrl Pts',(45.7410433686332,2.93915231795365E-15,
12.3095269530372));
#865=CARTESIAN_POINT('',(49.3662745167798,3.42901103761259E-15,10.));
#866=CARTESIAN_POINT('',(45.7410433686332,-2.93915231795365E-15,12.3095269530372));
#867=CARTESIAN_POINT('Origin',(49.3662745167798,-3.42901103761259E-15,14.));
#868=CARTESIAN_POINT('',(18.47169278583,24.,14.));
#869=CARTESIAN_POINT('Origin',(18.47169278583,0.,14.));
#870=CARTESIAN_POINT('Origin',(18.47169278583,0.,14.));
#871=CARTESIAN_POINT('Origin',(18.47169278583,0.,10.));
#872=CARTESIAN_POINT('Origin',(-17.2618261740699,0.,90.630778703665));
#873=CARTESIAN_POINT('',(-10.077315724478,24.,75.2235463240419));
#874=CARTESIAN_POINT('',(-17.2618261740699,24.,90.630778703665));
#875=CARTESIAN_POINT('Origin',(-10.077315724478,0.,75.2235463240419));
#876=CARTESIAN_POINT('Origin',(0.,0.,10.));
#877=CARTESIAN_POINT('Origin',(-17.2618261740699,0.,90.630778703665));
#878=CARTESIAN_POINT('',(-17.2618261740699,21.5,90.630778703665));
#879=CARTESIAN_POINT('Origin',(-17.2618261740699,0.,90.630778703665));
#880=CARTESIAN_POINT('',(-10.077315724478,21.5,75.2235463240419));
#881=CARTESIAN_POINT('',(-17.2618261740699,21.5,90.630778703665));
#882=CARTESIAN_POINT('Origin',(-10.077315724478,0.,75.2235463240419));
#883=CARTESIAN_POINT('Origin',(-10.077315724478,0.,75.2235463240419));
#884=CARTESIAN_POINT('Origin',(-17.2618261740699,0.,90.630778703665));
#885=CARTESIAN_POINT('Origin',(0.,0.,0.));
#886=UNCERTAINTY_MEASURE_WITH_UNIT(LENGTH_MEASURE(0.01),#890,
'DISTANCE_ACCURACY_VALUE',
'Maximum model space distance between geometric entities at asserted c
onnectivities');
#887=UNCERTAINTY_MEASURE_WITH_UNIT(LENGTH_MEASURE(0.01),#890,
'DISTANCE_ACCURACY_VALUE',
'Maximum model space distance between geometric entities at asserted c
onnectivities');
#888=(
GEOMETRIC_REPRESENTATION_CONTEXT(3)
GLOBAL_UNCERTAINTY_ASSIGNED_CONTEXT((#886))
GLOBAL_UNIT_ASSIGNED_CONTEXT((#890,#892,#893))
REPRESENTATION_CONTEXT('','3D')
);
#889=(
GEOMETRIC_REPRESENTATION_CONTEXT(3)
GLOBAL_UNCERTAINTY_ASSIGNED_CONTEXT((#887))
GLOBAL_UNIT_ASSIGNED_CONTEXT((#890,#892,#893))
REPRESENTATION_CONTEXT('','3D')
);
#890=(
LENGTH_UNIT()
NAMED_UNIT(*)
SI_UNIT(.MILLI.,.METRE.)
);
#891=(
LENGTH_UNIT()
NAMED_UNIT(*)
SI_UNIT($,.METRE.)
);
#892=(
NAMED_UNIT(*)
PLANE_ANGLE_UNIT()
SI_UNIT($,.RADIAN.)
);
#893=(
NAMED_UNIT(*)
SI_UNIT($,.STERADIAN.)
SOLID_ANGLE_UNIT()
);
#894=SHAPE_DEFINITION_REPRESENTATION(#895,#896);
#895=PRODUCT_DEFINITION_SHAPE('',$,#898);
#896=SHAPE_REPRESENTATION('',(#279),#888);
#897=PRODUCT_DEFINITION_CONTEXT('part definition',#902,'design');
#898=PRODUCT_DEFINITION('alkane-lamp-plate-v5',
'alkane-lamp-plate-v5 v2',#899,#897);
#899=PRODUCT_DEFINITION_FORMATION('',$,#904);
#900=PRODUCT_RELATED_PRODUCT_CATEGORY('alkane-lamp-plate-v5 v2',
'alkane-lamp-plate-v5 v2',(#904));
#901=APPLICATION_PROTOCOL_DEFINITION('international standard',
'automotive_design',2009,#902);
#902=APPLICATION_CONTEXT(
'Core Data for Automotive Mechanical Design Process');
#903=PRODUCT_CONTEXT('part definition',#902,'mechanical');
#904=PRODUCT('alkane-lamp-plate-v5','alkane-lamp-plate-v5 v2',$,(#903));
#905=PRESENTATION_STYLE_ASSIGNMENT((#906));
#906=SURFACE_STYLE_USAGE(.BOTH.,#907);
#907=SURFACE_SIDE_STYLE('',(#908));
#908=SURFACE_STYLE_FILL_AREA(#909);
#909=FILL_AREA_STYLE('Stahl - satiniert',(#910));
#910=FILL_AREA_STYLE_COLOUR('Stahl - satiniert',#911);
#911=COLOUR_RGB('Stahl - satiniert',0.627450980392157,0.627450980392157,
0.627450980392157);
ENDSEC;
END-ISO-10303-21;
