ISO-10303-21;
HEADER;
/* Generated by software containing ST-Developer
 * from STEP Tools, Inc. (www.steptools.com) 
 */

FILE_DESCRIPTION(
/* description */ (''),
/* implementation_level */ '2;1');

FILE_NAME(
/* name */ 'base-plate-simple-cable-hole.step',
/* time_stamp */ '2026-08-21T08:19:49+02:00',
/* author */ (''),
/* organization */ (''),
/* preprocessor_version */ 'ST-DEVELOPER v20.1',
/* originating_system */ 'Autodesk Translation Framework v15.8.0.0',
/* authorisation */ '');

FILE_SCHEMA (('AUTOMOTIVE_DESIGN { 1 0 10303 214 3 1 1 }'));
ENDSEC;

DATA;
#10=MECHANICAL_DESIGN_GEOMETRIC_PRESENTATION_REPRESENTATION('',(#13),#814);
#11=SHAPE_REPRESENTATION_RELATIONSHIP('SRR','None',#821,#12);
#12=ADVANCED_BREP_SHAPE_REPRESENTATION('',(#14),#813);
#13=STYLED_ITEM('',(#830),#14);
#14=MANIFOLD_SOLID_BREP('K\X\F6rper1',#207);
#15=TOROIDAL_SURFACE('',#241,78.,2.);
#16=PLANE('',#234);
#17=PLANE('',#239);
#18=PLANE('',#240);
#19=PLANE('',#243);
#20=ELLIPSE('',#227,18.1865334794732,15.75);
#21=ELLIPSE('',#229,27.7848879788996,23.);
#22=ELLIPSE('',#230,27.7848879788996,23.);
#23=ELLIPSE('',#231,31.1769145362398,27.);
#24=FACE_BOUND('',#60,.T.);
#25=FACE_BOUND('',#63,.T.);
#26=FACE_BOUND('',#67,.T.);
#27=FACE_BOUND('',#70,.T.);
#28=FACE_BOUND('',#72,.T.);
#29=FACE_BOUND('',#75,.T.);
#30=CIRCLE('',#223,80.);
#31=CIRCLE('',#224,80.);
#32=CIRCLE('',#226,15.75);
#33=CIRCLE('',#228,4.00000000000001);
#34=CIRCLE('',#233,23.);
#35=CIRCLE('',#235,78.);
#36=CIRCLE('',#237,20.);
#37=CIRCLE('',#238,20.);
#38=CIRCLE('',#242,2.);
#39=CYLINDRICAL_SURFACE('',#221,2.5);
#40=CYLINDRICAL_SURFACE('',#222,80.);
#41=CYLINDRICAL_SURFACE('',#225,15.75);
#42=CYLINDRICAL_SURFACE('',#232,23.);
#43=CYLINDRICAL_SURFACE('',#236,20.);
#44=FACE_OUTER_BOUND('',#57,.T.);
#45=FACE_OUTER_BOUND('',#58,.T.);
#46=FACE_OUTER_BOUND('',#59,.T.);
#47=FACE_OUTER_BOUND('',#61,.T.);
#48=FACE_OUTER_BOUND('',#62,.T.);
#49=FACE_OUTER_BOUND('',#64,.T.);
#50=FACE_OUTER_BOUND('',#65,.T.);
#51=FACE_OUTER_BOUND('',#66,.T.);
#52=FACE_OUTER_BOUND('',#68,.T.);
#53=FACE_OUTER_BOUND('',#69,.T.);
#54=FACE_OUTER_BOUND('',#71,.T.);
#55=FACE_OUTER_BOUND('',#73,.T.);
#56=FACE_OUTER_BOUND('',#74,.T.);
#57=EDGE_LOOP('',(#139,#140,#141,#142,#143));
#58=EDGE_LOOP('',(#144,#145,#146,#147,#148,#149));
#59=EDGE_LOOP('',(#150,#151,#152,#153));
#60=EDGE_LOOP('',(#154));
#61=EDGE_LOOP('',(#155,#156,#157,#158,#159));
#62=EDGE_LOOP('',(#160,#161,#162,#163));
#63=EDGE_LOOP('',(#164));
#64=EDGE_LOOP('',(#165,#166,#167,#168,#169));
#65=EDGE_LOOP('',(#170,#171,#172,#173,#174));
#66=EDGE_LOOP('',(#175));
#67=EDGE_LOOP('',(#176));
#68=EDGE_LOOP('',(#177,#178,#179,#180));
#69=EDGE_LOOP('',(#181));
#70=EDGE_LOOP('',(#182));
#71=EDGE_LOOP('',(#183));
#72=EDGE_LOOP('',(#184));
#73=EDGE_LOOP('',(#185,#186,#187,#188));
#74=EDGE_LOOP('',(#189));
#75=EDGE_LOOP('',(#190));
#76=B_SPLINE_CURVE_WITH_KNOTS('',3,(#412,#413,#414,#415,#416,#417,#418,
#419,#420,#421,#422,#423,#424,#425,#426,#427,#428,#429,#430,#431,#432),
 .UNSPECIFIED.,.F.,.F.,(4,1,1,1,1,1,1,1,1,1,1,1,1,1,1,1,1,1,4),(0.,0.107632284907671,
0.215264569815341,0.269080712269176,0.322896854723012,0.430529139630682,
0.484345282084518,0.538161424538353,0.645793709446023,0.717548566051137,
0.771364708504972,0.861058279261364,0.878996993412643,0.896935707563921,
0.905905064639561,0.932813135866478,1.00456799247159,1.07632284907671,1.13013899153054),
 .UNSPECIFIED.);
#77=B_SPLINE_CURVE_WITH_KNOTS('',3,(#433,#434,#435,#436,#437,#438,#439,
#440,#441,#442),.UNSPECIFIED.,.F.,.F.,(4,1,1,1,1,1,1,4),(1.13013899153054,
1.18395513398438,1.21759022301802,1.23777127643821,1.29158741889205,1.39921970379972,
1.42612777502663,1.50685198870739),.UNSPECIFIED.);
#78=B_SPLINE_CURVE_WITH_KNOTS('',3,(#443,#444,#445,#446,#447,#448,#449,
#450,#451,#452,#453,#454,#455,#456,#457,#458,#459,#460,#461,#462,#463,#464,
#465,#466,#467,#468,#469),.UNSPECIFIED.,.T.,.F.,(4,1,1,1,1,1,1,1,1,1,1,
1,1,1,1,1,1,1,1,1,1,1,1,1,4),(-1.50685198870739,-1.42612777502663,-1.39921970379972,
-1.29158741889205,-1.23777127643821,-1.21759022301802,-1.18395513398438,
-1.07632284907671,-1.00456799247159,-0.932813135866478,-0.905905064639561,
-0.896935707563921,-0.878996993412643,-0.861058279261364,-0.771364708504972,
-0.717548566051137,-0.645793709446023,-0.538161424538353,-0.484345282084518,
-0.430529139630682,-0.322896854723012,-0.269080712269176,-0.215264569815341,
-0.107632284907671,0.),.UNSPECIFIED.);
#79=B_SPLINE_CURVE_WITH_KNOTS('',3,(#473,#474,#475,#476,#477,#478,#479,
#480,#481,#482,#483,#484,#485,#486,#487,#488,#489,#490,#491,#492,#493),
 .UNSPECIFIED.,.F.,.F.,(4,1,2,1,1,1,1,2,1,1,1,1,1,1,1,1,4),(0.,0.113289737915888,
0.226579475831776,0.311347075454267,0.377277430716204,0.452626408158417,
0.509138141240078,0.603324363042845,0.75709993479423,0.795543827732076,
0.808358458711358,0.910875506545615,1.01339255437987,1.064651078297,1.11590960221413,
1.21842665004839,1.22919934013002),.UNSPECIFIED.);
#80=B_SPLINE_CURVE_WITH_KNOTS('',3,(#494,#495,#496,#497,#498,#499,#500,
#501,#502),.UNSPECIFIED.,.F.,.F.,(4,1,1,1,1,1,4),(1.22919934013002,1.26968517396551,
1.34657295984121,1.38501685277905,1.4234607457169,1.52597779355116,1.62849484138541),
 .UNSPECIFIED.);
#81=B_SPLINE_CURVE_WITH_KNOTS('',3,(#616,#617,#618,#619,#620,#621,#622,
#623,#624,#625,#626,#627,#628,#629,#630,#631,#632,#633,#634,#635,#636,#637,
#638,#639,#640,#641),.UNSPECIFIED.,.T.,.F.,(4,1,1,1,1,1,1,1,1,1,1,1,1,1,
2,1,1,1,1,2,1,4),(-1.62849484138541,-1.52597779355116,-1.4234607457169,
-1.38501685277905,-1.34657295984121,-1.26968517396551,-1.21842665004839,
-1.11590960221413,-1.064651078297,-1.01339255437987,-0.910875506545615,
-0.808358458711358,-0.795543827732076,-0.75709993479423,-0.603324363042845,
-0.509138141240078,-0.452626408158417,-0.377277430716204,-0.311347075454267,
-0.226579475831776,-0.113289737915888,0.),.UNSPECIFIED.);
#82=LINE('',#410,#89);
#83=LINE('',#503,#90);
#84=LINE('',#508,#91);
#85=LINE('',#615,#92);
#86=LINE('',#646,#93);
#87=LINE('',#795,#94);
#88=LINE('',#804,#95);
#89=VECTOR('',#246,10.);
#90=VECTOR('',#249,2.5);
#91=VECTOR('',#254,80.);
#92=VECTOR('',#257,10.);
#93=VECTOR('',#262,15.75);
#94=VECTOR('',#275,23.);
#95=VECTOR('',#286,20.);
#96=VERTEX_POINT('',#408);
#97=VERTEX_POINT('',#409);
#98=VERTEX_POINT('',#411);
#99=VERTEX_POINT('',#471);
#100=VERTEX_POINT('',#472);
#101=VERTEX_POINT('',#505);
#102=VERTEX_POINT('',#507);
#103=VERTEX_POINT('',#614);
#104=VERTEX_POINT('',#643);
#105=VERTEX_POINT('',#645);
#106=VERTEX_POINT('',#786);
#107=VERTEX_POINT('',#787);
#108=VERTEX_POINT('',#789);
#109=VERTEX_POINT('',#794);
#110=VERTEX_POINT('',#798);
#111=VERTEX_POINT('',#801);
#112=VERTEX_POINT('',#803);
#113=EDGE_CURVE('',#96,#97,#82,.T.);
#114=EDGE_CURVE('',#97,#98,#76,.T.);
#115=EDGE_CURVE('',#98,#97,#77,.T.);
#116=EDGE_CURVE('',#96,#96,#78,.T.);
#117=EDGE_CURVE('',#99,#100,#79,.T.);
#118=EDGE_CURVE('',#100,#99,#80,.T.);
#119=EDGE_CURVE('',#100,#98,#83,.T.);
#120=EDGE_CURVE('',#101,#101,#30,.T.);
#121=EDGE_CURVE('',#101,#102,#84,.T.);
#122=EDGE_CURVE('',#102,#102,#31,.T.);
#123=EDGE_CURVE('',#103,#99,#85,.T.);
#124=EDGE_CURVE('',#103,#103,#81,.T.);
#125=EDGE_CURVE('',#104,#104,#32,.T.);
#126=EDGE_CURVE('',#104,#105,#86,.T.);
#127=EDGE_CURVE('',#105,#105,#20,.T.);
#128=EDGE_CURVE('',#106,#107,#33,.T.);
#129=EDGE_CURVE('',#107,#108,#21,.T.);
#130=EDGE_CURVE('',#108,#107,#22,.T.);
#131=EDGE_CURVE('',#106,#106,#23,.T.);
#132=EDGE_CURVE('',#108,#109,#87,.T.);
#133=EDGE_CURVE('',#109,#109,#34,.T.);
#134=EDGE_CURVE('',#110,#110,#35,.T.);
#135=EDGE_CURVE('',#111,#111,#36,.T.);
#136=EDGE_CURVE('',#111,#112,#88,.T.);
#137=EDGE_CURVE('',#112,#112,#37,.T.);
#138=EDGE_CURVE('',#110,#101,#38,.T.);
#139=ORIENTED_EDGE('',*,*,#113,.T.);
#140=ORIENTED_EDGE('',*,*,#114,.T.);
#141=ORIENTED_EDGE('',*,*,#115,.T.);
#142=ORIENTED_EDGE('',*,*,#113,.F.);
#143=ORIENTED_EDGE('',*,*,#116,.T.);
#144=ORIENTED_EDGE('',*,*,#117,.F.);
#145=ORIENTED_EDGE('',*,*,#118,.F.);
#146=ORIENTED_EDGE('',*,*,#119,.T.);
#147=ORIENTED_EDGE('',*,*,#114,.F.);
#148=ORIENTED_EDGE('',*,*,#115,.F.);
#149=ORIENTED_EDGE('',*,*,#119,.F.);
#150=ORIENTED_EDGE('',*,*,#120,.F.);
#151=ORIENTED_EDGE('',*,*,#121,.T.);
#152=ORIENTED_EDGE('',*,*,#122,.T.);
#153=ORIENTED_EDGE('',*,*,#121,.F.);
#154=ORIENTED_EDGE('',*,*,#116,.F.);
#155=ORIENTED_EDGE('',*,*,#123,.T.);
#156=ORIENTED_EDGE('',*,*,#117,.T.);
#157=ORIENTED_EDGE('',*,*,#118,.T.);
#158=ORIENTED_EDGE('',*,*,#123,.F.);
#159=ORIENTED_EDGE('',*,*,#124,.T.);
#160=ORIENTED_EDGE('',*,*,#125,.F.);
#161=ORIENTED_EDGE('',*,*,#126,.T.);
#162=ORIENTED_EDGE('',*,*,#127,.T.);
#163=ORIENTED_EDGE('',*,*,#126,.F.);
#164=ORIENTED_EDGE('',*,*,#124,.F.);
#165=ORIENTED_EDGE('',*,*,#128,.T.);
#166=ORIENTED_EDGE('',*,*,#129,.T.);
#167=ORIENTED_EDGE('',*,*,#130,.T.);
#168=ORIENTED_EDGE('',*,*,#128,.F.);
#169=ORIENTED_EDGE('',*,*,#131,.T.);
#170=ORIENTED_EDGE('',*,*,#129,.F.);
#171=ORIENTED_EDGE('',*,*,#130,.F.);
#172=ORIENTED_EDGE('',*,*,#132,.T.);
#173=ORIENTED_EDGE('',*,*,#133,.T.);
#174=ORIENTED_EDGE('',*,*,#132,.F.);
#175=ORIENTED_EDGE('',*,*,#134,.F.);
#176=ORIENTED_EDGE('',*,*,#131,.F.);
#177=ORIENTED_EDGE('',*,*,#135,.F.);
#178=ORIENTED_EDGE('',*,*,#136,.T.);
#179=ORIENTED_EDGE('',*,*,#137,.T.);
#180=ORIENTED_EDGE('',*,*,#136,.F.);
#181=ORIENTED_EDGE('',*,*,#133,.F.);
#182=ORIENTED_EDGE('',*,*,#137,.F.);
#183=ORIENTED_EDGE('',*,*,#135,.T.);
#184=ORIENTED_EDGE('',*,*,#125,.T.);
#185=ORIENTED_EDGE('',*,*,#134,.T.);
#186=ORIENTED_EDGE('',*,*,#138,.T.);
#187=ORIENTED_EDGE('',*,*,#120,.T.);
#188=ORIENTED_EDGE('',*,*,#138,.F.);
#189=ORIENTED_EDGE('',*,*,#122,.F.);
#190=ORIENTED_EDGE('',*,*,#127,.F.);
#191=B_SPLINE_SURFACE_WITH_KNOTS('',3,3,((#300,#301,#302,#303,#304,#305,
#306,#307,#308,#309,#310,#311,#312,#313,#314,#315,#316,#317,#318,#319,#320,
#321,#322,#323,#324,#325,#326),(#327,#328,#329,#330,#331,#332,#333,#334,
#335,#336,#337,#338,#339,#340,#341,#342,#343,#344,#345,#346,#347,#348,#349,
#350,#351,#352,#353),(#354,#355,#356,#357,#358,#359,#360,#361,#362,#363,
#364,#365,#366,#367,#368,#369,#370,#371,#372,#373,#374,#375,#376,#377,#378,
#379,#380),(#381,#382,#383,#384,#385,#386,#387,#388,#389,#390,#391,#392,
#393,#394,#395,#396,#397,#398,#399,#400,#401,#402,#403,#404,#405,#406,#407)),
 .UNSPECIFIED.,.F.,.T.,.F.,(4,4),(4,1,1,1,1,1,1,1,1,1,1,1,1,1,1,1,1,1,1,
1,1,1,1,1,4),(0.,1.),(0.,0.107632284907671,0.215264569815341,0.269080712269176,
0.322896854723012,0.430529139630682,0.484345282084518,0.538161424538353,
0.645793709446023,0.717548566051137,0.771364708504972,0.861058279261364,
0.878996993412643,0.896935707563921,0.905905064639561,0.932813135866478,
1.00456799247159,1.07632284907671,1.18395513398438,1.21759022301802,1.23777127643821,
1.29158741889205,1.39921970379972,1.42612777502663,1.50685198870739),
 .UNSPECIFIED.);
#192=B_SPLINE_SURFACE_WITH_KNOTS('',3,3,((#510,#511,#512,#513,#514,#515,
#516,#517,#518,#519,#520,#521,#522,#523,#524,#525,#526,#527,#528,#529,#530,
#531,#532,#533,#534,#535),(#536,#537,#538,#539,#540,#541,#542,#543,#544,
#545,#546,#547,#548,#549,#550,#551,#552,#553,#554,#555,#556,#557,#558,#559,
#560,#561),(#562,#563,#564,#565,#566,#567,#568,#569,#570,#571,#572,#573,
#574,#575,#576,#577,#578,#579,#580,#581,#582,#583,#584,#585,#586,#587),
(#588,#589,#590,#591,#592,#593,#594,#595,#596,#597,#598,#599,#600,#601,
#602,#603,#604,#605,#606,#607,#608,#609,#610,#611,#612,#613)),
 .UNSPECIFIED.,.F.,.T.,.F.,(4,4),(4,1,2,1,1,1,1,2,1,1,1,1,1,1,1,1,1,1,1,
1,1,4),(0.,1.),(0.,0.113289737915888,0.226579475831776,0.311347075454267,
0.377277430716204,0.452626408158417,0.509138141240078,0.603324363042845,
0.75709993479423,0.795543827732076,0.808358458711358,0.910875506545615,
1.01339255437987,1.064651078297,1.11590960221413,1.21842665004839,1.26968517396551,
1.34657295984121,1.38501685277905,1.4234607457169,1.52597779355116,1.62849484138541),
 .UNSPECIFIED.);
#193=B_SPLINE_SURFACE_WITH_KNOTS('',3,3,((#648,#649,#650,#651,#652,#653,
#654,#655,#656,#657,#658,#659,#660,#661,#662,#663,#664,#665,#666,#667,#668,
#669,#670),(#671,#672,#673,#674,#675,#676,#677,#678,#679,#680,#681,#682,
#683,#684,#685,#686,#687,#688,#689,#690,#691,#692,#693),(#694,#695,#696,
#697,#698,#699,#700,#701,#702,#703,#704,#705,#706,#707,#708,#709,#710,#711,
#712,#713,#714,#715,#716),(#717,#718,#719,#720,#721,#722,#723,#724,#725,
#726,#727,#728,#729,#730,#731,#732,#733,#734,#735,#736,#737,#738,#739),
(#740,#741,#742,#743,#744,#745,#746,#747,#748,#749,#750,#751,#752,#753,
#754,#755,#756,#757,#758,#759,#760,#761,#762),(#763,#764,#765,#766,#767,
#768,#769,#770,#771,#772,#773,#774,#775,#776,#777,#778,#779,#780,#781,#782,
#783,#784,#785)),.UNSPECIFIED.,.F.,.T.,.F.,(4,1,1,4),(4,1,1,1,1,1,1,1,1,
1,1,1,1,1,1,1,1,1,1,1,4),(0.,0.285714285714286,0.571428571428571,1.),(-3.14159265358979,
-2.69279370307697,-2.24399475256414,-1.79519580205131,-1.34639685153848,
-1.0471975511966,-0.448798950512828,-0.411399037970092,-0.373999125427356,
-0.299199300341885,-0.224399475256414,-0.149599650170943,2.77555756156289E-17,
0.448798950512828,0.747998250854713,1.0471975511966,1.34639685153848,1.64559615188037,
2.24399475256414,2.69279370307697,3.14159265358979),.UNSPECIFIED.);
#194=ADVANCED_FACE('',(#44),#191,.T.);
#195=ADVANCED_FACE('',(#45),#39,.F.);
#196=ADVANCED_FACE('',(#46,#24),#40,.T.);
#197=ADVANCED_FACE('',(#47),#192,.T.);
#198=ADVANCED_FACE('',(#48,#25),#41,.F.);
#199=ADVANCED_FACE('',(#49),#193,.T.);
#200=ADVANCED_FACE('',(#50),#42,.T.);
#201=ADVANCED_FACE('',(#51,#26),#16,.T.);
#202=ADVANCED_FACE('',(#52),#43,.T.);
#203=ADVANCED_FACE('',(#53,#27),#17,.T.);
#204=ADVANCED_FACE('',(#54,#28),#18,.T.);
#205=ADVANCED_FACE('',(#55),#15,.T.);
#206=ADVANCED_FACE('',(#56,#29),#19,.F.);
#207=CLOSED_SHELL('',(#194,#195,#196,#197,#198,#199,#200,#201,#202,#203,
#204,#205,#206));
#208=DERIVED_UNIT_ELEMENT(#210,1.);
#209=DERIVED_UNIT_ELEMENT(#816,-3.);
#210=(
MASS_UNIT()
NAMED_UNIT(*)
SI_UNIT(.KILO.,.GRAM.)
);
#211=DERIVED_UNIT((#208,#209));
#212=MEASURE_REPRESENTATION_ITEM('density measure',
POSITIVE_RATIO_MEASURE(7850.),#211);
#213=PROPERTY_DEFINITION_REPRESENTATION(#218,#215);
#214=PROPERTY_DEFINITION_REPRESENTATION(#219,#216);
#215=REPRESENTATION('material name',(#217),#813);
#216=REPRESENTATION('density',(#212),#813);
#217=DESCRIPTIVE_REPRESENTATION_ITEM('Stahl','Stahl');
#218=PROPERTY_DEFINITION('material property','material name',#823);
#219=PROPERTY_DEFINITION('material property','density of part',#823);
#220=AXIS2_PLACEMENT_3D('',#299,#244,#245);
#221=AXIS2_PLACEMENT_3D('',#470,#247,#248);
#222=AXIS2_PLACEMENT_3D('',#504,#250,#251);
#223=AXIS2_PLACEMENT_3D('',#506,#252,#253);
#224=AXIS2_PLACEMENT_3D('',#509,#255,#256);
#225=AXIS2_PLACEMENT_3D('',#642,#258,#259);
#226=AXIS2_PLACEMENT_3D('',#644,#260,#261);
#227=AXIS2_PLACEMENT_3D('',#647,#263,#264);
#228=AXIS2_PLACEMENT_3D('',#788,#265,#266);
#229=AXIS2_PLACEMENT_3D('',#790,#267,#268);
#230=AXIS2_PLACEMENT_3D('',#791,#269,#270);
#231=AXIS2_PLACEMENT_3D('',#792,#271,#272);
#232=AXIS2_PLACEMENT_3D('',#793,#273,#274);
#233=AXIS2_PLACEMENT_3D('',#796,#276,#277);
#234=AXIS2_PLACEMENT_3D('',#797,#278,#279);
#235=AXIS2_PLACEMENT_3D('',#799,#280,#281);
#236=AXIS2_PLACEMENT_3D('',#800,#282,#283);
#237=AXIS2_PLACEMENT_3D('',#802,#284,#285);
#238=AXIS2_PLACEMENT_3D('',#805,#287,#288);
#239=AXIS2_PLACEMENT_3D('',#806,#289,#290);
#240=AXIS2_PLACEMENT_3D('',#807,#291,#292);
#241=AXIS2_PLACEMENT_3D('',#808,#293,#294);
#242=AXIS2_PLACEMENT_3D('',#809,#295,#296);
#243=AXIS2_PLACEMENT_3D('',#810,#297,#298);
#244=DIRECTION('axis',(0.,0.,1.));
#245=DIRECTION('refdir',(1.,0.,0.));
#246=DIRECTION('',(-0.695297048276005,-0.71872248793166,0.));
#247=DIRECTION('center_axis',(1.,0.,0.));
#248=DIRECTION('ref_axis',(0.,0.,-1.));
#249=DIRECTION('',(1.,0.,0.));
#250=DIRECTION('center_axis',(0.,0.,1.));
#251=DIRECTION('ref_axis',(1.,0.,0.));
#252=DIRECTION('center_axis',(0.,0.,1.));
#253=DIRECTION('ref_axis',(1.,0.,0.));
#254=DIRECTION('',(0.,0.,-1.));
#255=DIRECTION('center_axis',(0.,0.,1.));
#256=DIRECTION('ref_axis',(1.,0.,0.));
#257=DIRECTION('',(0.657640842931534,0.650649441413018,0.379689117696609));
#258=DIRECTION('center_axis',(0.5,0.,-0.866025403784439));
#259=DIRECTION('ref_axis',(0.,-1.,0.));
#260=DIRECTION('center_axis',(0.5,0.,-0.866025403784439));
#261=DIRECTION('ref_axis',(0.,-1.,0.));
#262=DIRECTION('',(0.5,0.,-0.866025403784439));
#263=DIRECTION('center_axis',(0.,0.,-1.));
#264=DIRECTION('ref_axis',(-1.,0.,0.));
#265=DIRECTION('center_axis',(1.41410031829988E-16,1.,0.));
#266=DIRECTION('ref_axis',(0.,0.,-1.));
#267=DIRECTION('center_axis',(-0.0719815750748695,3.57366073673678E-16,
-0.997405961908059));
#268=DIRECTION('ref_axis',(-0.997405961908059,0.,0.0719815750748695));
#269=DIRECTION('center_axis',(-0.0719815750748695,3.57366073673678E-16,
-0.997405961908059));
#270=DIRECTION('ref_axis',(-0.997405961908059,0.,0.0719815750748695));
#271=DIRECTION('center_axis',(0.,0.,1.));
#272=DIRECTION('ref_axis',(-1.,0.,0.));
#273=DIRECTION('center_axis',(0.5,0.,-0.866025403784439));
#274=DIRECTION('ref_axis',(0.,-1.,0.));
#275=DIRECTION('',(-0.5,0.,0.866025403784439));
#276=DIRECTION('center_axis',(0.5,0.,-0.866025403784439));
#277=DIRECTION('ref_axis',(0.,-1.,0.));
#278=DIRECTION('center_axis',(0.,0.,1.));
#279=DIRECTION('ref_axis',(1.,0.,0.));
#280=DIRECTION('center_axis',(0.,0.,-1.));
#281=DIRECTION('ref_axis',(1.,0.,0.));
#282=DIRECTION('center_axis',(0.5,0.,-0.866025403784439));
#283=DIRECTION('ref_axis',(0.,-1.,0.));
#284=DIRECTION('center_axis',(-0.5,0.,0.866025403784439));
#285=DIRECTION('ref_axis',(0.,-1.,0.));
#286=DIRECTION('',(0.5,0.,-0.866025403784439));
#287=DIRECTION('center_axis',(-0.5,0.,0.866025403784439));
#288=DIRECTION('ref_axis',(0.,-1.,0.));
#289=DIRECTION('center_axis',(-0.5,0.,0.866025403784439));
#290=DIRECTION('ref_axis',(0.,-1.,0.));
#291=DIRECTION('center_axis',(-0.5,0.,0.866025403784439));
#292=DIRECTION('ref_axis',(0.,-1.,0.));
#293=DIRECTION('center_axis',(0.,0.,1.));
#294=DIRECTION('ref_axis',(1.,0.,0.));
#295=DIRECTION('center_axis',(1.22464679914735E-16,-1.,0.));
#296=DIRECTION('ref_axis',(-1.,-1.22464679914735E-16,0.));
#297=DIRECTION('center_axis',(0.,0.,1.));
#298=DIRECTION('ref_axis',(1.,0.,0.));
#299=CARTESIAN_POINT('',(0.,0.,0.));
#300=CARTESIAN_POINT('Ctrl Pts',(79.9509907498022,2.79983537463308,5.));
#301=CARTESIAN_POINT('Ctrl Pts',(79.9509907498022,2.79983537463308,4.59815184138725));
#302=CARTESIAN_POINT('Ctrl Pts',(79.9583008648137,2.59971146166313,3.72397681605428));
#303=CARTESIAN_POINT('Ctrl Pts',(79.9776405799527,1.94115685659571,2.91198788751465));
#304=CARTESIAN_POINT('Ctrl Pts',(79.9912501820532,1.22983219408807,2.45733070113024));
#305=CARTESIAN_POINT('Ctrl Pts',(80.0008533468842,0.407703770644393,2.17442965956752));
#306=CARTESIAN_POINT('Ctrl Pts',(80.0008162832178,-0.409021614750355,2.17577238944054));
#307=CARTESIAN_POINT('Ctrl Pts',(79.9912163936585,-1.23259783640786,2.45793389841687));
#308=CARTESIAN_POINT('Ctrl Pts',(79.9775805851757,-1.94385686178335,2.91409586513241));
#309=CARTESIAN_POINT('Ctrl Pts',(79.9609544905389,-2.51042070837764,3.61201835046432));
#310=CARTESIAN_POINT('Ctrl Pts',(79.9513352598381,-2.79022213350408,4.52786392611881));
#311=CARTESIAN_POINT('Ctrl Pts',(79.950366686059,-2.81646464034756,5.33168920845385));
#312=CARTESIAN_POINT('Ctrl Pts',(79.9559758208507,-2.65838838776045,5.96616155308282));
#313=CARTESIAN_POINT('Ctrl Pts',(79.9632666963661,-2.42380165583781,6.40545158280089));
#314=CARTESIAN_POINT('Ctrl Pts',(79.9660441006883,-2.32997731770036,6.55425348206099));
#315=CARTESIAN_POINT('Ctrl Pts',(79.9695445958948,-2.20735821322489,6.72579869902461));
#316=CARTESIAN_POINT('Ctrl Pts',(79.9765741466284,-1.94594377931661,7.03857297412303));
#317=CARTESIAN_POINT('Ctrl Pts',(79.9883437317546,-1.43284875272962,7.45691419340838));
#318=CARTESIAN_POINT('Ctrl Pts',(80.0009056690543,-0.477624754223903,7.82825904714438));
#319=CARTESIAN_POINT('Ctrl Pts',(80.0007688244068,0.332972059426834,7.82284958804436));
#320=CARTESIAN_POINT('Ctrl Pts',(79.9945595267087,0.949380368747077,7.64058704388199));
#321=CARTESIAN_POINT('Ctrl Pts',(79.9890889020787,1.341894214099,7.47049029887411));
#322=CARTESIAN_POINT('Ctrl Pts',(79.9775437753141,1.94611843600039,7.08693853575941));
#323=CARTESIAN_POINT('Ctrl Pts',(79.9642543425184,2.39902483296555,6.5208789172146));
#324=CARTESIAN_POINT('Ctrl Pts',(79.9534272539813,2.73315741966137,5.72441949011359));
#325=CARTESIAN_POINT('Ctrl Pts',(79.9509907498022,2.79983537463308,5.30138611895957));
#326=CARTESIAN_POINT('Ctrl Pts',(79.9509907498022,2.79983537463308,5.));
#327=CARTESIAN_POINT('Ctrl Pts',(79.8543031527339,2.69989024975539,5.));
#328=CARTESIAN_POINT('Ctrl Pts',(79.8543031527339,2.69989024975539,4.61206111292357));
#329=CARTESIAN_POINT('Ctrl Pts',(79.8611277194898,2.50639867299626,3.76818130064112));
#330=CARTESIAN_POINT('Ctrl Pts',(79.8791661817107,1.87056435703604,2.98542357838395));
#331=CARTESIAN_POINT('Ctrl Pts',(79.8918493809934,1.18474539574718,2.54761646049301));
#332=CARTESIAN_POINT('Ctrl Pts',(79.9007952430931,0.392606665780347,2.27538565681181));
#333=CARTESIAN_POINT('Ctrl Pts',(79.9007605813374,-0.393885280062759,2.27668132085535));
#334=CARTESIAN_POINT('Ctrl Pts',(79.8918178326786,-1.18741798151813,2.54819774194432));
#335=CARTESIAN_POINT('Ctrl Pts',(79.8791101147581,-1.87317630023358,2.98745604566052));
#336=CARTESIAN_POINT('Ctrl Pts',(79.8636029756561,-2.42018410546321,3.66024993418031));
#337=CARTESIAN_POINT('Ctrl Pts',(79.8546247838384,-2.69059682965815,4.54418718462883));
#338=CARTESIAN_POINT('Ctrl Pts',(79.8537207034185,-2.71596738596883,5.32022911459249));
#339=CARTESIAN_POINT('Ctrl Pts',(79.8589563312877,-2.56316859655891,5.93266016099647));
#340=CARTESIAN_POINT('Ctrl Pts',(79.8657586004701,-2.33659583530526,6.35642564968813));
#341=CARTESIAN_POINT('Ctrl Pts',(79.8683494888275,-2.24599935929054,6.49993813350757));
#342=CARTESIAN_POINT('Ctrl Pts',(79.8716145367099,-2.1276201639908,6.66535425465767));
#343=CARTESIAN_POINT('Ctrl Pts',(79.8781703781071,-1.87530593738633,6.96688129767491));
#344=CARTESIAN_POINT('Ctrl Pts',(79.8891417780516,-1.38038658643733,7.36986202251399));
#345=CARTESIAN_POINT('Ctrl Pts',(79.9008439532529,-0.459942334789665,7.72720411790525));
#346=CARTESIAN_POINT('Ctrl Pts',(79.9007162262407,0.320650058547577,7.72198869930737));
#347=CARTESIAN_POINT('Ctrl Pts',(79.894932237438,0.914526379809075,7.54661013100322));
#348=CARTESIAN_POINT('Ctrl Pts',(79.8898350894423,1.29279384901743,7.38287634564911));
#349=CARTESIAN_POINT('Ctrl Pts',(79.8790757529436,1.87535802714854,7.01354377642952));
#350=CARTESIAN_POINT('Ctrl Pts',(79.866680863992,2.31262564195528,6.46785513365923));
#351=CARTESIAN_POINT('Ctrl Pts',(79.8565775997366,2.63542709962985,5.6993409023324));
#352=CARTESIAN_POINT('Ctrl Pts',(79.8543031527339,2.69989024975539,5.29095416530733));
#353=CARTESIAN_POINT('Ctrl Pts',(79.8543031527339,2.69989024975539,5.));
#354=CARTESIAN_POINT('Ctrl Pts',(79.7576155556657,2.59994512487769,5.));
#355=CARTESIAN_POINT('Ctrl Pts',(79.7576155556657,2.59994512487769,4.62597038445989));
#356=CARTESIAN_POINT('Ctrl Pts',(79.7639545741659,2.41308588432939,3.81238578522796));
#357=CARTESIAN_POINT('Ctrl Pts',(79.7806917834687,1.79997185747636,3.05885926925325));
#358=CARTESIAN_POINT('Ctrl Pts',(79.7924485799337,1.1396585974063,2.63790221985578));
#359=CARTESIAN_POINT('Ctrl Pts',(79.8007371393019,0.377509560916301,2.37634165405609));
#360=CARTESIAN_POINT('Ctrl Pts',(79.8007048794571,-0.378748945375162,2.37759025227016));
#361=CARTESIAN_POINT('Ctrl Pts',(79.7924192716988,-1.1422381266284,2.63846158547176));
#362=CARTESIAN_POINT('Ctrl Pts',(79.7806396443405,-1.80249573868381,3.06081622618863));
#363=CARTESIAN_POINT('Ctrl Pts',(79.7662514607733,-2.32994750254879,3.70848151789629));
#364=CARTESIAN_POINT('Ctrl Pts',(79.7579143078387,-2.59097152581223,4.56051044313885));
#365=CARTESIAN_POINT('Ctrl Pts',(79.757074720778,-2.6154701315901,5.30876902073114));
#366=CARTESIAN_POINT('Ctrl Pts',(79.7619368417247,-2.46794880535738,5.89915876891012));
#367=CARTESIAN_POINT('Ctrl Pts',(79.7682505045741,-2.24939001477272,6.30739971657536));
#368=CARTESIAN_POINT('Ctrl Pts',(79.7706548769667,-2.16202140088071,6.44562278495416));
#369=CARTESIAN_POINT('Ctrl Pts',(79.7736844775251,-2.04788211475672,6.60490981029073));
#370=CARTESIAN_POINT('Ctrl Pts',(79.7797666095859,-1.80466809545605,6.89518962122681));
#371=CARTESIAN_POINT('Ctrl Pts',(79.7899398243487,-1.32792442014504,7.28280985161959));
#372=CARTESIAN_POINT('Ctrl Pts',(79.8007822374515,-0.442259915355429,7.62614918866613));
#373=CARTESIAN_POINT('Ctrl Pts',(79.8006636280747,0.30832805766832,7.62112781057037));
#374=CARTESIAN_POINT('Ctrl Pts',(79.7953049481673,0.879672390871072,7.45263321812445));
#375=CARTESIAN_POINT('Ctrl Pts',(79.790581276806,1.24369348393586,7.29526239242411));
#376=CARTESIAN_POINT('Ctrl Pts',(79.7806077305731,1.80459761829668,6.94014901709963));
#377=CARTESIAN_POINT('Ctrl Pts',(79.7691073854656,2.22622645094501,6.41483135010385));
#378=CARTESIAN_POINT('Ctrl Pts',(79.7597279454919,2.53769677959833,5.6742623145512));
#379=CARTESIAN_POINT('Ctrl Pts',(79.7576155556657,2.59994512487769,5.28052221165509));
#380=CARTESIAN_POINT('Ctrl Pts',(79.7576155556657,2.59994512487769,5.));
#381=CARTESIAN_POINT('Ctrl Pts',(79.6609279585974,2.5,5.));
#382=CARTESIAN_POINT('Ctrl Pts',(79.6609279585974,2.5,4.63987965599621));
#383=CARTESIAN_POINT('Ctrl Pts',(79.6667814288419,2.31977309566252,3.85659026981481));
#384=CARTESIAN_POINT('Ctrl Pts',(79.6822173852268,1.72937935791669,3.13229496012255));
#385=CARTESIAN_POINT('Ctrl Pts',(79.6930477788739,1.09457179906542,2.72818797921855));
#386=CARTESIAN_POINT('Ctrl Pts',(79.7006790355107,0.362412456052254,2.47729765130038));
#387=CARTESIAN_POINT('Ctrl Pts',(79.7006491775767,-0.363612610687567,2.47849918368497));
#388=CARTESIAN_POINT('Ctrl Pts',(79.6930207107189,-1.09705827173868,2.72872542899921));
#389=CARTESIAN_POINT('Ctrl Pts',(79.682169173923,-1.73181517713404,3.13417640671674));
#390=CARTESIAN_POINT('Ctrl Pts',(79.6688999458906,-2.23971089963437,3.75671310161228));
#391=CARTESIAN_POINT('Ctrl Pts',(79.6612038318391,-2.4913462219663,4.57683370164887));
#392=CARTESIAN_POINT('Ctrl Pts',(79.6604287381375,-2.51497287721136,5.29730892686978));
#393=CARTESIAN_POINT('Ctrl Pts',(79.6649173521618,-2.37272901415584,5.86565737682377));
#394=CARTESIAN_POINT('Ctrl Pts',(79.6707424086782,-2.16218419424017,6.2583737834626));
#395=CARTESIAN_POINT('Ctrl Pts',(79.6729602651059,-2.07804344247088,6.39130743640075));
#396=CARTESIAN_POINT('Ctrl Pts',(79.6757544183402,-1.96814406552263,6.54446536592378));
#397=CARTESIAN_POINT('Ctrl Pts',(79.6813628410646,-1.73403025352577,6.82349794477869));
#398=CARTESIAN_POINT('Ctrl Pts',(79.6907378706457,-1.27546225385275,7.1957576807252));
#399=CARTESIAN_POINT('Ctrl Pts',(79.7007205216501,-0.424577495921193,7.52509425942701));
#400=CARTESIAN_POINT('Ctrl Pts',(79.7006110299087,0.296006056789062,7.52026692183337));
#401=CARTESIAN_POINT('Ctrl Pts',(79.6956776588965,0.844818401933068,7.35865630524568));
#402=CARTESIAN_POINT('Ctrl Pts',(79.6913274641697,1.1945931188543,7.20764843919911));
#403=CARTESIAN_POINT('Ctrl Pts',(79.6821397082025,1.73383720944482,6.86675425776974));
#404=CARTESIAN_POINT('Ctrl Pts',(79.6715339069392,2.13982725993474,6.36180756654847));
#405=CARTESIAN_POINT('Ctrl Pts',(79.6628782912472,2.4399664595668,5.64918372677));
#406=CARTESIAN_POINT('Ctrl Pts',(79.6609279585974,2.5,5.27009025800285));
#407=CARTESIAN_POINT('Ctrl Pts',(79.6609279585974,2.5,5.));
#408=CARTESIAN_POINT('',(79.9509907498022,2.79983537463308,5.));
#409=CARTESIAN_POINT('',(79.6609279585974,2.5,5.));
#410=CARTESIAN_POINT('',(79.9509907498022,2.79983537463308,5.));
#411=CARTESIAN_POINT('',(79.7000229979341,0.000314533549740678,7.50145122306933));
#412=CARTESIAN_POINT('Ctrl Pts',(79.6609279585974,2.5,5.));
#413=CARTESIAN_POINT('Ctrl Pts',(79.6609279585974,2.5,4.63987965599621));
#414=CARTESIAN_POINT('Ctrl Pts',(79.6667814288419,2.31977309566252,3.85659026981481));
#415=CARTESIAN_POINT('Ctrl Pts',(79.6822173852268,1.72937935791669,3.13229496012255));
#416=CARTESIAN_POINT('Ctrl Pts',(79.6930477788739,1.09457179906542,2.72818797921855));
#417=CARTESIAN_POINT('Ctrl Pts',(79.7006790355107,0.362412456052254,2.47729765130038));
#418=CARTESIAN_POINT('Ctrl Pts',(79.7006491775767,-0.363612610687567,2.47849918368497));
#419=CARTESIAN_POINT('Ctrl Pts',(79.6930207107189,-1.09705827173868,2.72872542899921));
#420=CARTESIAN_POINT('Ctrl Pts',(79.682169173923,-1.73181517713404,3.13417640671674));
#421=CARTESIAN_POINT('Ctrl Pts',(79.6688999458906,-2.23971089963437,3.75671310161228));
#422=CARTESIAN_POINT('Ctrl Pts',(79.6612038318391,-2.4913462219663,4.57683370164887));
#423=CARTESIAN_POINT('Ctrl Pts',(79.6604287381375,-2.51497287721136,5.29730892686978));
#424=CARTESIAN_POINT('Ctrl Pts',(79.6649173521618,-2.37272901415584,5.86565737682377));
#425=CARTESIAN_POINT('Ctrl Pts',(79.6707424086782,-2.16218419424017,6.2583737834626));
#426=CARTESIAN_POINT('Ctrl Pts',(79.6729602651059,-2.07804344247088,6.39130743640075));
#427=CARTESIAN_POINT('Ctrl Pts',(79.6757544183402,-1.96814406552263,6.54446536592378));
#428=CARTESIAN_POINT('Ctrl Pts',(79.6813628410646,-1.73403025352577,6.82349794477869));
#429=CARTESIAN_POINT('Ctrl Pts',(79.6907378706457,-1.27546225385275,7.1957576807252));
#430=CARTESIAN_POINT('Ctrl Pts',(79.6985813821492,-0.606909944049385,7.45452213541947));
#431=CARTESIAN_POINT('Ctrl Pts',(79.7000336000497,-0.181941701241315,7.50193071029137));
#432=CARTESIAN_POINT('Ctrl Pts',(79.700022997934,0.000314533549740665,7.50145122306933));
#433=CARTESIAN_POINT('Ctrl Pts',(79.700022997934,0.000314533549740665,7.50145122306933));
#434=CARTESIAN_POINT('Ctrl Pts',(79.7000123958184,0.182570768340798,7.50097173584728));
#435=CARTESIAN_POINT('Ctrl Pts',(79.6989665729046,0.478943505170396,7.46639671630414));
#436=CARTESIAN_POINT('Ctrl Pts',(79.6956776588965,0.844818401933068,7.35865630524568));
#437=CARTESIAN_POINT('Ctrl Pts',(79.6913274641697,1.1945931188543,7.20764843919911));
#438=CARTESIAN_POINT('Ctrl Pts',(79.6821397082025,1.73383720944482,6.86675425776974));
#439=CARTESIAN_POINT('Ctrl Pts',(79.6715339069392,2.13982725993474,6.36180756654847));
#440=CARTESIAN_POINT('Ctrl Pts',(79.6628782912472,2.4399664595668,5.64918372677));
#441=CARTESIAN_POINT('Ctrl Pts',(79.6609279585974,2.5,5.27009025800285));
#442=CARTESIAN_POINT('Ctrl Pts',(79.6609279585974,2.5,5.));
#443=CARTESIAN_POINT('Ctrl Pts',(79.9509907498022,2.79983537463308,5.));
#444=CARTESIAN_POINT('Ctrl Pts',(79.9509907498022,2.79983537463308,5.30138611895957));
#445=CARTESIAN_POINT('Ctrl Pts',(79.9534272539813,2.73315741966137,5.72441949011359));
#446=CARTESIAN_POINT('Ctrl Pts',(79.9642543425184,2.39902483296555,6.5208789172146));
#447=CARTESIAN_POINT('Ctrl Pts',(79.9775437753141,1.94611843600039,7.08693853575941));
#448=CARTESIAN_POINT('Ctrl Pts',(79.9890889020787,1.341894214099,7.47049029887411));
#449=CARTESIAN_POINT('Ctrl Pts',(79.9945595267087,0.949380368747077,7.64058704388199));
#450=CARTESIAN_POINT('Ctrl Pts',(80.0007688244068,0.332972059426834,7.82284958804436));
#451=CARTESIAN_POINT('Ctrl Pts',(80.0009056690543,-0.477624754223903,7.82825904714438));
#452=CARTESIAN_POINT('Ctrl Pts',(79.9883437317546,-1.43284875272962,7.45691419340838));
#453=CARTESIAN_POINT('Ctrl Pts',(79.9765741466284,-1.94594377931661,7.03857297412303));
#454=CARTESIAN_POINT('Ctrl Pts',(79.9695445958948,-2.20735821322489,6.72579869902461));
#455=CARTESIAN_POINT('Ctrl Pts',(79.9660441006883,-2.32997731770036,6.55425348206099));
#456=CARTESIAN_POINT('Ctrl Pts',(79.9632666963661,-2.42380165583781,6.40545158280089));
#457=CARTESIAN_POINT('Ctrl Pts',(79.9559758208507,-2.65838838776045,5.96616155308282));
#458=CARTESIAN_POINT('Ctrl Pts',(79.950366686059,-2.81646464034756,5.33168920845385));
#459=CARTESIAN_POINT('Ctrl Pts',(79.9513352598381,-2.79022213350408,4.52786392611881));
#460=CARTESIAN_POINT('Ctrl Pts',(79.9609544905389,-2.51042070837764,3.61201835046432));
#461=CARTESIAN_POINT('Ctrl Pts',(79.9775805851757,-1.94385686178335,2.91409586513241));
#462=CARTESIAN_POINT('Ctrl Pts',(79.9912163936585,-1.23259783640786,2.45793389841687));
#463=CARTESIAN_POINT('Ctrl Pts',(80.0008162832178,-0.409021614750355,2.17577238944054));
#464=CARTESIAN_POINT('Ctrl Pts',(80.0008533468842,0.407703770644393,2.17442965956752));
#465=CARTESIAN_POINT('Ctrl Pts',(79.9912501820532,1.22983219408807,2.45733070113024));
#466=CARTESIAN_POINT('Ctrl Pts',(79.9776405799527,1.94115685659571,2.91198788751465));
#467=CARTESIAN_POINT('Ctrl Pts',(79.9583008648137,2.59971146166313,3.72397681605428));
#468=CARTESIAN_POINT('Ctrl Pts',(79.9509907498022,2.79983537463308,4.59815184138725));
#469=CARTESIAN_POINT('Ctrl Pts',(79.9509907498022,2.79983537463308,5.));
#470=CARTESIAN_POINT('Origin',(70.,0.,5.));
#471=CARTESIAN_POINT('',(60.3289916599616,-2.49549695839244,5.14998310122834));
#472=CARTESIAN_POINT('',(59.1561219476069,-0.00115540770241637,7.50083636021485));
#473=CARTESIAN_POINT('Ctrl Pts',(60.3289916599616,-2.49549695839244,5.14998310122834));
#474=CARTESIAN_POINT('Ctrl Pts',(60.5150724911788,-2.51483286703195,4.82826218198838));
#475=CARTESIAN_POINT('Ctrl Pts',(60.9375071187168,-2.42562249144181,4.13460059084471));
#476=CARTESIAN_POINT('Ctrl Pts',(61.3483986936519,-2.04245258565314,3.51544206148679));
#477=CARTESIAN_POINT('Ctrl Pts',(61.6473955798364,-1.61292747634767,3.07241691462442));
#478=CARTESIAN_POINT('Ctrl Pts',(61.8682710454356,-1.19599039390617,2.75114664480866));
#479=CARTESIAN_POINT('Ctrl Pts',(62.0515607548864,-0.384826622106601,2.48799187599189));
#480=CARTESIAN_POINT('Ctrl Pts',(62.0516751638829,0.349246978592353,2.48778898390412));
#481=CARTESIAN_POINT('Ctrl Pts',(61.8810480554048,1.16384389308192,2.73273492810001));
#482=CARTESIAN_POINT('Ctrl Pts',(61.6621660020809,1.59269617678355,3.05051374835833));
#483=CARTESIAN_POINT('Ctrl Pts',(61.2868786077162,2.13096419934192,3.60606764238155));
#484=CARTESIAN_POINT('Ctrl Pts',(60.9203284714646,2.41771854993033,4.16300897224439));
#485=CARTESIAN_POINT('Ctrl Pts',(60.5487186954433,2.49362914144296,4.7764764530805));
#486=CARTESIAN_POINT('Ctrl Pts',(60.2850858427832,2.51001189035667,5.22082656331173));
#487=CARTESIAN_POINT('Ctrl Pts',(59.9230186468386,2.41125824792831,5.86364768730886));
#488=CARTESIAN_POINT('Ctrl Pts',(59.5645942034589,1.98328978026412,6.58124658713342));
#489=CARTESIAN_POINT('Ctrl Pts',(59.3708747192066,1.5224756568969,7.00175744117798));
#490=CARTESIAN_POINT('Ctrl Pts',(59.2137377644339,0.948225772984181,7.35942948521573));
#491=CARTESIAN_POINT('Ctrl Pts',(59.1594627553364,0.400115714501438,7.49267631841899));
#492=CARTESIAN_POINT('Ctrl Pts',(59.156124508577,0.0336091468284791,7.50083209375354));
#493=CARTESIAN_POINT('Ctrl Pts',(59.1561165673157,-0.00117725707699392,
7.50085217623163));
#494=CARTESIAN_POINT('Ctrl Pts',(59.1561165673157,-0.00117725707699392,
7.50085217623163));
#495=CARTESIAN_POINT('Ctrl Pts',(59.1560867225338,-0.131911229518368,7.50092765003298));
#496=CARTESIAN_POINT('Ctrl Pts',(59.1686730479928,-0.508280365746327,7.47021290512386));
#497=CARTESIAN_POINT('Ctrl Pts',(59.2352187583354,-1.01764480073687,7.31057178332122));
#498=CARTESIAN_POINT('Ctrl Pts',(59.3508659425693,-1.44884049741895,7.04737650323067));
#499=CARTESIAN_POINT('Ctrl Pts',(59.5101002975131,-1.87715508936779,6.69769160626586));
#500=CARTESIAN_POINT('Ctrl Pts',(59.8175103075436,-2.33146001390364,6.06463944757418));
#501=CARTESIAN_POINT('Ctrl Pts',(60.1606052039076,-2.47799969599797,5.44111166656664));
#502=CARTESIAN_POINT('Ctrl Pts',(60.3289916599616,-2.49549695839244,5.14998310122834));
#503=CARTESIAN_POINT('',(70.,-3.06161699786838E-16,7.5));
#504=CARTESIAN_POINT('Origin',(0.,0.,0.));
#505=CARTESIAN_POINT('',(-80.,-9.79717439317883E-15,8.));
#506=CARTESIAN_POINT('Origin',(0.,0.,8.));
#507=CARTESIAN_POINT('',(-80.,-9.79717439317883E-15,0.));
#508=CARTESIAN_POINT('',(-80.,-9.79717439317883E-15,0.));
#509=CARTESIAN_POINT('Origin',(0.,0.,0.));
#510=CARTESIAN_POINT('Ctrl Pts',(60.0255328853325,-2.79572965276724,4.97478109600832));
#511=CARTESIAN_POINT('Ctrl Pts',(60.2315600047984,-2.79572965276724,4.61793165735639));
#512=CARTESIAN_POINT('Ctrl Pts',(60.6955013989523,-2.64944242653149,3.86970992296373));
#513=CARTESIAN_POINT('Ctrl Pts',(61.1411752245567,-2.20090247291059,3.23879417582085));
#514=CARTESIAN_POINT('Ctrl Pts',(61.4650804424703,-1.72099790269293,2.79552627413979));
#515=CARTESIAN_POINT('Ctrl Pts',(61.7039702322155,-1.26498303638686,2.48044127771389));
#516=CARTESIAN_POINT('Ctrl Pts',(61.9022408803412,-0.404335865332341,2.22874427015661));
#517=CARTESIAN_POINT('Ctrl Pts',(61.9023672283207,0.367002885581302,2.22850070467658));
#518=CARTESIAN_POINT('Ctrl Pts',(61.717792208087,1.23054404069962,2.46269659633541));
#519=CARTESIAN_POINT('Ctrl Pts',(61.4810793066084,1.69828816018156,2.77354129184314));
#520=CARTESIAN_POINT('Ctrl Pts',(61.0746010535881,2.2998123590711,3.32917280803284));
#521=CARTESIAN_POINT('Ctrl Pts',(60.6766504205583,2.64418537841572,3.90077542355281));
#522=CARTESIAN_POINT('Ctrl Pts',(60.2681645574341,2.76879600589691,4.56423434403629));
#523=CARTESIAN_POINT('Ctrl Pts',(59.9774554165042,2.81635234817843,5.05037320624046));
#524=CARTESIAN_POINT('Ctrl Pts',(59.5746727913184,2.75143461817136,5.77333048103136));
#525=CARTESIAN_POINT('Ctrl Pts',(59.1695118022101,2.30333398771503,6.62570154242059));
#526=CARTESIAN_POINT('Ctrl Pts',(58.9495782169253,1.7842550652791,7.13975555594032));
#527=CARTESIAN_POINT('Ctrl Pts',(58.7712217403279,1.12144669375136,7.58280436931623));
#528=CARTESIAN_POINT('Ctrl Pts',(58.6947659867038,0.314134036116864,7.79192563155233));
#529=CARTESIAN_POINT('Ctrl Pts',(58.7150628208473,-0.560114424149613,7.73623571408138));
#530=CARTESIAN_POINT('Ctrl Pts',(58.7955907780195,-1.20126090186008,7.52230387335233));
#531=CARTESIAN_POINT('Ctrl Pts',(58.9268676938955,-1.69924468338271,7.19628881698839));
#532=CARTESIAN_POINT('Ctrl Pts',(59.1075875208437,-2.18590357186457,6.76744301995652));
#533=CARTESIAN_POINT('Ctrl Pts',(59.4560362462486,-2.67434398551191,6.00711019051383));
#534=CARTESIAN_POINT('Ctrl Pts',(59.8390968281045,-2.79572965276724,5.29769781949009));
#535=CARTESIAN_POINT('Ctrl Pts',(60.0255328853325,-2.79572965276724,4.97478109600832));
#536=CARTESIAN_POINT('Ctrl Pts',(60.1266858102089,-2.69565208797564,5.03318176441499));
#537=CARTESIAN_POINT('Ctrl Pts',(60.3260442229809,-2.70205946589011,4.6881457420309));
#538=CARTESIAN_POINT('Ctrl Pts',(60.7761784158944,-2.57485464274527,3.95797107885947));
#539=CARTESIAN_POINT('Ctrl Pts',(61.2102395399281,-2.14806181628737,3.33103860196362));
#540=CARTESIAN_POINT('Ctrl Pts',(61.525845854524,-1.68496009837284,2.88783479082811));
#541=CARTESIAN_POINT('Ctrl Pts',(61.7587362806583,-1.24198375447269,2.57069281162407));
#542=CARTESIAN_POINT('Ctrl Pts',(61.9520088354554,-0.39783033429261,2.31518175863526));
#543=CARTESIAN_POINT('Ctrl Pts',(61.9521449997848,0.361096752941635,2.31493412032245));
#544=CARTESIAN_POINT('Ctrl Pts',(61.7722132683211,1.20829865121425,2.55270289872454));
#545=CARTESIAN_POINT('Ctrl Pts',(61.5414418261222,1.66308429539456,2.86584710233766));
#546=CARTESIAN_POINT('Ctrl Pts',(61.1453779819653,2.24349308339537,3.42144534443765));
#547=CARTESIAN_POINT('Ctrl Pts',(60.7578733247707,2.568744622662,3.98822422083508));
#548=CARTESIAN_POINT('Ctrl Pts',(60.3617365187563,2.67698418474175,4.63488490835999));
#549=CARTESIAN_POINT('Ctrl Pts',(60.0799409949832,2.71437854570744,5.10725859381249));
#550=CARTESIAN_POINT('Ctrl Pts',(59.6907965893795,2.63795672321379,5.80345789897604));
#551=CARTESIAN_POINT('Ctrl Pts',(59.3012118880255,2.19662385234963,6.61087811040148));
#552=CARTESIAN_POINT('Ctrl Pts',(59.0899895051851,1.69702624419941,7.09379986631496));
#553=CARTESIAN_POINT('Ctrl Pts',(58.9187286768729,1.0636919854337,7.5083442099829));
#554=CARTESIAN_POINT('Ctrl Pts',(58.8452059538043,0.297869697233102,7.70310440155328));
#555=CARTESIAN_POINT('Ctrl Pts',(58.8647256544124,-0.531128449515728,7.65128793554078));
#556=CARTESIAN_POINT('Ctrl Pts',(58.942127963279,-1.14000940030414,7.4517304483313));
#557=CARTESIAN_POINT('Ctrl Pts',(59.068182392197,-1.61578991489071,7.14670611254752));
#558=CARTESIAN_POINT('Ctrl Pts',(59.2417733985592,-2.08297875897495,6.74416496368762));
#559=CARTESIAN_POINT('Ctrl Pts',(59.5765280732499,-2.56005490884185,6.02627871179907));
#560=CARTESIAN_POINT('Ctrl Pts',(59.946234087686,-2.68982799093991,5.34563692145156));
#561=CARTESIAN_POINT('Ctrl Pts',(60.1266858102089,-2.69565208797564,5.03318176441499));
#562=CARTESIAN_POINT('Ctrl Pts',(60.2278387350852,-2.59557452318404,5.09158243282167));
#563=CARTESIAN_POINT('Ctrl Pts',(60.4205882729963,-2.60850305390908,4.75804809731386));
#564=CARTESIAN_POINT('Ctrl Pts',(60.8568301017747,-2.50021027522803,4.04633943494897));
#565=CARTESIAN_POINT('Ctrl Pts',(61.2793343782806,-2.09529324227635,3.42319763534401));
#566=CARTESIAN_POINT('Ctrl Pts',(61.5866301677827,-1.64896528066776,2.9801083979361));
#567=CARTESIAN_POINT('Ctrl Pts',(61.8135049969928,-1.21898967582034,2.66089511089848));
#568=CARTESIAN_POINT('Ctrl Pts',(62.0017927997722,-0.391332153146332,2.40155438751325));
#569=CARTESIAN_POINT('Ctrl Pts',(62.0018973924188,0.355153111232021,2.40135556825825));
#570=CARTESIAN_POINT('Ctrl Pts',(61.8266269951707,1.18608928256729,2.64272862571088));
#571=CARTESIAN_POINT('Ctrl Pts',(61.6018034825671,1.62790004157055,2.95820793786381));
#572=CARTESIAN_POINT('Ctrl Pts',(61.2161016793391,2.18728347501765,3.51379510597675));
#573=CARTESIAN_POINT('Ctrl Pts',(60.8391055672523,2.49315930568405,4.07556017496212));
#574=CARTESIAN_POINT('Ctrl Pts',(60.4551467341211,2.58544096259812,4.70582588875681));
#575=CARTESIAN_POINT('Ctrl Pts',(60.1826002643042,2.61198569282766,5.1639411757397));
#576=CARTESIAN_POINT('Ctrl Pts',(59.8068948487775,2.52473614288589,5.83352026936418));
#577=CARTESIAN_POINT('Ctrl Pts',(59.4328941176434,2.08999991562951,6.59607001915253));
#578=CARTESIAN_POINT('Ctrl Pts',(59.2304634309468,1.60970447797659,7.04771313080334));
#579=CARTESIAN_POINT('Ctrl Pts',(59.066230827889,1.00598048130184,7.43388964454906));
#580=CARTESIAN_POINT('Ctrl Pts',(58.9956688398242,0.281521790501719,7.61428190656367));
#581=CARTESIAN_POINT('Ctrl Pts',(59.0144094715356,-0.502050624871276,7.56619772500999));
#582=CARTESIAN_POINT('Ctrl Pts',(59.0886815730759,-1.07889630229281,7.38114520834224));
#583=CARTESIAN_POINT('Ctrl Pts',(59.2095512442678,-1.53229526591096,7.09695920767153));
#584=CARTESIAN_POINT('Ctrl Pts',(59.3759144197976,-1.9800799022574,6.72096966253477));
#585=CARTESIAN_POINT('Ctrl Pts',(59.6970184805424,-2.4457490905737,6.04547092628894));
#586=CARTESIAN_POINT('Ctrl Pts',(60.0534679443261,-2.5839013578253,5.39317256460518));
#587=CARTESIAN_POINT('Ctrl Pts',(60.2278387350852,-2.59557452318404,5.09158243282167));
#588=CARTESIAN_POINT('Ctrl Pts',(60.3289916599616,-2.49549695839244,5.14998310122834));
#589=CARTESIAN_POINT('Ctrl Pts',(60.5150724911788,-2.51483286703195,4.82826218198838));
#590=CARTESIAN_POINT('Ctrl Pts',(60.9375071187168,-2.42562249144181,4.13460059084471));
#591=CARTESIAN_POINT('Ctrl Pts',(61.3483986936519,-2.04245258565314,3.51544206148679));
#592=CARTESIAN_POINT('Ctrl Pts',(61.6473955798364,-1.61292747634767,3.07241691462442));
#593=CARTESIAN_POINT('Ctrl Pts',(61.8682710454356,-1.19599039390617,2.75114664480866));
#594=CARTESIAN_POINT('Ctrl Pts',(62.0515607548864,-0.384826622106601,2.48799187599189));
#595=CARTESIAN_POINT('Ctrl Pts',(62.0516751638829,0.349246978592353,2.48778898390412));
#596=CARTESIAN_POINT('Ctrl Pts',(61.8810480554048,1.16384389308192,2.73273492810001));
#597=CARTESIAN_POINT('Ctrl Pts',(61.6621660020809,1.59269617678355,3.05051374835833));
#598=CARTESIAN_POINT('Ctrl Pts',(61.2868786077162,2.13096419934192,3.60606764238155));
#599=CARTESIAN_POINT('Ctrl Pts',(60.9203284714646,2.41771854993033,4.16300897224439));
#600=CARTESIAN_POINT('Ctrl Pts',(60.5487186954433,2.49362914144296,4.7764764530805));
#601=CARTESIAN_POINT('Ctrl Pts',(60.2850858427832,2.51001189035667,5.22082656331173));
#602=CARTESIAN_POINT('Ctrl Pts',(59.9230186468386,2.41125824792831,5.86364768730886));
#603=CARTESIAN_POINT('Ctrl Pts',(59.5645942034589,1.98328978026412,6.58124658713342));
#604=CARTESIAN_POINT('Ctrl Pts',(59.3708747192066,1.5224756568969,7.00175744117798));
#605=CARTESIAN_POINT('Ctrl Pts',(59.2137377644339,0.948225772984181,7.35942948521573));
#606=CARTESIAN_POINT('Ctrl Pts',(59.1461088069247,0.265257451617957,7.52546067656462));
#607=CARTESIAN_POINT('Ctrl Pts',(59.1640723051007,-0.473064650237391,7.48124994646938));
#608=CARTESIAN_POINT('Ctrl Pts',(59.2352187583354,-1.01764480073687,7.31057178332122));
#609=CARTESIAN_POINT('Ctrl Pts',(59.3508659425693,-1.44884049741895,7.04737650323067));
#610=CARTESIAN_POINT('Ctrl Pts',(59.5101002975131,-1.87715508936779,6.69769160626586));
#611=CARTESIAN_POINT('Ctrl Pts',(59.8175103075436,-2.33146001390364,6.06463944757418));
#612=CARTESIAN_POINT('Ctrl Pts',(60.1606052039076,-2.47799969599797,5.44111166656664));
#613=CARTESIAN_POINT('Ctrl Pts',(60.3289916599616,-2.49549695839244,5.14998310122834));
#614=CARTESIAN_POINT('',(60.0255328853325,-2.79572965276724,4.97478109600832));
#615=CARTESIAN_POINT('',(60.0255328853325,-2.79572965276724,4.97478109600832));
#616=CARTESIAN_POINT('Ctrl Pts',(60.0255328853325,-2.79572965276724,4.97478109600832));
#617=CARTESIAN_POINT('Ctrl Pts',(59.8390968281045,-2.79572965276724,5.29769781949009));
#618=CARTESIAN_POINT('Ctrl Pts',(59.4560362462486,-2.67434398551191,6.00711019051383));
#619=CARTESIAN_POINT('Ctrl Pts',(59.1075875208437,-2.18590357186457,6.76744301995652));
#620=CARTESIAN_POINT('Ctrl Pts',(58.9268676938955,-1.69924468338271,7.19628881698839));
#621=CARTESIAN_POINT('Ctrl Pts',(58.7955907780195,-1.20126090186008,7.52230387335233));
#622=CARTESIAN_POINT('Ctrl Pts',(58.7150628208473,-0.560114424149613,7.73623571408138));
#623=CARTESIAN_POINT('Ctrl Pts',(58.6947659867038,0.314134036116864,7.79192563155233));
#624=CARTESIAN_POINT('Ctrl Pts',(58.7712217403279,1.12144669375136,7.58280436931623));
#625=CARTESIAN_POINT('Ctrl Pts',(58.9495782169253,1.7842550652791,7.13975555594032));
#626=CARTESIAN_POINT('Ctrl Pts',(59.1695118022101,2.30333398771503,6.62570154242059));
#627=CARTESIAN_POINT('Ctrl Pts',(59.5746727913184,2.75143461817136,5.77333048103136));
#628=CARTESIAN_POINT('Ctrl Pts',(59.9774554165042,2.81635234817843,5.05037320624046));
#629=CARTESIAN_POINT('Ctrl Pts',(60.2681645574341,2.76879600589691,4.56423434403629));
#630=CARTESIAN_POINT('Ctrl Pts',(60.6766504205583,2.64418537841572,3.90077542355281));
#631=CARTESIAN_POINT('Ctrl Pts',(61.0746010535881,2.2998123590711,3.32917280803284));
#632=CARTESIAN_POINT('Ctrl Pts',(61.4810793066084,1.69828816018156,2.77354129184314));
#633=CARTESIAN_POINT('Ctrl Pts',(61.717792208087,1.23054404069962,2.46269659633541));
#634=CARTESIAN_POINT('Ctrl Pts',(61.9023672283207,0.367002885581302,2.22850070467658));
#635=CARTESIAN_POINT('Ctrl Pts',(61.9022408803412,-0.404335865332341,2.22874427015661));
#636=CARTESIAN_POINT('Ctrl Pts',(61.7039702322155,-1.26498303638686,2.48044127771389));
#637=CARTESIAN_POINT('Ctrl Pts',(61.4650804424703,-1.72099790269293,2.79552627413979));
#638=CARTESIAN_POINT('Ctrl Pts',(61.1411752245567,-2.20090247291059,3.23879417582085));
#639=CARTESIAN_POINT('Ctrl Pts',(60.6955013989523,-2.64944242653149,3.86970992296373));
#640=CARTESIAN_POINT('Ctrl Pts',(60.2315600047984,-2.79572965276724,4.61793165735639));
#641=CARTESIAN_POINT('Ctrl Pts',(60.0255328853325,-2.79572965276724,4.97478109600832));
#642=CARTESIAN_POINT('Origin',(-4.99999999999998,0.,86.6025403784439));
#643=CARTESIAN_POINT('',(-4.99999999999998,15.75,86.6025403784439));
#644=CARTESIAN_POINT('Origin',(-4.99999999999998,0.,86.6025403784439));
#645=CARTESIAN_POINT('',(45.,15.75,0.));
#646=CARTESIAN_POINT('',(-4.99999999999998,15.75,86.6025403784439));
#647=CARTESIAN_POINT('Origin',(45.,0.,0.));
#648=CARTESIAN_POINT('Ctrl Pts',(68.094010767585,-3.30654635769785E-15,
10.));
#649=CARTESIAN_POINT('Ctrl Pts',(68.094010767585,-4.03919055461545,10.));
#650=CARTESIAN_POINT('Ctrl Pts',(65.9666188429097,-12.1158746744115,10.));
#651=CARTESIAN_POINT('Ctrl Pts',(57.0216727495671,-21.8296941167771,10.));
#652=CARTESIAN_POINT('Ctrl Pts',(44.0888383771639,-27.2253976498812,10.));
#653=CARTESIAN_POINT('Ctrl Pts',(31.3423411071422,-27.2177833706604,10.));
#654=CARTESIAN_POINT('Ctrl Pts',(18.1583511284415,-22.7442786001888,10.));
#655=CARTESIAN_POINT('Ctrl Pts',(11.2449194986813,-16.3139039559143,9.99999999999999));
#656=CARTESIAN_POINT('Ctrl Pts',(8.33440915662083,-10.8000596086552,10.));
#657=CARTESIAN_POINT('Ctrl Pts',(7.7388564905388,-9.5563105530879,9.99999999999999));
#658=CARTESIAN_POINT('Ctrl Pts',(7.0973511931499,-7.96618699646939,10.));
#659=CARTESIAN_POINT('Ctrl Pts',(6.49289498041542,-6.01404403639497,9.99999999999999));
#660=CARTESIAN_POINT('Ctrl Pts',(5.91593199486093,-3.36635230858633,10.));
#661=CARTESIAN_POINT('Ctrl Pts',(5.3836416564356,2.69350809173266,10.));
#662=CARTESIAN_POINT('Ctrl Pts',(7.51419907816601,10.7677664850325,10.));
#663=CARTESIAN_POINT('Ctrl Pts',(13.7201868710098,18.6395648138138,10.));
#664=CARTESIAN_POINT('Ctrl Pts',(21.0944166236174,23.7369568579882,10.));
#665=CARTESIAN_POINT('Ctrl Pts',(29.8730900805921,26.7124192455293,10.));
#666=CARTESIAN_POINT('Ctrl Pts',(42.4249677873414,27.5519106366061,10.));
#667=CARTESIAN_POINT('Ctrl Pts',(56.0309608855623,22.9268382897757,9.99999999999999));
#668=CARTESIAN_POINT('Ctrl Pts',(65.964700201755,12.1067660011735,10.));
#669=CARTESIAN_POINT('Ctrl Pts',(68.094010767585,4.03919055461545,10.));
#670=CARTESIAN_POINT('Ctrl Pts',(68.094010767585,3.30654635769785E-15,10.));
#671=CARTESIAN_POINT('Ctrl Pts',(67.6950783671292,-3.25013331425138E-15,
10.));
#672=CARTESIAN_POINT('Ctrl Pts',(67.6950783671292,-3.97026643373479,10.));
#673=CARTESIAN_POINT('Ctrl Pts',(65.5884840817491,-11.909058911449,10.0000110199902));
#674=CARTESIAN_POINT('Ctrl Pts',(56.7390787512913,-21.431112080306,10.0000352596404));
#675=CARTESIAN_POINT('Ctrl Pts',(43.9689929352457,-26.6688990068223,10.0000100540167));
#676=CARTESIAN_POINT('Ctrl Pts',(31.4309732302328,-26.5802504665829,10.000047270698));
#677=CARTESIAN_POINT('Ctrl Pts',(18.5292813237243,-22.111045181538,9.99993221278304));
#678=CARTESIAN_POINT('Ctrl Pts',(11.8337751631956,-15.8026465559692,10.0000246641936));
#679=CARTESIAN_POINT('Ctrl Pts',(9.03089054605371,-10.4488654141569,10.0000071746234));
#680=CARTESIAN_POINT('Ctrl Pts',(8.45756494534693,-9.24204207474817,9.99999160712354));
#681=CARTESIAN_POINT('Ctrl Pts',(7.84072669420827,-7.70096618309944,9.99998758792897));
#682=CARTESIAN_POINT('Ctrl Pts',(7.26019045546513,-5.81155875764341,9.99997910721983));
#683=CARTESIAN_POINT('Ctrl Pts',(6.70638941491456,-3.25136820049061,9.99997030982519));
#684=CARTESIAN_POINT('Ctrl Pts',(6.19719243035307,2.60071122636101,9.9999812858093));
#685=CARTESIAN_POINT('Ctrl Pts',(8.235284491855,10.4033412126972,9.99995737660272));
#686=CARTESIAN_POINT('Ctrl Pts',(14.2289625589094,18.082874521235,9.99997300965872));
#687=CARTESIAN_POINT('Ctrl Pts',(21.4032214813446,23.1034492876436,10.0000184801003));
#688=CARTESIAN_POINT('Ctrl Pts',(29.9929723645825,26.0748854280252,10.0000089931868));
#689=CARTESIAN_POINT('Ctrl Pts',(42.3276049361388,26.9794465720249,10.0000112097628));
#690=CARTESIAN_POINT('Ctrl Pts',(55.7586401761714,22.507119806854,10.0000345835747));
#691=CARTESIAN_POINT('Ctrl Pts',(65.5867293408865,11.8998569711197,10.0000173708439));
#692=CARTESIAN_POINT('Ctrl Pts',(67.6950783671292,3.97026643373479,10.));
#693=CARTESIAN_POINT('Ctrl Pts',(67.6950783671292,3.25013331425138E-15,
10.));
#694=CARTESIAN_POINT('Ctrl Pts',(66.8976407846958,-3.13736764033704E-15,
10.1206104016271));
#695=CARTESIAN_POINT('Ctrl Pts',(66.8976407846958,-3.83248065573701,10.1206104016271));
#696=CARTESIAN_POINT('Ctrl Pts',(64.8327190517399,-11.4956630999188,10.1296890618525));
#697=CARTESIAN_POINT('Ctrl Pts',(56.1744157092976,-20.6346988739195,10.1696130363724));
#698=CARTESIAN_POINT('Ctrl Pts',(43.7299065556692,-25.5578180725341,10.2330916617029));
#699=CARTESIAN_POINT('Ctrl Pts',(31.6076256533638,-25.3087380176011,10.3049024274571));
#700=CARTESIAN_POINT('Ctrl Pts',(19.268525316264,-20.8499479333464,10.3903958926336));
#701=CARTESIAN_POINT('Ctrl Pts',(13.0051217055906,-14.7851037313818,10.4444725653385));
#702=CARTESIAN_POINT('Ctrl Pts',(10.4159256693442,-9.75020092964736,10.4689644755475));
#703=CARTESIAN_POINT('Ctrl Pts',(9.88679301259481,-8.61694872311406,10.4740153482768));
#704=CARTESIAN_POINT('Ctrl Pts',(9.3189102625613,-7.17349483550276,10.4795115076989));
#705=CARTESIAN_POINT('Ctrl Pts',(8.78586805799258,-5.40895807397212,10.4847677289853));
#706=CARTESIAN_POINT('Ctrl Pts',(8.27806344896689,-3.022878695883,10.4898196941565));
#707=CARTESIAN_POINT('Ctrl Pts',(7.81455046226003,2.41599700451109,10.4946215063647));
#708=CARTESIAN_POINT('Ctrl Pts',(9.66950994144328,9.67858611112128,10.4753395073336));
#709=CARTESIAN_POINT('Ctrl Pts',(15.2416946234256,16.9747936745883,10.4249605036792));
#710=CARTESIAN_POINT('Ctrl Pts',(22.0183746352052,21.8413583687878,10.3713575222215));
#711=CARTESIAN_POINT('Ctrl Pts',(30.2320199553506,24.8035937857887,10.3144700442604));
#712=CARTESIAN_POINT('Ctrl Pts',(42.1333684291994,25.8365972063762,10.241577730072));
#713=CARTESIAN_POINT('Ctrl Pts',(55.2145972257752,21.6684876175049,10.1739863323992));
#714=CARTESIAN_POINT('Ctrl Pts',(64.8312604899415,11.4862819443515,10.1297283478836));
#715=CARTESIAN_POINT('Ctrl Pts',(66.8976407846958,3.83248065573701,10.1206104016271));
#716=CARTESIAN_POINT('Ctrl Pts',(66.8976407846958,3.13736764033704E-15,
10.1206104016271));
#717=CARTESIAN_POINT('Ctrl Pts',(65.6248688978766,-2.95738492730963E-15,
10.7326468215313));
#718=CARTESIAN_POINT('Ctrl Pts',(65.6248688978766,-3.61266539856836,10.7326468215313));
#719=CARTESIAN_POINT('Ctrl Pts',(63.636125239745,-10.8358793851247,10.7862769129433));
#720=CARTESIAN_POINT('Ctrl Pts',(55.3127374944314,-19.403730364996,11.0203617868081));
#721=CARTESIAN_POINT('Ctrl Pts',(43.3931039088245,-23.9293847638641,11.384214604933));
#722=CARTESIAN_POINT('Ctrl Pts',(31.8634884875626,-23.5609367033821,11.784778924832));
#723=CARTESIAN_POINT('Ctrl Pts',(20.229905457016,-19.2489759226643,12.2480218608388));
#724=CARTESIAN_POINT('Ctrl Pts',(14.4301093669215,-13.5641700462866,12.5327606405361));
#725=CARTESIAN_POINT('Ctrl Pts',(12.0536546477196,-8.92551043261909,12.6595913597347));
#726=CARTESIAN_POINT('Ctrl Pts',(11.5681406544701,-7.88258342034122,12.6856492476641));
#727=CARTESIAN_POINT('Ctrl Pts',(11.0483029429691,-6.55719890798488,12.7140462896051));
#728=CARTESIAN_POINT('Ctrl Pts',(10.5612636005399,-4.94064003244969,12.7411098399764));
#729=CARTESIAN_POINT('Ctrl Pts',(10.097724304023,-2.75837971346245,12.7670778317168));
#730=CARTESIAN_POINT('Ctrl Pts',(9.67749716088824,2.20439812367483,12.791838765299));
#731=CARTESIAN_POINT('Ctrl Pts',(11.3596720543279,8.83796675299753,12.6927271580848));
#732=CARTESIAN_POINT('Ctrl Pts',(16.4979934243284,15.6140113137549,12.4299927968663));
#733=CARTESIAN_POINT('Ctrl Pts',(22.8241770599799,20.2089681244161,12.1451130472494));
#734=CARTESIAN_POINT('Ctrl Pts',(30.5660945126488,23.0716359520652,11.8364766189949));
#735=CARTESIAN_POINT('Ctrl Pts',(41.8670644764381,24.1743978981748,11.4326896702379));
#736=CARTESIAN_POINT('Ctrl Pts',(54.389251214506,20.3736818441537,11.0459204864103));
#737=CARTESIAN_POINT('Ctrl Pts',(63.6350981422209,10.8266489139704,10.7865061987915));
#738=CARTESIAN_POINT('Ctrl Pts',(65.6248688978766,3.61266539856836,10.7326468215313));
#739=CARTESIAN_POINT('Ctrl Pts',(65.6248688978766,2.95738492730963E-15,
10.7326468215313));
#740=CARTESIAN_POINT('Ctrl Pts',(64.9291084527892,-2.85899742062377E-15,
11.4817716102188));
#741=CARTESIAN_POINT('Ctrl Pts',(64.9291084527892,-3.49236532802555,11.4817716102188));
#742=CARTESIAN_POINT('Ctrl Pts',(63.0005197586045,-10.4757395221116,11.5865755398355));
#743=CARTESIAN_POINT('Ctrl Pts',(54.9132448021902,-18.8054495409451,12.0348775950269));
#744=CARTESIAN_POINT('Ctrl Pts',(43.2898318618819,-23.3030423675115,12.7071351245768));
#745=CARTESIAN_POINT('Ctrl Pts',(31.9516803829419,-23.1035134814259,13.4062467659665));
#746=CARTESIAN_POINT('Ctrl Pts',(20.3790003607591,-19.0828634161821,14.1716176114294));
#747=CARTESIAN_POINT('Ctrl Pts',(14.452211531499,-13.5684430224644,14.6054514934196));
#748=CARTESIAN_POINT('Ctrl Pts',(11.9886345283192,-8.95728280090096,14.7938521305751));
#749=CARTESIAN_POINT('Ctrl Pts',(11.485201483816,-7.91891309425987,14.8325638865513));
#750=CARTESIAN_POINT('Ctrl Pts',(10.9439901725827,-6.59480669869376,14.8744183502554));
#751=CARTESIAN_POINT('Ctrl Pts',(10.4354382004474,-4.97450509674397,14.9141233645567));
#752=CARTESIAN_POINT('Ctrl Pts',(9.95066892312002,-2.78168683778063,14.9521364487366));
#753=CARTESIAN_POINT('Ctrl Pts',(9.50614911450818,2.22282925862685,14.9876389232392));
#754=CARTESIAN_POINT('Ctrl Pts',(11.284567326628,8.9016278964816,14.8452927208724));
#755=CARTESIAN_POINT('Ctrl Pts',(16.5710398166901,15.5604578591991,14.449703023927));
#756=CARTESIAN_POINT('Ctrl Pts',(22.9563788477445,19.9764057529685,14.0010059940377));
#757=CARTESIAN_POINT('Ctrl Pts',(30.6623235872717,22.6482852435008,13.4917879035577));
#758=CARTESIAN_POINT('Ctrl Pts',(41.798313418278,23.5591272644187,12.795002938938));
#759=CARTESIAN_POINT('Ctrl Pts',(54.0169113000606,19.747547537873,12.0842979603027));
#760=CARTESIAN_POINT('Ctrl Pts',(62.9990887074407,10.46728809183,11.586799145086));
#761=CARTESIAN_POINT('Ctrl Pts',(64.9291084527892,3.49236532802555,11.4817716102188));
#762=CARTESIAN_POINT('Ctrl Pts',(64.9291084527892,2.85899742062377E-15,
11.4817716102188));
#763=CARTESIAN_POINT('Ctrl Pts',(64.6299091524473,-2.81668763803891E-15,
12.));
#764=CARTESIAN_POINT('Ctrl Pts',(64.6299091524473,-3.44079195393168,12.));
#765=CARTESIAN_POINT('Ctrl Pts',(62.7388941082914,-10.3209302782024,12.1364722555981));
#766=CARTESIAN_POINT('Ctrl Pts',(54.7878309142091,-18.595665358736,12.710290815029));
#767=CARTESIAN_POINT('Ctrl Pts',(43.2919781387395,-23.1920054054544,13.5399325268392));
#768=CARTESIAN_POINT('Ctrl Pts',(31.9617583431648,-23.1855191675996,14.3576207079583));
#769=CARTESIAN_POINT('Ctrl Pts',(20.2426561398752,-19.3747558446053,15.2033740594246));
#770=CARTESIAN_POINT('Ctrl Pts',(14.0973835800884,-13.8970292957788,15.6468709052541));
#771=CARTESIAN_POINT('Ctrl Pts',(11.5102632760347,-9.20005077774332,15.8335802307505));
#772=CARTESIAN_POINT('Ctrl Pts',(10.9808831284062,-8.14056084151932,15.8717849520927));
#773=CARTESIAN_POINT('Ctrl Pts',(10.4106561973938,-6.78601114514059,15.9129375361076));
#774=CARTESIAN_POINT('Ctrl Pts',(9.8733617860743,-5.12307454952163,15.9517134202337));
#775=CARTESIAN_POINT('Ctrl Pts',(9.36050579891476,-2.86763344805502,15.988725613014));
#776=CARTESIAN_POINT('Ctrl Pts',(8.88735883142558,2.29446985592041,16.0228720541448));
#777=CARTESIAN_POINT('Ctrl Pts',(10.7811876507415,9.17254182058321,15.8861967318159));
#778=CARTESIAN_POINT('Ctrl Pts',(16.2976212443804,15.8781478043599,15.4880824292841));
#779=CARTESIAN_POINT('Ctrl Pts',(22.8524921355871,20.2203706568047,15.0150253700914));
#780=CARTESIAN_POINT('Ctrl Pts',(30.6557574306758,22.7550238017471,14.4518732052567));
#781=CARTESIAN_POINT('Ctrl Pts',(41.8129820588974,23.4701460978497,13.6466698749426));
#782=CARTESIAN_POINT('Ctrl Pts',(53.9071981462049,19.5302696542534,12.773845010737));
#783=CARTESIAN_POINT('Ctrl Pts',(62.7371886494872,10.3131710380367,12.1365953364856));
#784=CARTESIAN_POINT('Ctrl Pts',(64.6299091524473,3.44079195393168,12.));
#785=CARTESIAN_POINT('Ctrl Pts',(64.6299091524473,2.81668763803891E-15,
12.));
#786=CARTESIAN_POINT('',(68.094010767585,3.30654635769785E-15,10.));
#787=CARTESIAN_POINT('',(64.6299091524473,-2.81668763803891E-15,12.));
#788=CARTESIAN_POINT('Origin',(68.094010767585,-3.30654635769785E-15,14.));
#789=CARTESIAN_POINT('',(36.9170962313452,23.,14.));
#790=CARTESIAN_POINT('Origin',(36.9170962313452,0.,14.));
#791=CARTESIAN_POINT('Origin',(36.9170962313452,0.,14.));
#792=CARTESIAN_POINT('Origin',(36.9170962313452,0.,10.));
#793=CARTESIAN_POINT('Origin',(-4.99999999999998,0.,86.6025403784439));
#794=CARTESIAN_POINT('',(20.,23.,43.3012701892219));
#795=CARTESIAN_POINT('',(-4.99999999999998,23.,86.6025403784439));
#796=CARTESIAN_POINT('Origin',(20.,0.,43.3012701892219));
#797=CARTESIAN_POINT('Origin',(0.,0.,10.));
#798=CARTESIAN_POINT('',(-78.,9.55224503334935E-15,10.));
#799=CARTESIAN_POINT('Origin',(0.,0.,10.));
#800=CARTESIAN_POINT('Origin',(-4.99999999999998,0.,86.6025403784439));
#801=CARTESIAN_POINT('',(-4.99999999999998,20.,86.6025403784439));
#802=CARTESIAN_POINT('Origin',(-4.99999999999998,0.,86.6025403784439));
#803=CARTESIAN_POINT('',(20.,20.,43.3012701892219));
#804=CARTESIAN_POINT('',(-4.99999999999998,20.,86.6025403784439));
#805=CARTESIAN_POINT('Origin',(20.,0.,43.3012701892219));
#806=CARTESIAN_POINT('Origin',(20.,0.,43.3012701892219));
#807=CARTESIAN_POINT('Origin',(-4.99999999999998,0.,86.6025403784439));
#808=CARTESIAN_POINT('Origin',(0.,0.,8.));
#809=CARTESIAN_POINT('Origin',(-78.,-9.55224503334935E-15,8.));
#810=CARTESIAN_POINT('Origin',(0.,0.,0.));
#811=UNCERTAINTY_MEASURE_WITH_UNIT(LENGTH_MEASURE(0.01),#815,
'DISTANCE_ACCURACY_VALUE',
'Maximum model space distance between geometric entities at asserted c
onnectivities');
#812=UNCERTAINTY_MEASURE_WITH_UNIT(LENGTH_MEASURE(0.01),#815,
'DISTANCE_ACCURACY_VALUE',
'Maximum model space distance between geometric entities at asserted c
onnectivities');
#813=(
GEOMETRIC_REPRESENTATION_CONTEXT(3)
GLOBAL_UNCERTAINTY_ASSIGNED_CONTEXT((#811))
GLOBAL_UNIT_ASSIGNED_CONTEXT((#815,#817,#818))
REPRESENTATION_CONTEXT('','3D')
);
#814=(
GEOMETRIC_REPRESENTATION_CONTEXT(3)
GLOBAL_UNCERTAINTY_ASSIGNED_CONTEXT((#812))
GLOBAL_UNIT_ASSIGNED_CONTEXT((#815,#817,#818))
REPRESENTATION_CONTEXT('','3D')
);
#815=(
LENGTH_UNIT()
NAMED_UNIT(*)
SI_UNIT(.MILLI.,.METRE.)
);
#816=(
LENGTH_UNIT()
NAMED_UNIT(*)
SI_UNIT($,.METRE.)
);
#817=(
NAMED_UNIT(*)
PLANE_ANGLE_UNIT()
SI_UNIT($,.RADIAN.)
);
#818=(
NAMED_UNIT(*)
SI_UNIT($,.STERADIAN.)
SOLID_ANGLE_UNIT()
);
#819=SHAPE_DEFINITION_REPRESENTATION(#820,#821);
#820=PRODUCT_DEFINITION_SHAPE('',$,#823);
#821=SHAPE_REPRESENTATION('',(#220),#813);
#822=PRODUCT_DEFINITION_CONTEXT('part definition',#827,'design');
#823=PRODUCT_DEFINITION('base-plate-simple-cable-hole',
'base-plate-simple-cable-hole v1',#824,#822);
#824=PRODUCT_DEFINITION_FORMATION('',$,#829);
#825=PRODUCT_RELATED_PRODUCT_CATEGORY('base-plate-simple-cable-hole v1',
'base-plate-simple-cable-hole v1',(#829));
#826=APPLICATION_PROTOCOL_DEFINITION('international standard',
'automotive_design',2009,#827);
#827=APPLICATION_CONTEXT(
'Core Data for Automotive Mechanical Design Process');
#828=PRODUCT_CONTEXT('part definition',#827,'mechanical');
#829=PRODUCT('base-plate-simple-cable-hole',
'base-plate-simple-cable-hole v1',$,(#828));
#830=PRESENTATION_STYLE_ASSIGNMENT((#831));
#831=SURFACE_STYLE_USAGE(.BOTH.,#832);
#832=SURFACE_SIDE_STYLE('',(#833));
#833=SURFACE_STYLE_FILL_AREA(#834);
#834=FILL_AREA_STYLE('Stahl - satiniert',(#835));
#835=FILL_AREA_STYLE_COLOUR('Stahl - satiniert',#836);
#836=COLOUR_RGB('Stahl - satiniert',0.627450980392157,0.627450980392157,
0.627450980392157);
ENDSEC;
END-ISO-10303-21;
