ISO-10303-21;
HEADER;
/* Generated by software containing ST-Developer
 * from STEP Tools, Inc. (www.steptools.com) 
 */

FILE_DESCRIPTION(
/* description */ (''),
/* implementation_level */ '2;1');

FILE_NAME(
/* name */ 'base-plate.step',
/* time_stamp */ '2026-08-16T20:20:22+02:00',
/* author */ (''),
/* organization */ (''),
/* preprocessor_version */ 'ST-DEVELOPER v20.1',
/* originating_system */ 'Autodesk Translation Framework v15.8.0.0',
/* authorisation */ '');

FILE_SCHEMA (('AUTOMOTIVE_DESIGN { 1 0 10303 214 3 1 1 }'));
ENDSEC;

DATA;
#10=MECHANICAL_DESIGN_GEOMETRIC_PRESENTATION_REPRESENTATION('',(#13),#488);
#11=SHAPE_REPRESENTATION_RELATIONSHIP('SRR','None',#495,#12);
#12=ADVANCED_BREP_SHAPE_REPRESENTATION('',(#14),#487);
#13=STYLED_ITEM('',(#504),#14);
#14=MANIFOLD_SOLID_BREP('K\X\F6rper1',#173);
#15=TOROIDAL_SURFACE('',#204,77.,3.);
#16=B_SPLINE_SURFACE_WITH_KNOTS('',3,3,((#304,#305,#306,#307,#308,#309,
#310,#311,#312,#313,#314,#315,#316,#317,#318,#319,#320,#321),(#322,#323,
#324,#325,#326,#327,#328,#329,#330,#331,#332,#333,#334,#335,#336,#337,#338,
#339),(#340,#341,#342,#343,#344,#345,#346,#347,#348,#349,#350,#351,#352,
#353,#354,#355,#356,#357),(#358,#359,#360,#361,#362,#363,#364,#365,#366,
#367,#368,#369,#370,#371,#372,#373,#374,#375),(#376,#377,#378,#379,#380,
#381,#382,#383,#384,#385,#386,#387,#388,#389,#390,#391,#392,#393),(#394,
#395,#396,#397,#398,#399,#400,#401,#402,#403,#404,#405,#406,#407,#408,#409,
#410,#411),(#412,#413,#414,#415,#416,#417,#418,#419,#420,#421,#422,#423,
#424,#425,#426,#427,#428,#429)),.UNSPECIFIED.,.F.,.F.,.F.,(4,1,1,1,4),(4,
1,1,1,1,1,1,1,1,1,1,1,1,1,1,4),(0.,0.285714285714286,0.571428571428571,
0.857142857142857,1.),(0.438747005856516,0.824867812675556,1.2109886194946,
1.59710942631364,1.98323023313267,2.24064410434537,2.75547184677075,3.01288571798345,
3.52771346040883,3.78512733162153,4.04254120283422,4.29995507404691,4.5573689452596,
5.07219668768499,5.45831749450403,5.84443830132307),.UNSPECIFIED.);
#17=B_SPLINE_SURFACE_WITH_KNOTS('',3,3,((#435,#436,#437,#438,#439,#440),
(#441,#442,#443,#444,#445,#446),(#447,#448,#449,#450,#451,#452),(#453,#454,
#455,#456,#457,#458),(#459,#460,#461,#462,#463,#464)),.UNSPECIFIED.,.F.,
 .F.,.F.,(4,1,4),(4,1,1,4),(0.,0.571428571428571,1.),(-3.14159265358975,
-0.448798950512821,1.34639685153846,3.14159265358975),.UNSPECIFIED.);
#18=B_SPLINE_CURVE_WITH_KNOTS('',3,(#291,#292,#293,#294,#295,#296),
 .UNSPECIFIED.,.F.,.F.,(4,1,1,4),(-3.14159265358975,-0.448798950512821,
1.34639685153846,3.14159265358975),.UNSPECIFIED.);
#19=B_SPLINE_CURVE_WITH_KNOTS('',3,(#465,#466,#467,#468,#469,#470),
 .UNSPECIFIED.,.F.,.F.,(4,1,1,4),(-3.14159265358975,-1.34639685153846,0.448798950512821,
3.14159265358975),.UNSPECIFIED.);
#20=FACE_BOUND('',#47,.T.);
#21=FACE_BOUND('',#54,.T.);
#22=FACE_BOUND('',#58,.T.);
#23=PLANE('',#193);
#24=PLANE('',#209);
#25=PLANE('',#212);
#26=PLANE('',#213);
#27=ELLIPSE('',#191,31.785741037977,23.);
#28=ELLIPSE('',#196,31.785741037977,23.);
#29=ELLIPSE('',#197,31.785741037977,23.);
#30=ELLIPSE('',#200,18.1865334794732,15.75);
#31=ELLIPSE('',#203,43.8786204584115,38.);
#32=FACE_OUTER_BOUND('',#44,.T.);
#33=FACE_OUTER_BOUND('',#45,.T.);
#34=FACE_OUTER_BOUND('',#46,.T.);
#35=FACE_OUTER_BOUND('',#48,.T.);
#36=FACE_OUTER_BOUND('',#49,.T.);
#37=FACE_OUTER_BOUND('',#50,.T.);
#38=FACE_OUTER_BOUND('',#51,.T.);
#39=FACE_OUTER_BOUND('',#52,.T.);
#40=FACE_OUTER_BOUND('',#53,.T.);
#41=FACE_OUTER_BOUND('',#55,.T.);
#42=FACE_OUTER_BOUND('',#56,.T.);
#43=FACE_OUTER_BOUND('',#57,.T.);
#44=EDGE_LOOP('',(#112,#113,#114,#115));
#45=EDGE_LOOP('',(#116,#117));
#46=EDGE_LOOP('',(#118,#119));
#47=EDGE_LOOP('',(#120));
#48=EDGE_LOOP('',(#121,#122,#123,#124));
#49=EDGE_LOOP('',(#125,#126,#127,#128));
#50=EDGE_LOOP('',(#129,#130,#131,#132,#133,#134));
#51=EDGE_LOOP('',(#135,#136,#137,#138));
#52=EDGE_LOOP('',(#139,#140,#141,#142,#143,#144));
#53=EDGE_LOOP('',(#145));
#54=EDGE_LOOP('',(#146));
#55=EDGE_LOOP('',(#147,#148,#149,#150));
#56=EDGE_LOOP('',(#151,#152,#153));
#57=EDGE_LOOP('',(#154));
#58=EDGE_LOOP('',(#155));
#59=LINE('',#278,#62);
#60=LINE('',#302,#63);
#61=LINE('',#481,#64);
#62=VECTOR('',#220,20.);
#63=VECTOR('',#243,15.75);
#64=VECTOR('',#266,80.);
#65=CIRCLE('',#188,20.);
#66=CIRCLE('',#189,20.);
#67=CIRCLE('',#192,23.);
#68=CIRCLE('',#194,23.);
#69=CIRCLE('',#199,15.75);
#70=CIRCLE('',#201,15.);
#71=CIRCLE('',#202,15.);
#72=CIRCLE('',#205,77.);
#73=CIRCLE('',#206,3.);
#74=CIRCLE('',#207,80.);
#75=CIRCLE('',#208,77.);
#76=CIRCLE('',#211,80.);
#77=VERTEX_POINT('',#275);
#78=VERTEX_POINT('',#277);
#79=VERTEX_POINT('',#281);
#80=VERTEX_POINT('',#282);
#81=VERTEX_POINT('',#288);
#82=VERTEX_POINT('',#290);
#83=VERTEX_POINT('',#299);
#84=VERTEX_POINT('',#301);
#85=VERTEX_POINT('',#430);
#86=VERTEX_POINT('',#432);
#87=VERTEX_POINT('',#472);
#88=VERTEX_POINT('',#474);
#89=VERTEX_POINT('',#480);
#90=EDGE_CURVE('',#77,#77,#65,.T.);
#91=EDGE_CURVE('',#77,#78,#59,.T.);
#92=EDGE_CURVE('',#78,#78,#66,.T.);
#93=EDGE_CURVE('',#79,#80,#27,.T.);
#94=EDGE_CURVE('',#79,#80,#67,.T.);
#95=EDGE_CURVE('',#80,#79,#68,.T.);
#96=EDGE_CURVE('',#81,#79,#28,.T.);
#97=EDGE_CURVE('',#82,#81,#18,.T.);
#98=EDGE_CURVE('',#80,#82,#29,.T.);
#99=EDGE_CURVE('',#83,#83,#69,.T.);
#100=EDGE_CURVE('',#83,#84,#60,.T.);
#101=EDGE_CURVE('',#84,#84,#30,.T.);
#102=EDGE_CURVE('',#85,#81,#70,.T.);
#103=EDGE_CURVE('',#82,#86,#71,.T.);
#104=EDGE_CURVE('',#86,#85,#31,.T.);
#105=EDGE_CURVE('',#85,#86,#19,.T.);
#106=EDGE_CURVE('',#85,#87,#72,.T.);
#107=EDGE_CURVE('',#87,#88,#73,.T.);
#108=EDGE_CURVE('',#88,#88,#74,.T.);
#109=EDGE_CURVE('',#87,#86,#75,.T.);
#110=EDGE_CURVE('',#88,#89,#61,.T.);
#111=EDGE_CURVE('',#89,#89,#76,.T.);
#112=ORIENTED_EDGE('',*,*,#90,.F.);
#113=ORIENTED_EDGE('',*,*,#91,.T.);
#114=ORIENTED_EDGE('',*,*,#92,.T.);
#115=ORIENTED_EDGE('',*,*,#91,.F.);
#116=ORIENTED_EDGE('',*,*,#93,.F.);
#117=ORIENTED_EDGE('',*,*,#94,.T.);
#118=ORIENTED_EDGE('',*,*,#95,.F.);
#119=ORIENTED_EDGE('',*,*,#94,.F.);
#120=ORIENTED_EDGE('',*,*,#92,.F.);
#121=ORIENTED_EDGE('',*,*,#95,.T.);
#122=ORIENTED_EDGE('',*,*,#96,.F.);
#123=ORIENTED_EDGE('',*,*,#97,.F.);
#124=ORIENTED_EDGE('',*,*,#98,.F.);
#125=ORIENTED_EDGE('',*,*,#99,.F.);
#126=ORIENTED_EDGE('',*,*,#100,.T.);
#127=ORIENTED_EDGE('',*,*,#101,.T.);
#128=ORIENTED_EDGE('',*,*,#100,.F.);
#129=ORIENTED_EDGE('',*,*,#102,.T.);
#130=ORIENTED_EDGE('',*,*,#96,.T.);
#131=ORIENTED_EDGE('',*,*,#93,.T.);
#132=ORIENTED_EDGE('',*,*,#98,.T.);
#133=ORIENTED_EDGE('',*,*,#103,.T.);
#134=ORIENTED_EDGE('',*,*,#104,.T.);
#135=ORIENTED_EDGE('',*,*,#102,.F.);
#136=ORIENTED_EDGE('',*,*,#105,.T.);
#137=ORIENTED_EDGE('',*,*,#103,.F.);
#138=ORIENTED_EDGE('',*,*,#97,.T.);
#139=ORIENTED_EDGE('',*,*,#105,.F.);
#140=ORIENTED_EDGE('',*,*,#106,.T.);
#141=ORIENTED_EDGE('',*,*,#107,.T.);
#142=ORIENTED_EDGE('',*,*,#108,.T.);
#143=ORIENTED_EDGE('',*,*,#107,.F.);
#144=ORIENTED_EDGE('',*,*,#109,.T.);
#145=ORIENTED_EDGE('',*,*,#90,.T.);
#146=ORIENTED_EDGE('',*,*,#99,.T.);
#147=ORIENTED_EDGE('',*,*,#108,.F.);
#148=ORIENTED_EDGE('',*,*,#110,.T.);
#149=ORIENTED_EDGE('',*,*,#111,.T.);
#150=ORIENTED_EDGE('',*,*,#110,.F.);
#151=ORIENTED_EDGE('',*,*,#104,.F.);
#152=ORIENTED_EDGE('',*,*,#109,.F.);
#153=ORIENTED_EDGE('',*,*,#106,.F.);
#154=ORIENTED_EDGE('',*,*,#111,.F.);
#155=ORIENTED_EDGE('',*,*,#101,.F.);
#156=CYLINDRICAL_SURFACE('',#187,20.);
#157=CYLINDRICAL_SURFACE('',#190,23.);
#158=CYLINDRICAL_SURFACE('',#195,23.);
#159=CYLINDRICAL_SURFACE('',#198,15.75);
#160=CYLINDRICAL_SURFACE('',#210,80.);
#161=ADVANCED_FACE('',(#32),#156,.T.);
#162=ADVANCED_FACE('',(#33),#157,.F.);
#163=ADVANCED_FACE('',(#34,#20),#23,.T.);
#164=ADVANCED_FACE('',(#35),#158,.T.);
#165=ADVANCED_FACE('',(#36),#159,.F.);
#166=ADVANCED_FACE('',(#37),#16,.T.);
#167=ADVANCED_FACE('',(#38),#17,.T.);
#168=ADVANCED_FACE('',(#39),#15,.T.);
#169=ADVANCED_FACE('',(#40,#21),#24,.F.);
#170=ADVANCED_FACE('',(#41),#160,.T.);
#171=ADVANCED_FACE('',(#42),#25,.T.);
#172=ADVANCED_FACE('',(#43,#22),#26,.F.);
#173=CLOSED_SHELL('',(#161,#162,#163,#164,#165,#166,#167,#168,#169,#170,
#171,#172));
#174=DERIVED_UNIT_ELEMENT(#176,1.);
#175=DERIVED_UNIT_ELEMENT(#490,-3.);
#176=(
MASS_UNIT()
NAMED_UNIT(*)
SI_UNIT(.KILO.,.GRAM.)
);
#177=DERIVED_UNIT((#174,#175));
#178=MEASURE_REPRESENTATION_ITEM('density measure',
POSITIVE_RATIO_MEASURE(7850.),#177);
#179=PROPERTY_DEFINITION_REPRESENTATION(#184,#181);
#180=PROPERTY_DEFINITION_REPRESENTATION(#185,#182);
#181=REPRESENTATION('material name',(#183),#487);
#182=REPRESENTATION('density',(#178),#487);
#183=DESCRIPTIVE_REPRESENTATION_ITEM('Stahl','Stahl');
#184=PROPERTY_DEFINITION('material property','material name',#497);
#185=PROPERTY_DEFINITION('material property','density of part',#497);
#186=AXIS2_PLACEMENT_3D('',#273,#214,#215);
#187=AXIS2_PLACEMENT_3D('',#274,#216,#217);
#188=AXIS2_PLACEMENT_3D('',#276,#218,#219);
#189=AXIS2_PLACEMENT_3D('',#279,#221,#222);
#190=AXIS2_PLACEMENT_3D('',#280,#223,#224);
#191=AXIS2_PLACEMENT_3D('',#283,#225,#226);
#192=AXIS2_PLACEMENT_3D('',#284,#227,#228);
#193=AXIS2_PLACEMENT_3D('',#285,#229,#230);
#194=AXIS2_PLACEMENT_3D('',#286,#231,#232);
#195=AXIS2_PLACEMENT_3D('',#287,#233,#234);
#196=AXIS2_PLACEMENT_3D('',#289,#235,#236);
#197=AXIS2_PLACEMENT_3D('',#297,#237,#238);
#198=AXIS2_PLACEMENT_3D('',#298,#239,#240);
#199=AXIS2_PLACEMENT_3D('',#300,#241,#242);
#200=AXIS2_PLACEMENT_3D('',#303,#244,#245);
#201=AXIS2_PLACEMENT_3D('',#431,#246,#247);
#202=AXIS2_PLACEMENT_3D('',#433,#248,#249);
#203=AXIS2_PLACEMENT_3D('',#434,#250,#251);
#204=AXIS2_PLACEMENT_3D('',#471,#252,#253);
#205=AXIS2_PLACEMENT_3D('',#473,#254,#255);
#206=AXIS2_PLACEMENT_3D('',#475,#256,#257);
#207=AXIS2_PLACEMENT_3D('',#476,#258,#259);
#208=AXIS2_PLACEMENT_3D('',#477,#260,#261);
#209=AXIS2_PLACEMENT_3D('',#478,#262,#263);
#210=AXIS2_PLACEMENT_3D('',#479,#264,#265);
#211=AXIS2_PLACEMENT_3D('',#482,#267,#268);
#212=AXIS2_PLACEMENT_3D('',#483,#269,#270);
#213=AXIS2_PLACEMENT_3D('',#484,#271,#272);
#214=DIRECTION('axis',(0.,0.,1.));
#215=DIRECTION('refdir',(1.,0.,0.));
#216=DIRECTION('center_axis',(0.5,0.,-0.866025403784439));
#217=DIRECTION('ref_axis',(0.,-1.,0.));
#218=DIRECTION('center_axis',(-0.5,0.,0.866025403784439));
#219=DIRECTION('ref_axis',(0.,-1.,0.));
#220=DIRECTION('',(0.499999999999999,0.,-0.866025403784439));
#221=DIRECTION('center_axis',(-0.5,0.,0.866025403784439));
#222=DIRECTION('ref_axis',(0.,-1.,0.));
#223=DIRECTION('center_axis',(0.5,0.,-0.866025403784439));
#224=DIRECTION('ref_axis',(0.,-1.,0.));
#225=DIRECTION('center_axis',(-0.235954857589733,-1.87630397639855E-16,
-0.971764017228364));
#226=DIRECTION('ref_axis',(0.971764017228364,0.,-0.235954857589733));
#227=DIRECTION('center_axis',(0.5,0.,-0.866025403784439));
#228=DIRECTION('ref_axis',(0.,-1.,0.));
#229=DIRECTION('center_axis',(-0.5,0.,0.866025403784439));
#230=DIRECTION('ref_axis',(0.,-1.,0.));
#231=DIRECTION('center_axis',(0.5,0.,-0.866025403784439));
#232=DIRECTION('ref_axis',(0.,1.,0.));
#233=DIRECTION('center_axis',(0.5,0.,-0.866025403784439));
#234=DIRECTION('ref_axis',(0.866025403784439,-6.04901474817726E-16,0.5));
#235=DIRECTION('center_axis',(-0.235954857589733,-1.87630397639855E-16,
-0.971764017228364));
#236=DIRECTION('ref_axis',(0.971764017228364,0.,-0.235954857589733));
#237=DIRECTION('center_axis',(-0.235954857589733,-1.87630397639855E-16,
-0.971764017228364));
#238=DIRECTION('ref_axis',(0.971764017228364,0.,-0.235954857589733));
#239=DIRECTION('center_axis',(0.5,0.,-0.866025403784439));
#240=DIRECTION('ref_axis',(0.,-1.,0.));
#241=DIRECTION('center_axis',(0.5,0.,-0.866025403784439));
#242=DIRECTION('ref_axis',(0.,-1.,0.));
#243=DIRECTION('',(0.5,0.,-0.866025403784439));
#244=DIRECTION('center_axis',(0.,0.,-1.));
#245=DIRECTION('ref_axis',(-1.,0.,0.));
#246=DIRECTION('center_axis',(0.476403737942152,0.879226636581687,1.30151687439563E-16));
#247=DIRECTION('ref_axis',(0.,1.48029736616688E-16,-1.));
#248=DIRECTION('center_axis',(0.476403737942152,-0.879226636581687,1.30151687439563E-16));
#249=DIRECTION('ref_axis',(-0.783999506728203,-0.424805482466088,-0.452642326254063));
#250=DIRECTION('center_axis',(0.,0.,1.));
#251=DIRECTION('ref_axis',(1.,0.,0.));
#252=DIRECTION('center_axis',(0.,0.,1.));
#253=DIRECTION('ref_axis',(1.,0.,0.));
#254=DIRECTION('center_axis',(0.,0.,-1.));
#255=DIRECTION('ref_axis',(1.,0.,0.));
#256=DIRECTION('center_axis',(1.22464679914735E-16,-1.,0.));
#257=DIRECTION('ref_axis',(-1.,-1.22464679914735E-16,0.));
#258=DIRECTION('center_axis',(0.,0.,1.));
#259=DIRECTION('ref_axis',(1.,0.,0.));
#260=DIRECTION('center_axis',(0.,0.,-1.));
#261=DIRECTION('ref_axis',(1.,0.,0.));
#262=DIRECTION('center_axis',(0.5,0.,-0.866025403784439));
#263=DIRECTION('ref_axis',(0.,1.,0.));
#264=DIRECTION('center_axis',(0.,0.,1.));
#265=DIRECTION('ref_axis',(1.,0.,0.));
#266=DIRECTION('',(0.,0.,-1.));
#267=DIRECTION('center_axis',(0.,0.,1.));
#268=DIRECTION('ref_axis',(1.,0.,0.));
#269=DIRECTION('center_axis',(0.,0.,1.));
#270=DIRECTION('ref_axis',(1.,0.,0.));
#271=DIRECTION('center_axis',(0.,0.,1.));
#272=DIRECTION('ref_axis',(1.,0.,0.));
#273=CARTESIAN_POINT('',(0.,0.,0.));
#274=CARTESIAN_POINT('Origin',(-4.44089209850063E-15,0.,86.6025403784439));
#275=CARTESIAN_POINT('',(-4.44089209850063E-15,20.,86.6025403784439));
#276=CARTESIAN_POINT('Origin',(-5.55111512312578E-15,0.,86.6025403784439));
#277=CARTESIAN_POINT('',(25.,20.,43.3012701892219));
#278=CARTESIAN_POINT('',(-2.31974162105081E-15,20.,86.6025403784439));
#279=CARTESIAN_POINT('Origin',(25.,0.,43.3012701892219));
#280=CARTESIAN_POINT('Origin',(-4.44089209850063E-15,0.,86.6025403784439));
#281=CARTESIAN_POINT('',(5.81392669347635,-6.18003139978026,32.2241856010087));
#282=CARTESIAN_POINT('',(5.81392669347635,6.18003139978028,32.2241856010087));
#283=CARTESIAN_POINT('Origin',(35.5662432702593,0.,25.));
#284=CARTESIAN_POINT('Origin',(25.,0.,43.3012701892219));
#285=CARTESIAN_POINT('Origin',(25.,0.,43.3012701892219));
#286=CARTESIAN_POINT('Origin',(25.,0.,43.3012701892219));
#287=CARTESIAN_POINT('Origin',(-8.88178419700125E-15,0.,86.6025403784439));
#288=CARTESIAN_POINT('',(63.5288923435652,-9.77052609672002,18.2103651061891));
#289=CARTESIAN_POINT('Origin',(35.5662432702593,0.,25.));
#290=CARTESIAN_POINT('',(63.5288923435652,9.77052609672002,18.2103651061891));
#291=CARTESIAN_POINT('Ctrl Pts',(63.5288923435652,9.77052609672003,18.2103651061891));
#292=CARTESIAN_POINT('Ctrl Pts',(65.1454376849623,7.2053474479704,17.8178503402024));
#293=CARTESIAN_POINT('Ctrl Pts',(66.950524452227,2.4685027984656,17.1739096722074));
#294=CARTESIAN_POINT('Ctrl Pts',(66.2982735535059,-4.40892968400386,17.4196308643198));
#295=CARTESIAN_POINT('Ctrl Pts',(64.60658923783,-8.06040699755344,17.9486885955313));
#296=CARTESIAN_POINT('Ctrl Pts',(63.5288923435652,-9.77052609672003,18.2103651061891));
#297=CARTESIAN_POINT('Origin',(35.5662432702593,0.,25.));
#298=CARTESIAN_POINT('Origin',(-8.88178419700125E-15,0.,86.6025403784439));
#299=CARTESIAN_POINT('',(-8.88178419700125E-15,15.75,86.6025403784439));
#300=CARTESIAN_POINT('Origin',(-8.88178419700125E-15,0.,86.6025403784439));
#301=CARTESIAN_POINT('',(49.9999999999999,15.75,0.));
#302=CARTESIAN_POINT('',(-7.21137819600952E-15,15.75,86.6025403784439));
#303=CARTESIAN_POINT('Origin',(49.9999999999999,0.,0.));
#304=CARTESIAN_POINT('Ctrl Pts',(75.2888849444883,-16.1426083337113,10.));
#305=CARTESIAN_POINT('Ctrl Pts',(72.8898032983307,-20.5702320457908,10.));
#306=CARTESIAN_POINT('Ctrl Pts',(66.0940137605116,-28.6129038648657,10.));
#307=CARTESIAN_POINT('Ctrl Pts',(51.4066957053161,-36.4611587596592,10.));
#308=CARTESIAN_POINT('Ctrl Pts',(34.3793000145399,-38.9452596713839,10.));
#309=CARTESIAN_POINT('Ctrl Pts',(19.4138774425549,-36.0478801941191,10.));
#310=CARTESIAN_POINT('Ctrl Pts',(4.75495685188044,-28.430719270782,10.));
#311=CARTESIAN_POINT('Ctrl Pts',(-4.57305507891803,-17.6596501439646,10.));
#312=CARTESIAN_POINT('Ctrl Pts',(-9.40955952336434,-1.74673953529569,9.99999999999999));
#313=CARTESIAN_POINT('Ctrl Pts',(-7.42159211460315,11.6089126319341,10.));
#314=CARTESIAN_POINT('Ctrl Pts',(0.0799854178276233,23.053515260466,10.));
#315=CARTESIAN_POINT('Ctrl Pts',(8.01720965140429,30.1218024752992,10.));
#316=CARTESIAN_POINT('Ctrl Pts',(17.7833281133999,35.1953316328909,10.));
#317=CARTESIAN_POINT('Ctrl Pts',(32.3610910741924,38.8970569999428,10.));
#318=CARTESIAN_POINT('Ctrl Pts',(49.7729202432048,37.3475170767198,10.));
#319=CARTESIAN_POINT('Ctrl Pts',(66.0946628788883,28.6054987890689,10.));
#320=CARTESIAN_POINT('Ctrl Pts',(72.8898032983307,20.5702320457909,10.));
#321=CARTESIAN_POINT('Ctrl Pts',(75.2888849444883,16.1426083337113,10.));
#322=CARTESIAN_POINT('Ctrl Pts',(73.9058992054261,-15.3932457141125,10.));
#323=CARTESIAN_POINT('Ctrl Pts',(71.5733637622505,-19.6061442676673,9.99995399752999));
#324=CARTESIAN_POINT('Ctrl Pts',(64.9698094762593,-27.2324610875686,10.0000588482165));
#325=CARTESIAN_POINT('Ctrl Pts',(50.7577069109132,-34.5429855081627,10.0001587389068));
#326=CARTESIAN_POINT('Ctrl Pts',(34.3993537182128,-36.6397363224439,10.0000941363582));
#327=CARTESIAN_POINT('Ctrl Pts',(20.1964981773034,-33.6285604745719,10.0002587693628));
#328=CARTESIAN_POINT('Ctrl Pts',(6.49174637408166,-26.2131896623424,9.99973584544071));
#329=CARTESIAN_POINT('Ctrl Pts',(-1.99371384153131,-16.0960495621461,9.99983469070767));
#330=CARTESIAN_POINT('Ctrl Pts',(-6.29114500621859,-1.57238381101714,9.99977252772807));
#331=CARTESIAN_POINT('Ctrl Pts',(-4.54580755738939,10.5297670771868,9.99960839736421));
#332=CARTESIAN_POINT('Ctrl Pts',(2.23478414080506,21.1587794896689,9.99991621944588));
#333=CARTESIAN_POINT('Ctrl Pts',(9.54360422567683,27.8612481145612,10.0002069792332));
#334=CARTESIAN_POINT('Ctrl Pts',(18.6720134321316,32.7972477692269,10.0000430115382));
#335=CARTESIAN_POINT('Ctrl Pts',(32.4684966418817,36.5564139526232,10.0001258119772));
#336=CARTESIAN_POINT('Ctrl Pts',(49.1755100029548,35.3698604126249,10.0001397777571));
#337=CARTESIAN_POINT('Ctrl Pts',(64.9710705302955,27.2248647649402,10.0000970177567));
#338=CARTESIAN_POINT('Ctrl Pts',(71.5733637622505,19.6061442676673,9.99995399752999));
#339=CARTESIAN_POINT('Ctrl Pts',(73.9058992054261,15.3932457141125,10.));
#340=CARTESIAN_POINT('Ctrl Pts',(71.1401683906321,-13.894650876913,10.4988897351613));
#341=CARTESIAN_POINT('Ctrl Pts',(68.9407219294717,-17.678090294678,10.5268893569334));
#342=CARTESIAN_POINT('Ctrl Pts',(62.7217547067276,-24.4720183589594,10.6071903104148));
#343=CARTESIAN_POINT('Ctrl Pts',(49.4597701085219,-30.7075378424968,10.7942438157176));
#344=CARTESIAN_POINT('Ctrl Pts',(34.4394526792706,-32.0304758955391,11.0359129776232));
#345=CARTESIAN_POINT('Ctrl Pts',(21.7602755629723,-28.7923500039473,11.2797794852016));
#346=CARTESIAN_POINT('Ctrl Pts',(9.96325221901184,-21.7812713142341,11.5507742998797));
#347=CARTESIAN_POINT('Ctrl Pts',(3.16032769404149,-12.9708210325107,11.7541397831694));
#348=CARTESIAN_POINT('Ctrl Pts',(-0.0602584649329286,-1.22403541890123,
11.8702645949256));
#349=CARTESIAN_POINT('Ctrl Pts',(1.20091385167522,8.37339857587352,11.8202801542636));
#350=CARTESIAN_POINT('Ctrl Pts',(6.54081758758351,17.3721716353348,11.6523384643656));
#351=CARTESIAN_POINT('Ctrl Pts',(12.5936080013018,23.3429226715618,11.4905728373935));
#352=CARTESIAN_POINT('Ctrl Pts',(20.4481951242627,28.0036072411965,11.3100364323814));
#353=CARTESIAN_POINT('Ctrl Pts',(32.6830052257066,31.8768796180905,11.0662188554951));
#354=CARTESIAN_POINT('Ctrl Pts',(47.9808956131988,31.4155782802184,10.8147990502212));
#355=CARTESIAN_POINT('Ctrl Pts',(62.724140399113,24.4640336987989,10.6073132666807));
#356=CARTESIAN_POINT('Ctrl Pts',(68.9407219294717,17.678090294678,10.5268893569334));
#357=CARTESIAN_POINT('Ctrl Pts',(71.1401683906321,13.894650876913,10.4988897351613));
#358=CARTESIAN_POINT('Ctrl Pts',(67.3984621558246,-11.8672295473294,12.6705516991524));
#359=CARTESIAN_POINT('Ctrl Pts',(65.4015486968535,-15.0819061419665,12.8164235275276));
#360=CARTESIAN_POINT('Ctrl Pts',(59.7619575969592,-20.8063253350754,13.2334955674871));
#361=CARTESIAN_POINT('Ctrl Pts',(47.8370815251655,-25.8238803967663,14.1887854226158));
#362=CARTESIAN_POINT('Ctrl Pts',(34.5258411292106,-26.4871905075666,15.3936810825793));
#363=CARTESIAN_POINT('Ctrl Pts',(23.5641268015989,-23.3188817271064,16.5744431988058));
#364=CARTESIAN_POINT('Ctrl Pts',(13.6852011190173,-17.1116791703447,17.8527553887237));
#365=CARTESIAN_POINT('Ctrl Pts',(8.35306008717765,-9.87221650453236,18.7822830604592));
#366=CARTESIAN_POINT('Ctrl Pts',(5.99488146347958,-0.89695961607973,19.3033919825748));
#367=CARTESIAN_POINT('Ctrl Pts',(6.88068398239538,6.28250037083588,19.0807937345404));
#368=CARTESIAN_POINT('Ctrl Pts',(10.9960706586695,13.4825318188276,18.3173836160632));
#369=CARTESIAN_POINT('Ctrl Pts',(15.8905092956238,18.4970169969327,17.5688071126895));
#370=CARTESIAN_POINT('Ctrl Pts',(22.4656409295704,22.618658034822,16.7170272245993));
#371=CARTESIAN_POINT('Ctrl Pts',(32.9827911239617,26.2931569507969,15.54308477266));
#372=CARTESIAN_POINT('Ctrl Pts',(46.5052066374508,26.3956216417947,14.2940089396144));
#373=CARTESIAN_POINT('Ctrl Pts',(59.7651566185865,20.7987614717634,13.2339905034243));
#374=CARTESIAN_POINT('Ctrl Pts',(65.4015486968535,15.0819061419665,12.8164235275276));
#375=CARTESIAN_POINT('Ctrl Pts',(67.3984621558246,11.8672295473294,12.6705516991524));
#376=CARTESIAN_POINT('Ctrl Pts',(64.9260929047171,-10.5275909333536,15.4888628628714));
#377=CARTESIAN_POINT('Ctrl Pts',(63.1007036971882,-13.3868265479698,15.7767402362309));
#378=CARTESIAN_POINT('Ctrl Pts',(57.9425628715624,-18.5001330149112,16.596345232781));
#379=CARTESIAN_POINT('Ctrl Pts',(46.9820269687242,-23.0992297595597,18.4251277474709));
#380=CARTESIAN_POINT('Ctrl Pts',(34.6307016452829,-23.935409335071,20.6472688460877));
#381=CARTESIAN_POINT('Ctrl Pts',(24.2634255783891,-21.3712598440848,22.723703046424));
#382=CARTESIAN_POINT('Ctrl Pts',(14.6564467588161,-16.0387846453817,24.8782757447159));
#383=CARTESIAN_POINT('Ctrl Pts',(9.13247772907737,-9.49401019749109,26.3608424673662));
#384=CARTESIAN_POINT('Ctrl Pts',(6.51070886461309,-0.890302403058864,27.1661635502939));
#385=CARTESIAN_POINT('Ctrl Pts',(7.53847851531665,6.11374581059916,26.8273960466017));
#386=CARTESIAN_POINT('Ctrl Pts',(11.8782035914353,12.7618806090051,25.6201329947596));
#387=CARTESIAN_POINT('Ctrl Pts',(16.7979539131608,17.2272493495762,24.398978615995));
#388=CARTESIAN_POINT('Ctrl Pts',(23.1955575879795,20.7710691455512,22.9639215916464));
#389=CARTESIAN_POINT('Ctrl Pts',(33.1905959997284,23.7983548227768,20.917461053227));
#390=CARTESIAN_POINT('Ctrl Pts',(45.7591667560174,23.6217554849497,18.6275252169285));
#391=CARTESIAN_POINT('Ctrl Pts',(57.9448683599456,18.4940563962024,16.5967910869276));
#392=CARTESIAN_POINT('Ctrl Pts',(63.1007036971882,13.3868265479698,15.7767402362309));
#393=CARTESIAN_POINT('Ctrl Pts',(64.9260929047171,10.5275909333536,15.4888628628714));
#394=CARTESIAN_POINT('Ctrl Pts',(63.8418912846179,-9.94012271639154,17.5090683629902));
#395=CARTESIAN_POINT('Ctrl Pts',(62.1191144243095,-12.658410696747,17.8887040191827));
#396=CARTESIAN_POINT('Ctrl Pts',(57.2427071772389,-17.5726310286886,18.9653981744632));
#397=CARTESIAN_POINT('Ctrl Pts',(46.7585034606211,-22.2568553354383,21.3113695714351));
#398=CARTESIAN_POINT('Ctrl Pts',(34.7053019454465,-23.5652405111634,24.0639329812866));
#399=CARTESIAN_POINT('Ctrl Pts',(24.2486162124373,-21.595091209263,26.522571393183));
#400=CARTESIAN_POINT('Ctrl Pts',(14.1547804515516,-16.8086130599165,28.9680217253425));
#401=CARTESIAN_POINT('Ctrl Pts',(7.89050548198801,-10.315354013363,30.5586950731109));
#402=CARTESIAN_POINT('Ctrl Pts',(4.70593657295018,-1.00720726024567,31.3943459242293));
#403=CARTESIAN_POINT('Ctrl Pts',(6.0014829142703,6.74661235468008,31.0484041201479));
#404=CARTESIAN_POINT('Ctrl Pts',(11.0129209090627,13.5642129145925,29.7649582595143));
#405=CARTESIAN_POINT('Ctrl Pts',(16.4024973741228,17.8727072084551,28.4240697858001));
#406=CARTESIAN_POINT('Ctrl Pts',(23.125897135645,21.0584374007539,26.7946749026844));
#407=CARTESIAN_POINT('Ctrl Pts',(33.283647815183,23.5061234791026,24.3924556987449));
#408=CARTESIAN_POINT('Ctrl Pts',(45.5911109396415,22.786608909866,21.5719409380747));
#409=CARTESIAN_POINT('Ctrl Pts',(57.2437547181254,17.5677664888905,18.9654921429081));
#410=CARTESIAN_POINT('Ctrl Pts',(62.1191144243095,12.658410696747,17.8887040191827));
#411=CARTESIAN_POINT('Ctrl Pts',(63.8418912846179,9.94012271639155,17.5090683629902));
#412=CARTESIAN_POINT('Ctrl Pts',(63.5288923435652,-9.77052609672001,18.2103651061891));
#413=CARTESIAN_POINT('Ctrl Pts',(61.8400651321254,-12.4504036066629,18.6204306952665));
#414=CARTESIAN_POINT('Ctrl Pts',(57.0561869706343,-17.3183365497872,19.7820082699751));
#415=CARTESIAN_POINT('Ctrl Pts',(46.7170880765164,-22.0685960913727,22.2924537731188));
#416=CARTESIAN_POINT('Ctrl Pts',(34.7306976889305,-23.5721308537324,25.202879541902));
#417=CARTESIAN_POINT('Ctrl Pts',(24.1958278520727,-21.8184538017036,27.7608603561865));
#418=CARTESIAN_POINT('Ctrl Pts',(13.8767192783742,-17.2080669270523,30.26645199242));
#419=CARTESIAN_POINT('Ctrl Pts',(7.31028982708843,-10.6887356134523,31.860852380356));
#420=CARTESIAN_POINT('Ctrl Pts',(3.90564525106373,-1.05723708715265,32.687537060831));
#421=CARTESIAN_POINT('Ctrl Pts',(5.30506967696799,7.02644711932851,32.3477416112489));
#422=CARTESIAN_POINT('Ctrl Pts',(10.5857854399291,13.9534434471241,31.0655264708127));
#423=CARTESIAN_POINT('Ctrl Pts',(16.1731735517232,18.2316172876811,29.70884795335));
#424=CARTESIAN_POINT('Ctrl Pts',(23.0480069427333,21.3024375672761,28.0395637393125));
#425=CARTESIAN_POINT('Ctrl Pts',(33.3099848164491,23.5429555525969,25.5478440575242));
#426=CARTESIAN_POINT('Ctrl Pts',(45.5669961393723,22.605076125383,22.5717085864611));
#427=CARTESIAN_POINT('Ctrl Pts',(57.0566439158074,17.3138545302259,19.7818973187243));
#428=CARTESIAN_POINT('Ctrl Pts',(61.8400651321253,12.4504036066629,18.6204306952665));
#429=CARTESIAN_POINT('Ctrl Pts',(63.5288923435652,9.77052609672002,18.2103651061891));
#430=CARTESIAN_POINT('',(75.2888849444883,-16.1426083337113,10.));
#431=CARTESIAN_POINT('Origin',(75.2888849444883,-16.1426083337113,25.));
#432=CARTESIAN_POINT('',(75.2888849444883,16.1426083337113,10.));
#433=CARTESIAN_POINT('Origin',(75.2888849444883,16.1426083337113,25.));
#434=CARTESIAN_POINT('Origin',(35.5662432702593,0.,10.));
#435=CARTESIAN_POINT('Ctrl Pts',(75.2888849444883,16.1426083337113,10.));
#436=CARTESIAN_POINT('Ctrl Pts',(76.4796866156722,11.6674367627537,10.));
#437=CARTESIAN_POINT('Ctrl Pts',(77.6825798051071,3.93512704615649,9.96013746090421));
#438=CARTESIAN_POINT('Ctrl Pts',(77.2558650842142,-7.05890669964757,9.97706896836439));
#439=CARTESIAN_POINT('Ctrl Pts',(76.0827527252776,-13.1591606197396,10.));
#440=CARTESIAN_POINT('Ctrl Pts',(75.2888849444883,-16.1426083337113,10.));
#441=CARTESIAN_POINT('Ctrl Pts',(72.5229134663638,14.6438830945137,10.));
#442=CARTESIAN_POINT('Ctrl Pts',(73.7844281715898,10.6493033751092,10.2317738040153));
#443=CARTESIAN_POINT('Ctrl Pts',(75.1633077652706,3.61011172333993,10.3619993044024));
#444=CARTESIAN_POINT('Ctrl Pts',(74.6676765728488,-6.46666417755009,10.3221055306941));
#445=CARTESIAN_POINT('Ctrl Pts',(73.3639232698478,-11.980829948244,10.1545158693435));
#446=CARTESIAN_POINT('Ctrl Pts',(72.5229134663638,-14.6438830945137,10.));
#447=CARTESIAN_POINT('Ctrl Pts',(67.694470308092,12.0276198088776,11.7908254574976));
#448=CARTESIAN_POINT('Ctrl Pts',(69.2060135343598,8.8951620272123,12.0731110969321));
#449=CARTESIAN_POINT('Ctrl Pts',(70.9357528583513,3.05094885444956,12.1792214062305));
#450=CARTESIAN_POINT('Ctrl Pts',(70.3097432572582,-5.44786052059512,12.1543579883555));
#451=CARTESIAN_POINT('Ctrl Pts',(68.7021657922706,-9.93931462110062,11.9790158837873));
#452=CARTESIAN_POINT('Ctrl Pts',(67.694470308092,-12.0276198088776,11.7908254574976));
#453=CARTESIAN_POINT('Ctrl Pts',(64.4678891667232,10.2793159557346,16.1064748765926));
#454=CARTESIAN_POINT('Ctrl Pts',(66.0943346401313,7.62065545543994,15.9389911118182));
#455=CARTESIAN_POINT('Ctrl Pts',(67.9266550497175,2.61806867362849,15.5493838969697));
#456=CARTESIAN_POINT('Ctrl Pts',(67.2639402461266,-4.67296078425728,15.7032242826517));
#457=CARTESIAN_POINT('Ctrl Pts',(65.5521861489953,-8.50687562220468,15.9948190334097));
#458=CARTESIAN_POINT('Ctrl Pts',(64.4678891667232,-10.2793159557346,16.1064748765926));
#459=CARTESIAN_POINT('Ctrl Pts',(63.5288923435652,9.77052609672003,18.2103651061891));
#460=CARTESIAN_POINT('Ctrl Pts',(65.1454376849623,7.2053474479704,17.8178503402024));
#461=CARTESIAN_POINT('Ctrl Pts',(66.950524452227,2.4685027984656,17.1739096722074));
#462=CARTESIAN_POINT('Ctrl Pts',(66.2982735535059,-4.40892968400386,17.4196308643198));
#463=CARTESIAN_POINT('Ctrl Pts',(64.60658923783,-8.06040699755344,17.9486885955313));
#464=CARTESIAN_POINT('Ctrl Pts',(63.5288923435652,-9.77052609672003,18.2103651061891));
#465=CARTESIAN_POINT('Ctrl Pts',(75.2888849444883,-16.1426083337113,10.));
#466=CARTESIAN_POINT('Ctrl Pts',(76.0827527252776,-13.1591606197396,10.));
#467=CARTESIAN_POINT('Ctrl Pts',(77.2558650842142,-7.05890669964757,9.97706896836439));
#468=CARTESIAN_POINT('Ctrl Pts',(77.6825798051071,3.93512704615649,9.96013746090421));
#469=CARTESIAN_POINT('Ctrl Pts',(76.4796866156722,11.6674367627537,10.));
#470=CARTESIAN_POINT('Ctrl Pts',(75.2888849444883,16.1426083337113,10.));
#471=CARTESIAN_POINT('Origin',(0.,0.,7.));
#472=CARTESIAN_POINT('',(-77.,-9.42978035343462E-15,10.));
#473=CARTESIAN_POINT('Origin',(0.,0.,10.));
#474=CARTESIAN_POINT('',(-80.,-9.79717439317883E-15,7.));
#475=CARTESIAN_POINT('Origin',(-77.,-9.42978035343462E-15,7.));
#476=CARTESIAN_POINT('Origin',(0.,0.,7.));
#477=CARTESIAN_POINT('Origin',(0.,0.,10.));
#478=CARTESIAN_POINT('Origin',(-8.88178419700125E-15,0.,86.6025403784439));
#479=CARTESIAN_POINT('Origin',(0.,0.,0.));
#480=CARTESIAN_POINT('',(-80.,-9.79717439317883E-15,0.));
#481=CARTESIAN_POINT('',(-80.,-9.79717439317883E-15,0.));
#482=CARTESIAN_POINT('Origin',(0.,0.,0.));
#483=CARTESIAN_POINT('Origin',(0.,0.,10.));
#484=CARTESIAN_POINT('Origin',(0.,0.,0.));
#485=UNCERTAINTY_MEASURE_WITH_UNIT(LENGTH_MEASURE(0.01),#489,
'DISTANCE_ACCURACY_VALUE',
'Maximum model space distance between geometric entities at asserted c
onnectivities');
#486=UNCERTAINTY_MEASURE_WITH_UNIT(LENGTH_MEASURE(0.01),#489,
'DISTANCE_ACCURACY_VALUE',
'Maximum model space distance between geometric entities at asserted c
onnectivities');
#487=(
GEOMETRIC_REPRESENTATION_CONTEXT(3)
GLOBAL_UNCERTAINTY_ASSIGNED_CONTEXT((#485))
GLOBAL_UNIT_ASSIGNED_CONTEXT((#489,#491,#492))
REPRESENTATION_CONTEXT('','3D')
);
#488=(
GEOMETRIC_REPRESENTATION_CONTEXT(3)
GLOBAL_UNCERTAINTY_ASSIGNED_CONTEXT((#486))
GLOBAL_UNIT_ASSIGNED_CONTEXT((#489,#491,#492))
REPRESENTATION_CONTEXT('','3D')
);
#489=(
LENGTH_UNIT()
NAMED_UNIT(*)
SI_UNIT(.MILLI.,.METRE.)
);
#490=(
LENGTH_UNIT()
NAMED_UNIT(*)
SI_UNIT($,.METRE.)
);
#491=(
NAMED_UNIT(*)
PLANE_ANGLE_UNIT()
SI_UNIT($,.RADIAN.)
);
#492=(
NAMED_UNIT(*)
SI_UNIT($,.STERADIAN.)
SOLID_ANGLE_UNIT()
);
#493=SHAPE_DEFINITION_REPRESENTATION(#494,#495);
#494=PRODUCT_DEFINITION_SHAPE('',$,#497);
#495=SHAPE_REPRESENTATION('',(#186),#487);
#496=PRODUCT_DEFINITION_CONTEXT('part definition',#501,'design');
#497=PRODUCT_DEFINITION('alkane lamp foot','alkane lamp foot v1',#498,#496);
#498=PRODUCT_DEFINITION_FORMATION('',$,#503);
#499=PRODUCT_RELATED_PRODUCT_CATEGORY('alkane lamp foot v1',
'alkane lamp foot v1',(#503));
#500=APPLICATION_PROTOCOL_DEFINITION('international standard',
'automotive_design',2009,#501);
#501=APPLICATION_CONTEXT(
'Core Data for Automotive Mechanical Design Process');
#502=PRODUCT_CONTEXT('part definition',#501,'mechanical');
#503=PRODUCT('alkane lamp foot','alkane lamp foot v1',$,(#502));
#504=PRESENTATION_STYLE_ASSIGNMENT((#505));
#505=SURFACE_STYLE_USAGE(.BOTH.,#506);
#506=SURFACE_SIDE_STYLE('',(#507));
#507=SURFACE_STYLE_FILL_AREA(#508);
#508=FILL_AREA_STYLE('Stahl - satiniert',(#509));
#509=FILL_AREA_STYLE_COLOUR('Stahl - satiniert',#510);
#510=COLOUR_RGB('Stahl - satiniert',0.627450980392157,0.627450980392157,
0.627450980392157);
ENDSEC;
END-ISO-10303-21;
