ISO-10303-21;
HEADER;
/* Generated by software containing ST-Developer
 * from STEP Tools, Inc. (www.steptools.com) 
 */

FILE_DESCRIPTION(
/* description */ (''),
/* implementation_level */ '2;1');

FILE_NAME(
/* name */ 'complete-bottom.step',
/* time_stamp */ '2026-08-24T08:16:14+02:00',
/* author */ (''),
/* organization */ (''),
/* preprocessor_version */ 'ST-DEVELOPER v20.1',
/* originating_system */ 'Autodesk Translation Framework v15.8.0.0',
/* authorisation */ '');

FILE_SCHEMA (('AUTOMOTIVE_DESIGN { 1 0 10303 214 3 1 1 }'));
ENDSEC;

DATA;
#10=MECHANICAL_DESIGN_GEOMETRIC_PRESENTATION_REPRESENTATION('',(#13),#859);
#11=SHAPE_REPRESENTATION_RELATIONSHIP('SRR','None',#866,#12);
#12=ADVANCED_BREP_SHAPE_REPRESENTATION('',(#14),#858);
#13=STYLED_ITEM('',(#875),#14);
#14=MANIFOLD_SOLID_BREP('Node_1 (1)',#262);
#15=TOROIDAL_SURFACE('',#299,78.,2.);
#16=B_SPLINE_SURFACE_WITH_KNOTS('',3,3,((#450,#451,#452,#453,#454),(#455,
#456,#457,#458,#459),(#460,#461,#462,#463,#464),(#465,#466,#467,#468,#469)),
 .UNSPECIFIED.,.F.,.F.,.F.,(4,4),(4,1,4),(0.,0.0477828309989907),(-0.320693872080975,
0.0458134102972823,0.320693872080976),.UNSPECIFIED.);
#17=B_SPLINE_SURFACE_WITH_KNOTS('',3,3,((#564,#565,#566,#567,#568,#569,
#570,#571,#572,#573,#574,#575,#576,#577,#578,#579,#580,#581,#582,#583,#584,
#585,#586,#587,#588,#589),(#590,#591,#592,#593,#594,#595,#596,#597,#598,
#599,#600,#601,#602,#603,#604,#605,#606,#607,#608,#609,#610,#611,#612,#613,
#614,#615),(#616,#617,#618,#619,#620,#621,#622,#623,#624,#625,#626,#627,
#628,#629,#630,#631,#632,#633,#634,#635,#636,#637,#638,#639,#640,#641),
(#642,#643,#644,#645,#646,#647,#648,#649,#650,#651,#652,#653,#654,#655,
#656,#657,#658,#659,#660,#661,#662,#663,#664,#665,#666,#667)),
 .UNSPECIFIED.,.F.,.T.,.F.,(4,4),(4,1,1,1,1,1,1,1,1,1,2,2,1,1,1,1,1,1,1,
1,1,4),(0.,1.),(0.,0.0987095075736911,0.197419015147382,0.296128522721073,
0.394838030294764,0.493547537868456,0.592257045442147,0.690966553015838,
0.789676060589529,0.88838556816322,0.987095075736911,1.13313705365473,1.2423826781767,
1.35162830269867,1.46087392722063,1.5701195517426,1.78861080078654,1.81592220691704,
1.89785642530851,2.00710204983048,2.11634767435245,2.22559329887442),
 .UNSPECIFIED.);
#18=B_SPLINE_SURFACE_WITH_KNOTS('',3,3,((#672,#673,#674,#675,#676,#677,
#678,#679,#680,#681,#682,#683,#684,#685,#686,#687,#688,#689,#690,#691,#692,
#693,#694,#695,#696),(#697,#698,#699,#700,#701,#702,#703,#704,#705,#706,
#707,#708,#709,#710,#711,#712,#713,#714,#715,#716,#717,#718,#719,#720,#721),
(#722,#723,#724,#725,#726,#727,#728,#729,#730,#731,#732,#733,#734,#735,
#736,#737,#738,#739,#740,#741,#742,#743,#744,#745,#746),(#747,#748,#749,
#750,#751,#752,#753,#754,#755,#756,#757,#758,#759,#760,#761,#762,#763,#764,
#765,#766,#767,#768,#769,#770,#771)),.UNSPECIFIED.,.F.,.T.,.F.,(4,4),(4,
1,1,1,1,1,1,1,1,1,1,1,1,1,1,1,1,1,1,1,1,1,4),(0.,1.),(0.,0.150695307225256,
0.301390614450512,0.37673826806314,0.452085921675768,0.602781228901024,
0.703244767051195,0.904171843351537,0.954403612426622,1.00463538150171,
1.10509891965188,1.20556245780205,1.35625776502731,1.43160541863993,1.50695307225256,
1.65764837947782,1.70474066298571,1.73299603309045,1.77066985989676,1.80834368670307,
1.95903899392833,1.99671282073464,2.10973430115359),.UNSPECIFIED.);
#19=B_SPLINE_SURFACE_WITH_KNOTS('',3,3,((#816,#817,#818,#819,#820),(#821,
#822,#823,#824,#825),(#826,#827,#828,#829,#830),(#831,#832,#833,#834,#835)),
 .UNSPECIFIED.,.F.,.F.,.F.,(4,4),(4,1,4),(0.,0.0477828309989907),(-0.320693872080974,
-0.0458134102972818,0.320693872080974),.UNSPECIFIED.);
#20=B_SPLINE_SURFACE_WITH_KNOTS('',3,3,((#836,#837,#838,#839,#840),(#841,
#842,#843,#844,#845),(#846,#847,#848,#849,#850),(#851,#852,#853,#854,#855)),
 .UNSPECIFIED.,.F.,.F.,.F.,(4,4),(4,1,4),(0.,0.0477828309989906),(-0.320693872080976,
-0.0458134102972825,0.320693872080975),.UNSPECIFIED.);
#21=FACE_BOUND('',#68,.T.);
#22=FACE_BOUND('',#70,.T.);
#23=FACE_BOUND('',#77,.T.);
#24=PLANE('',#281);
#25=PLANE('',#285);
#26=PLANE('',#297);
#27=B_SPLINE_CURVE_WITH_KNOTS('',3,(#374,#375,#376,#377,#378,#379,#380,
#381,#382),.UNSPECIFIED.,.F.,.F.,(4,1,1,1,1,1,4),(0.,0.0987095075736911,
0.197419015147382,0.296128522721073,0.394838030294764,0.493547537868456,
0.566568526827363),.UNSPECIFIED.);
#28=B_SPLINE_CURVE_WITH_KNOTS('',3,(#384,#385,#386,#387,#388,#389,#390,
#391,#392),.UNSPECIFIED.,.F.,.F.,(4,1,1,1,1,1,4),(1.67936517626457,1.78861080078654,
1.81592220691704,1.89785642530851,2.00710204983048,2.11634767435245,2.22559329887442),
 .UNSPECIFIED.);
#29=B_SPLINE_CURVE_WITH_KNOTS('',3,(#394,#395,#396,#397,#398,#399,#400,
#401,#402,#403,#404,#405,#406,#407,#408,#409),.UNSPECIFIED.,.F.,.F.,(4,
1,1,1,1,2,2,1,1,1,1,4),(0.566568526827363,0.592257045442147,0.690966553015838,
0.789676060589529,0.88838556816322,0.987095075736911,1.13313705365473,1.2423826781767,
1.35162830269867,1.46087392722063,1.5701195517426,1.67936517626457),
 .UNSPECIFIED.);
#30=B_SPLINE_CURVE_WITH_KNOTS('',3,(#413,#414,#415,#416,#417,#418),
 .UNSPECIFIED.,.F.,.F.,(4,2,4),(-1.7452390148484,-0.878215206331915,0.),
 .UNSPECIFIED.);
#31=B_SPLINE_CURVE_WITH_KNOTS('',3,(#422,#423,#424,#425,#426,#427),
 .UNSPECIFIED.,.F.,.F.,(4,2,4),(-1.74523901484863,-0.878215206331988,0.),
 .UNSPECIFIED.);
#32=B_SPLINE_CURVE_WITH_KNOTS('',3,(#431,#432,#433,#434,#435,#436),
 .UNSPECIFIED.,.F.,.F.,(4,2,4),(-1.74523901484945,-0.878215206332251,0.),
 .UNSPECIFIED.);
#33=B_SPLINE_CURVE_WITH_KNOTS('',3,(#476,#477,#478,#479,#480,#481),
 .UNSPECIFIED.,.F.,.F.,(4,1,1,4),(-2.10973430115359,-1.99671282073464,-1.95903899392833,
-1.84246483213848),.UNSPECIFIED.);
#34=B_SPLINE_CURVE_WITH_KNOTS('',3,(#483,#484,#485,#486,#487,#488,#489,
#490,#491,#492,#493,#494,#495,#496,#497),.UNSPECIFIED.,.F.,.F.,(4,1,1,1,
1,1,1,1,1,1,1,1,4),(-1.3221366195919,-1.20556245780205,-1.10509891965188,
-1.00463538150171,-0.954403612426622,-0.904171843351537,-0.703244767051195,
-0.602781228901024,-0.452085921675768,-0.37673826806314,-0.301390614450512,
-0.150695307225256,0.),.UNSPECIFIED.);
#35=B_SPLINE_CURVE_WITH_KNOTS('',3,(#502,#503,#504,#505,#506,#507,#508,
#509,#510,#511,#512,#513,#514,#515,#516,#517,#518,#519),.UNSPECIFIED.,.F.,
 .F.,(4,1,1,1,1,1,1,1,1,1,1,1,1,1,1,4),(0.,0.150695307225256,0.301390614450512,
0.37673826806314,0.452085921675768,0.602781228901024,0.703244767051195,
0.904171843351537,0.954403612426622,1.00463538150171,1.10509891965188,1.20556245780205,
1.35625776502731,1.43160541863993,1.50695307225256,1.58230072586519),
 .UNSPECIFIED.);
#36=B_SPLINE_CURVE_WITH_KNOTS('',3,(#520,#521,#522,#523,#524,#525,#526,
#527,#528,#529,#530),.UNSPECIFIED.,.F.,.F.,(4,1,1,1,1,1,1,1,4),(1.58230072586519,
1.65764837947782,1.70474066298571,1.73299603309045,1.77066985989676,1.80834368670307,
1.95903899392833,1.99671282073464,2.10973430115359),.UNSPECIFIED.);
#37=B_SPLINE_CURVE_WITH_KNOTS('',3,(#534,#535,#536,#537,#538,#539,#540,
#541,#542),.UNSPECIFIED.,.F.,.F.,(4,1,1,1,1,1,4),(-2.22559329887442,-2.11634767435245,
-2.00710204983048,-1.89785642530851,-1.81592220691704,-1.78861080078654,
-1.67936517626457),.UNSPECIFIED.);
#38=B_SPLINE_CURVE_WITH_KNOTS('',3,(#543,#544,#545,#546,#547,#548,#549,
#550,#551,#552,#553,#554,#555,#556,#557,#558,#559,#560,#561,#562,#563),
 .UNSPECIFIED.,.F.,.F.,(4,1,1,1,1,2,2,1,1,1,1,1,1,1,1,1,4),(-1.67936517626457,
-1.5701195517426,-1.46087392722063,-1.35162830269867,-1.2423826781767,-1.13313705365473,
-0.987095075736911,-0.88838556816322,-0.789676060589529,-0.690966553015838,
-0.592257045442147,-0.493547537868456,-0.394838030294764,-0.296128522721073,
-0.197419015147382,-0.0987095075736911,0.),.UNSPECIFIED.);
#39=B_SPLINE_CURVE_WITH_KNOTS('',3,(#773,#774,#775,#776,#777,#778,#779,
#780,#781,#782,#783,#784,#785,#786,#787,#788,#789,#790,#791,#792),
 .UNSPECIFIED.,.F.,.F.,(4,2,2,2,2,2,2,2,2,4),(-0.74760592875738,-0.743497660269926,
-0.736998035192806,-0.718569548073156,-0.652983678497908,-0.587684761694241,
-0.526910745728193,-0.498724122491616,-0.484613483154088,-0.47704506208825),
 .UNSPECIFIED.);
#40=B_SPLINE_CURVE_WITH_KNOTS('',3,(#794,#795,#796,#797,#798,#799,#800,
#801,#802,#803,#804,#805,#806,#807,#808,#809,#810,#811,#812,#813),
 .UNSPECIFIED.,.F.,.F.,(4,2,2,2,2,2,2,2,2,4),(-0.47704506208825,-0.473237528347498,
-0.460604914533814,-0.439686800265516,-0.351518090480237,-0.25512467935882,
-0.216189338645249,-0.200616281170669,-0.193878755815336,-0.19008785311644),
 .UNSPECIFIED.);
#41=ELLIPSE('',#280,20.9641804602873,19.);
#42=ELLIPSE('',#288,25.3776921361373,23.);
#43=ELLIPSE('',#289,50.1348182404205,23.);
#44=ELLIPSE('',#290,50.1348182404205,23.);
#45=ELLIPSE('',#291,50.1348182404205,23.);
#46=ELLIPSE('',#292,50.1348182404205,23.);
#47=CYLINDRICAL_SURFACE('',#279,19.);
#48=CYLINDRICAL_SURFACE('',#287,23.);
#49=CYLINDRICAL_SURFACE('',#293,80.);
#50=CYLINDRICAL_SURFACE('',#296,3.5);
#51=FACE_OUTER_BOUND('',#65,.T.);
#52=FACE_OUTER_BOUND('',#66,.T.);
#53=FACE_OUTER_BOUND('',#67,.T.);
#54=FACE_OUTER_BOUND('',#69,.T.);
#55=FACE_OUTER_BOUND('',#71,.T.);
#56=FACE_OUTER_BOUND('',#72,.T.);
#57=FACE_OUTER_BOUND('',#73,.T.);
#58=FACE_OUTER_BOUND('',#74,.T.);
#59=FACE_OUTER_BOUND('',#75,.T.);
#60=FACE_OUTER_BOUND('',#76,.T.);
#61=FACE_OUTER_BOUND('',#78,.T.);
#62=FACE_OUTER_BOUND('',#79,.T.);
#63=FACE_OUTER_BOUND('',#80,.T.);
#64=FACE_OUTER_BOUND('',#81,.T.);
#65=EDGE_LOOP('',(#171,#172,#173,#174));
#66=EDGE_LOOP('',(#175,#176,#177,#178,#179,#180,#181,#182,#183));
#67=EDGE_LOOP('',(#184,#185,#186,#187,#188,#189));
#68=EDGE_LOOP('',(#190));
#69=EDGE_LOOP('',(#191));
#70=EDGE_LOOP('',(#192));
#71=EDGE_LOOP('',(#193,#194,#195,#196,#197,#198,#199,#200,#201,#202));
#72=EDGE_LOOP('',(#203,#204));
#73=EDGE_LOOP('',(#205,#206,#207,#208,#209,#210,#211));
#74=EDGE_LOOP('',(#212,#213,#214,#215,#216,#217));
#75=EDGE_LOOP('',(#218,#219,#220,#221,#222,#223,#224));
#76=EDGE_LOOP('',(#225));
#77=EDGE_LOOP('',(#226));
#78=EDGE_LOOP('',(#227,#228,#229,#230,#231,#232,#233,#234));
#79=EDGE_LOOP('',(#235,#236,#237,#238,#239,#240,#241));
#80=EDGE_LOOP('',(#242,#243));
#81=EDGE_LOOP('',(#244,#245,#246));
#82=LINE('',#366,#90);
#83=LINE('',#372,#91);
#84=LINE('',#393,#92);
#85=LINE('',#445,#93);
#86=LINE('',#472,#94);
#87=LINE('',#532,#95);
#88=LINE('',#668,#96);
#89=LINE('',#793,#97);
#90=VECTOR('',#307,19.1499999999999);
#91=VECTOR('',#314,19.);
#92=VECTOR('',#315,19.);
#93=VECTOR('',#332,23.);
#94=VECTOR('',#343,80.);
#95=VECTOR('',#350,3.5);
#96=VECTOR('',#351,10.);
#97=VECTOR('',#356,10.);
#98=CIRCLE('',#277,19.3);
#99=CIRCLE('',#278,19.);
#100=CIRCLE('',#282,23.);
#101=CIRCLE('',#283,23.);
#102=CIRCLE('',#284,23.);
#103=CIRCLE('',#286,80.);
#104=CIRCLE('',#294,80.);
#105=CIRCLE('',#295,80.);
#106=CIRCLE('',#298,78.);
#107=CIRCLE('',#300,2.);
#108=VERTEX_POINT('',#363);
#109=VERTEX_POINT('',#365);
#110=VERTEX_POINT('',#369);
#111=VERTEX_POINT('',#371);
#112=VERTEX_POINT('',#373);
#113=VERTEX_POINT('',#383);
#114=VERTEX_POINT('',#411);
#115=VERTEX_POINT('',#412);
#116=VERTEX_POINT('',#419);
#117=VERTEX_POINT('',#421);
#118=VERTEX_POINT('',#428);
#119=VERTEX_POINT('',#430);
#120=VERTEX_POINT('',#439);
#121=VERTEX_POINT('',#442);
#122=VERTEX_POINT('',#444);
#123=VERTEX_POINT('',#471);
#124=VERTEX_POINT('',#473);
#125=VERTEX_POINT('',#475);
#126=VERTEX_POINT('',#482);
#127=VERTEX_POINT('',#500);
#128=VERTEX_POINT('',#501);
#129=VERTEX_POINT('',#531);
#130=VERTEX_POINT('',#533);
#131=VERTEX_POINT('',#670);
#132=VERTEX_POINT('',#772);
#133=EDGE_CURVE('',#108,#108,#98,.T.);
#134=EDGE_CURVE('',#108,#109,#82,.T.);
#135=EDGE_CURVE('',#109,#109,#99,.T.);
#136=EDGE_CURVE('',#110,#110,#41,.T.);
#137=EDGE_CURVE('',#110,#111,#83,.T.);
#138=EDGE_CURVE('',#112,#111,#27,.T.);
#139=EDGE_CURVE('',#113,#112,#28,.T.);
#140=EDGE_CURVE('',#113,#109,#84,.T.);
#141=EDGE_CURVE('',#111,#113,#29,.T.);
#142=EDGE_CURVE('',#114,#115,#30,.T.);
#143=EDGE_CURVE('',#115,#116,#100,.T.);
#144=EDGE_CURVE('',#116,#117,#31,.T.);
#145=EDGE_CURVE('',#117,#118,#101,.T.);
#146=EDGE_CURVE('',#118,#119,#32,.T.);
#147=EDGE_CURVE('',#119,#114,#102,.T.);
#148=EDGE_CURVE('',#120,#120,#103,.T.);
#149=EDGE_CURVE('',#121,#121,#42,.T.);
#150=EDGE_CURVE('',#121,#122,#85,.T.);
#151=EDGE_CURVE('',#116,#122,#43,.T.);
#152=EDGE_CURVE('',#114,#115,#44,.T.);
#153=EDGE_CURVE('',#118,#119,#45,.T.);
#154=EDGE_CURVE('',#122,#117,#46,.T.);
#155=EDGE_CURVE('',#120,#123,#86,.T.);
#156=EDGE_CURVE('',#124,#123,#104,.T.);
#157=EDGE_CURVE('',#125,#124,#33,.T.);
#158=EDGE_CURVE('',#126,#125,#34,.T.);
#159=EDGE_CURVE('',#123,#126,#105,.T.);
#160=EDGE_CURVE('',#127,#128,#35,.T.);
#161=EDGE_CURVE('',#128,#127,#36,.T.);
#162=EDGE_CURVE('',#128,#129,#87,.T.);
#163=EDGE_CURVE('',#130,#129,#37,.T.);
#164=EDGE_CURVE('',#129,#130,#38,.T.);
#165=EDGE_CURVE('',#130,#112,#88,.T.);
#166=EDGE_CURVE('',#131,#131,#106,.T.);
#167=EDGE_CURVE('',#126,#132,#39,.T.);
#168=EDGE_CURVE('',#125,#127,#89,.T.);
#169=EDGE_CURVE('',#132,#124,#40,.T.);
#170=EDGE_CURVE('',#131,#132,#107,.T.);
#171=ORIENTED_EDGE('',*,*,#133,.T.);
#172=ORIENTED_EDGE('',*,*,#134,.T.);
#173=ORIENTED_EDGE('',*,*,#135,.T.);
#174=ORIENTED_EDGE('',*,*,#134,.F.);
#175=ORIENTED_EDGE('',*,*,#136,.F.);
#176=ORIENTED_EDGE('',*,*,#137,.T.);
#177=ORIENTED_EDGE('',*,*,#138,.F.);
#178=ORIENTED_EDGE('',*,*,#139,.F.);
#179=ORIENTED_EDGE('',*,*,#140,.T.);
#180=ORIENTED_EDGE('',*,*,#135,.F.);
#181=ORIENTED_EDGE('',*,*,#140,.F.);
#182=ORIENTED_EDGE('',*,*,#141,.F.);
#183=ORIENTED_EDGE('',*,*,#137,.F.);
#184=ORIENTED_EDGE('',*,*,#142,.T.);
#185=ORIENTED_EDGE('',*,*,#143,.T.);
#186=ORIENTED_EDGE('',*,*,#144,.T.);
#187=ORIENTED_EDGE('',*,*,#145,.T.);
#188=ORIENTED_EDGE('',*,*,#146,.T.);
#189=ORIENTED_EDGE('',*,*,#147,.T.);
#190=ORIENTED_EDGE('',*,*,#133,.F.);
#191=ORIENTED_EDGE('',*,*,#148,.T.);
#192=ORIENTED_EDGE('',*,*,#136,.T.);
#193=ORIENTED_EDGE('',*,*,#149,.T.);
#194=ORIENTED_EDGE('',*,*,#150,.T.);
#195=ORIENTED_EDGE('',*,*,#151,.F.);
#196=ORIENTED_EDGE('',*,*,#143,.F.);
#197=ORIENTED_EDGE('',*,*,#152,.F.);
#198=ORIENTED_EDGE('',*,*,#147,.F.);
#199=ORIENTED_EDGE('',*,*,#153,.F.);
#200=ORIENTED_EDGE('',*,*,#145,.F.);
#201=ORIENTED_EDGE('',*,*,#154,.F.);
#202=ORIENTED_EDGE('',*,*,#150,.F.);
#203=ORIENTED_EDGE('',*,*,#146,.F.);
#204=ORIENTED_EDGE('',*,*,#153,.T.);
#205=ORIENTED_EDGE('',*,*,#148,.F.);
#206=ORIENTED_EDGE('',*,*,#155,.T.);
#207=ORIENTED_EDGE('',*,*,#156,.F.);
#208=ORIENTED_EDGE('',*,*,#157,.F.);
#209=ORIENTED_EDGE('',*,*,#158,.F.);
#210=ORIENTED_EDGE('',*,*,#159,.F.);
#211=ORIENTED_EDGE('',*,*,#155,.F.);
#212=ORIENTED_EDGE('',*,*,#160,.F.);
#213=ORIENTED_EDGE('',*,*,#161,.F.);
#214=ORIENTED_EDGE('',*,*,#162,.T.);
#215=ORIENTED_EDGE('',*,*,#163,.F.);
#216=ORIENTED_EDGE('',*,*,#164,.F.);
#217=ORIENTED_EDGE('',*,*,#162,.F.);
#218=ORIENTED_EDGE('',*,*,#165,.T.);
#219=ORIENTED_EDGE('',*,*,#138,.T.);
#220=ORIENTED_EDGE('',*,*,#141,.T.);
#221=ORIENTED_EDGE('',*,*,#139,.T.);
#222=ORIENTED_EDGE('',*,*,#165,.F.);
#223=ORIENTED_EDGE('',*,*,#163,.T.);
#224=ORIENTED_EDGE('',*,*,#164,.T.);
#225=ORIENTED_EDGE('',*,*,#166,.F.);
#226=ORIENTED_EDGE('',*,*,#149,.F.);
#227=ORIENTED_EDGE('',*,*,#167,.F.);
#228=ORIENTED_EDGE('',*,*,#158,.T.);
#229=ORIENTED_EDGE('',*,*,#168,.T.);
#230=ORIENTED_EDGE('',*,*,#160,.T.);
#231=ORIENTED_EDGE('',*,*,#161,.T.);
#232=ORIENTED_EDGE('',*,*,#168,.F.);
#233=ORIENTED_EDGE('',*,*,#157,.T.);
#234=ORIENTED_EDGE('',*,*,#169,.F.);
#235=ORIENTED_EDGE('',*,*,#166,.T.);
#236=ORIENTED_EDGE('',*,*,#170,.T.);
#237=ORIENTED_EDGE('',*,*,#169,.T.);
#238=ORIENTED_EDGE('',*,*,#156,.T.);
#239=ORIENTED_EDGE('',*,*,#159,.T.);
#240=ORIENTED_EDGE('',*,*,#167,.T.);
#241=ORIENTED_EDGE('',*,*,#170,.F.);
#242=ORIENTED_EDGE('',*,*,#142,.F.);
#243=ORIENTED_EDGE('',*,*,#152,.T.);
#244=ORIENTED_EDGE('',*,*,#144,.F.);
#245=ORIENTED_EDGE('',*,*,#151,.T.);
#246=ORIENTED_EDGE('',*,*,#154,.T.);
#247=CONICAL_SURFACE('',#276,19.15,0.785398163397442);
#248=ADVANCED_FACE('',(#51),#247,.F.);
#249=ADVANCED_FACE('',(#52),#47,.F.);
#250=ADVANCED_FACE('',(#53,#21),#24,.T.);
#251=ADVANCED_FACE('',(#54,#22),#25,.F.);
#252=ADVANCED_FACE('',(#55),#48,.T.);
#253=ADVANCED_FACE('',(#56),#16,.T.);
#254=ADVANCED_FACE('',(#57),#49,.T.);
#255=ADVANCED_FACE('',(#58),#50,.F.);
#256=ADVANCED_FACE('',(#59),#17,.T.);
#257=ADVANCED_FACE('',(#60,#23),#26,.T.);
#258=ADVANCED_FACE('',(#61),#18,.T.);
#259=ADVANCED_FACE('',(#62),#15,.T.);
#260=ADVANCED_FACE('',(#63),#19,.T.);
#261=ADVANCED_FACE('',(#64),#20,.T.);
#262=CLOSED_SHELL('',(#248,#249,#250,#251,#252,#253,#254,#255,#256,#257,
#258,#259,#260,#261));
#263=DERIVED_UNIT_ELEMENT(#265,1.);
#264=DERIVED_UNIT_ELEMENT(#861,-3.);
#265=(
MASS_UNIT()
NAMED_UNIT(*)
SI_UNIT(.KILO.,.GRAM.)
);
#266=DERIVED_UNIT((#263,#264));
#267=MEASURE_REPRESENTATION_ITEM('density measure',
POSITIVE_RATIO_MEASURE(7850.),#266);
#268=PROPERTY_DEFINITION_REPRESENTATION(#273,#270);
#269=PROPERTY_DEFINITION_REPRESENTATION(#274,#271);
#270=REPRESENTATION('material name',(#272),#858);
#271=REPRESENTATION('density',(#267),#858);
#272=DESCRIPTIVE_REPRESENTATION_ITEM('Stahl','Stahl');
#273=PROPERTY_DEFINITION('material property','material name',#868);
#274=PROPERTY_DEFINITION('material property','density of part',#868);
#275=AXIS2_PLACEMENT_3D('',#361,#301,#302);
#276=AXIS2_PLACEMENT_3D('',#362,#303,#304);
#277=AXIS2_PLACEMENT_3D('',#364,#305,#306);
#278=AXIS2_PLACEMENT_3D('',#367,#308,#309);
#279=AXIS2_PLACEMENT_3D('',#368,#310,#311);
#280=AXIS2_PLACEMENT_3D('',#370,#312,#313);
#281=AXIS2_PLACEMENT_3D('',#410,#316,#317);
#282=AXIS2_PLACEMENT_3D('',#420,#318,#319);
#283=AXIS2_PLACEMENT_3D('',#429,#320,#321);
#284=AXIS2_PLACEMENT_3D('',#437,#322,#323);
#285=AXIS2_PLACEMENT_3D('',#438,#324,#325);
#286=AXIS2_PLACEMENT_3D('',#440,#326,#327);
#287=AXIS2_PLACEMENT_3D('',#441,#328,#329);
#288=AXIS2_PLACEMENT_3D('',#443,#330,#331);
#289=AXIS2_PLACEMENT_3D('',#446,#333,#334);
#290=AXIS2_PLACEMENT_3D('',#447,#335,#336);
#291=AXIS2_PLACEMENT_3D('',#448,#337,#338);
#292=AXIS2_PLACEMENT_3D('',#449,#339,#340);
#293=AXIS2_PLACEMENT_3D('',#470,#341,#342);
#294=AXIS2_PLACEMENT_3D('',#474,#344,#345);
#295=AXIS2_PLACEMENT_3D('',#498,#346,#347);
#296=AXIS2_PLACEMENT_3D('',#499,#348,#349);
#297=AXIS2_PLACEMENT_3D('',#669,#352,#353);
#298=AXIS2_PLACEMENT_3D('',#671,#354,#355);
#299=AXIS2_PLACEMENT_3D('',#814,#357,#358);
#300=AXIS2_PLACEMENT_3D('',#815,#359,#360);
#301=DIRECTION('axis',(0.,0.,1.));
#302=DIRECTION('refdir',(1.,0.,0.));
#303=DIRECTION('center_axis',(0.422618261740703,0.,0.906307787036648));
#304=DIRECTION('ref_axis',(0.90630778703665,-1.14739868710599E-17,-0.422618261740699));
#305=DIRECTION('center_axis',(0.422618261740699,0.,0.90630778703665));
#306=DIRECTION('ref_axis',(0.90630778703665,-1.14739868710599E-17,-0.422618261740699));
#307=DIRECTION('',(0.342020143325662,7.84822716997772E-17,-0.939692620785911));
#308=DIRECTION('center_axis',(-0.422618261740699,0.,-0.90630778703665));
#309=DIRECTION('ref_axis',(0.90630778703665,-1.14739868710599E-17,-0.422618261740699));
#310=DIRECTION('center_axis',(-0.422618261740699,-5.17558101501966E-17,
-0.90630778703665));
#311=DIRECTION('ref_axis',(0.90630778703665,-1.14739868710599E-17,-0.422618261740699));
#312=DIRECTION('center_axis',(-1.11022302462516E-16,-1.84889274661175E-32,
1.));
#313=DIRECTION('ref_axis',(-1.,-1.22464679914735E-16,-5.29580932929032E-17));
#314=DIRECTION('',(0.422618261740699,5.17558101501966E-17,0.90630778703665));
#315=DIRECTION('',(0.422618261740699,5.17558101501966E-17,0.90630778703665));
#316=DIRECTION('center_axis',(0.422618261740699,0.,0.90630778703665));
#317=DIRECTION('ref_axis',(0.90630778703665,0.,-0.422618261740699));
#318=DIRECTION('center_axis',(0.422618261740699,0.,0.90630778703665));
#319=DIRECTION('ref_axis',(0.90630778703665,-1.14739868710599E-17,-0.422618261740699));
#320=DIRECTION('center_axis',(0.422618261740699,0.,0.90630778703665));
#321=DIRECTION('ref_axis',(0.90630778703665,-1.14739868710599E-17,-0.422618261740699));
#322=DIRECTION('center_axis',(0.422618261740699,0.,0.90630778703665));
#323=DIRECTION('ref_axis',(0.90630778703665,-1.14739868710599E-17,-0.422618261740699));
#324=DIRECTION('center_axis',(-1.11022302462516E-16,-1.84889274661175E-32,
1.));
#325=DIRECTION('ref_axis',(-1.,-1.22464679914735E-16,-1.11022302462516E-16));
#326=DIRECTION('center_axis',(1.11022302462516E-16,1.84889274661175E-32,
-1.));
#327=DIRECTION('ref_axis',(-1.,-1.22464679914735E-16,-1.11022302462516E-16));
#328=DIRECTION('center_axis',(-0.422618261740699,-5.17558101501966E-17,
-0.90630778703665));
#329=DIRECTION('ref_axis',(0.90630778703665,-1.14739868710599E-17,-0.422618261740699));
#330=DIRECTION('center_axis',(-1.11022302462516E-16,-1.84889274661175E-32,
1.));
#331=DIRECTION('ref_axis',(-1.,-1.22464679914735E-16,-8.74959802230575E-17));
#332=DIRECTION('',(0.422618261740699,5.17558101501966E-17,0.90630778703665));
#333=DIRECTION('center_axis',(-0.611426013404083,3.3938961591374E-17,0.791301605036152));
#334=DIRECTION('ref_axis',(-0.791301605036152,-4.07242328978667E-17,-0.611426013404083));
#335=DIRECTION('center_axis',(0.596535443917919,0.769514377489672,0.22801992673083));
#336=DIRECTION('ref_axis',(-0.167630875787245,0.397300418873026,-0.90224845061996));
#337=DIRECTION('center_axis',(0.596535443917919,-0.769514377489673,0.22801992673083));
#338=DIRECTION('ref_axis',(-0.167630875787246,-0.397300418873026,-0.90224845061996));
#339=DIRECTION('center_axis',(-0.611426013404083,3.3938961591374E-17,0.791301605036152));
#340=DIRECTION('ref_axis',(-0.791301605036152,-4.07242328978667E-17,-0.611426013404083));
#341=DIRECTION('center_axis',(1.11022302462516E-16,1.84889274661175E-32,
-1.));
#342=DIRECTION('ref_axis',(-1.,-1.22464679914735E-16,-1.11022302462516E-16));
#343=DIRECTION('',(-1.11022302462516E-16,-1.84889274661175E-32,1.));
#344=DIRECTION('center_axis',(-1.11022302462516E-16,-1.84889274661175E-32,
1.));
#345=DIRECTION('ref_axis',(-1.,-1.22464679914735E-16,-1.66533453693773E-16));
#346=DIRECTION('center_axis',(-1.11022302462516E-16,-1.84889274661175E-32,
1.));
#347=DIRECTION('ref_axis',(-1.,-1.22464679914735E-16,-1.66533453693773E-16));
#348=DIRECTION('center_axis',(1.,1.22464679914735E-16,1.11022302462516E-16));
#349=DIRECTION('ref_axis',(7.93016446160827E-17,1.76085023486833E-32,-1.));
#350=DIRECTION('',(1.,1.22464679914735E-16,1.11022302462516E-16));
#351=DIRECTION('',(0.6975437195081,-0.638460805835851,-0.325269978304549));
#352=DIRECTION('center_axis',(-1.11022302462516E-16,-1.84889274661175E-32,
1.));
#353=DIRECTION('ref_axis',(-1.,-1.22464679914735E-16,-1.11022302462516E-16));
#354=DIRECTION('center_axis',(1.11022302462516E-16,1.84889274661175E-32,
-1.));
#355=DIRECTION('ref_axis',(-1.,-1.22464679914735E-16,-5.69345140833414E-17));
#356=DIRECTION('',(0.689883906074185,0.723920020540822,-8.88178419700125E-16));
#357=DIRECTION('center_axis',(-1.11022302462516E-16,-1.84889274661175E-32,
1.));
#358=DIRECTION('ref_axis',(1.,1.14739868710599E-17,1.11022302462516E-16));
#359=DIRECTION('center_axis',(1.33938666785795E-16,-1.,-3.61874829079881E-33));
#360=DIRECTION('ref_axis',(-1.,-1.33938666785795E-16,-1.11022302462516E-16));
#361=CARTESIAN_POINT('',(0.,0.,0.));
#362=CARTESIAN_POINT('Origin',(-0.668407329622836,3.2027057663964E-15,62.1792688686435));
#363=CARTESIAN_POINT('',(-18.0967548801691,1.06058539065346E-15,70.4717474882945));
#364=CARTESIAN_POINT('Origin',(-0.605014590361731,3.2027057663964E-15,62.315215036699));
#365=CARTESIAN_POINT('',(-17.9516480225803,5.74754043532651E-15,70.0730696736613));
#366=CARTESIAN_POINT('',(-18.0242014513747,1.07723399461001E-15,70.2724085809779));
#367=CARTESIAN_POINT('Origin',(-0.731800068883941,3.2027057663964E-15,62.043322700588));
#368=CARTESIAN_POINT('Origin',(17.2618261740699,5.40628944474513E-15,100.630778703665));
#369=CARTESIAN_POINT('',(-50.6272570418373,1.74593243576416E-15,-1.11022302462516E-15));
#370=CARTESIAN_POINT('Origin',(-29.66307658155,-3.40353751251947E-16,0.));
#371=CARTESIAN_POINT('',(-50.2233454308817,-0.000986955061763244,0.866034153816188));
#372=CARTESIAN_POINT('',(0.0419782203735841,7.95112411367523E-15,108.660525676738));
#373=CARTESIAN_POINT('',(-47.8086219758911,-4.18552867626667,4.94015744214318));
#374=CARTESIAN_POINT('Ctrl Pts',(-47.8086219758911,-4.18552867626668,4.94015744214318));
#375=CARTESIAN_POINT('Ctrl Pts',(-47.9709143204178,-4.18552867626668,4.59212038616004));
#376=CARTESIAN_POINT('Ctrl Pts',(-48.326360906097,-4.09848872854098,3.87753424387895));
#377=CARTESIAN_POINT('Ctrl Pts',(-48.9078001934773,-3.66128351120666,2.85132949839937));
#378=CARTESIAN_POINT('Ctrl Pts',(-49.4250818576936,-3.00881437981634,2.02268014866725));
#379=CARTESIAN_POINT('Ctrl Pts',(-49.8834316255355,-2.1065399587589,1.34182430598261));
#380=CARTESIAN_POINT('Ctrl Pts',(-50.1700696377442,-1.02221216628739,0.939406195383896));
#381=CARTESIAN_POINT('Ctrl Pts',(-50.2234682807462,-0.306534599419784,0.865806413421582));
#382=CARTESIAN_POINT('Ctrl Pts',(-50.2232465060329,-0.00133206635410665,
0.866191368343487));
#383=CARTESIAN_POINT('',(-46.3666683630063,0.000806857168800957,9.13582336151332));
#384=CARTESIAN_POINT('Ctrl Pts',(-46.3659467685831,0.0013172209244593,9.13671391136891));
#385=CARTESIAN_POINT('Ctrl Pts',(-46.3665264502611,-0.449469294732978,9.13579181603961));
#386=CARTESIAN_POINT('Ctrl Pts',(-46.3895277082308,-1.01390824814579,9.0413602071574));
#387=CARTESIAN_POINT('Ctrl Pts',(-46.468061716564,-1.8806219934562,8.70816390706115));
#388=CARTESIAN_POINT('Ctrl Pts',(-46.5903816577128,-2.67477867048434,8.22913673489591));
#389=CARTESIAN_POINT('Ctrl Pts',(-46.8416817729124,-3.49103105975991,7.36409053777161));
#390=CARTESIAN_POINT('Ctrl Pts',(-47.2712764538434,-4.07816031643654,6.15288624402524));
#391=CARTESIAN_POINT('Ctrl Pts',(-47.6290067699322,-4.18552867626667,5.32534349435085));
#392=CARTESIAN_POINT('Ctrl Pts',(-47.8086219758911,-4.18552867626668,4.94015744214318));
#393=CARTESIAN_POINT('',(0.0419782203735841,7.95112411367523E-15,108.660525676738));
#394=CARTESIAN_POINT('Ctrl Pts',(-50.2232465060329,-0.00133206635410665,
0.866191368343487));
#395=CARTESIAN_POINT('Ctrl Pts',(-50.2231684864946,0.106037075911943,0.866326794086389));
#396=CARTESIAN_POINT('Ctrl Pts',(-50.2090499680597,0.626512189109763,0.885969039482937));
#397=CARTESIAN_POINT('Ctrl Pts',(-50.0649876301621,1.55727545981729,1.08387296198123));
#398=CARTESIAN_POINT('Ctrl Pts',(-49.6503564738695,2.61904931624979,1.68254133506054));
#399=CARTESIAN_POINT('Ctrl Pts',(-49.1688240792751,3.36558053545484,2.42454986611165));
#400=CARTESIAN_POINT('Ctrl Pts',(-48.7915676502168,3.74139704280786,3.05751121789012));
#401=CARTESIAN_POINT('Ctrl Pts',(-48.3259307738078,4.0837818799426,3.88652745499917));
#402=CARTESIAN_POINT('Ctrl Pts',(-48.048736192919,4.18569699738618,4.42460594215155));
#403=CARTESIAN_POINT('Ctrl Pts',(-47.6292418074174,4.18382140800088,5.32517920436524));
#404=CARTESIAN_POINT('Ctrl Pts',(-47.2706156377758,4.07951377754489,6.15362536657195));
#405=CARTESIAN_POINT('Ctrl Pts',(-46.8424974466383,3.48850378892659,7.36227089941755));
#406=CARTESIAN_POINT('Ctrl Pts',(-46.5652744089824,2.60570472227099,8.31070596526835));
#407=CARTESIAN_POINT('Ctrl Pts',(-46.3998503729447,1.35214747375114,8.99023381380393));
#408=CARTESIAN_POINT('Ctrl Pts',(-46.3653670869051,0.452103736581896,9.13763600669822));
#409=CARTESIAN_POINT('Ctrl Pts',(-46.3659467685831,0.0013172209244593,9.13671391136891));
#410=CARTESIAN_POINT('Origin',(-43.2738572291108,0.,82.2120231237582));
#411=CARTESIAN_POINT('',(14.9767119140271,15.2779844964248,55.0493366404258));
#412=CARTESIAN_POINT('',(3.59559168492,22.5281625506588,60.3564401616412));
#413=CARTESIAN_POINT('Ctrl Pts',(14.9767119140271,15.2779844964249,55.0493366404258));
#414=CARTESIAN_POINT('Ctrl Pts',(13.5700763162151,17.0245291481305,55.7052615919189));
#415=CARTESIAN_POINT('Ctrl Pts',(11.993499427301,18.5472098360226,56.4404314692108));
#416=CARTESIAN_POINT('Ctrl Pts',(8.32796398456789,20.992670975981,58.1496987173958));
#417=CARTESIAN_POINT('Ctrl Pts',(6.19427491907338,21.938249332813,59.1446542684365));
#418=CARTESIAN_POINT('Ctrl Pts',(3.59559168492002,22.5281625506588,60.3564401616412));
#419=CARTESIAN_POINT('',(-20.3873473700322,7.250178054234,71.53986830803));
#420=CARTESIAN_POINT('Origin',(-0.605014590361725,3.21823250944146E-15,
62.315215036699));
#421=CARTESIAN_POINT('',(-20.3873473700322,-7.25017805423399,71.53986830803));
#422=CARTESIAN_POINT('Ctrl Pts',(-20.3873473700322,7.25017805423398,71.53986830803));
#423=CARTESIAN_POINT('Ctrl Pts',(-21.0548672607578,5.03279043002783,71.8511379450461));
#424=CARTESIAN_POINT('Ctrl Pts',(-21.4617089115295,2.76494682476714,72.0408513227784));
#425=CARTESIAN_POINT('Ctrl Pts',(-21.5483483441171,-1.96039826236016,72.0812519536922));
#426=CARTESIAN_POINT('Ctrl Pts',(-21.2236746165087,-4.47204108500076,71.9298541077856));
#427=CARTESIAN_POINT('Ctrl Pts',(-20.3873473700322,-7.25017805423401,71.53986830803));
#428=CARTESIAN_POINT('',(3.59559168491995,-22.5281625506588,60.3564401616412));
#429=CARTESIAN_POINT('Origin',(-0.605014590361725,3.21823250944146E-15,
62.315215036699));
#430=CARTESIAN_POINT('',(14.9767119140271,-15.2779844964248,55.0493366404258));
#431=CARTESIAN_POINT('Ctrl Pts',(3.59559168491994,-22.5281625506588,60.3564401616412));
#432=CARTESIAN_POINT('Ctrl Pts',(5.66974717345747,-22.0573195781584,59.3892455731319));
#433=CARTESIAN_POINT('Ctrl Pts',(7.65316571351224,-21.3121566607898,58.4643623188988));
#434=CARTESIAN_POINT('Ctrl Pts',(11.4053405888321,-19.0322727136212,56.7146944398004));
#435=CARTESIAN_POINT('Ctrl Pts',(13.2143559263494,-17.4662082478129,55.8711367338752));
#436=CARTESIAN_POINT('Ctrl Pts',(14.9767119140271,-15.2779844964248,55.0493366404258));
#437=CARTESIAN_POINT('Origin',(-0.605014590361725,3.21823250944146E-15,
62.315215036699));
#438=CARTESIAN_POINT('Origin',(0.,3.29232542759385E-15,0.));
#439=CARTESIAN_POINT('',(80.,2.28866742139515E-14,1.77635683940025E-14));
#440=CARTESIAN_POINT('Origin',(0.,3.29232542759385E-15,0.));
#441=CARTESIAN_POINT('Origin',(17.2618261740699,5.40628944474513E-15,100.630778703665));
#442=CARTESIAN_POINT('',(-50.3776921361373,2.75621276137654E-15,9.99999999999998));
#443=CARTESIAN_POINT('Origin',(-25.,2.30708429725469E-16,9.99999999999998));
#444=CARTESIAN_POINT('',(-22.4099359677706,6.18127506846894E-15,69.9770466541864));
#445=CARTESIAN_POINT('',(-3.58325292777302,8.48687878081842E-15,110.350998723701));
#446=CARTESIAN_POINT('Origin',(17.2618261740699,5.40628944474513E-15,100.630778703665));
#447=CARTESIAN_POINT('Origin',(17.2618261740699,5.40628944474513E-15,100.630778703665));
#448=CARTESIAN_POINT('Origin',(17.2618261740699,5.40628944474513E-15,100.630778703665));
#449=CARTESIAN_POINT('Origin',(17.2618261740699,5.40628944474513E-15,100.630778703665));
#450=CARTESIAN_POINT('Ctrl Pts',(14.9767119140271,-15.2779844964248,55.0493366404258));
#451=CARTESIAN_POINT('Ctrl Pts',(12.5600606316622,-17.3783806744008,54.2833206419088));
#452=CARTESIAN_POINT('Ctrl Pts',(8.4228043411953,-20.4471752833415,54.7505536869353));
#453=CARTESIAN_POINT('Ctrl Pts',(4.92260510488785,-22.1034854121868,58.3179543925053));
#454=CARTESIAN_POINT('Ctrl Pts',(3.59559168491994,-22.5281625506588,60.3564401616412));
#455=CARTESIAN_POINT('Ctrl Pts',(15.1847199185101,-15.3981444990808,55.7480720468497));
#456=CARTESIAN_POINT('Ctrl Pts',(12.8035135211812,-17.4488997048913,55.0158537146702));
#457=CARTESIAN_POINT('Ctrl Pts',(8.76393079251026,-20.4233111156108,55.482270301385));
#458=CARTESIAN_POINT('Ctrl Pts',(5.34925874445403,-22.0640643843964,58.9524780806219));
#459=CARTESIAN_POINT('Ctrl Pts',(4.04307359336079,-22.4957691659429,60.9435070527213));
#460=CARTESIAN_POINT('Ctrl Pts',(15.4066009600201,-15.5319071182208,56.4403382248166));
#461=CARTESIAN_POINT('Ctrl Pts',(13.0606054688011,-17.5361389694542,55.7420266299495));
#462=CARTESIAN_POINT('Ctrl Pts',(9.11576013315455,-20.420863037277,56.2089958766496));
#463=CARTESIAN_POINT('Ctrl Pts',(5.78157524773714,-22.0457025687888,59.5843609805782));
#464=CARTESIAN_POINT('Ctrl Pts',(4.49429540879788,-22.4834335616572,61.5288298714789));
#465=CARTESIAN_POINT('Ctrl Pts',(15.6420145087038,-15.6790670629161,57.1250727252846));
#466=CARTESIAN_POINT('Ctrl Pts',(13.3309106993047,-17.6399457685266,56.4606275421058));
#467=CARTESIAN_POINT('Ctrl Pts',(9.47765676492674,-20.4398372222991,56.9294220451382));
#468=CARTESIAN_POINT('Ctrl Pts',(6.21884352842739,-22.048429447347,60.2125715762719));
#469=CARTESIAN_POINT('Ctrl Pts',(4.94856462277012,-22.4911746697549,62.1115102991922));
#470=CARTESIAN_POINT('Origin',(1.33226762955019E-14,3.29232542759385E-15,
10.));
#471=CARTESIAN_POINT('',(80.,3.29232542759385E-15,8.));
#472=CARTESIAN_POINT('',(80.,3.29232542759385E-15,10.));
#473=CARTESIAN_POINT('',(-79.945991442597,-2.93911898280245,7.99998490913892));
#474=CARTESIAN_POINT('Origin',(8.88178419700125E-15,3.29232542759385E-15,
7.99999999999999));
#475=CARTESIAN_POINT('',(-79.8897165539476,-4.19918908003841,5.));
#476=CARTESIAN_POINT('Ctrl Pts',(-79.8897165539476,-4.19918908003841,4.99999999999998));
#477=CARTESIAN_POINT('Ctrl Pts',(-79.8897165539476,-4.19918908003841,5.4521574136225));
#478=CARTESIAN_POINT('Ctrl Pts',(-79.8951920462684,-4.09891733025792,6.08675348093476));
#479=CARTESIAN_POINT('Ctrl Pts',(-79.9167853288596,-3.65569673383147,7.14594536632108));
#480=CARTESIAN_POINT('Ctrl Pts',(-79.9333754899911,-3.28214823054473,7.6634000722635));
#481=CARTESIAN_POINT('Ctrl Pts',(-79.9459090075935,-2.94052910642723,7.99766828892151));
#482=CARTESIAN_POINT('',(-79.9459892594942,2.93914692826165,7.99994467773655));
#483=CARTESIAN_POINT('Ctrl Pts',(-79.9458951325796,2.94043182643167,7.99803029364432));
#484=CARTESIAN_POINT('Ctrl Pts',(-79.9332984932984,3.28285029016117,7.66393387148015));
#485=CARTESIAN_POINT('Ctrl Pts',(-79.9097939333867,3.81037088541382,6.9370998647027));
#486=CARTESIAN_POINT('Ctrl Pts',(-79.8886809213225,4.21875838013997,5.60451869763932));
#487=CARTESIAN_POINT('Ctrl Pts',(-79.8890871227181,4.20934139826774,4.5977076309025));
#488=CARTESIAN_POINT('Ctrl Pts',(-79.8985044884014,4.02901745242532,3.76542312948611));
#489=CARTESIAN_POINT('Ctrl Pts',(-79.9219105794951,3.54877693697336,2.56458617596281));
#490=CARTESIAN_POINT('Ctrl Pts',(-79.9655321071215,2.5592476753575,1.47996945813623));
#491=CARTESIAN_POINT('Ctrl Pts',(-80.0020135043377,0.720280697381159,0.758985562523344));
#492=CARTESIAN_POINT('Ctrl Pts',(-80.001865686174,-0.61183773992857,0.762985991174626));
#493=CARTESIAN_POINT('Ctrl Pts',(-79.9803514145226,-1.84633672445406,1.18417846302509));
#494=CARTESIAN_POINT('Ctrl Pts',(-79.9497041953794,-2.91278453295689,1.86725311185242));
#495=CARTESIAN_POINT('Ctrl Pts',(-79.906169419539,-3.89993308345995,3.08519674464976));
#496=CARTESIAN_POINT('Ctrl Pts',(-79.8897165539476,-4.19918908003841,4.39712344850333));
#497=CARTESIAN_POINT('Ctrl Pts',(-79.8897165539476,-4.19918908003841,4.99999999999998));
#498=CARTESIAN_POINT('Origin',(8.88178419700125E-15,3.29232542759385E-15,
7.99999999999999));
#499=CARTESIAN_POINT('Origin',(-90.,-7.72949576473233E-15,4.99999999999998));
#500=CARTESIAN_POINT('',(-79.2234008285433,-3.5,5.));
#501=CARTESIAN_POINT('',(-79.2999958545034,0.000901358556948321,8.50086214636603));
#502=CARTESIAN_POINT('Ctrl Pts',(-79.2234008285433,-3.5,4.99999999999998));
#503=CARTESIAN_POINT('Ctrl Pts',(-79.2234008285433,-3.5,4.49328281698679));
#504=CARTESIAN_POINT('Ctrl Pts',(-79.2349447997316,-3.24554480609277,3.39097537563886));
#505=CARTESIAN_POINT('Ctrl Pts',(-79.2652642068002,-2.41498891119938,2.37827171634688));
#506=CARTESIAN_POINT('Ctrl Pts',(-79.2864604336682,-1.52722933138428,1.81503188835772));
#507=CARTESIAN_POINT('Ctrl Pts',(-79.3012898526697,-0.504639468116005,1.46956072613567));
#508=CARTESIAN_POINT('Ctrl Pts',(-79.3013866001949,0.594136001020308,1.46636864511217));
#509=CARTESIAN_POINT('Ctrl Pts',(-79.2762495766552,2.1181949933073,2.05764335382718));
#510=CARTESIAN_POINT('Ctrl Pts',(-79.2459278451029,2.94962378257099,2.95675333238048));
#511=CARTESIAN_POINT('Ctrl Pts',(-79.2295549346669,3.35576458654955,3.96290079364983));
#512=CARTESIAN_POINT('Ctrl Pts',(-79.2229622686074,3.50861143393746,4.66162920052343));
#513=CARTESIAN_POINT('Ctrl Pts',(-79.222675983786,3.51659070862344,5.50841091556499));
#514=CARTESIAN_POINT('Ctrl Pts',(-79.2390521589505,3.13320433176614,6.74665016788745));
#515=CARTESIAN_POINT('Ctrl Pts',(-79.2651679085729,2.41620694531987,7.61960071244966));
#516=CARTESIAN_POINT('Ctrl Pts',(-79.286331035762,1.53003283050615,8.18214117970995));
#517=CARTESIAN_POINT('Ctrl Pts',(-79.2975286855307,0.761821377565254,8.44345599979524));
#518=CARTESIAN_POINT('Ctrl Pts',(-79.2999967318432,0.254589402868572,8.50092722462287));
#519=CARTESIAN_POINT('Ctrl Pts',(-79.2999958545034,0.000901358556948516,
8.50086214636603));
#520=CARTESIAN_POINT('Ctrl Pts',(-79.2999958545034,0.000901358556948516,
8.50086214636603));
#521=CARTESIAN_POINT('Ctrl Pts',(-79.2999949771635,-0.252786685754672,8.50079706810919));
#522=CARTESIAN_POINT('Ctrl Pts',(-79.2979868381801,-0.665146850326389,8.45389019360202));
#523=CARTESIAN_POINT('Ctrl Pts',(-79.2915485352793,-1.17712398070612,8.30380432376155));
#524=CARTESIAN_POINT('Ctrl Pts',(-79.285199933608,-1.54192936127779,8.14709466621837));
#525=CARTESIAN_POINT('Ctrl Pts',(-79.2783730788052,-1.86279873562498,7.97071307230159));
#526=CARTESIAN_POINT('Ctrl Pts',(-79.2621203440064,-2.49979664178454,7.51888533615921));
#527=CARTESIAN_POINT('Ctrl Pts',(-79.2442614584545,-2.99233280244031,6.91360541251558));
#528=CARTESIAN_POINT('Ctrl Pts',(-79.2272396651945,-3.41479836397856,5.91337737562468));
#529=CARTESIAN_POINT('Ctrl Pts',(-79.2234008285433,-3.5,5.38003788725989));
#530=CARTESIAN_POINT('Ctrl Pts',(-79.2234008285433,-3.5,4.99999999999998));
#531=CARTESIAN_POINT('',(-47.3624117131957,0.000915802170645591,8.50149742909482));
#532=CARTESIAN_POINT('',(-90.,-8.1581221444339E-15,8.49999999999998));
#533=CARTESIAN_POINT('',(-48.5712687103534,-3.48747917050061,5.29578545488983));
#534=CARTESIAN_POINT('Ctrl Pts',(-48.5712687103534,-3.48747917050061,5.29578545488983));
#535=CARTESIAN_POINT('Ctrl Pts',(-48.422122903886,-3.46044909439444,5.61448546477508));
#536=CARTESIAN_POINT('Ctrl Pts',(-48.1271548876224,-3.31615152519659,6.27891572397524));
#537=CARTESIAN_POINT('Ctrl Pts',(-47.7726667127127,-2.78650717472151,7.198186577541));
#538=CARTESIAN_POINT('Ctrl Pts',(-47.5598672354366,-2.11644861054448,7.8359379414922));
#539=CARTESIAN_POINT('Ctrl Pts',(-47.453122906841,-1.48358478504423,8.18733040864737));
#540=CARTESIAN_POINT('Ctrl Pts',(-47.3830775171524,-0.798002357253795,8.43171990774642));
#541=CARTESIAN_POINT('Ctrl Pts',(-47.3627572963639,-0.353805447635351,8.50093771610043));
#542=CARTESIAN_POINT('Ctrl Pts',(-47.3623358519334,0.00097227426486414,
8.50158976667561));
#543=CARTESIAN_POINT('Ctrl Pts',(-47.3623358519334,0.00097227426486414,
8.50158976667561));
#544=CARTESIAN_POINT('Ctrl Pts',(-47.3619144075028,0.355749996165079,8.5022418172508));
#545=CARTESIAN_POINT('Ctrl Pts',(-47.3927409830421,1.06414582837643,8.39410152618512));
#546=CARTESIAN_POINT('Ctrl Pts',(-47.538918345328,2.05946360092121,7.89596315004869));
#547=CARTESIAN_POINT('Ctrl Pts',(-47.7732738262047,2.78459004603725,7.19694237174094));
#548=CARTESIAN_POINT('Ctrl Pts',(-48.1266827195784,3.31719371457807,6.27944916853228));
#549=CARTESIAN_POINT('Ctrl Pts',(-48.422289588388,3.45915253932899,5.61432721935713));
#550=CARTESIAN_POINT('Ctrl Pts',(-48.7706001816231,3.52376909543414,4.86946687743069));
#551=CARTESIAN_POINT('Ctrl Pts',(-49.0026573553889,3.48020149509985,4.40553245381936));
#552=CARTESIAN_POINT('Ctrl Pts',(-49.396840579383,3.24784401890178,3.65870009410615));
#553=CARTESIAN_POINT('Ctrl Pts',(-49.7183649838716,2.96753588155418,3.07028229962928));
#554=CARTESIAN_POINT('Ctrl Pts',(-50.132437896004,2.35333689034036,2.34455067571449));
#555=CARTESIAN_POINT('Ctrl Pts',(-50.4905774057151,1.42272823581892,1.73202040935539));
#556=CARTESIAN_POINT('Ctrl Pts',(-50.6559705021548,0.296328883691387,1.45244036131299));
#557=CARTESIAN_POINT('Ctrl Pts',(-50.6050233271814,-0.843979804807405,1.53843078620355));
#558=CARTESIAN_POINT('Ctrl Pts',(-50.3336433035201,-1.91036589161103,1.9991518894863));
#559=CARTESIAN_POINT('Ctrl Pts',(-49.9383878084261,-2.67982265403637,2.68165095322737));
#560=CARTESIAN_POINT('Ctrl Pts',(-49.4952474059082,-3.19546608776798,3.47283284492638));
#561=CARTESIAN_POINT('Ctrl Pts',(-49.002652606185,-3.4930480745111,4.40093770778212));
#562=CARTESIAN_POINT('Ctrl Pts',(-48.7060302550605,-3.51190235004482,5.00782224192674));
#563=CARTESIAN_POINT('Ctrl Pts',(-48.5712687103534,-3.48747917050061,5.29578545488983));
#564=CARTESIAN_POINT('Ctrl Pts',(-48.5712687103534,-3.48747917050061,5.29578545488983));
#565=CARTESIAN_POINT('Ctrl Pts',(-48.7060302550605,-3.51190235004482,5.00782224192674));
#566=CARTESIAN_POINT('Ctrl Pts',(-49.002652606185,-3.4930480745111,4.40093770778212));
#567=CARTESIAN_POINT('Ctrl Pts',(-49.4952474059082,-3.19546608776798,3.47283284492638));
#568=CARTESIAN_POINT('Ctrl Pts',(-49.9383878084261,-2.67982265403637,2.68165095322737));
#569=CARTESIAN_POINT('Ctrl Pts',(-50.3336433035201,-1.91036589161103,1.9991518894863));
#570=CARTESIAN_POINT('Ctrl Pts',(-50.6050233271814,-0.843979804807405,1.53843078620355));
#571=CARTESIAN_POINT('Ctrl Pts',(-50.6559705021548,0.296328883691387,1.45244036131299));
#572=CARTESIAN_POINT('Ctrl Pts',(-50.4905774057151,1.42272823581892,1.73202040935539));
#573=CARTESIAN_POINT('Ctrl Pts',(-50.132437896004,2.35333689034036,2.34455067571449));
#574=CARTESIAN_POINT('Ctrl Pts',(-49.7183649838716,2.96753588155418,3.07028229962928));
#575=CARTESIAN_POINT('Ctrl Pts',(-49.396840579383,3.24784401890178,3.65870009410615));
#576=CARTESIAN_POINT('Ctrl Pts',(-49.0026573553889,3.48020149509985,4.40553245381936));
#577=CARTESIAN_POINT('Ctrl Pts',(-48.7706001816231,3.52376909543414,4.86946687743069));
#578=CARTESIAN_POINT('Ctrl Pts',(-48.422289588388,3.45915253932899,5.61432721935713));
#579=CARTESIAN_POINT('Ctrl Pts',(-48.1266827195784,3.31719371457807,6.27944916853228));
#580=CARTESIAN_POINT('Ctrl Pts',(-47.7732738262047,2.78459004603725,7.19694237174094));
#581=CARTESIAN_POINT('Ctrl Pts',(-47.538918345328,2.05946360092121,7.89596315004869));
#582=CARTESIAN_POINT('Ctrl Pts',(-47.3440151956135,0.732373237528169,8.56014765156393));
#583=CARTESIAN_POINT('Ctrl Pts',(-47.348054822308,-0.455211143358576,8.55391465729595));
#584=CARTESIAN_POINT('Ctrl Pts',(-47.453122906841,-1.48358478504423,8.18733040864737));
#585=CARTESIAN_POINT('Ctrl Pts',(-47.5598672354366,-2.11644861054448,7.8359379414922));
#586=CARTESIAN_POINT('Ctrl Pts',(-47.7726667127127,-2.78650717472151,7.198186577541));
#587=CARTESIAN_POINT('Ctrl Pts',(-48.1271548876224,-3.31615152519659,6.27891572397524));
#588=CARTESIAN_POINT('Ctrl Pts',(-48.422122903886,-3.46044909439444,5.61448546477508));
#589=CARTESIAN_POINT('Ctrl Pts',(-48.5712687103534,-3.48747917050061,5.29578545488983));
#590=CARTESIAN_POINT('Ctrl Pts',(-48.3170531321993,-3.7201623390893,5.17724278397428));
#591=CARTESIAN_POINT('Ctrl Pts',(-48.461098881694,-3.73628108838558,4.86921486578145));
#592=CARTESIAN_POINT('Ctrl Pts',(-48.7771313424065,-3.69501638208495,4.22647868488936));
#593=CARTESIAN_POINT('Ctrl Pts',(-49.2994146094007,-3.35079599974007,3.2656508275033));
#594=CARTESIAN_POINT('Ctrl Pts',(-49.7672775251063,-2.78949520731676,2.46198503197935));
#595=CARTESIAN_POINT('Ctrl Pts',(-50.1835975362949,-1.97573849252373,1.78004365224301));
#596=CARTESIAN_POINT('Ctrl Pts',(-50.4691617722601,-0.868986989100776,1.32602177189521));
#597=CARTESIAN_POINT('Ctrl Pts',(-50.52272229522,0.30486424500887,1.24202637272508));
#598=CARTESIAN_POINT('Ctrl Pts',(-50.3487055843062,1.46771328403158,1.51604551078365));
#599=CARTESIAN_POINT('Ctrl Pts',(-49.9718231977055,2.44175164103686,2.12381457592272));
#600=CARTESIAN_POINT('Ctrl Pts',(-49.5350784362832,3.10044230547181,2.85507969308974));
#601=CARTESIAN_POINT('Ctrl Pts',(-49.195080874623,3.41241114652672,3.45828665104698));
#602=CARTESIAN_POINT('Ctrl Pts',(-48.7770619403608,3.68139647641297,4.23256773298629));
#603=CARTESIAN_POINT('Ctrl Pts',(-48.5299504020232,3.7446446122676,4.7211615961975));
#604=CARTESIAN_POINT('Ctrl Pts',(-48.1579486870785,3.70053627605294,5.51799771682698));
#605=CARTESIAN_POINT('Ctrl Pts',(-47.8412989185125,3.57157903700458,6.23750261259203));
#606=CARTESIAN_POINT('Ctrl Pts',(-47.4630360765077,3.01890668906614,7.25218153191285));
#607=CARTESIAN_POINT('Ctrl Pts',(-47.2143320808708,2.24194308930946,8.03426508885337));
#608=CARTESIAN_POINT('Ctrl Pts',(-47.0110369121019,0.799394445291073,8.77873821257619));
#609=CARTESIAN_POINT('Ctrl Pts',(-47.0156212011039,-0.497057582916505,8.77183623822475));
#610=CARTESIAN_POINT('Ctrl Pts',(-47.1246485685864,-1.61594542566886,8.36102434882282));
#611=CARTESIAN_POINT('Ctrl Pts',(-47.2367228158988,-2.30259709840495,7.96698172312801));
#612=CARTESIAN_POINT('Ctrl Pts',(-47.4622835823507,-3.0212184147645,7.25359643766678));
#613=CARTESIAN_POINT('Ctrl Pts',(-47.8418774680684,-3.57026691278123,6.23686019512229));
#614=CARTESIAN_POINT('Ctrl Pts',(-48.1577397971732,-3.70188539432124,5.51817022372372));
#615=CARTESIAN_POINT('Ctrl Pts',(-48.3170531321993,-3.7201623390893,5.17724278397428));
#616=CARTESIAN_POINT('Ctrl Pts',(-48.0628375540452,-3.95284550767799,5.05870011305873));
#617=CARTESIAN_POINT('Ctrl Pts',(-48.2158456937843,-3.96114993792591,4.73072776230532));
#618=CARTESIAN_POINT('Ctrl Pts',(-48.5518821698755,-3.89652042096713,4.05199326677171));
#619=CARTESIAN_POINT('Ctrl Pts',(-49.1036329899848,-3.50595359923458,3.05851151582244));
#620=CARTESIAN_POINT('Ctrl Pts',(-49.5961921410133,-2.89914182653595,2.24234606991526));
#621=CARTESIAN_POINT('Ctrl Pts',(-50.0334773927607,-2.04116735784619,1.56093254322589));
#622=CARTESIAN_POINT('Ctrl Pts',(-50.3331583254881,-0.894206999970306,1.1135903725081));
#623=CARTESIAN_POINT('Ctrl Pts',(-50.3894484177838,0.313346798641661,1.03161094307672));
#624=CARTESIAN_POINT('Ctrl Pts',(-50.206859451571,1.51229041160463,1.29984786055298));
#625=CARTESIAN_POINT('Ctrl Pts',(-49.810971172168,2.5306345655533,1.9032774348523));
#626=CARTESIAN_POINT('Ctrl Pts',(-49.3521106268634,3.2326741115372,2.6397524726512));
#627=CARTESIAN_POINT('Ctrl Pts',(-48.9933273549769,3.57682991518292,3.25792466094929));
#628=CARTESIAN_POINT('Ctrl Pts',(-48.551526188836,3.88258689862948,4.05949217583224));
#629=CARTESIAN_POINT('Ctrl Pts',(-48.2893859725188,3.96482148055272,4.57291122338474));
#630=CARTESIAN_POINT('Ctrl Pts',(-47.8935827087269,3.94243767127694,5.42150870689539));
#631=CARTESIAN_POINT('Ctrl Pts',(-47.5559994388417,3.82512845511838,6.1955719225122));
#632=CARTESIAN_POINT('Ctrl Pts',(-47.1527351963353,3.2541871458977,7.30703173924564));
#633=CARTESIAN_POINT('Ctrl Pts',(-46.8898606734396,2.42322523388274,8.17240402646368));
#634=CARTESIAN_POINT('Ctrl Pts',(-46.6776873111105,0.867273849814949,8.99815253563686));
#635=CARTESIAN_POINT('Ctrl Pts',(-46.6826943252684,-0.53870493593266,8.99003677627672));
#636=CARTESIAN_POINT('Ctrl Pts',(-46.7965360548186,-1.74826135283158,8.53446996688569));
#637=CARTESIAN_POINT('Ctrl Pts',(-46.9135260772505,-2.48863018262387,8.0980929532601));
#638=CARTESIAN_POINT('Ctrl Pts',(-47.1520649032744,-3.25631981971692,7.30868067764583));
#639=CARTESIAN_POINT('Ctrl Pts',(-47.5565538733975,-3.8240449288519,6.19494177287819));
#640=CARTESIAN_POINT('Ctrl Pts',(-47.893389876645,-3.94409237633987,5.4216587354022));
#641=CARTESIAN_POINT('Ctrl Pts',(-48.0628375540452,-3.95284550767799,5.05870011305873));
#642=CARTESIAN_POINT('Ctrl Pts',(-47.8086219758911,-4.18552867626668,4.94015744214318));
#643=CARTESIAN_POINT('Ctrl Pts',(-47.9709143204178,-4.18552867626668,4.59212038616004));
#644=CARTESIAN_POINT('Ctrl Pts',(-48.326360906097,-4.09848872854098,3.87753424387895));
#645=CARTESIAN_POINT('Ctrl Pts',(-48.9078001934773,-3.66128351120666,2.85132949839937));
#646=CARTESIAN_POINT('Ctrl Pts',(-49.4250818576936,-3.00881437981634,2.02268014866725));
#647=CARTESIAN_POINT('Ctrl Pts',(-49.8834316255355,-2.1065399587589,1.34182430598261));
#648=CARTESIAN_POINT('Ctrl Pts',(-50.1972967705667,-0.919214184263677,0.901181358199756));
#649=CARTESIAN_POINT('Ctrl Pts',(-50.256200210849,0.321882159959144,0.821196954488813));
#650=CARTESIAN_POINT('Ctrl Pts',(-50.0649876301621,1.55727545981729,1.08387296198123));
#651=CARTESIAN_POINT('Ctrl Pts',(-49.6503564738695,2.61904931624979,1.68254133506054));
#652=CARTESIAN_POINT('Ctrl Pts',(-49.1688240792751,3.36558053545484,2.42454986611165));
#653=CARTESIAN_POINT('Ctrl Pts',(-48.7915676502168,3.74139704280786,3.05751121789012));
#654=CARTESIAN_POINT('Ctrl Pts',(-48.3259307738078,4.0837818799426,3.88652745499917));
#655=CARTESIAN_POINT('Ctrl Pts',(-48.048736192919,4.18569699738618,4.42460594215155));
#656=CARTESIAN_POINT('Ctrl Pts',(-47.6292418074174,4.18382140800088,5.32517920436524));
#657=CARTESIAN_POINT('Ctrl Pts',(-47.2706156377758,4.07951377754489,6.15362536657195));
#658=CARTESIAN_POINT('Ctrl Pts',(-46.8424974466383,3.48850378892659,7.36227089941755));
#659=CARTESIAN_POINT('Ctrl Pts',(-46.5652744089824,2.60570472227099,8.31070596526835));
#660=CARTESIAN_POINT('Ctrl Pts',(-46.3447090275989,0.934295057577854,9.21674309664912));
#661=CARTESIAN_POINT('Ctrl Pts',(-46.3502607040642,-0.580551375490589,9.20795835720553));
#662=CARTESIAN_POINT('Ctrl Pts',(-46.468061716564,-1.8806219934562,8.70816390706115));
#663=CARTESIAN_POINT('Ctrl Pts',(-46.5903816577128,-2.67477867048434,8.22913673489591));
#664=CARTESIAN_POINT('Ctrl Pts',(-46.8416817729124,-3.49103105975991,7.36409053777161));
#665=CARTESIAN_POINT('Ctrl Pts',(-47.2712764538434,-4.07816031643654,6.15288624402524));
#666=CARTESIAN_POINT('Ctrl Pts',(-47.6290067699322,-4.18552867626667,5.32534349435085));
#667=CARTESIAN_POINT('Ctrl Pts',(-47.8086219758911,-4.18552867626668,4.94015744214318));
#668=CARTESIAN_POINT('',(-48.5712687103534,-3.48747917050061,5.29578545488983));
#669=CARTESIAN_POINT('Origin',(1.33226762955019E-14,3.29232542759385E-15,
10.));
#670=CARTESIAN_POINT('',(-78.,-7.15489058169817E-15,9.99999999999999));
#671=CARTESIAN_POINT('Origin',(1.33226762955019E-14,3.29232542759385E-15,
10.));
#672=CARTESIAN_POINT('Ctrl Pts',(-79.8897165539476,-4.19918908003841,4.99999999999998));
#673=CARTESIAN_POINT('Ctrl Pts',(-79.8897165539476,-4.19918908003841,4.39712344850333));
#674=CARTESIAN_POINT('Ctrl Pts',(-79.906169419539,-3.89993308345995,3.08519674464976));
#675=CARTESIAN_POINT('Ctrl Pts',(-79.9497041953794,-2.91278453295689,1.86725311185242));
#676=CARTESIAN_POINT('Ctrl Pts',(-79.9803514145226,-1.84633672445406,1.18417846302509));
#677=CARTESIAN_POINT('Ctrl Pts',(-80.001865686174,-0.61183773992857,0.762985991174626));
#678=CARTESIAN_POINT('Ctrl Pts',(-80.0020135043377,0.720280697381159,0.758985562523344));
#679=CARTESIAN_POINT('Ctrl Pts',(-79.9655321071215,2.5592476753575,1.47996945813623));
#680=CARTESIAN_POINT('Ctrl Pts',(-79.9219105794951,3.54877693697336,2.56458617596281));
#681=CARTESIAN_POINT('Ctrl Pts',(-79.8985044884014,4.02901745242532,3.76542312948611));
#682=CARTESIAN_POINT('Ctrl Pts',(-79.8890871227181,4.20934139826774,4.5977076309025));
#683=CARTESIAN_POINT('Ctrl Pts',(-79.8886809213225,4.21875838013997,5.60451869763932));
#684=CARTESIAN_POINT('Ctrl Pts',(-79.9120629014057,3.76648239796928,7.08030937178793));
#685=CARTESIAN_POINT('Ctrl Pts',(-79.9495682417158,2.91415481152852,8.13020233508612));
#686=CARTESIAN_POINT('Ctrl Pts',(-79.980166616576,1.84965703425967,8.81242876000804));
#687=CARTESIAN_POINT('Ctrl Pts',(-80.0018260362509,0.613109552889319,9.2371792604411));
#688=CARTESIAN_POINT('Ctrl Pts',(-80.0017489092379,-0.496038764971319,9.23524721657367));
#689=CARTESIAN_POINT('Ctrl Pts',(-79.9877326908654,-1.42369280294443,8.9606909206263));
#690=CARTESIAN_POINT('Ctrl Pts',(-79.9785367506908,-1.86345005157977,8.77010617887503));
#691=CARTESIAN_POINT('Ctrl Pts',(-79.9686614984984,-2.24940103533549,8.55602334398164));
#692=CARTESIAN_POINT('Ctrl Pts',(-79.9451923530257,-3.01352264497743,8.00905502526884));
#693=CARTESIAN_POINT('Ctrl Pts',(-79.9195420505249,-3.59911266350589,7.28116784608446));
#694=CARTESIAN_POINT('Ctrl Pts',(-79.8951920462684,-4.09891733025792,6.08675348093476));
#695=CARTESIAN_POINT('Ctrl Pts',(-79.8897165539476,-4.19918908003841,5.4521574136225));
#696=CARTESIAN_POINT('Ctrl Pts',(-79.8897165539476,-4.19918908003841,4.99999999999998));
#697=CARTESIAN_POINT('Ctrl Pts',(-79.6676113121461,-3.96612605335894,4.99999999999998));
#698=CARTESIAN_POINT('Ctrl Pts',(-79.6676113121461,-3.96612605335894,4.42917657133115));
#699=CARTESIAN_POINT('Ctrl Pts',(-79.6824278796032,-3.68180365767089,3.18712295497946));
#700=CARTESIAN_POINT('Ctrl Pts',(-79.7215575325197,-2.74685265903772,2.0375926466839));
#701=CARTESIAN_POINT('Ctrl Pts',(-79.7490544209045,-1.7399675934308,1.39446293813597));
#702=CARTESIAN_POINT('Ctrl Pts',(-79.7683404083392,-0.576104982657715,0.998510902828309));
#703=CARTESIAN_POINT('Ctrl Pts',(-79.7684712029568,0.678232465260877,0.994779923386285));
#704=CARTESIAN_POINT('Ctrl Pts',(-79.7357712636328,2.4122301146741,1.67252742336655));
#705=CARTESIAN_POINT('Ctrl Pts',(-79.6965830013644,3.34905921883924,2.69530856143537));
#706=CARTESIAN_POINT('Ctrl Pts',(-79.6755213038232,3.80459983046673,3.83124901754068));
#707=CARTESIAN_POINT('Ctrl Pts',(-79.6670455046812,3.97576474349098,4.61901482077614));
#708=CARTESIAN_POINT('Ctrl Pts',(-79.666679275477,3.98470248963446,5.57248277028121));
#709=CARTESIAN_POINT('Ctrl Pts',(-79.687725987254,3.5553897092349,6.96908963715444));
#710=CARTESIAN_POINT('Ctrl Pts',(-79.7214347973348,2.74817218945897,7.9600017942073));
#711=CARTESIAN_POINT('Ctrl Pts',(-79.748888089638,1.7431156330085,8.60233289990868));
#712=CARTESIAN_POINT('Ctrl Pts',(-79.7683044359851,0.577323333010087,9.00163982023529));
#713=CARTESIAN_POINT('Ctrl Pts',(-79.7682346027021,-0.467078605026387,8.99980918722319));
#714=CARTESIAN_POINT('Ctrl Pts',(-79.75567130567,-1.34150319553166,8.74172872167138));
#715=CARTESIAN_POINT('Ctrl Pts',(-79.7474244783298,-1.75627648814577,8.56243567465615));
#716=CARTESIAN_POINT('Ctrl Pts',(-79.7385653586007,-2.12053360209865,8.36091992008829));
#717=CARTESIAN_POINT('Ctrl Pts',(-79.7175016833526,-2.84228064391313,7.84566512889897));
#718=CARTESIAN_POINT('Ctrl Pts',(-79.6944485198348,-3.39685270981736,7.15864703489484));
#719=CARTESIAN_POINT('Ctrl Pts',(-79.6725412525771,-3.87087767483147,6.0289614458314));
#720=CARTESIAN_POINT('Ctrl Pts',(-79.6676113121461,-3.96612605335894,5.42811757150163));
#721=CARTESIAN_POINT('Ctrl Pts',(-79.6676113121461,-3.96612605335894,4.99999999999998));
#722=CARTESIAN_POINT('Ctrl Pts',(-79.4455060703447,-3.73306302667947,4.99999999999998));
#723=CARTESIAN_POINT('Ctrl Pts',(-79.4455060703447,-3.73306302667947,4.46122969415897));
#724=CARTESIAN_POINT('Ctrl Pts',(-79.4586863396674,-3.46367423188183,3.28904916530916));
#725=CARTESIAN_POINT('Ctrl Pts',(-79.4934108696599,-2.58092078511855,2.20793218151539));
#726=CARTESIAN_POINT('Ctrl Pts',(-79.5177574272863,-1.63359846240754,1.60474741324684));
#727=CARTESIAN_POINT('Ctrl Pts',(-79.5348151305045,-0.540372225386859,1.23403581448199));
#728=CARTESIAN_POINT('Ctrl Pts',(-79.5349289015758,0.63618423314059,1.23057428424922));
#729=CARTESIAN_POINT('Ctrl Pts',(-79.506010420144,2.2652125539907,1.86508538859686));
#730=CARTESIAN_POINT('Ctrl Pts',(-79.4712554232337,3.14934150070511,2.82603094690792));
#731=CARTESIAN_POINT('Ctrl Pts',(-79.452538119245,3.58018220850814,3.89707490559526));
#732=CARTESIAN_POINT('Ctrl Pts',(-79.4450038866443,3.74218808871422,4.64032201064979));
#733=CARTESIAN_POINT('Ctrl Pts',(-79.4446776296315,3.75064659912895,5.5404468429231));
#734=CARTESIAN_POINT('Ctrl Pts',(-79.4633890731022,3.34429702050052,6.85786990252094));
#735=CARTESIAN_POINT('Ctrl Pts',(-79.4933013529539,2.58218956738942,7.78980125332848));
#736=CARTESIAN_POINT('Ctrl Pts',(-79.5176095627,1.63657423175732,8.39223703980932));
#737=CARTESIAN_POINT('Ctrl Pts',(-79.5347828357193,0.541537113130856,8.76610038002948));
#738=CARTESIAN_POINT('Ctrl Pts',(-79.5347202961663,-0.438118445081454,8.76437115787272));
#739=CARTESIAN_POINT('Ctrl Pts',(-79.5236099204746,-1.25931358811889,8.52276652271646));
#740=CARTESIAN_POINT('Ctrl Pts',(-79.5163122059689,-1.64910292471178,8.35476517043726));
#741=CARTESIAN_POINT('Ctrl Pts',(-79.508469218703,-1.99166616886181,8.16581649619494));
#742=CARTESIAN_POINT('Ctrl Pts',(-79.4898110136795,-2.67103864284884,7.68227523252909));
#743=CARTESIAN_POINT('Ctrl Pts',(-79.4693549891446,-3.19459275612884,7.03612622370521));
#744=CARTESIAN_POINT('Ctrl Pts',(-79.4498904588858,-3.64283801940501,5.97116941072804));
#745=CARTESIAN_POINT('Ctrl Pts',(-79.4455060703447,-3.73306302667947,5.40407772938076));
#746=CARTESIAN_POINT('Ctrl Pts',(-79.4455060703447,-3.73306302667947,4.99999999999998));
#747=CARTESIAN_POINT('Ctrl Pts',(-79.2234008285433,-3.5,4.99999999999998));
#748=CARTESIAN_POINT('Ctrl Pts',(-79.2234008285433,-3.5,4.49328281698679));
#749=CARTESIAN_POINT('Ctrl Pts',(-79.2349447997316,-3.24554480609277,3.39097537563886));
#750=CARTESIAN_POINT('Ctrl Pts',(-79.2652642068002,-2.41498891119938,2.37827171634688));
#751=CARTESIAN_POINT('Ctrl Pts',(-79.2864604336682,-1.52722933138428,1.81503188835772));
#752=CARTESIAN_POINT('Ctrl Pts',(-79.3012898526697,-0.504639468116005,1.46956072613567));
#753=CARTESIAN_POINT('Ctrl Pts',(-79.3013866001949,0.594136001020308,1.46636864511217));
#754=CARTESIAN_POINT('Ctrl Pts',(-79.2762495766552,2.1181949933073,2.05764335382718));
#755=CARTESIAN_POINT('Ctrl Pts',(-79.2459278451029,2.94962378257099,2.95675333238048));
#756=CARTESIAN_POINT('Ctrl Pts',(-79.2295549346669,3.35576458654955,3.96290079364983));
#757=CARTESIAN_POINT('Ctrl Pts',(-79.2229622686074,3.50861143393746,4.66162920052343));
#758=CARTESIAN_POINT('Ctrl Pts',(-79.222675983786,3.51659070862344,5.50841091556499));
#759=CARTESIAN_POINT('Ctrl Pts',(-79.2390521589505,3.13320433176614,6.74665016788745));
#760=CARTESIAN_POINT('Ctrl Pts',(-79.2651679085729,2.41620694531987,7.61960071244966));
#761=CARTESIAN_POINT('Ctrl Pts',(-79.286331035762,1.53003283050615,8.18214117970995));
#762=CARTESIAN_POINT('Ctrl Pts',(-79.3012612354536,0.505750893251624,8.53056093982368));
#763=CARTESIAN_POINT('Ctrl Pts',(-79.3012059896305,-0.409158285136521,8.52893312852225));
#764=CARTESIAN_POINT('Ctrl Pts',(-79.2915485352793,-1.17712398070612,8.30380432376155));
#765=CARTESIAN_POINT('Ctrl Pts',(-79.285199933608,-1.54192936127779,8.14709466621837));
#766=CARTESIAN_POINT('Ctrl Pts',(-79.2783730788052,-1.86279873562498,7.97071307230159));
#767=CARTESIAN_POINT('Ctrl Pts',(-79.2621203440064,-2.49979664178454,7.51888533615921));
#768=CARTESIAN_POINT('Ctrl Pts',(-79.2442614584545,-2.99233280244031,6.91360541251558));
#769=CARTESIAN_POINT('Ctrl Pts',(-79.2272396651945,-3.41479836397856,5.91337737562468));
#770=CARTESIAN_POINT('Ctrl Pts',(-79.2234008285433,-3.5,5.38003788725989));
#771=CARTESIAN_POINT('Ctrl Pts',(-79.2234008285433,-3.5,4.99999999999998));
#772=CARTESIAN_POINT('',(-79.756465996625,-6.83868422609875E-15,8.95646599662504));
#773=CARTESIAN_POINT('Ctrl Pts',(-79.9459919795924,2.93910979701974,7.99999999999302));
#774=CARTESIAN_POINT('Ctrl Pts',(-79.9464090078246,2.92776631616923,8.01111744956536));
#775=CARTESIAN_POINT('Ctrl Pts',(-79.9467356633906,2.91629246662488,8.02210692014842));
#776=CARTESIAN_POINT('Ctrl Pts',(-79.9473607604706,2.88635462451517,8.05015022422051));
#777=CARTESIAN_POINT('Ctrl Pts',(-79.947532275273,2.86770326864798,8.06701624777181));
#778=CARTESIAN_POINT('Ctrl Pts',(-79.9474626353795,2.79512962287062,8.13048078980669));
#779=CARTESIAN_POINT('Ctrl Pts',(-79.9458903926775,2.73917264418165,8.17494564366706));
#780=CARTESIAN_POINT('Ctrl Pts',(-79.9337771598573,2.47690984992467,8.36646519039364));
#781=CARTESIAN_POINT('Ctrl Pts',(-79.9108612555221,2.24761040075953,8.48842052481853));
#782=CARTESIAN_POINT('Ctrl Pts',(-79.8630463644566,1.7795163006043,8.68292026601043));
#783=CARTESIAN_POINT('Ctrl Pts',(-79.8373175473532,1.53463962518094,8.75838021469967));
#784=CARTESIAN_POINT('Ctrl Pts',(-79.796075788342,1.05633873798114,8.86804182930446));
#785=CARTESIAN_POINT('Ctrl Pts',(-79.7796979665852,0.821036948213392,8.90528683247249));
#786=CARTESIAN_POINT('Ctrl Pts',(-79.7645930123941,0.474804678584645,8.93895342810017));
#787=CARTESIAN_POINT('Ctrl Pts',(-79.7610758297967,0.364713360102087,8.94655692489028));
#788=CARTESIAN_POINT('Ctrl Pts',(-79.7578691571415,0.199320402238388,8.953464370134));
#789=CARTESIAN_POINT('Ctrl Pts',(-79.7571436816791,0.144102932506037,8.95501654992248));
#790=CARTESIAN_POINT('Ctrl Pts',(-79.7565668093408,0.0592530309924468,8.95625063916069));
#791=CARTESIAN_POINT('Ctrl Pts',(-79.756465996625,0.0296264042434943,8.95646599662504));
#792=CARTESIAN_POINT('Ctrl Pts',(-79.756465996625,-6.28721915665679E-15,
8.95646599662504));
#793=CARTESIAN_POINT('',(-79.8897165539476,-4.19918908003841,4.99999999999998));
#794=CARTESIAN_POINT('Ctrl Pts',(-79.756465996625,-6.28721915665679E-15,
8.95646599662504));
#795=CARTESIAN_POINT('Ctrl Pts',(-79.756465996625,-0.0149045002640656,8.95646599662504));
#796=CARTESIAN_POINT('Ctrl Pts',(-79.756491503968,-0.0298089442139719,8.95641148806606));
#797=CARTESIAN_POINT('Ctrl Pts',(-79.7567117068686,-0.0941604258437554,
8.95594074928344));
#798=CARTESIAN_POINT('Ctrl Pts',(-79.7571618083834,-0.143604867322263,8.9549790529917));
#799=CARTESIAN_POINT('Ctrl Pts',(-79.7590957303045,-0.274856155669601,8.95082711812647));
#800=CARTESIAN_POINT('Ctrl Pts',(-79.7610656342247,-0.356635230327174,8.94658907672815));
#801=CARTESIAN_POINT('Ctrl Pts',(-79.7751450706284,-0.782287072766854,8.91578472886318));
#802=CARTESIAN_POINT('Ctrl Pts',(-79.8002245123502,-1.12453699156934,8.86146736349501));
#803=CARTESIAN_POINT('Ctrl Pts',(-79.8647362413874,-1.81563692707869,8.67769416515989));
#804=CARTESIAN_POINT('Ctrl Pts',(-79.902376593783,-2.14018768302119,8.54727976477472));
#805=CARTESIAN_POINT('Ctrl Pts',(-79.9348957448373,-2.53064778198016,8.32285597098439));
#806=CARTESIAN_POINT('Ctrl Pts',(-79.9423009031105,-2.63981570528827,8.25089146072267));
#807=CARTESIAN_POINT('Ctrl Pts',(-79.9469654131792,-2.78327174061276,8.13944666926535));
#808=CARTESIAN_POINT('Ctrl Pts',(-79.9476448276853,-2.82331704485618,8.10628296851567));
#809=CARTESIAN_POINT('Ctrl Pts',(-79.9474302012047,-2.87891434214729,8.05688350260601));
#810=CARTESIAN_POINT('Ctrl Pts',(-79.947209930735,-2.89548196423937,8.0417103810265));
#811=CARTESIAN_POINT('Ctrl Pts',(-79.9465981858991,-2.92098285917774,8.01760394738793));
#812=CARTESIAN_POINT('Ctrl Pts',(-79.9463236736953,-2.93008746852173,8.0088425487154));
#813=CARTESIAN_POINT('Ctrl Pts',(-79.9459919795925,-2.93910979701976,7.99999999999303));
#814=CARTESIAN_POINT('Origin',(8.88178419700125E-15,3.29232542759385E-15,
7.99999999999999));
#815=CARTESIAN_POINT('Origin',(-78.,-7.15489058169817E-15,7.99999999999998));
#816=CARTESIAN_POINT('Ctrl Pts',(3.59559168492,22.5281625506588,60.3564401616412));
#817=CARTESIAN_POINT('Ctrl Pts',(4.9226051048879,22.1034854121868,58.3179543925053));
#818=CARTESIAN_POINT('Ctrl Pts',(8.42280434119534,20.4471752833415,54.7505536869353));
#819=CARTESIAN_POINT('Ctrl Pts',(12.5600606316622,17.3783806744008,54.2833206419088));
#820=CARTESIAN_POINT('Ctrl Pts',(14.9767119140271,15.2779844964248,55.0493366404258));
#821=CARTESIAN_POINT('Ctrl Pts',(4.04307359336085,22.4957691659429,60.9435070527213));
#822=CARTESIAN_POINT('Ctrl Pts',(5.34925874445409,22.0640643843964,58.952478080622));
#823=CARTESIAN_POINT('Ctrl Pts',(8.76393079251031,20.4233111156108,55.4822703013851));
#824=CARTESIAN_POINT('Ctrl Pts',(12.8035135211813,17.4488997048913,55.0158537146702));
#825=CARTESIAN_POINT('Ctrl Pts',(15.1847199185101,15.3981444990808,55.7480720468497));
#826=CARTESIAN_POINT('Ctrl Pts',(4.49429540879795,22.4834335616572,61.5288298714789));
#827=CARTESIAN_POINT('Ctrl Pts',(5.78157524773719,22.0457025687888,59.5843609805782));
#828=CARTESIAN_POINT('Ctrl Pts',(9.11576013315459,20.420863037277,56.2089958766496));
#829=CARTESIAN_POINT('Ctrl Pts',(13.0606054688011,17.5361389694542,55.7420266299496));
#830=CARTESIAN_POINT('Ctrl Pts',(15.4066009600201,15.5319071182208,56.4403382248167));
#831=CARTESIAN_POINT('Ctrl Pts',(4.94856462277018,22.4911746697549,62.1115102991922));
#832=CARTESIAN_POINT('Ctrl Pts',(6.21884352842745,22.048429447347,60.2125715762719));
#833=CARTESIAN_POINT('Ctrl Pts',(9.47765676492679,20.4398372222991,56.9294220451383));
#834=CARTESIAN_POINT('Ctrl Pts',(13.3309106993047,17.6399457685266,56.4606275421059));
#835=CARTESIAN_POINT('Ctrl Pts',(15.6420145087038,15.6790670629162,57.1250727252846));
#836=CARTESIAN_POINT('Ctrl Pts',(-20.3873473700322,-7.25017805423401,71.53986830803));
#837=CARTESIAN_POINT('Ctrl Pts',(-21.5331899183747,-5.25020378228004,70.6544942144316));
#838=CARTESIAN_POINT('Ctrl Pts',(-23.0951064916007,-0.369130306525822,69.4476264189421));
#839=CARTESIAN_POINT('Ctrl Pts',(-21.9151374344889,4.5835456916287,70.3593695165655));
#840=CARTESIAN_POINT('Ctrl Pts',(-20.3873473700322,7.250178054234,71.53986830803));
#841=CARTESIAN_POINT('Ctrl Pts',(-20.1284891652753,-7.09762466686215,72.2148918766475));
#842=CARTESIAN_POINT('Ctrl Pts',(-21.2367162585993,-5.12785348095772,71.3497218240631));
#843=CARTESIAN_POINT('Ctrl Pts',(-22.7351601126164,-0.357261253592242,70.1705631729204));
#844=CARTESIAN_POINT('Ctrl Pts',(-21.6061252897073,4.47126308565623,71.061331806535));
#845=CARTESIAN_POINT('Ctrl Pts',(-20.1284891652753,7.09762466686214,72.2148918766475));
#846=CARTESIAN_POINT('Ctrl Pts',(-19.8872440482316,-6.95152644343642,72.8981284379));
#847=CARTESIAN_POINT('Ctrl Pts',(-20.9596031893901,-5.010621562143,72.0539772739));
#848=CARTESIAN_POINT('Ctrl Pts',(-22.3973741975727,-0.345872949838655,70.9038333208246));
#849=CARTESIAN_POINT('Ctrl Pts',(-21.3170562364429,4.36365326837852,71.7725935525667));
#850=CARTESIAN_POINT('Ctrl Pts',(-19.8872440482316,6.95152644343641,72.8981284379));
#851=CARTESIAN_POINT('Ctrl Pts',(-19.6639822675883,-6.8121076068388,73.5885294008653));
#852=CARTESIAN_POINT('Ctrl Pts',(-20.7023014545892,-4.89870335522299,72.7661076481535));
#853=CARTESIAN_POINT('Ctrl Pts',(-22.0823577520443,-0.334988487792294,71.6461161230777));
#854=CARTESIAN_POINT('Ctrl Pts',(-21.0484078502561,4.26090193801771,72.4919670639163));
#855=CARTESIAN_POINT('Ctrl Pts',(-19.6639822675883,6.81210760683879,73.5885294008653));
#856=UNCERTAINTY_MEASURE_WITH_UNIT(LENGTH_MEASURE(0.01),#860,
'DISTANCE_ACCURACY_VALUE',
'Maximum model space distance between geometric entities at asserted c
onnectivities');
#857=UNCERTAINTY_MEASURE_WITH_UNIT(LENGTH_MEASURE(0.01),#860,
'DISTANCE_ACCURACY_VALUE',
'Maximum model space distance between geometric entities at asserted c
onnectivities');
#858=(
GEOMETRIC_REPRESENTATION_CONTEXT(3)
GLOBAL_UNCERTAINTY_ASSIGNED_CONTEXT((#856))
GLOBAL_UNIT_ASSIGNED_CONTEXT((#860,#862,#863))
REPRESENTATION_CONTEXT('','3D')
);
#859=(
GEOMETRIC_REPRESENTATION_CONTEXT(3)
GLOBAL_UNCERTAINTY_ASSIGNED_CONTEXT((#857))
GLOBAL_UNIT_ASSIGNED_CONTEXT((#860,#862,#863))
REPRESENTATION_CONTEXT('','3D')
);
#860=(
LENGTH_UNIT()
NAMED_UNIT(*)
SI_UNIT(.MILLI.,.METRE.)
);
#861=(
LENGTH_UNIT()
NAMED_UNIT(*)
SI_UNIT($,.METRE.)
);
#862=(
NAMED_UNIT(*)
PLANE_ANGLE_UNIT()
SI_UNIT($,.RADIAN.)
);
#863=(
NAMED_UNIT(*)
SI_UNIT($,.STERADIAN.)
SOLID_ANGLE_UNIT()
);
#864=SHAPE_DEFINITION_REPRESENTATION(#865,#866);
#865=PRODUCT_DEFINITION_SHAPE('',$,#868);
#866=SHAPE_REPRESENTATION('',(#275),#858);
#867=PRODUCT_DEFINITION_CONTEXT('part definition',#872,'design');
#868=PRODUCT_DEFINITION('complete-bottom','complete-bottom v3',#869,#867);
#869=PRODUCT_DEFINITION_FORMATION('',$,#874);
#870=PRODUCT_RELATED_PRODUCT_CATEGORY('complete-bottom v3',
'complete-bottom v3',(#874));
#871=APPLICATION_PROTOCOL_DEFINITION('international standard',
'automotive_design',2009,#872);
#872=APPLICATION_CONTEXT(
'Core Data for Automotive Mechanical Design Process');
#873=PRODUCT_CONTEXT('part definition',#872,'mechanical');
#874=PRODUCT('complete-bottom','complete-bottom v3',$,(#873));
#875=PRESENTATION_STYLE_ASSIGNMENT((#876));
#876=SURFACE_STYLE_USAGE(.BOTH.,#877);
#877=SURFACE_SIDE_STYLE('',(#878));
#878=SURFACE_STYLE_FILL_AREA(#879);
#879=FILL_AREA_STYLE('Stahl - satiniert',(#880));
#880=FILL_AREA_STYLE_COLOUR('Stahl - satiniert',#881);
#881=COLOUR_RGB('Stahl - satiniert',0.627450980392157,0.627450980392157,
0.627450980392157);
ENDSEC;
END-ISO-10303-21;
