ISO-10303-21;
HEADER;
/* Generated by software containing ST-Developer
 * from STEP Tools, Inc. (www.steptools.com) 
 */

FILE_DESCRIPTION(
/* description */ (''),
/* implementation_level */ '2;1');

FILE_NAME(
/* name */ 'al-node-no-legs-not-rounded.step',
/* time_stamp */ '2026-08-18T11:23:54+02:00',
/* author */ (''),
/* organization */ (''),
/* preprocessor_version */ 'ST-DEVELOPER v20.1',
/* originating_system */ 'Autodesk Translation Framework v15.8.0.0',
/* authorisation */ '');

FILE_SCHEMA (('AUTOMOTIVE_DESIGN { 1 0 10303 214 3 1 1 }'));
ENDSEC;

DATA;
#10=MECHANICAL_DESIGN_GEOMETRIC_PRESENTATION_REPRESENTATION('',(#13),#1547);
#11=SHAPE_REPRESENTATION_RELATIONSHIP('SRR','None',#1554,#12);
#12=ADVANCED_BREP_SHAPE_REPRESENTATION('',(#14),#1546);
#13=STYLED_ITEM('',(#1563),#14);
#14=MANIFOLD_SOLID_BREP('Node',#700);
#15=ELLIPSE('',#747,28.1691320420066,23.);
#16=ELLIPSE('',#748,28.1691320420065,23.);
#17=ELLIPSE('',#749,28.1691320420065,23.);
#18=ELLIPSE('',#751,28.1691320420066,23.);
#19=ELLIPSE('',#752,28.1691320420065,23.);
#20=ELLIPSE('',#754,28.1691320420066,23.);
#21=ELLIPSE('',#755,28.1691320420065,23.);
#22=ELLIPSE('',#757,28.1691320420065,23.);
#23=ELLIPSE('',#758,28.1691320420065,23.);
#24=ELLIPSE('',#768,28.1691320420066,23.);
#25=ELLIPSE('',#769,28.1691320420065,23.);
#26=ELLIPSE('',#770,28.1691320420066,23.);
#27=ELLIPSE('',#773,28.1691320420066,23.);
#28=ELLIPSE('',#775,28.1691320420066,23.);
#29=ELLIPSE('',#777,28.1691320420066,23.);
#30=ELLIPSE('',#783,28.1691320420066,23.);
#31=ELLIPSE('',#798,28.1691320420065,23.);
#32=ELLIPSE('',#804,28.1691320420065,23.);
#33=ELLIPSE('',#808,28.1691320420066,23.);
#34=B_SPLINE_CURVE_WITH_KNOTS('',3,(#1135,#1136,#1137,#1138,#1139,#1140,
#1141,#1142,#1143,#1144,#1145,#1146,#1147,#1148,#1149,#1150,#1151,#1152,
#1153,#1154,#1155,#1156),.UNSPECIFIED.,.F.,.F.,(4,2,2,2,2,2,2,2,2,2,4),
(0.797565073582654,0.927567239406559,1.29990162605882,1.67223601271108,
2.04457039936333,2.41690478601559,2.78923917266785,3.16157355932011,3.53390794597237,
3.90624233262463,4.03624449844853),.UNSPECIFIED.);
#35=B_SPLINE_CURVE_WITH_KNOTS('',3,(#1158,#1159,#1160,#1161,#1162,#1163,
#1164,#1165,#1166,#1167,#1168,#1169,#1170,#1171,#1172,#1173,#1174,#1175,
#1176,#1177,#1178,#1179),.UNSPECIFIED.,.F.,.F.,(4,2,2,2,2,2,2,2,2,2,4),
(0.797565073582654,0.927567239406559,1.29990162605882,1.67223601271107,
2.04457039936333,2.41690478601559,2.78923917266785,3.16157355932011,3.53390794597236,
3.90624233262462,4.03624449844853),.UNSPECIFIED.);
#36=B_SPLINE_CURVE_WITH_KNOTS('',3,(#1180,#1181,#1182,#1183,#1184,#1185,
#1186,#1187,#1188,#1189,#1190,#1191,#1192,#1193,#1194,#1195,#1196,#1197,
#1198,#1199,#1200,#1201),.UNSPECIFIED.,.F.,.F.,(4,2,2,2,2,2,2,2,2,2,4),
(0.796733341086112,0.883775259032861,1.26783554171526,1.65189582439766,
2.03595610708006,2.42001638976246,2.80407667244486,3.18813695512726,3.57219723780966,
3.95625752049206,4.04329943843881),.UNSPECIFIED.);
#37=B_SPLINE_CURVE_WITH_KNOTS('',3,(#1216,#1217,#1218,#1219,#1220,#1221,
#1222,#1223,#1224,#1225,#1226,#1227,#1228,#1229,#1230,#1231,#1232,#1233,
#1234,#1235,#1236,#1237,#1238,#1239,#1240,#1241),.UNSPECIFIED.,.F.,.F.,
(4,2,2,2,2,2,2,2,2,2,2,2,4),(-4.01287174816101,-3.93035275925474,-3.63332580028341,
-3.32767355473365,-3.02202130918388,-2.71636906363412,-2.41071681808436,
-2.1050645725346,-1.79941232698484,-1.49376008143507,-1.18810783588531,
-0.891080876913984,-0.808561888450438),.UNSPECIFIED.);
#38=B_SPLINE_CURVE_WITH_KNOTS('',3,(#1248,#1249,#1250,#1251,#1252,#1253,
#1254,#1255,#1256,#1257,#1258,#1259,#1260,#1261,#1262,#1263,#1264,#1265,
#1266,#1267,#1268,#1269),.UNSPECIFIED.,.F.,.F.,(4,2,2,2,2,2,2,2,2,2,4),
(-4.0123207465226,-3.91206727880602,-3.60866926104501,-3.00989996354477,
-2.71051531479465,-2.41113066604453,-2.1117460172944,-1.81236136854428,
-1.21359207104404,-0.910194053283028,-0.809940585566453),.UNSPECIFIED.);
#39=B_SPLINE_CURVE_WITH_KNOTS('',3,(#1275,#1276,#1277,#1278,#1279,#1280,
#1281,#1282,#1283,#1284,#1285,#1286,#1287,#1288,#1289,#1290,#1291,#1292,
#1293,#1294,#1295,#1296,#1297,#1298),.UNSPECIFIED.,.F.,.F.,(4,2,2,2,2,2,
2,2,2,2,2,4),(6.2095542737571,6.30980774195844,6.61320575971945,7.2119750572197,
7.51135970596982,7.81074435471994,8.1163966002697,8.42204884581946,8.72770109136923,
9.03335333691899,9.33038029589032,9.41289928528094),.UNSPECIFIED.);
#40=B_SPLINE_CURVE_WITH_KNOTS('',3,(#1338,#1339,#1340,#1341,#1342,#1343,
#1344,#1345,#1346,#1347,#1348,#1349,#1350,#1351,#1352,#1353,#1354,#1355,
#1356,#1357,#1358,#1359,#1360,#1361,#1362,#1363),.UNSPECIFIED.,.F.,.F.,
(4,2,2,2,2,2,2,2,2,2,2,2,4),(-4.01287174816101,-3.93035275925474,-3.63332580028341,
-3.32767355473365,-3.02202130918389,-2.71636906363412,-2.41071681808436,
-2.1050645725346,-1.79941232698484,-1.49376008143508,-1.18810783588531,
-0.891080876913986,-0.808562109961706),.UNSPECIFIED.);
#41=B_SPLINE_CURVE_WITH_KNOTS('',3,(#1370,#1371,#1372,#1373,#1374,#1375,
#1376,#1377,#1378,#1379,#1380,#1381,#1382,#1383),.UNSPECIFIED.,.F.,.F.,
(4,2,2,2,2,2,4),(-2.41071681808436,-2.1050645725346,-1.79941232698484,-1.49376008143507,
-1.18810783588531,-0.891080876913984,-0.808562109961704),.UNSPECIFIED.);
#42=B_SPLINE_CURVE_WITH_KNOTS('',3,(#1384,#1385,#1386,#1387,#1388,#1389,
#1390,#1391,#1392,#1393,#1394,#1395,#1396,#1397),.UNSPECIFIED.,.F.,.F.,
(4,2,2,2,2,2,4),(-4.01287152620702,-3.93035275925474,-3.63332580028341,
-3.32767355473365,-3.02202130918388,-2.71636906363412,-2.41071681808436),
 .UNSPECIFIED.);
#43=B_SPLINE_CURVE_WITH_KNOTS('',3,(#1408,#1409,#1410,#1411,#1412,#1413,
#1414,#1415,#1416,#1417,#1418,#1419,#1420,#1421,#1422,#1423,#1424,#1425,
#1426,#1427,#1428,#1429,#1430,#1431),.UNSPECIFIED.,.F.,.F.,(4,2,2,2,2,2,
2,2,2,2,2,4),(6.11474995318395,6.2150034223265,6.51840144008751,7.11717073758775,
7.41655538633788,7.715940035088,8.02159228063776,8.32724452618752,8.63289677173728,
8.93854901728705,9.23557597625837,9.31809496516465),.UNSPECIFIED.);
#44=B_SPLINE_CURVE_WITH_KNOTS('',3,(#1432,#1433,#1434,#1435,#1436,#1437,
#1438,#1439,#1440,#1441,#1442,#1443,#1444,#1445,#1446,#1447,#1448,#1449,
#1450,#1451,#1452,#1453,#1454,#1455,#1456,#1457),.UNSPECIFIED.,.F.,.F.,
(4,2,2,2,2,2,2,2,2,2,2,2,4),(0.808562109961707,0.891080876913984,1.18810783588531,
1.49376008143507,1.79941232698484,2.1050645725346,2.41071681808436,2.71636906363412,
3.02202130918388,3.32767355473365,3.63332580028341,3.93035275925474,4.01287152620702),
 .UNSPECIFIED.);
#45=B_SPLINE_CURVE_WITH_KNOTS('',3,(#1463,#1464,#1465,#1466,#1467,#1468,
#1469,#1470,#1471,#1472,#1473,#1474,#1475,#1476,#1477,#1478,#1479,#1480,
#1481,#1482,#1483,#1484),.UNSPECIFIED.,.F.,.F.,(4,2,2,2,2,2,2,2,2,2,4),
(0.797565073582654,0.927567239406557,1.29990162605881,1.67223601271107,
2.04457039936333,2.41690478601559,2.78923917266785,3.16157355932011,3.53390794597237,
3.90624233262462,4.03622268922979),.UNSPECIFIED.);
#46=B_SPLINE_CURVE_WITH_KNOTS('',3,(#1485,#1486,#1487,#1488,#1489,#1490,
#1491,#1492,#1493,#1494,#1495,#1496,#1497,#1498,#1499,#1500,#1501,#1502,
#1503,#1504,#1505,#1506),.UNSPECIFIED.,.F.,.F.,(4,2,2,2,2,2,2,2,2,2,4),
(0.797586882801391,0.927567239406558,1.29990162605882,1.67223601271107,
2.04457039936333,2.41690478601559,2.78923917266785,3.16157355932011,3.53390794597237,
3.90624233262462,4.03624449844853),.UNSPECIFIED.);
#47=CYLINDRICAL_SURFACE('',#743,15.75);
#48=CYLINDRICAL_SURFACE('',#745,23.);
#49=CYLINDRICAL_SURFACE('',#750,23.);
#50=CYLINDRICAL_SURFACE('',#753,23.);
#51=CYLINDRICAL_SURFACE('',#756,23.);
#52=CYLINDRICAL_SURFACE('',#760,20.);
#53=CYLINDRICAL_SURFACE('',#766,23.);
#54=CYLINDRICAL_SURFACE('',#771,23.);
#55=CYLINDRICAL_SURFACE('',#774,23.);
#56=CYLINDRICAL_SURFACE('',#778,23.);
#57=CYLINDRICAL_SURFACE('',#782,23.);
#58=CYLINDRICAL_SURFACE('',#784,15.75);
#59=CYLINDRICAL_SURFACE('',#786,23.);
#60=CYLINDRICAL_SURFACE('',#791,15.75);
#61=CYLINDRICAL_SURFACE('',#793,15.75);
#62=CYLINDRICAL_SURFACE('',#797,23.);
#63=CYLINDRICAL_SURFACE('',#799,20.);
#64=CYLINDRICAL_SURFACE('',#803,23.);
#65=CYLINDRICAL_SURFACE('',#807,23.);
#66=CYLINDRICAL_SURFACE('',#809,23.);
#67=CYLINDRICAL_SURFACE('',#810,23.);
#68=CYLINDRICAL_SURFACE('',#811,23.);
#69=CYLINDRICAL_SURFACE('',#812,20.);
#70=CYLINDRICAL_SURFACE('',#817,20.);
#71=LINE('',#1099,#95);
#72=LINE('',#1102,#96);
#73=LINE('',#1105,#97);
#74=LINE('',#1108,#98);
#75=LINE('',#1111,#99);
#76=LINE('',#1114,#100);
#77=LINE('',#1117,#101);
#78=LINE('',#1120,#102);
#79=LINE('',#1123,#103);
#80=LINE('',#1127,#104);
#81=LINE('',#1133,#105);
#82=LINE('',#1206,#106);
#83=LINE('',#1305,#107);
#84=LINE('',#1309,#108);
#85=LINE('',#1315,#109);
#86=LINE('',#1323,#110);
#87=LINE('',#1333,#111);
#88=LINE('',#1369,#112);
#89=LINE('',#1406,#113);
#90=LINE('',#1461,#114);
#91=LINE('',#1508,#115);
#92=LINE('',#1516,#116);
#93=LINE('',#1532,#117);
#94=LINE('',#1540,#118);
#95=VECTOR('',#860,10.);
#96=VECTOR('',#863,10.);
#97=VECTOR('',#866,10.);
#98=VECTOR('',#869,10.);
#99=VECTOR('',#872,10.);
#100=VECTOR('',#875,10.);
#101=VECTOR('',#878,10.);
#102=VECTOR('',#881,10.);
#103=VECTOR('',#884,10.);
#104=VECTOR('',#889,10.);
#105=VECTOR('',#896,15.75);
#106=VECTOR('',#901,23.);
#107=VECTOR('',#932,20.);
#108=VECTOR('',#939,10.);
#109=VECTOR('',#946,23.);
#110=VECTOR('',#957,23.);
#111=VECTOR('',#972,23.);
#112=VECTOR('',#985,15.75);
#113=VECTOR('',#1000,15.75);
#114=VECTOR('',#1005,15.75);
#115=VECTOR('',#1008,10.);
#116=VECTOR('',#1019,20.);
#117=VECTOR('',#1046,20.);
#118=VECTOR('',#1057,20.);
#119=PLANE('',#731);
#120=PLANE('',#733);
#121=PLANE('',#735);
#122=PLANE('',#737);
#123=PLANE('',#739);
#124=PLANE('',#741);
#125=PLANE('',#763);
#126=PLANE('',#764);
#127=PLANE('',#765);
#128=PLANE('',#780);
#129=PLANE('',#788);
#130=PLANE('',#789);
#131=PLANE('',#795);
#132=PLANE('',#802);
#133=PLANE('',#805);
#134=PLANE('',#806);
#135=PLANE('',#815);
#136=PLANE('',#816);
#137=PLANE('',#820);
#138=PLANE('',#821);
#139=FACE_BOUND('',#195,.T.);
#140=FACE_BOUND('',#196,.T.);
#141=FACE_BOUND('',#210,.T.);
#142=FACE_BOUND('',#213,.T.);
#143=FACE_BOUND('',#230,.T.);
#144=FACE_BOUND('',#233,.T.);
#145=FACE_BOUND('',#241,.T.);
#146=FACE_BOUND('',#243,.T.);
#147=FACE_BOUND('',#246,.T.);
#148=FACE_BOUND('',#248,.T.);
#149=FACE_OUTER_BOUND('',#194,.T.);
#150=FACE_OUTER_BOUND('',#197,.T.);
#151=FACE_OUTER_BOUND('',#198,.T.);
#152=FACE_OUTER_BOUND('',#199,.T.);
#153=FACE_OUTER_BOUND('',#200,.T.);
#154=FACE_OUTER_BOUND('',#201,.T.);
#155=FACE_OUTER_BOUND('',#202,.T.);
#156=FACE_OUTER_BOUND('',#203,.T.);
#157=FACE_OUTER_BOUND('',#204,.T.);
#158=FACE_OUTER_BOUND('',#205,.T.);
#159=FACE_OUTER_BOUND('',#206,.T.);
#160=FACE_OUTER_BOUND('',#207,.T.);
#161=FACE_OUTER_BOUND('',#208,.T.);
#162=FACE_OUTER_BOUND('',#209,.T.);
#163=FACE_OUTER_BOUND('',#211,.T.);
#164=FACE_OUTER_BOUND('',#212,.T.);
#165=FACE_OUTER_BOUND('',#214,.T.);
#166=FACE_OUTER_BOUND('',#215,.T.);
#167=FACE_OUTER_BOUND('',#216,.T.);
#168=FACE_OUTER_BOUND('',#217,.T.);
#169=FACE_OUTER_BOUND('',#218,.T.);
#170=FACE_OUTER_BOUND('',#219,.T.);
#171=FACE_OUTER_BOUND('',#220,.T.);
#172=FACE_OUTER_BOUND('',#221,.T.);
#173=FACE_OUTER_BOUND('',#222,.T.);
#174=FACE_OUTER_BOUND('',#223,.T.);
#175=FACE_OUTER_BOUND('',#224,.T.);
#176=FACE_OUTER_BOUND('',#225,.T.);
#177=FACE_OUTER_BOUND('',#226,.T.);
#178=FACE_OUTER_BOUND('',#227,.T.);
#179=FACE_OUTER_BOUND('',#228,.T.);
#180=FACE_OUTER_BOUND('',#229,.T.);
#181=FACE_OUTER_BOUND('',#231,.T.);
#182=FACE_OUTER_BOUND('',#232,.T.);
#183=FACE_OUTER_BOUND('',#234,.T.);
#184=FACE_OUTER_BOUND('',#235,.T.);
#185=FACE_OUTER_BOUND('',#236,.T.);
#186=FACE_OUTER_BOUND('',#237,.T.);
#187=FACE_OUTER_BOUND('',#238,.T.);
#188=FACE_OUTER_BOUND('',#239,.T.);
#189=FACE_OUTER_BOUND('',#240,.T.);
#190=FACE_OUTER_BOUND('',#242,.T.);
#191=FACE_OUTER_BOUND('',#244,.T.);
#192=FACE_OUTER_BOUND('',#245,.T.);
#193=FACE_OUTER_BOUND('',#247,.T.);
#194=EDGE_LOOP('',(#454,#455,#456,#457,#458,#459,#460,#461,#462,#463,#464,
#465));
#195=EDGE_LOOP('',(#466,#467,#468));
#196=EDGE_LOOP('',(#469,#470,#471));
#197=EDGE_LOOP('',(#472,#473,#474,#475,#476));
#198=EDGE_LOOP('',(#477,#478,#479,#480));
#199=EDGE_LOOP('',(#481,#482,#483,#484));
#200=EDGE_LOOP('',(#485,#486,#487,#488));
#201=EDGE_LOOP('',(#489,#490,#491,#492));
#202=EDGE_LOOP('',(#493,#494,#495,#496));
#203=EDGE_LOOP('',(#497,#498,#499,#500,#501,#502));
#204=EDGE_LOOP('',(#503,#504,#505,#506,#507,#508));
#205=EDGE_LOOP('',(#509,#510,#511,#512));
#206=EDGE_LOOP('',(#513,#514,#515,#516));
#207=EDGE_LOOP('',(#517,#518,#519,#520));
#208=EDGE_LOOP('',(#521,#522,#523,#524));
#209=EDGE_LOOP('',(#525));
#210=EDGE_LOOP('',(#526));
#211=EDGE_LOOP('',(#527,#528,#529,#530));
#212=EDGE_LOOP('',(#531));
#213=EDGE_LOOP('',(#532));
#214=EDGE_LOOP('',(#533,#534,#535,#536,#537,#538,#539));
#215=EDGE_LOOP('',(#540,#541,#542,#543,#544,#545,#546));
#216=EDGE_LOOP('',(#547,#548,#549,#550));
#217=EDGE_LOOP('',(#551,#552,#553,#554,#555,#556));
#218=EDGE_LOOP('',(#557,#558,#559,#560));
#219=EDGE_LOOP('',(#561,#562,#563,#564));
#220=EDGE_LOOP('',(#565,#566,#567,#568,#569,#570,#571));
#221=EDGE_LOOP('',(#572,#573,#574,#575,#576));
#222=EDGE_LOOP('',(#577,#578,#579,#580,#581));
#223=EDGE_LOOP('',(#582,#583,#584,#585));
#224=EDGE_LOOP('',(#586,#587,#588,#589,#590,#591));
#225=EDGE_LOOP('',(#592,#593,#594,#595,#596,#597));
#226=EDGE_LOOP('',(#598,#599,#600,#601));
#227=EDGE_LOOP('',(#602,#603,#604,#605));
#228=EDGE_LOOP('',(#606,#607,#608,#609));
#229=EDGE_LOOP('',(#610));
#230=EDGE_LOOP('',(#611));
#231=EDGE_LOOP('',(#612,#613,#614,#615));
#232=EDGE_LOOP('',(#616));
#233=EDGE_LOOP('',(#617));
#234=EDGE_LOOP('',(#618,#619,#620,#621));
#235=EDGE_LOOP('',(#622,#623,#624,#625));
#236=EDGE_LOOP('',(#626,#627,#628,#629));
#237=EDGE_LOOP('',(#630,#631,#632,#633));
#238=EDGE_LOOP('',(#634,#635,#636,#637));
#239=EDGE_LOOP('',(#638,#639,#640,#641));
#240=EDGE_LOOP('',(#642));
#241=EDGE_LOOP('',(#643));
#242=EDGE_LOOP('',(#644));
#243=EDGE_LOOP('',(#645));
#244=EDGE_LOOP('',(#646,#647,#648,#649));
#245=EDGE_LOOP('',(#650));
#246=EDGE_LOOP('',(#651));
#247=EDGE_LOOP('',(#652));
#248=EDGE_LOOP('',(#653));
#249=CIRCLE('',#715,21.);
#250=CIRCLE('',#716,21.);
#251=CIRCLE('',#717,21.);
#252=CIRCLE('',#718,21.);
#253=CIRCLE('',#719,21.);
#254=CIRCLE('',#720,21.);
#255=CIRCLE('',#721,21.);
#256=CIRCLE('',#722,21.);
#257=CIRCLE('',#723,21.);
#258=CIRCLE('',#724,21.);
#259=CIRCLE('',#725,21.);
#260=CIRCLE('',#726,21.);
#261=CIRCLE('',#727,21.);
#262=CIRCLE('',#728,21.);
#263=CIRCLE('',#729,21.);
#264=CIRCLE('',#730,21.);
#265=CIRCLE('',#732,23.);
#266=CIRCLE('',#734,23.);
#267=CIRCLE('',#736,23.);
#268=CIRCLE('',#738,23.);
#269=CIRCLE('',#740,23.);
#270=CIRCLE('',#742,23.);
#271=CIRCLE('',#744,15.75);
#272=CIRCLE('',#746,23.);
#273=CIRCLE('',#759,23.);
#274=CIRCLE('',#761,20.);
#275=CIRCLE('',#762,20.);
#276=CIRCLE('',#767,23.);
#277=CIRCLE('',#772,23.);
#278=CIRCLE('',#776,23.);
#279=CIRCLE('',#779,23.);
#280=CIRCLE('',#781,23.);
#281=CIRCLE('',#785,15.75);
#282=CIRCLE('',#787,23.);
#283=CIRCLE('',#790,23.);
#284=CIRCLE('',#792,15.75);
#285=CIRCLE('',#794,15.75);
#286=CIRCLE('',#796,23.);
#287=CIRCLE('',#800,20.);
#288=CIRCLE('',#801,20.);
#289=CIRCLE('',#813,20.);
#290=CIRCLE('',#814,20.);
#291=CIRCLE('',#818,20.);
#292=CIRCLE('',#819,20.);
#293=VERTEX_POINT('',#1066);
#294=VERTEX_POINT('',#1067);
#295=VERTEX_POINT('',#1069);
#296=VERTEX_POINT('',#1071);
#297=VERTEX_POINT('',#1073);
#298=VERTEX_POINT('',#1075);
#299=VERTEX_POINT('',#1077);
#300=VERTEX_POINT('',#1079);
#301=VERTEX_POINT('',#1081);
#302=VERTEX_POINT('',#1085);
#303=VERTEX_POINT('',#1086);
#304=VERTEX_POINT('',#1088);
#305=VERTEX_POINT('',#1091);
#306=VERTEX_POINT('',#1092);
#307=VERTEX_POINT('',#1094);
#308=VERTEX_POINT('',#1098);
#309=VERTEX_POINT('',#1100);
#310=VERTEX_POINT('',#1104);
#311=VERTEX_POINT('',#1106);
#312=VERTEX_POINT('',#1110);
#313=VERTEX_POINT('',#1112);
#314=VERTEX_POINT('',#1116);
#315=VERTEX_POINT('',#1118);
#316=VERTEX_POINT('',#1122);
#317=VERTEX_POINT('',#1126);
#318=VERTEX_POINT('',#1130);
#319=VERTEX_POINT('',#1132);
#320=VERTEX_POINT('',#1134);
#321=VERTEX_POINT('',#1157);
#322=VERTEX_POINT('',#1203);
#323=VERTEX_POINT('',#1205);
#324=VERTEX_POINT('',#1207);
#325=VERTEX_POINT('',#1209);
#326=VERTEX_POINT('',#1213);
#327=VERTEX_POINT('',#1215);
#328=VERTEX_POINT('',#1244);
#329=VERTEX_POINT('',#1246);
#330=VERTEX_POINT('',#1271);
#331=VERTEX_POINT('',#1272);
#332=VERTEX_POINT('',#1274);
#333=VERTEX_POINT('',#1302);
#334=VERTEX_POINT('',#1304);
#335=VERTEX_POINT('',#1312);
#336=VERTEX_POINT('',#1314);
#337=VERTEX_POINT('',#1317);
#338=VERTEX_POINT('',#1321);
#339=VERTEX_POINT('',#1326);
#340=VERTEX_POINT('',#1331);
#341=VERTEX_POINT('',#1337);
#342=VERTEX_POINT('',#1366);
#343=VERTEX_POINT('',#1368);
#344=VERTEX_POINT('',#1404);
#345=VERTEX_POINT('',#1407);
#346=VERTEX_POINT('',#1459);
#347=VERTEX_POINT('',#1462);
#348=VERTEX_POINT('',#1513);
#349=VERTEX_POINT('',#1515);
#350=VERTEX_POINT('',#1529);
#351=VERTEX_POINT('',#1531);
#352=VERTEX_POINT('',#1537);
#353=VERTEX_POINT('',#1539);
#354=EDGE_CURVE('',#293,#294,#249,.T.);
#355=EDGE_CURVE('',#295,#293,#250,.T.);
#356=EDGE_CURVE('',#296,#295,#251,.T.);
#357=EDGE_CURVE('',#296,#297,#252,.T.);
#358=EDGE_CURVE('',#298,#297,#253,.T.);
#359=EDGE_CURVE('',#299,#298,#254,.T.);
#360=EDGE_CURVE('',#299,#300,#255,.T.);
#361=EDGE_CURVE('',#301,#299,#256,.T.);
#362=EDGE_CURVE('',#297,#301,#257,.T.);
#363=EDGE_CURVE('',#294,#296,#258,.T.);
#364=EDGE_CURVE('',#302,#303,#259,.T.);
#365=EDGE_CURVE('',#304,#302,#260,.T.);
#366=EDGE_CURVE('',#303,#304,#261,.T.);
#367=EDGE_CURVE('',#305,#306,#262,.T.);
#368=EDGE_CURVE('',#307,#305,#263,.T.);
#369=EDGE_CURVE('',#306,#307,#264,.T.);
#370=EDGE_CURVE('',#301,#308,#71,.T.);
#371=EDGE_CURVE('',#308,#309,#265,.T.);
#372=EDGE_CURVE('',#309,#298,#72,.T.);
#373=EDGE_CURVE('',#293,#310,#73,.T.);
#374=EDGE_CURVE('',#310,#311,#266,.T.);
#375=EDGE_CURVE('',#295,#311,#74,.T.);
#376=EDGE_CURVE('',#302,#312,#75,.T.);
#377=EDGE_CURVE('',#312,#313,#267,.T.);
#378=EDGE_CURVE('',#304,#313,#76,.T.);
#379=EDGE_CURVE('',#305,#314,#77,.T.);
#380=EDGE_CURVE('',#314,#315,#268,.T.);
#381=EDGE_CURVE('',#315,#307,#78,.T.);
#382=EDGE_CURVE('',#316,#299,#79,.T.);
#383=EDGE_CURVE('',#316,#308,#269,.T.);
#384=EDGE_CURVE('',#317,#294,#80,.T.);
#385=EDGE_CURVE('',#317,#310,#270,.T.);
#386=EDGE_CURVE('',#318,#318,#271,.T.);
#387=EDGE_CURVE('',#318,#319,#81,.T.);
#388=EDGE_CURVE('',#320,#319,#34,.T.);
#389=EDGE_CURVE('',#321,#320,#35,.T.);
#390=EDGE_CURVE('',#319,#321,#36,.T.);
#391=EDGE_CURVE('',#322,#322,#272,.T.);
#392=EDGE_CURVE('',#322,#323,#82,.T.);
#393=EDGE_CURVE('',#324,#323,#15,.T.);
#394=EDGE_CURVE('',#325,#324,#16,.T.);
#395=EDGE_CURVE('',#323,#325,#17,.T.);
#396=EDGE_CURVE('',#326,#316,#18,.T.);
#397=EDGE_CURVE('',#327,#326,#37,.T.);
#398=EDGE_CURVE('',#308,#327,#19,.T.);
#399=EDGE_CURVE('',#310,#328,#20,.T.);
#400=EDGE_CURVE('',#329,#317,#21,.T.);
#401=EDGE_CURVE('',#328,#329,#38,.T.);
#402=EDGE_CURVE('',#330,#331,#22,.T.);
#403=EDGE_CURVE('',#332,#330,#39,.T.);
#404=EDGE_CURVE('',#312,#332,#23,.T.);
#405=EDGE_CURVE('',#331,#312,#273,.T.);
#406=EDGE_CURVE('',#333,#333,#274,.T.);
#407=EDGE_CURVE('',#333,#334,#83,.T.);
#408=EDGE_CURVE('',#334,#334,#275,.T.);
#409=EDGE_CURVE('',#331,#303,#84,.T.);
#410=EDGE_CURVE('',#335,#335,#276,.T.);
#411=EDGE_CURVE('',#335,#336,#85,.T.);
#412=EDGE_CURVE('',#336,#325,#24,.T.);
#413=EDGE_CURVE('',#324,#337,#25,.T.);
#414=EDGE_CURVE('',#337,#336,#26,.T.);
#415=EDGE_CURVE('',#338,#338,#277,.T.);
#416=EDGE_CURVE('',#338,#323,#86,.T.);
#417=EDGE_CURVE('',#337,#323,#27,.T.);
#418=EDGE_CURVE('',#319,#339,#28,.T.);
#419=EDGE_CURVE('',#315,#339,#278,.T.);
#420=EDGE_CURVE('',#320,#315,#29,.T.);
#421=EDGE_CURVE('',#340,#340,#279,.T.);
#422=EDGE_CURVE('',#340,#323,#87,.T.);
#423=EDGE_CURVE('',#313,#331,#280,.T.);
#424=EDGE_CURVE('',#341,#328,#40,.T.);
#425=EDGE_CURVE('',#311,#341,#30,.T.);
#426=EDGE_CURVE('',#342,#342,#281,.T.);
#427=EDGE_CURVE('',#342,#343,#88,.T.);
#428=EDGE_CURVE('',#343,#341,#41,.T.);
#429=EDGE_CURVE('',#329,#343,#42,.T.);
#430=EDGE_CURVE('',#311,#317,#282,.T.);
#431=EDGE_CURVE('',#309,#316,#283,.T.);
#432=EDGE_CURVE('',#344,#344,#284,.T.);
#433=EDGE_CURVE('',#344,#326,#89,.T.);
#434=EDGE_CURVE('',#326,#345,#43,.T.);
#435=EDGE_CURVE('',#327,#345,#44,.T.);
#436=EDGE_CURVE('',#346,#346,#285,.T.);
#437=EDGE_CURVE('',#346,#332,#90,.T.);
#438=EDGE_CURVE('',#347,#330,#45,.T.);
#439=EDGE_CURVE('',#332,#347,#46,.T.);
#440=EDGE_CURVE('',#339,#306,#91,.T.);
#441=EDGE_CURVE('',#339,#314,#286,.T.);
#442=EDGE_CURVE('',#314,#321,#31,.T.);
#443=EDGE_CURVE('',#348,#348,#287,.T.);
#444=EDGE_CURVE('',#348,#349,#92,.T.);
#445=EDGE_CURVE('',#349,#349,#288,.T.);
#446=EDGE_CURVE('',#345,#309,#32,.T.);
#447=EDGE_CURVE('',#313,#347,#33,.T.);
#448=EDGE_CURVE('',#350,#350,#289,.T.);
#449=EDGE_CURVE('',#350,#351,#93,.T.);
#450=EDGE_CURVE('',#351,#351,#290,.T.);
#451=EDGE_CURVE('',#352,#352,#291,.T.);
#452=EDGE_CURVE('',#352,#353,#94,.T.);
#453=EDGE_CURVE('',#353,#353,#292,.T.);
#454=ORIENTED_EDGE('',*,*,#354,.F.);
#455=ORIENTED_EDGE('',*,*,#355,.F.);
#456=ORIENTED_EDGE('',*,*,#356,.F.);
#457=ORIENTED_EDGE('',*,*,#357,.T.);
#458=ORIENTED_EDGE('',*,*,#358,.F.);
#459=ORIENTED_EDGE('',*,*,#359,.F.);
#460=ORIENTED_EDGE('',*,*,#360,.T.);
#461=ORIENTED_EDGE('',*,*,#360,.F.);
#462=ORIENTED_EDGE('',*,*,#361,.F.);
#463=ORIENTED_EDGE('',*,*,#362,.F.);
#464=ORIENTED_EDGE('',*,*,#357,.F.);
#465=ORIENTED_EDGE('',*,*,#363,.F.);
#466=ORIENTED_EDGE('',*,*,#364,.F.);
#467=ORIENTED_EDGE('',*,*,#365,.F.);
#468=ORIENTED_EDGE('',*,*,#366,.F.);
#469=ORIENTED_EDGE('',*,*,#367,.F.);
#470=ORIENTED_EDGE('',*,*,#368,.F.);
#471=ORIENTED_EDGE('',*,*,#369,.F.);
#472=ORIENTED_EDGE('',*,*,#358,.T.);
#473=ORIENTED_EDGE('',*,*,#362,.T.);
#474=ORIENTED_EDGE('',*,*,#370,.T.);
#475=ORIENTED_EDGE('',*,*,#371,.T.);
#476=ORIENTED_EDGE('',*,*,#372,.T.);
#477=ORIENTED_EDGE('',*,*,#355,.T.);
#478=ORIENTED_EDGE('',*,*,#373,.T.);
#479=ORIENTED_EDGE('',*,*,#374,.T.);
#480=ORIENTED_EDGE('',*,*,#375,.F.);
#481=ORIENTED_EDGE('',*,*,#365,.T.);
#482=ORIENTED_EDGE('',*,*,#376,.T.);
#483=ORIENTED_EDGE('',*,*,#377,.T.);
#484=ORIENTED_EDGE('',*,*,#378,.F.);
#485=ORIENTED_EDGE('',*,*,#368,.T.);
#486=ORIENTED_EDGE('',*,*,#379,.T.);
#487=ORIENTED_EDGE('',*,*,#380,.T.);
#488=ORIENTED_EDGE('',*,*,#381,.T.);
#489=ORIENTED_EDGE('',*,*,#361,.T.);
#490=ORIENTED_EDGE('',*,*,#382,.F.);
#491=ORIENTED_EDGE('',*,*,#383,.T.);
#492=ORIENTED_EDGE('',*,*,#370,.F.);
#493=ORIENTED_EDGE('',*,*,#354,.T.);
#494=ORIENTED_EDGE('',*,*,#384,.F.);
#495=ORIENTED_EDGE('',*,*,#385,.T.);
#496=ORIENTED_EDGE('',*,*,#373,.F.);
#497=ORIENTED_EDGE('',*,*,#386,.F.);
#498=ORIENTED_EDGE('',*,*,#387,.T.);
#499=ORIENTED_EDGE('',*,*,#388,.F.);
#500=ORIENTED_EDGE('',*,*,#389,.F.);
#501=ORIENTED_EDGE('',*,*,#390,.F.);
#502=ORIENTED_EDGE('',*,*,#387,.F.);
#503=ORIENTED_EDGE('',*,*,#391,.F.);
#504=ORIENTED_EDGE('',*,*,#392,.T.);
#505=ORIENTED_EDGE('',*,*,#393,.F.);
#506=ORIENTED_EDGE('',*,*,#394,.F.);
#507=ORIENTED_EDGE('',*,*,#395,.F.);
#508=ORIENTED_EDGE('',*,*,#392,.F.);
#509=ORIENTED_EDGE('',*,*,#396,.F.);
#510=ORIENTED_EDGE('',*,*,#397,.F.);
#511=ORIENTED_EDGE('',*,*,#398,.F.);
#512=ORIENTED_EDGE('',*,*,#383,.F.);
#513=ORIENTED_EDGE('',*,*,#399,.F.);
#514=ORIENTED_EDGE('',*,*,#385,.F.);
#515=ORIENTED_EDGE('',*,*,#400,.F.);
#516=ORIENTED_EDGE('',*,*,#401,.F.);
#517=ORIENTED_EDGE('',*,*,#402,.F.);
#518=ORIENTED_EDGE('',*,*,#403,.F.);
#519=ORIENTED_EDGE('',*,*,#404,.F.);
#520=ORIENTED_EDGE('',*,*,#405,.F.);
#521=ORIENTED_EDGE('',*,*,#406,.F.);
#522=ORIENTED_EDGE('',*,*,#407,.T.);
#523=ORIENTED_EDGE('',*,*,#408,.F.);
#524=ORIENTED_EDGE('',*,*,#407,.F.);
#525=ORIENTED_EDGE('',*,*,#406,.T.);
#526=ORIENTED_EDGE('',*,*,#386,.T.);
#527=ORIENTED_EDGE('',*,*,#364,.T.);
#528=ORIENTED_EDGE('',*,*,#409,.F.);
#529=ORIENTED_EDGE('',*,*,#405,.T.);
#530=ORIENTED_EDGE('',*,*,#376,.F.);
#531=ORIENTED_EDGE('',*,*,#391,.T.);
#532=ORIENTED_EDGE('',*,*,#408,.T.);
#533=ORIENTED_EDGE('',*,*,#410,.F.);
#534=ORIENTED_EDGE('',*,*,#411,.T.);
#535=ORIENTED_EDGE('',*,*,#412,.T.);
#536=ORIENTED_EDGE('',*,*,#394,.T.);
#537=ORIENTED_EDGE('',*,*,#413,.T.);
#538=ORIENTED_EDGE('',*,*,#414,.T.);
#539=ORIENTED_EDGE('',*,*,#411,.F.);
#540=ORIENTED_EDGE('',*,*,#415,.F.);
#541=ORIENTED_EDGE('',*,*,#416,.T.);
#542=ORIENTED_EDGE('',*,*,#395,.T.);
#543=ORIENTED_EDGE('',*,*,#412,.F.);
#544=ORIENTED_EDGE('',*,*,#414,.F.);
#545=ORIENTED_EDGE('',*,*,#417,.T.);
#546=ORIENTED_EDGE('',*,*,#416,.F.);
#547=ORIENTED_EDGE('',*,*,#388,.T.);
#548=ORIENTED_EDGE('',*,*,#418,.T.);
#549=ORIENTED_EDGE('',*,*,#419,.F.);
#550=ORIENTED_EDGE('',*,*,#420,.F.);
#551=ORIENTED_EDGE('',*,*,#421,.F.);
#552=ORIENTED_EDGE('',*,*,#422,.T.);
#553=ORIENTED_EDGE('',*,*,#417,.F.);
#554=ORIENTED_EDGE('',*,*,#413,.F.);
#555=ORIENTED_EDGE('',*,*,#393,.T.);
#556=ORIENTED_EDGE('',*,*,#422,.F.);
#557=ORIENTED_EDGE('',*,*,#366,.T.);
#558=ORIENTED_EDGE('',*,*,#378,.T.);
#559=ORIENTED_EDGE('',*,*,#423,.T.);
#560=ORIENTED_EDGE('',*,*,#409,.T.);
#561=ORIENTED_EDGE('',*,*,#399,.T.);
#562=ORIENTED_EDGE('',*,*,#424,.F.);
#563=ORIENTED_EDGE('',*,*,#425,.F.);
#564=ORIENTED_EDGE('',*,*,#374,.F.);
#565=ORIENTED_EDGE('',*,*,#426,.F.);
#566=ORIENTED_EDGE('',*,*,#427,.T.);
#567=ORIENTED_EDGE('',*,*,#428,.T.);
#568=ORIENTED_EDGE('',*,*,#424,.T.);
#569=ORIENTED_EDGE('',*,*,#401,.T.);
#570=ORIENTED_EDGE('',*,*,#429,.T.);
#571=ORIENTED_EDGE('',*,*,#427,.F.);
#572=ORIENTED_EDGE('',*,*,#400,.T.);
#573=ORIENTED_EDGE('',*,*,#430,.F.);
#574=ORIENTED_EDGE('',*,*,#425,.T.);
#575=ORIENTED_EDGE('',*,*,#428,.F.);
#576=ORIENTED_EDGE('',*,*,#429,.F.);
#577=ORIENTED_EDGE('',*,*,#363,.T.);
#578=ORIENTED_EDGE('',*,*,#356,.T.);
#579=ORIENTED_EDGE('',*,*,#375,.T.);
#580=ORIENTED_EDGE('',*,*,#430,.T.);
#581=ORIENTED_EDGE('',*,*,#384,.T.);
#582=ORIENTED_EDGE('',*,*,#359,.T.);
#583=ORIENTED_EDGE('',*,*,#372,.F.);
#584=ORIENTED_EDGE('',*,*,#431,.T.);
#585=ORIENTED_EDGE('',*,*,#382,.T.);
#586=ORIENTED_EDGE('',*,*,#432,.F.);
#587=ORIENTED_EDGE('',*,*,#433,.T.);
#588=ORIENTED_EDGE('',*,*,#434,.T.);
#589=ORIENTED_EDGE('',*,*,#435,.F.);
#590=ORIENTED_EDGE('',*,*,#397,.T.);
#591=ORIENTED_EDGE('',*,*,#433,.F.);
#592=ORIENTED_EDGE('',*,*,#436,.F.);
#593=ORIENTED_EDGE('',*,*,#437,.T.);
#594=ORIENTED_EDGE('',*,*,#403,.T.);
#595=ORIENTED_EDGE('',*,*,#438,.F.);
#596=ORIENTED_EDGE('',*,*,#439,.F.);
#597=ORIENTED_EDGE('',*,*,#437,.F.);
#598=ORIENTED_EDGE('',*,*,#367,.T.);
#599=ORIENTED_EDGE('',*,*,#440,.F.);
#600=ORIENTED_EDGE('',*,*,#441,.T.);
#601=ORIENTED_EDGE('',*,*,#379,.F.);
#602=ORIENTED_EDGE('',*,*,#390,.T.);
#603=ORIENTED_EDGE('',*,*,#442,.F.);
#604=ORIENTED_EDGE('',*,*,#441,.F.);
#605=ORIENTED_EDGE('',*,*,#418,.F.);
#606=ORIENTED_EDGE('',*,*,#443,.F.);
#607=ORIENTED_EDGE('',*,*,#444,.T.);
#608=ORIENTED_EDGE('',*,*,#445,.F.);
#609=ORIENTED_EDGE('',*,*,#444,.F.);
#610=ORIENTED_EDGE('',*,*,#443,.T.);
#611=ORIENTED_EDGE('',*,*,#436,.T.);
#612=ORIENTED_EDGE('',*,*,#396,.T.);
#613=ORIENTED_EDGE('',*,*,#431,.F.);
#614=ORIENTED_EDGE('',*,*,#446,.F.);
#615=ORIENTED_EDGE('',*,*,#434,.F.);
#616=ORIENTED_EDGE('',*,*,#421,.T.);
#617=ORIENTED_EDGE('',*,*,#445,.T.);
#618=ORIENTED_EDGE('',*,*,#369,.T.);
#619=ORIENTED_EDGE('',*,*,#381,.F.);
#620=ORIENTED_EDGE('',*,*,#419,.T.);
#621=ORIENTED_EDGE('',*,*,#440,.T.);
#622=ORIENTED_EDGE('',*,*,#404,.T.);
#623=ORIENTED_EDGE('',*,*,#439,.T.);
#624=ORIENTED_EDGE('',*,*,#447,.F.);
#625=ORIENTED_EDGE('',*,*,#377,.F.);
#626=ORIENTED_EDGE('',*,*,#398,.T.);
#627=ORIENTED_EDGE('',*,*,#435,.T.);
#628=ORIENTED_EDGE('',*,*,#446,.T.);
#629=ORIENTED_EDGE('',*,*,#371,.F.);
#630=ORIENTED_EDGE('',*,*,#389,.T.);
#631=ORIENTED_EDGE('',*,*,#420,.T.);
#632=ORIENTED_EDGE('',*,*,#380,.F.);
#633=ORIENTED_EDGE('',*,*,#442,.T.);
#634=ORIENTED_EDGE('',*,*,#402,.T.);
#635=ORIENTED_EDGE('',*,*,#423,.F.);
#636=ORIENTED_EDGE('',*,*,#447,.T.);
#637=ORIENTED_EDGE('',*,*,#438,.T.);
#638=ORIENTED_EDGE('',*,*,#448,.F.);
#639=ORIENTED_EDGE('',*,*,#449,.T.);
#640=ORIENTED_EDGE('',*,*,#450,.F.);
#641=ORIENTED_EDGE('',*,*,#449,.F.);
#642=ORIENTED_EDGE('',*,*,#448,.T.);
#643=ORIENTED_EDGE('',*,*,#432,.T.);
#644=ORIENTED_EDGE('',*,*,#415,.T.);
#645=ORIENTED_EDGE('',*,*,#450,.T.);
#646=ORIENTED_EDGE('',*,*,#451,.F.);
#647=ORIENTED_EDGE('',*,*,#452,.T.);
#648=ORIENTED_EDGE('',*,*,#453,.F.);
#649=ORIENTED_EDGE('',*,*,#452,.F.);
#650=ORIENTED_EDGE('',*,*,#451,.T.);
#651=ORIENTED_EDGE('',*,*,#426,.T.);
#652=ORIENTED_EDGE('',*,*,#410,.T.);
#653=ORIENTED_EDGE('',*,*,#453,.T.);
#654=SPHERICAL_SURFACE('',#714,21.);
#655=ADVANCED_FACE('',(#149,#139,#140),#654,.F.);
#656=ADVANCED_FACE('',(#150),#119,.T.);
#657=ADVANCED_FACE('',(#151),#120,.T.);
#658=ADVANCED_FACE('',(#152),#121,.T.);
#659=ADVANCED_FACE('',(#153),#122,.T.);
#660=ADVANCED_FACE('',(#154),#123,.T.);
#661=ADVANCED_FACE('',(#155),#124,.T.);
#662=ADVANCED_FACE('',(#156),#47,.F.);
#663=ADVANCED_FACE('',(#157),#48,.T.);
#664=ADVANCED_FACE('',(#158),#49,.T.);
#665=ADVANCED_FACE('',(#159),#50,.T.);
#666=ADVANCED_FACE('',(#160),#51,.T.);
#667=ADVANCED_FACE('',(#161),#52,.T.);
#668=ADVANCED_FACE('',(#162,#141),#125,.F.);
#669=ADVANCED_FACE('',(#163),#126,.T.);
#670=ADVANCED_FACE('',(#164,#142),#127,.F.);
#671=ADVANCED_FACE('',(#165),#53,.T.);
#672=ADVANCED_FACE('',(#166),#54,.T.);
#673=ADVANCED_FACE('',(#167),#55,.T.);
#674=ADVANCED_FACE('',(#168),#56,.T.);
#675=ADVANCED_FACE('',(#169),#128,.T.);
#676=ADVANCED_FACE('',(#170),#57,.T.);
#677=ADVANCED_FACE('',(#171),#58,.F.);
#678=ADVANCED_FACE('',(#172),#59,.T.);
#679=ADVANCED_FACE('',(#173),#129,.T.);
#680=ADVANCED_FACE('',(#174),#130,.T.);
#681=ADVANCED_FACE('',(#175),#60,.F.);
#682=ADVANCED_FACE('',(#176),#61,.F.);
#683=ADVANCED_FACE('',(#177),#131,.T.);
#684=ADVANCED_FACE('',(#178),#62,.T.);
#685=ADVANCED_FACE('',(#179),#63,.T.);
#686=ADVANCED_FACE('',(#180,#143),#132,.F.);
#687=ADVANCED_FACE('',(#181),#64,.T.);
#688=ADVANCED_FACE('',(#182,#144),#133,.F.);
#689=ADVANCED_FACE('',(#183),#134,.T.);
#690=ADVANCED_FACE('',(#184),#65,.T.);
#691=ADVANCED_FACE('',(#185),#66,.T.);
#692=ADVANCED_FACE('',(#186),#67,.T.);
#693=ADVANCED_FACE('',(#187),#68,.T.);
#694=ADVANCED_FACE('',(#188),#69,.T.);
#695=ADVANCED_FACE('',(#189,#145),#135,.F.);
#696=ADVANCED_FACE('',(#190,#146),#136,.F.);
#697=ADVANCED_FACE('',(#191),#70,.T.);
#698=ADVANCED_FACE('',(#192,#147),#137,.F.);
#699=ADVANCED_FACE('',(#193,#148),#138,.F.);
#700=CLOSED_SHELL('',(#655,#656,#657,#658,#659,#660,#661,#662,#663,#664,
#665,#666,#667,#668,#669,#670,#671,#672,#673,#674,#675,#676,#677,#678,#679,
#680,#681,#682,#683,#684,#685,#686,#687,#688,#689,#690,#691,#692,#693,#694,
#695,#696,#697,#698,#699));
#701=DERIVED_UNIT_ELEMENT(#703,1.);
#702=DERIVED_UNIT_ELEMENT(#1549,-3.);
#703=(
MASS_UNIT()
NAMED_UNIT(*)
SI_UNIT(.KILO.,.GRAM.)
);
#704=DERIVED_UNIT((#701,#702));
#705=MEASURE_REPRESENTATION_ITEM('density measure',
POSITIVE_RATIO_MEASURE(7850.),#704);
#706=PROPERTY_DEFINITION_REPRESENTATION(#711,#708);
#707=PROPERTY_DEFINITION_REPRESENTATION(#712,#709);
#708=REPRESENTATION('material name',(#710),#1546);
#709=REPRESENTATION('density',(#705),#1546);
#710=DESCRIPTIVE_REPRESENTATION_ITEM('Stahl','Stahl');
#711=PROPERTY_DEFINITION('material property','material name',#1556);
#712=PROPERTY_DEFINITION('material property','density of part',#1556);
#713=AXIS2_PLACEMENT_3D('',#1064,#822,#823);
#714=AXIS2_PLACEMENT_3D('',#1065,#824,#825);
#715=AXIS2_PLACEMENT_3D('',#1068,#826,#827);
#716=AXIS2_PLACEMENT_3D('',#1070,#828,#829);
#717=AXIS2_PLACEMENT_3D('',#1072,#830,#831);
#718=AXIS2_PLACEMENT_3D('',#1074,#832,#833);
#719=AXIS2_PLACEMENT_3D('',#1076,#834,#835);
#720=AXIS2_PLACEMENT_3D('',#1078,#836,#837);
#721=AXIS2_PLACEMENT_3D('',#1080,#838,#839);
#722=AXIS2_PLACEMENT_3D('',#1082,#840,#841);
#723=AXIS2_PLACEMENT_3D('',#1083,#842,#843);
#724=AXIS2_PLACEMENT_3D('',#1084,#844,#845);
#725=AXIS2_PLACEMENT_3D('',#1087,#846,#847);
#726=AXIS2_PLACEMENT_3D('',#1089,#848,#849);
#727=AXIS2_PLACEMENT_3D('',#1090,#850,#851);
#728=AXIS2_PLACEMENT_3D('',#1093,#852,#853);
#729=AXIS2_PLACEMENT_3D('',#1095,#854,#855);
#730=AXIS2_PLACEMENT_3D('',#1096,#856,#857);
#731=AXIS2_PLACEMENT_3D('',#1097,#858,#859);
#732=AXIS2_PLACEMENT_3D('',#1101,#861,#862);
#733=AXIS2_PLACEMENT_3D('',#1103,#864,#865);
#734=AXIS2_PLACEMENT_3D('',#1107,#867,#868);
#735=AXIS2_PLACEMENT_3D('',#1109,#870,#871);
#736=AXIS2_PLACEMENT_3D('',#1113,#873,#874);
#737=AXIS2_PLACEMENT_3D('',#1115,#876,#877);
#738=AXIS2_PLACEMENT_3D('',#1119,#879,#880);
#739=AXIS2_PLACEMENT_3D('',#1121,#882,#883);
#740=AXIS2_PLACEMENT_3D('',#1124,#885,#886);
#741=AXIS2_PLACEMENT_3D('',#1125,#887,#888);
#742=AXIS2_PLACEMENT_3D('',#1128,#890,#891);
#743=AXIS2_PLACEMENT_3D('',#1129,#892,#893);
#744=AXIS2_PLACEMENT_3D('',#1131,#894,#895);
#745=AXIS2_PLACEMENT_3D('',#1202,#897,#898);
#746=AXIS2_PLACEMENT_3D('',#1204,#899,#900);
#747=AXIS2_PLACEMENT_3D('',#1208,#902,#903);
#748=AXIS2_PLACEMENT_3D('',#1210,#904,#905);
#749=AXIS2_PLACEMENT_3D('',#1211,#906,#907);
#750=AXIS2_PLACEMENT_3D('',#1212,#908,#909);
#751=AXIS2_PLACEMENT_3D('',#1214,#910,#911);
#752=AXIS2_PLACEMENT_3D('',#1242,#912,#913);
#753=AXIS2_PLACEMENT_3D('',#1243,#914,#915);
#754=AXIS2_PLACEMENT_3D('',#1245,#916,#917);
#755=AXIS2_PLACEMENT_3D('',#1247,#918,#919);
#756=AXIS2_PLACEMENT_3D('',#1270,#920,#921);
#757=AXIS2_PLACEMENT_3D('',#1273,#922,#923);
#758=AXIS2_PLACEMENT_3D('',#1299,#924,#925);
#759=AXIS2_PLACEMENT_3D('',#1300,#926,#927);
#760=AXIS2_PLACEMENT_3D('',#1301,#928,#929);
#761=AXIS2_PLACEMENT_3D('',#1303,#930,#931);
#762=AXIS2_PLACEMENT_3D('',#1306,#933,#934);
#763=AXIS2_PLACEMENT_3D('',#1307,#935,#936);
#764=AXIS2_PLACEMENT_3D('',#1308,#937,#938);
#765=AXIS2_PLACEMENT_3D('',#1310,#940,#941);
#766=AXIS2_PLACEMENT_3D('',#1311,#942,#943);
#767=AXIS2_PLACEMENT_3D('',#1313,#944,#945);
#768=AXIS2_PLACEMENT_3D('',#1316,#947,#948);
#769=AXIS2_PLACEMENT_3D('',#1318,#949,#950);
#770=AXIS2_PLACEMENT_3D('',#1319,#951,#952);
#771=AXIS2_PLACEMENT_3D('',#1320,#953,#954);
#772=AXIS2_PLACEMENT_3D('',#1322,#955,#956);
#773=AXIS2_PLACEMENT_3D('',#1324,#958,#959);
#774=AXIS2_PLACEMENT_3D('',#1325,#960,#961);
#775=AXIS2_PLACEMENT_3D('',#1327,#962,#963);
#776=AXIS2_PLACEMENT_3D('',#1328,#964,#965);
#777=AXIS2_PLACEMENT_3D('',#1329,#966,#967);
#778=AXIS2_PLACEMENT_3D('',#1330,#968,#969);
#779=AXIS2_PLACEMENT_3D('',#1332,#970,#971);
#780=AXIS2_PLACEMENT_3D('',#1334,#973,#974);
#781=AXIS2_PLACEMENT_3D('',#1335,#975,#976);
#782=AXIS2_PLACEMENT_3D('',#1336,#977,#978);
#783=AXIS2_PLACEMENT_3D('',#1364,#979,#980);
#784=AXIS2_PLACEMENT_3D('',#1365,#981,#982);
#785=AXIS2_PLACEMENT_3D('',#1367,#983,#984);
#786=AXIS2_PLACEMENT_3D('',#1398,#986,#987);
#787=AXIS2_PLACEMENT_3D('',#1399,#988,#989);
#788=AXIS2_PLACEMENT_3D('',#1400,#990,#991);
#789=AXIS2_PLACEMENT_3D('',#1401,#992,#993);
#790=AXIS2_PLACEMENT_3D('',#1402,#994,#995);
#791=AXIS2_PLACEMENT_3D('',#1403,#996,#997);
#792=AXIS2_PLACEMENT_3D('',#1405,#998,#999);
#793=AXIS2_PLACEMENT_3D('',#1458,#1001,#1002);
#794=AXIS2_PLACEMENT_3D('',#1460,#1003,#1004);
#795=AXIS2_PLACEMENT_3D('',#1507,#1006,#1007);
#796=AXIS2_PLACEMENT_3D('',#1509,#1009,#1010);
#797=AXIS2_PLACEMENT_3D('',#1510,#1011,#1012);
#798=AXIS2_PLACEMENT_3D('',#1511,#1013,#1014);
#799=AXIS2_PLACEMENT_3D('',#1512,#1015,#1016);
#800=AXIS2_PLACEMENT_3D('',#1514,#1017,#1018);
#801=AXIS2_PLACEMENT_3D('',#1517,#1020,#1021);
#802=AXIS2_PLACEMENT_3D('',#1518,#1022,#1023);
#803=AXIS2_PLACEMENT_3D('',#1519,#1024,#1025);
#804=AXIS2_PLACEMENT_3D('',#1520,#1026,#1027);
#805=AXIS2_PLACEMENT_3D('',#1521,#1028,#1029);
#806=AXIS2_PLACEMENT_3D('',#1522,#1030,#1031);
#807=AXIS2_PLACEMENT_3D('',#1523,#1032,#1033);
#808=AXIS2_PLACEMENT_3D('',#1524,#1034,#1035);
#809=AXIS2_PLACEMENT_3D('',#1525,#1036,#1037);
#810=AXIS2_PLACEMENT_3D('',#1526,#1038,#1039);
#811=AXIS2_PLACEMENT_3D('',#1527,#1040,#1041);
#812=AXIS2_PLACEMENT_3D('',#1528,#1042,#1043);
#813=AXIS2_PLACEMENT_3D('',#1530,#1044,#1045);
#814=AXIS2_PLACEMENT_3D('',#1533,#1047,#1048);
#815=AXIS2_PLACEMENT_3D('',#1534,#1049,#1050);
#816=AXIS2_PLACEMENT_3D('',#1535,#1051,#1052);
#817=AXIS2_PLACEMENT_3D('',#1536,#1053,#1054);
#818=AXIS2_PLACEMENT_3D('',#1538,#1055,#1056);
#819=AXIS2_PLACEMENT_3D('',#1541,#1058,#1059);
#820=AXIS2_PLACEMENT_3D('',#1542,#1060,#1061);
#821=AXIS2_PLACEMENT_3D('',#1543,#1062,#1063);
#822=DIRECTION('axis',(0.,0.,1.));
#823=DIRECTION('refdir',(1.,0.,0.));
#824=DIRECTION('center_axis',(6.12323399573677E-17,0.,1.));
#825=DIRECTION('ref_axis',(1.,0.,0.));
#826=DIRECTION('center_axis',(0.471404520791032,0.816496580927726,0.333333333333333));
#827=DIRECTION('ref_axis',(0.,-0.377964473009227,0.925820099772552));
#828=DIRECTION('center_axis',(0.471404520791032,-0.816496580927726,0.333333333333333));
#829=DIRECTION('ref_axis',(0.,-0.377964473009227,-0.925820099772552));
#830=DIRECTION('center_axis',(-0.942809041582063,0.,0.333333333333333));
#831=DIRECTION('ref_axis',(0.333333333333333,0.,0.942809041582063));
#832=DIRECTION('center_axis',(-1.22464679914735E-16,1.,0.));
#833=DIRECTION('ref_axis',(-1.,-1.22464679914735E-16,0.));
#834=DIRECTION('center_axis',(0.,0.,-1.));
#835=DIRECTION('ref_axis',(0.,1.,0.));
#836=DIRECTION('center_axis',(0.471404520791032,-0.816496580927726,0.333333333333333));
#837=DIRECTION('ref_axis',(0.,-0.377964473009227,-0.925820099772552));
#838=DIRECTION('center_axis',(-1.22464679914735E-16,1.,0.));
#839=DIRECTION('ref_axis',(-1.,-1.22464679914735E-16,0.));
#840=DIRECTION('center_axis',(0.471404520791032,0.816496580927726,0.333333333333333));
#841=DIRECTION('ref_axis',(0.,-0.377964473009227,0.925820099772552));
#842=DIRECTION('center_axis',(0.,0.,-1.));
#843=DIRECTION('ref_axis',(0.,1.,0.));
#844=DIRECTION('center_axis',(-0.942809041582063,0.,0.333333333333333));
#845=DIRECTION('ref_axis',(0.333333333333333,0.,0.942809041582063));
#846=DIRECTION('center_axis',(0.471404520791032,0.816496580927726,0.333333333333333));
#847=DIRECTION('ref_axis',(0.,-0.377964473009227,0.925820099772552));
#848=DIRECTION('center_axis',(-0.942809041582063,0.,0.333333333333333));
#849=DIRECTION('ref_axis',(0.333333333333333,0.,0.942809041582063));
#850=DIRECTION('center_axis',(0.,0.,-1.));
#851=DIRECTION('ref_axis',(0.,1.,0.));
#852=DIRECTION('center_axis',(0.471404520791032,-0.816496580927726,0.333333333333333));
#853=DIRECTION('ref_axis',(0.,-0.377964473009227,-0.925820099772552));
#854=DIRECTION('center_axis',(0.,0.,-1.));
#855=DIRECTION('ref_axis',(0.,1.,0.));
#856=DIRECTION('center_axis',(-0.942809041582063,0.,0.333333333333333));
#857=DIRECTION('ref_axis',(0.333333333333333,0.,0.942809041582063));
#858=DIRECTION('center_axis',(0.,0.,1.));
#859=DIRECTION('ref_axis',(1.,0.,0.));
#860=DIRECTION('',(-0.866025403784438,0.500000000000001,0.));
#861=DIRECTION('center_axis',(0.,0.,1.));
#862=DIRECTION('ref_axis',(1.,0.,0.));
#863=DIRECTION('',(0.866025403784439,0.5,0.));
#864=DIRECTION('center_axis',(-0.471404520791032,0.816496580927726,-0.333333333333333));
#865=DIRECTION('ref_axis',(0.166666666666667,-0.288675134594813,-0.942809041582063));
#866=DIRECTION('',(0.577350269189626,-2.06074635202245E-16,-0.816496580927726));
#867=DIRECTION('center_axis',(-0.471404520791032,0.816496580927726,-0.333333333333333));
#868=DIRECTION('ref_axis',(0.166666666666667,-0.288675134594813,-0.942809041582063));
#869=DIRECTION('',(-0.288675134594813,-0.5,-0.816496580927726));
#870=DIRECTION('center_axis',(0.942809041582063,0.,-0.333333333333333));
#871=DIRECTION('ref_axis',(-0.333333333333333,0.,-0.942809041582063));
#872=DIRECTION('',(0.288675134594813,-0.5,0.816496580927726));
#873=DIRECTION('center_axis',(0.942809041582063,0.,-0.333333333333333));
#874=DIRECTION('ref_axis',(-0.333333333333333,0.,-0.942809041582063));
#875=DIRECTION('',(0.,-1.,0.));
#876=DIRECTION('center_axis',(0.,0.,1.));
#877=DIRECTION('ref_axis',(1.,0.,0.));
#878=DIRECTION('',(0.866025403784439,0.5,0.));
#879=DIRECTION('center_axis',(0.,0.,1.));
#880=DIRECTION('ref_axis',(1.,0.,0.));
#881=DIRECTION('',(0.,-1.,0.));
#882=DIRECTION('center_axis',(-0.471404520791032,-0.816496580927726,-0.333333333333333));
#883=DIRECTION('ref_axis',(0.166666666666667,0.288675134594813,-0.942809041582063));
#884=DIRECTION('',(0.577350269189626,-2.06074635202245E-16,-0.816496580927726));
#885=DIRECTION('center_axis',(-0.471404520791032,-0.816496580927726,-0.333333333333333));
#886=DIRECTION('ref_axis',(0.166666666666667,0.288675134594813,-0.942809041582063));
#887=DIRECTION('center_axis',(-0.471404520791032,-0.816496580927726,-0.333333333333333));
#888=DIRECTION('ref_axis',(0.166666666666667,0.288675134594813,-0.942809041582063));
#889=DIRECTION('',(0.288675134594813,-0.5,0.816496580927726));
#890=DIRECTION('center_axis',(-0.471404520791032,-0.816496580927726,-0.333333333333333));
#891=DIRECTION('ref_axis',(0.166666666666667,0.288675134594813,-0.942809041582063));
#892=DIRECTION('center_axis',(0.471404520791032,0.816496580927726,0.333333333333333));
#893=DIRECTION('ref_axis',(0.166666666666667,0.288675134594813,-0.942809041582063));
#894=DIRECTION('center_axis',(-0.471404520791032,-0.816496580927726,-0.333333333333333));
#895=DIRECTION('ref_axis',(0.166666666666667,0.288675134594813,-0.942809041582063));
#896=DIRECTION('',(-0.471404520791032,-0.816496580927726,-0.333333333333333));
#897=DIRECTION('center_axis',(0.471404520791032,0.816496580927726,0.333333333333333));
#898=DIRECTION('ref_axis',(0.166666666666667,0.288675134594813,-0.942809041582063));
#899=DIRECTION('center_axis',(0.471404520791032,0.816496580927726,0.333333333333333));
#900=DIRECTION('ref_axis',(0.166666666666667,0.288675134594813,-0.942809041582063));
#901=DIRECTION('',(-0.471404520791032,-0.816496580927726,-0.333333333333333));
#902=DIRECTION('center_axis',(-2.40894333473842E-16,-1.,6.76164754655736E-17));
#903=DIRECTION('ref_axis',(-0.816496580927726,1.16823402849161E-16,-0.577350269189626));
#904=DIRECTION('center_axis',(-0.288675134594813,-0.5,-0.816496580927726));
#905=DIRECTION('ref_axis',(0.408248290463863,0.707106781186547,-0.577350269189626));
#906=DIRECTION('center_axis',(-0.866025403784439,-0.5,0.));
#907=DIRECTION('ref_axis',(0.408248290463863,-0.707106781186547,-0.577350269189626));
#908=DIRECTION('center_axis',(0.471404520791032,0.816496580927726,0.333333333333333));
#909=DIRECTION('ref_axis',(0.166666666666667,0.288675134594813,-0.942809041582063));
#910=DIRECTION('center_axis',(-2.40894333473842E-16,-1.,6.76164754655736E-17));
#911=DIRECTION('ref_axis',(-0.816496580927726,1.16823402849161E-16,-0.577350269189626));
#912=DIRECTION('center_axis',(-0.288675134594813,-0.5,-0.816496580927726));
#913=DIRECTION('ref_axis',(0.408248290463863,0.707106781186547,-0.577350269189626));
#914=DIRECTION('center_axis',(0.471404520791032,0.816496580927726,0.333333333333333));
#915=DIRECTION('ref_axis',(0.166666666666667,0.288675134594813,-0.942809041582063));
#916=DIRECTION('center_axis',(-2.40894333473842E-16,-1.,6.76164754655736E-17));
#917=DIRECTION('ref_axis',(-0.816496580927726,1.16823402849161E-16,-0.577350269189626));
#918=DIRECTION('center_axis',(-0.866025403784439,-0.5,0.));
#919=DIRECTION('ref_axis',(0.408248290463863,-0.707106781186547,-0.577350269189626));
#920=DIRECTION('center_axis',(0.471404520791032,0.816496580927726,0.333333333333333));
#921=DIRECTION('ref_axis',(0.166666666666667,0.288675134594813,-0.942809041582063));
#922=DIRECTION('center_axis',(-0.288675134594813,-0.5,-0.816496580927726));
#923=DIRECTION('ref_axis',(0.408248290463863,0.707106781186547,-0.577350269189626));
#924=DIRECTION('center_axis',(-0.866025403784439,-0.5,0.));
#925=DIRECTION('ref_axis',(0.408248290463863,-0.707106781186547,-0.577350269189626));
#926=DIRECTION('center_axis',(-0.471404520791032,-0.816496580927726,-0.333333333333333));
#927=DIRECTION('ref_axis',(0.166666666666667,0.288675134594813,-0.942809041582063));
#928=DIRECTION('center_axis',(0.471404520791032,0.816496580927726,0.333333333333333));
#929=DIRECTION('ref_axis',(0.166666666666667,0.288675134594813,-0.942809041582063));
#930=DIRECTION('center_axis',(0.471404520791032,0.816496580927726,0.333333333333333));
#931=DIRECTION('ref_axis',(0.166666666666667,0.288675134594813,-0.942809041582063));
#932=DIRECTION('',(-0.471404520791032,-0.816496580927726,-0.333333333333333));
#933=DIRECTION('center_axis',(-0.471404520791032,-0.816496580927726,-0.333333333333333));
#934=DIRECTION('ref_axis',(0.166666666666667,0.288675134594813,-0.942809041582063));
#935=DIRECTION('center_axis',(-0.471404520791032,-0.816496580927726,-0.333333333333333));
#936=DIRECTION('ref_axis',(0.166666666666667,0.288675134594813,-0.942809041582063));
#937=DIRECTION('center_axis',(-0.471404520791032,-0.816496580927726,-0.333333333333333));
#938=DIRECTION('ref_axis',(0.166666666666667,0.288675134594813,-0.942809041582063));
#939=DIRECTION('',(-0.866025403784438,0.500000000000001,0.));
#940=DIRECTION('center_axis',(-0.471404520791032,-0.816496580927726,-0.333333333333333));
#941=DIRECTION('ref_axis',(0.166666666666667,0.288675134594813,-0.942809041582063));
#942=DIRECTION('center_axis',(0.,0.,-1.));
#943=DIRECTION('ref_axis',(1.,0.,0.));
#944=DIRECTION('center_axis',(0.,0.,-1.));
#945=DIRECTION('ref_axis',(1.,0.,0.));
#946=DIRECTION('',(0.,0.,1.));
#947=DIRECTION('center_axis',(0.577350269189626,0.,-0.816496580927726));
#948=DIRECTION('ref_axis',(-0.816496580927726,0.,-0.577350269189626));
#949=DIRECTION('center_axis',(-0.288675134594813,0.5,-0.816496580927726));
#950=DIRECTION('ref_axis',(0.408248290463863,-0.707106781186547,-0.577350269189626));
#951=DIRECTION('center_axis',(0.577350269189626,0.,-0.816496580927726));
#952=DIRECTION('ref_axis',(-0.816496580927726,0.,-0.577350269189626));
#953=DIRECTION('center_axis',(-0.942809041582063,0.,0.333333333333333));
#954=DIRECTION('ref_axis',(-0.333333333333333,0.,-0.942809041582063));
#955=DIRECTION('center_axis',(-0.942809041582063,0.,0.333333333333333));
#956=DIRECTION('ref_axis',(-0.333333333333333,0.,-0.942809041582063));
#957=DIRECTION('',(0.942809041582063,0.,-0.333333333333333));
#958=DIRECTION('center_axis',(-0.866025403784439,0.5,3.42719585509897E-17));
#959=DIRECTION('ref_axis',(0.408248290463863,0.707106781186547,-0.577350269189626));
#960=DIRECTION('center_axis',(-0.942809041582063,0.,0.333333333333333));
#961=DIRECTION('ref_axis',(-0.333333333333333,0.,-0.942809041582063));
#962=DIRECTION('center_axis',(-0.866025403784439,0.5,3.42719585509897E-17));
#963=DIRECTION('ref_axis',(0.408248290463863,0.707106781186547,-0.577350269189626));
#964=DIRECTION('center_axis',(0.942809041582063,0.,-0.333333333333333));
#965=DIRECTION('ref_axis',(-0.333333333333333,0.,-0.942809041582063));
#966=DIRECTION('center_axis',(0.577350269189626,0.,-0.816496580927726));
#967=DIRECTION('ref_axis',(-0.816496580927726,0.,-0.577350269189626));
#968=DIRECTION('center_axis',(0.471404520791032,-0.816496580927726,0.333333333333333));
#969=DIRECTION('ref_axis',(0.166666666666667,-0.288675134594813,-0.942809041582063));
#970=DIRECTION('center_axis',(0.471404520791032,-0.816496580927726,0.333333333333333));
#971=DIRECTION('ref_axis',(0.166666666666667,-0.288675134594813,-0.942809041582063));
#972=DIRECTION('',(-0.471404520791032,0.816496580927726,-0.333333333333333));
#973=DIRECTION('center_axis',(0.,0.,1.));
#974=DIRECTION('ref_axis',(1.,0.,0.));
#975=DIRECTION('center_axis',(0.,0.,1.));
#976=DIRECTION('ref_axis',(1.,0.,0.));
#977=DIRECTION('center_axis',(0.471404520791032,-0.816496580927726,0.333333333333333));
#978=DIRECTION('ref_axis',(0.166666666666667,-0.288675134594813,-0.942809041582063));
#979=DIRECTION('center_axis',(-0.866025403784439,0.5,3.42719585509897E-17));
#980=DIRECTION('ref_axis',(0.408248290463863,0.707106781186547,-0.577350269189626));
#981=DIRECTION('center_axis',(0.,0.,-1.));
#982=DIRECTION('ref_axis',(1.,0.,0.));
#983=DIRECTION('center_axis',(0.,0.,1.));
#984=DIRECTION('ref_axis',(1.,0.,0.));
#985=DIRECTION('',(0.,0.,1.));
#986=DIRECTION('center_axis',(-0.942809041582063,0.,0.333333333333333));
#987=DIRECTION('ref_axis',(-0.333333333333333,0.,-0.942809041582063));
#988=DIRECTION('center_axis',(0.942809041582063,0.,-0.333333333333333));
#989=DIRECTION('ref_axis',(-0.333333333333333,0.,-0.942809041582063));
#990=DIRECTION('center_axis',(0.942809041582063,0.,-0.333333333333333));
#991=DIRECTION('ref_axis',(-0.333333333333333,0.,-0.942809041582063));
#992=DIRECTION('center_axis',(-0.471404520791032,0.816496580927726,-0.333333333333333));
#993=DIRECTION('ref_axis',(0.166666666666667,-0.288675134594813,-0.942809041582063));
#994=DIRECTION('center_axis',(-0.471404520791032,0.816496580927726,-0.333333333333333));
#995=DIRECTION('ref_axis',(0.166666666666667,-0.288675134594813,-0.942809041582063));
#996=DIRECTION('center_axis',(-0.942809041582063,0.,0.333333333333333));
#997=DIRECTION('ref_axis',(-0.333333333333333,0.,-0.942809041582063));
#998=DIRECTION('center_axis',(0.942809041582063,0.,-0.333333333333333));
#999=DIRECTION('ref_axis',(-0.333333333333333,0.,-0.942809041582063));
#1000=DIRECTION('',(0.942809041582063,0.,-0.333333333333333));
#1001=DIRECTION('center_axis',(0.471404520791032,-0.816496580927726,0.333333333333333));
#1002=DIRECTION('ref_axis',(0.166666666666667,-0.288675134594813,-0.942809041582063));
#1003=DIRECTION('center_axis',(-0.471404520791032,0.816496580927726,-0.333333333333333));
#1004=DIRECTION('ref_axis',(0.166666666666667,-0.288675134594813,-0.942809041582063));
#1005=DIRECTION('',(-0.471404520791032,0.816496580927726,-0.333333333333333));
#1006=DIRECTION('center_axis',(-0.471404520791032,0.816496580927726,-0.333333333333333));
#1007=DIRECTION('ref_axis',(0.166666666666667,-0.288675134594813,-0.942809041582063));
#1008=DIRECTION('',(-0.288675134594813,-0.5,-0.816496580927726));
#1009=DIRECTION('center_axis',(-0.471404520791032,0.816496580927726,-0.333333333333333));
#1010=DIRECTION('ref_axis',(0.166666666666667,-0.288675134594813,-0.942809041582063));
#1011=DIRECTION('center_axis',(0.471404520791032,-0.816496580927726,0.333333333333333));
#1012=DIRECTION('ref_axis',(0.166666666666667,-0.288675134594813,-0.942809041582063));
#1013=DIRECTION('center_axis',(-0.288675134594813,0.5,-0.816496580927726));
#1014=DIRECTION('ref_axis',(0.408248290463863,-0.707106781186547,-0.577350269189626));
#1015=DIRECTION('center_axis',(0.471404520791032,-0.816496580927726,0.333333333333333));
#1016=DIRECTION('ref_axis',(0.166666666666667,-0.288675134594813,-0.942809041582063));
#1017=DIRECTION('center_axis',(0.471404520791032,-0.816496580927726,0.333333333333333));
#1018=DIRECTION('ref_axis',(0.166666666666667,-0.288675134594813,-0.942809041582063));
#1019=DIRECTION('',(-0.471404520791032,0.816496580927726,-0.333333333333333));
#1020=DIRECTION('center_axis',(-0.471404520791032,0.816496580927726,-0.333333333333333));
#1021=DIRECTION('ref_axis',(0.166666666666667,-0.288675134594813,-0.942809041582063));
#1022=DIRECTION('center_axis',(-0.471404520791032,0.816496580927726,-0.333333333333333));
#1023=DIRECTION('ref_axis',(0.166666666666667,-0.288675134594813,-0.942809041582063));
#1024=DIRECTION('center_axis',(0.471404520791032,-0.816496580927726,0.333333333333333));
#1025=DIRECTION('ref_axis',(0.166666666666667,-0.288675134594813,-0.942809041582063));
#1026=DIRECTION('center_axis',(-0.288675134594813,0.5,-0.816496580927726));
#1027=DIRECTION('ref_axis',(0.408248290463863,-0.707106781186547,-0.577350269189626));
#1028=DIRECTION('center_axis',(-0.471404520791032,0.816496580927726,-0.333333333333333));
#1029=DIRECTION('ref_axis',(0.166666666666667,-0.288675134594813,-0.942809041582063));
#1030=DIRECTION('center_axis',(0.942809041582063,0.,-0.333333333333333));
#1031=DIRECTION('ref_axis',(-0.333333333333333,0.,-0.942809041582063));
#1032=DIRECTION('center_axis',(-0.942809041582063,0.,0.333333333333333));
#1033=DIRECTION('ref_axis',(-0.333333333333333,0.,-0.942809041582063));
#1034=DIRECTION('center_axis',(0.577350269189626,0.,-0.816496580927726));
#1035=DIRECTION('ref_axis',(-0.816496580927726,0.,-0.577350269189626));
#1036=DIRECTION('center_axis',(0.,0.,-1.));
#1037=DIRECTION('ref_axis',(-1.,1.22464679914735E-16,0.));
#1038=DIRECTION('center_axis',(0.,0.,-1.));
#1039=DIRECTION('ref_axis',(1.,0.,0.));
#1040=DIRECTION('center_axis',(0.,0.,-1.));
#1041=DIRECTION('ref_axis',(1.,0.,0.));
#1042=DIRECTION('center_axis',(-0.942809041582063,0.,0.333333333333333));
#1043=DIRECTION('ref_axis',(-0.333333333333333,0.,-0.942809041582063));
#1044=DIRECTION('center_axis',(-0.942809041582063,0.,0.333333333333333));
#1045=DIRECTION('ref_axis',(-0.333333333333333,0.,-0.942809041582063));
#1046=DIRECTION('',(0.942809041582063,0.,-0.333333333333333));
#1047=DIRECTION('center_axis',(0.942809041582063,0.,-0.333333333333333));
#1048=DIRECTION('ref_axis',(-0.333333333333333,0.,-0.942809041582063));
#1049=DIRECTION('center_axis',(0.942809041582063,0.,-0.333333333333333));
#1050=DIRECTION('ref_axis',(-0.333333333333333,0.,-0.942809041582063));
#1051=DIRECTION('center_axis',(0.942809041582063,0.,-0.333333333333333));
#1052=DIRECTION('ref_axis',(-0.333333333333333,0.,-0.942809041582063));
#1053=DIRECTION('center_axis',(0.,0.,-1.));
#1054=DIRECTION('ref_axis',(1.,0.,0.));
#1055=DIRECTION('center_axis',(0.,0.,-1.));
#1056=DIRECTION('ref_axis',(1.,0.,0.));
#1057=DIRECTION('',(0.,0.,1.));
#1058=DIRECTION('center_axis',(0.,0.,1.));
#1059=DIRECTION('ref_axis',(1.,0.,0.));
#1060=DIRECTION('center_axis',(0.,0.,1.));
#1061=DIRECTION('ref_axis',(1.,0.,0.));
#1062=DIRECTION('center_axis',(0.,0.,1.));
#1063=DIRECTION('ref_axis',(1.,0.,0.));
#1064=CARTESIAN_POINT('',(0.,0.,0.));
#1065=CARTESIAN_POINT('Origin',(0.,0.,0.));
#1066=CARTESIAN_POINT('',(12.1243556529821,-4.32756733924716E-15,-17.1464281994823));
#1067=CARTESIAN_POINT('',(-6.06217782649107,10.5,-17.1464281994822));
#1068=CARTESIAN_POINT('Origin',(0.,0.,0.));
#1069=CARTESIAN_POINT('',(-6.06217782649107,-10.5,-17.1464281994822));
#1070=CARTESIAN_POINT('Origin',(0.,0.,0.));
#1071=CARTESIAN_POINT('',(-7.,-8.57252759403147E-16,-19.7989898732233));
#1072=CARTESIAN_POINT('Origin',(0.,0.,0.));
#1073=CARTESIAN_POINT('',(-21.,-2.57175827820944E-15,0.));
#1074=CARTESIAN_POINT('Origin',(0.,0.,0.));
#1075=CARTESIAN_POINT('',(-18.1865334794732,-10.5,0.));
#1076=CARTESIAN_POINT('Origin',(0.,0.,0.));
#1077=CARTESIAN_POINT('',(-12.1243556529821,4.32756733924716E-15,17.1464281994823));
#1078=CARTESIAN_POINT('Origin',(0.,0.,0.));
#1079=CARTESIAN_POINT('',(-1.28587913910472E-15,-1.57474777179495E-31,21.));
#1080=CARTESIAN_POINT('Origin',(0.,0.,0.));
#1081=CARTESIAN_POINT('',(-18.1865334794732,10.5,0.));
#1082=CARTESIAN_POINT('Origin',(0.,0.,0.));
#1083=CARTESIAN_POINT('Origin',(0.,0.,0.));
#1084=CARTESIAN_POINT('Origin',(0.,0.,0.));
#1085=CARTESIAN_POINT('',(6.06217782649107,-10.5,17.1464281994822));
#1086=CARTESIAN_POINT('',(18.1865334794732,-10.5,0.));
#1087=CARTESIAN_POINT('Origin',(0.,0.,0.));
#1088=CARTESIAN_POINT('',(0.,-21.,0.));
#1089=CARTESIAN_POINT('Origin',(0.,0.,0.));
#1090=CARTESIAN_POINT('Origin',(0.,0.,0.));
#1091=CARTESIAN_POINT('',(18.1865334794732,10.5,0.));
#1092=CARTESIAN_POINT('',(6.06217782649107,10.5,17.1464281994822));
#1093=CARTESIAN_POINT('Origin',(0.,0.,0.));
#1094=CARTESIAN_POINT('',(0.,21.,0.));
#1095=CARTESIAN_POINT('Origin',(0.,0.,0.));
#1096=CARTESIAN_POINT('Origin',(0.,0.,0.));
#1097=CARTESIAN_POINT('Origin',(0.,0.,0.));
#1098=CARTESIAN_POINT('',(-19.9185842870421,11.5,4.31248410026517E-17));
#1099=CARTESIAN_POINT('',(0.,0.,0.));
#1100=CARTESIAN_POINT('',(-19.9185842870421,-11.5,-4.31248410026518E-17));
#1101=CARTESIAN_POINT('Origin',(0.,0.,0.));
#1102=CARTESIAN_POINT('',(0.,0.,0.));
#1103=CARTESIAN_POINT('Origin',(0.,0.,0.));
#1104=CARTESIAN_POINT('',(13.2790561913614,-4.73971660965165E-15,-18.7794213613377));
#1105=CARTESIAN_POINT('',(0.,0.,0.));
#1106=CARTESIAN_POINT('',(-6.6395280956807,-11.5,-18.7794213613377));
#1107=CARTESIAN_POINT('Origin',(0.,0.,0.));
#1108=CARTESIAN_POINT('',(0.,0.,0.));
#1109=CARTESIAN_POINT('Origin',(0.,0.,0.));
#1110=CARTESIAN_POINT('',(6.63952809567901,-11.4999999999994,18.7794213613386));
#1111=CARTESIAN_POINT('',(0.,0.,0.));
#1112=CARTESIAN_POINT('',(0.,-23.,0.));
#1113=CARTESIAN_POINT('Origin',(0.,0.,0.));
#1114=CARTESIAN_POINT('',(0.,0.,0.));
#1115=CARTESIAN_POINT('Origin',(0.,0.,0.));
#1116=CARTESIAN_POINT('',(19.9185842870421,11.5,0.));
#1117=CARTESIAN_POINT('',(0.,0.,0.));
#1118=CARTESIAN_POINT('',(0.,23.,0.));
#1119=CARTESIAN_POINT('Origin',(0.,0.,0.));
#1120=CARTESIAN_POINT('',(0.,0.,0.));
#1121=CARTESIAN_POINT('Origin',(0.,0.,0.));
#1122=CARTESIAN_POINT('',(-13.2790561913614,4.73971660965165E-15,18.7794213613377));
#1123=CARTESIAN_POINT('',(0.,0.,0.));
#1124=CARTESIAN_POINT('Origin',(0.,0.,0.));
#1125=CARTESIAN_POINT('Origin',(0.,0.,0.));
#1126=CARTESIAN_POINT('',(-6.63952809568069,11.5,-18.7794213613377));
#1127=CARTESIAN_POINT('',(0.,0.,0.));
#1128=CARTESIAN_POINT('Origin',(0.,0.,0.));
#1129=CARTESIAN_POINT('Origin',(0.,0.,0.));
#1130=CARTESIAN_POINT('',(16.2311808316413,28.1132298672407,28.1825757382508));
#1131=CARTESIAN_POINT('Origin',(18.8561808316413,32.659863237109,13.3333333333333));
#1132=CARTESIAN_POINT('',(5.32199681408229,9.21796887971021,20.468617742223));
#1133=CARTESIAN_POINT('',(-2.625,-4.5466333698683,14.8492424049175));
#1134=CARTESIAN_POINT('',(-2.55300318591771,22.8578689893151,-1.80524586515327));
#1135=CARTESIAN_POINT('Ctrl Pts',(-2.55300318591771,22.8578689893151,-1.80524586515327));
#1136=CARTESIAN_POINT('Ctrl Pts',(-2.79350090039631,22.888707465337,-1.42736147026854));
#1137=CARTESIAN_POINT('Ctrl Pts',(-3.01302110260844,22.9158745575924,-1.0429771882544));
#1138=CARTESIAN_POINT('Ctrl Pts',(-3.78170394894046,23.0002438937346,0.442219307059265));
#1139=CARTESIAN_POINT('Ctrl Pts',(-4.23201450899565,23.0241036565314,1.63981368593538));
#1140=CARTESIAN_POINT('Ctrl Pts',(-4.88092232627148,22.9136786880387,4.11886019384604));
#1141=CARTESIAN_POINT('Ctrl Pts',(-5.07992592886696,22.7788194531966,5.40018031713766));
#1142=CARTESIAN_POINT('Ctrl Pts',(-5.23392037374272,22.3054369123153,7.9332162961211));
#1143=CARTESIAN_POINT('Ctrl Pts',(-5.18896127651976,21.9661208958026,9.1875912475014));
#1144=CARTESIAN_POINT('Ctrl Pts',(-4.87624156851283,21.0830545007468,11.5644406047333));
#1145=CARTESIAN_POINT('Ctrl Pts',(-4.60827893060372,20.5391415981292,12.6868280399447));
#1146=CARTESIAN_POINT('Ctrl Pts',(-3.89172106939627,19.298026975955,14.713559731034));
#1147=CARTESIAN_POINT('Ctrl Pts',(-3.42891062624516,18.5762037733727,15.6581107003277));
#1148=CARTESIAN_POINT('Ctrl Pts',(-2.31413354023032,16.9867731935411,17.3188319957952));
#1149=CARTESIAN_POINT('Ctrl Pts',(-1.6623293349981,16.1192597693519,18.0352012686068));
#1150=CARTESIAN_POINT('Ctrl Pts',(-0.203262250412103,14.332190190687,19.1934681435439));
#1151=CARTESIAN_POINT('Ctrl Pts',(0.605524691553728,13.4108737001307,19.6368757575457));
#1152=CARTESIAN_POINT('Ctrl Pts',(2.34679187967283,11.6292767381989,20.2474881240988));
#1153=CARTESIAN_POINT('Ctrl Pts',(3.27971436375818,10.7695086026433,20.4149264018755));
#1154=CARTESIAN_POINT('Ctrl Pts',(4.59605641505553,9.73656569826835,20.4787440570027));
#1155=CARTESIAN_POINT('Ctrl Pts',(4.95234794114807,9.47250372403364,20.4812074973394));
#1156=CARTESIAN_POINT('Ctrl Pts',(5.32199681408229,9.21796887971021,20.468617742223));
#1157=CARTESIAN_POINT('',(21.0719968140823,9.21796887971021,-1.80524586515328));
#1158=CARTESIAN_POINT('Ctrl Pts',(21.0719968140823,9.21796887971021,-1.80524586515329));
#1159=CARTESIAN_POINT('Ctrl Pts',(20.9606502580593,9.47250372403363,-2.15795074980511));
#1160=CARTESIAN_POINT('Ctrl Pts',(20.8395638622056,9.73656569826836,-2.49304447526534));
#1161=CARTESIAN_POINT('Ctrl Pts',(20.3406153161734,10.7695086026433,-3.7128311113341));
#1162=CARTESIAN_POINT('Ctrl Pts',(19.8717788326167,11.6292767381989,-4.53658610516605));
#1163=CARTESIAN_POINT('Ctrl Pts',(18.7156655764889,13.4108737001307,-5.9747310984172));
#1164=CARTESIAN_POINT('Ctrl Pts',(18.0280212215798,14.332190190687,-6.5894602020155));
#1165=CARTESIAN_POINT('Ctrl Pts',(16.4496410444621,16.1192597693519,-7.57899288332558));
#1166=CARTESIAN_POINT('Ctrl Pts',(15.556973548533,16.9867731935411,-7.95473002375585));
#1167=CARTESIAN_POINT('Ctrl Pts',(13.6196381336134,18.5762037733727,-8.45217817464333));
#1168=CARTESIAN_POINT('Ctrl Pts',(12.5748367918112,19.298026975955,-8.57366972188689));
#1169=CARTESIAN_POINT('Ctrl Pts',(10.4251632081888,20.5391415981292,-8.57366972188689));
#1170=CARTESIAN_POINT('Ctrl Pts',(9.2776453068104,21.0830545007468,-8.45217817464333));
#1171=CARTESIAN_POINT('Ctrl Pts',(6.93249033966463,21.9661208958026,-7.95473002375585));
#1172=CARTESIAN_POINT('Ctrl Pts',(5.73486792822824,22.3054369123153,-7.57899288332558));
#1173=CARTESIAN_POINT('Ctrl Pts',(3.39803018621524,22.7788194531966,-6.5894602020155));
#1174=CARTESIAN_POINT('Ctrl Pts',(2.25632452301335,22.9136786880387,-5.9747310984172));
#1175=CARTESIAN_POINT('Ctrl Pts',(0.135359666611346,23.0241036565314,-4.53658610516605));
#1176=CARTESIAN_POINT('Ctrl Pts',(-0.843639621922516,23.0002438937346,-3.7128311113341));
#1177=CARTESIAN_POINT('Ctrl Pts',(-1.98766869078623,22.9158745575924,-2.49304447526533));
#1178=CARTESIAN_POINT('Ctrl Pts',(-2.27689626657381,22.888707465337,-2.1579507498051));
#1179=CARTESIAN_POINT('Ctrl Pts',(-2.55300318591771,22.8578689893151,-1.80524586515327));
#1180=CARTESIAN_POINT('Ctrl Pts',(5.32199681408228,9.21796887971021,20.468617742223));
#1181=CARTESIAN_POINT('Ctrl Pts',(5.59110056010254,9.08990534660603,20.476977724291));
#1182=CARTESIAN_POINT('Ctrl Pts',(5.86022504398317,8.96935538611008,20.4787019776616));
#1183=CARTESIAN_POINT('Ctrl Pts',(7.30548539793739,8.35569391738068,20.4539648181916));
#1184=CARTESIAN_POINT('Ctrl Pts',(8.55042463070354,7.94967663671013,20.3082771637749));
#1185=CARTESIAN_POINT('Ctrl Pts',(11.0373680137771,7.28914697048806,19.727275630613));
#1186=CARTESIAN_POINT('Ctrl Pts',(12.2791314899666,7.03396513498178,19.2916928941315));
#1187=CARTESIAN_POINT('Ctrl Pts',(14.6335701568362,6.64067143080008,18.1330247210179));
#1188=CARTESIAN_POINT('Ctrl Pts',(15.748644333346,6.50211680467848,17.408382256388));
#1189=CARTESIAN_POINT('Ctrl Pts',(17.7498820363432,6.32107124824401,15.714712619058));
#1190=CARTESIAN_POINT('Ctrl Pts',(18.6358756413609,6.27868417743717,14.7454735777571));
#1191=CARTESIAN_POINT('Ctrl Pts',(20.1141243586391,6.27868417743717,12.6549141932216));
#1192=CARTESIAN_POINT('Ctrl Pts',(20.7326004885593,6.321071248244,11.4965117311934));
#1193=CARTESIAN_POINT('Ctrl Pts',(21.6623283017547,6.50211680467847,9.0451701846761));
#1194=CARTESIAN_POINT('Ctrl Pts',(21.9738363771521,6.64067143080008,7.75232068081794));
#1195=CARTESIAN_POINT('Ctrl Pts',(22.2814263180005,7.03396513498178,5.14631189347169));
#1196=CARTESIAN_POINT('Ctrl Pts',(22.2781765015825,7.28914697048806,3.83037181512005));
#1197=CARTESIAN_POINT('Ctrl Pts',(21.9969688725293,7.94967663671013,1.29199192993497));
#1198=CARTESIAN_POINT('Ctrl Pts',(21.7193447661049,8.35569391738068,0.0696894135905573));
#1199=CARTESIAN_POINT('Ctrl Pts',(21.2609137323983,8.96935538611008,-1.30116083538092));
#1200=CARTESIAN_POINT('Ctrl Pts',(21.1695799294369,9.08990534660603,-1.55431908097113));
#1201=CARTESIAN_POINT('Ctrl Pts',(21.0719968140823,9.2179688797102,-1.80524586515328));
#1202=CARTESIAN_POINT('Origin',(0.,0.,0.));
#1203=CARTESIAN_POINT('',(4.65194804090524,8.05741036101837,27.6846079563875));
#1204=CARTESIAN_POINT('Origin',(8.48528137423858,14.6969384566991,6.));
#1205=CARTESIAN_POINT('',(1.66533453693773E-15,8.32667268468867E-15,24.3951839509359));
#1206=CARTESIAN_POINT('',(-3.83333333333333,-6.6395280956807,21.6846079563875));
#1207=CARTESIAN_POINT('',(23.,1.66533453693773E-15,-8.1317279836453));
#1208=CARTESIAN_POINT('Origin',(0.,0.,0.));
#1209=CARTESIAN_POINT('',(-11.5,19.9185842870421,-8.13172798364529));
#1210=CARTESIAN_POINT('Origin',(0.,0.,0.));
#1211=CARTESIAN_POINT('Origin',(0.,0.,0.));
#1212=CARTESIAN_POINT('Origin',(0.,0.,0.));
#1213=CARTESIAN_POINT('',(-10.6439936276975,9.77964677989496E-9,20.4686177424902));
#1214=CARTESIAN_POINT('Origin',(0.,0.,0.));
#1215=CARTESIAN_POINT('',(-18.5189936265521,13.639900112344,-1.80524586114311));
#1216=CARTESIAN_POINT('Ctrl Pts',(-18.5189936271071,13.6399001121338,-1.80524586088129));
#1217=CARTESIAN_POINT('Ctrl Pts',(-18.4589383801819,13.7835163198128,-1.56263877615364));
#1218=CARTESIAN_POINT('Ctrl Pts',(-18.4014557229387,13.9199892494407,-1.31555640395005));
#1219=CARTESIAN_POINT('Ctrl Pts',(-18.1468130788502,14.5135319764786,-0.163287977807705));
#1220=CARTESIAN_POINT('Ctrl Pts',(-17.9742945260797,14.8804458550895,0.783655901897364));
#1221=CARTESIAN_POINT('Ctrl Pts',(-17.6433298249227,15.4233770877846,2.68930291201661));
#1222=CARTESIAN_POINT('Ctrl Pts',(-17.4741904459763,15.6135986379374,3.71662410321458));
#1223=CARTESIAN_POINT('Ctrl Pts',(-17.1078351952127,15.7835447575734,5.81218034657715));
#1224=CARTESIAN_POINT('Ctrl Pts',(-16.9101941889106,15.7633251307469,6.88033652641819));
#1225=CARTESIAN_POINT('Ctrl Pts',(-16.4711319830462,15.5039121290469,8.97589158702925));
#1226=CARTESIAN_POINT('Ctrl Pts',(-16.2291564648372,15.2643915065937,10.0050767979233));
#1227=CARTESIAN_POINT('Ctrl Pts',(-15.7031613176561,14.5871617207739,11.951314638938));
#1228=CARTESIAN_POINT('Ctrl Pts',(-15.4191140104109,14.1493205188545,12.8683138406752));
#1229=CARTESIAN_POINT('Ctrl Pts',(-14.830885989589,13.1304797003553,14.5320739303036));
#1230=CARTESIAN_POINT('Ctrl Pts',(-14.5089206418041,12.5186761937329,15.329137359993));
#1231=CARTESIAN_POINT('Ctrl Pts',(-13.8342852147597,11.1163528238733,16.7787956019175));
#1232=CARTESIAN_POINT('Ctrl Pts',(-13.4816252708622,10.325934613976,17.4314934613814));
#1233=CARTESIAN_POINT('Ctrl Pts',(-12.7847702300958,8.61788123131786,18.5487975526076));
#1234=CARTESIAN_POINT('Ctrl Pts',(-12.4401005130974,7.69879113189838,19.0145277325906));
#1235=CARTESIAN_POINT('Ctrl Pts',(-11.8066010876672,5.7970459129094,19.7469875761788));
#1236=CARTESIAN_POINT('Ctrl Pts',(-11.5181789478806,4.81430456472257,20.0138457958054));
#1237=CARTESIAN_POINT('Ctrl Pts',(-11.0523829965833,2.8913434005049,20.3617782270184));
#1238=CARTESIAN_POINT('Ctrl Pts',(-10.8556737446897,1.88490820464869,20.4591682852357));
#1239=CARTESIAN_POINT('Ctrl Pts',(-10.6960324296502,0.573804612847099,20.4786718469423));
#1240=CARTESIAN_POINT('Ctrl Pts',(-10.6668552382107,0.287232423650526,20.4767005417819));
#1241=CARTESIAN_POINT('Ctrl Pts',(-10.6439936289351,9.6809964211797E-9,
20.4686177424954));
#1242=CARTESIAN_POINT('Origin',(0.,0.,0.));
#1243=CARTESIAN_POINT('Origin',(0.,0.,0.));
#1244=CARTESIAN_POINT('',(15.750000000213,5.10932796071728E-9,-16.8581260117329));
#1245=CARTESIAN_POINT('Origin',(0.,0.,0.));
#1246=CARTESIAN_POINT('',(-7.87499999568166,13.639900112344,-16.8581260117329));
#1247=CARTESIAN_POINT('Origin',(0.,0.,0.));
#1248=CARTESIAN_POINT('Ctrl Pts',(15.75,5.05778897930131E-9,-16.8581260123434));
#1249=CARTESIAN_POINT('Ctrl Pts',(15.749999999888,0.348655709540277,-16.8875598157249));
#1250=CARTESIAN_POINT('Ctrl Pts',(15.7384025996757,0.696500453926743,-16.9227795189969));
#1251=CARTESIAN_POINT('Ctrl Pts',(15.6461502012179,2.08778883410039,-17.0823908800591));
#1252=CARTESIAN_POINT('Ctrl Pts',(15.4715877475775,3.11257550849184,-17.2423448232166));
#1253=CARTESIAN_POINT('Ctrl Pts',(14.7036522514064,5.97854979713807,-17.7321049149874));
#1254=CARTESIAN_POINT('Ctrl Pts',(13.7838293954466,7.90370270149905,-18.1199084313618));
#1255=CARTESIAN_POINT('Ctrl Pts',(11.8720640594739,10.4027202624842,-18.5326007853322));
#1256=CARTESIAN_POINT('Ctrl Pts',(11.148541037389,11.1738332690275,-18.6433229891707));
#1257=CARTESIAN_POINT('Ctrl Pts',(9.58217627231679,12.5429827024528,-18.7904019839423));
#1258=CARTESIAN_POINT('Ctrl Pts',(8.73924903773563,13.1409256950214,-18.8267180490918));
#1259=CARTESIAN_POINT('Ctrl Pts',(7.01075096226439,14.1388745241884,-18.8267180490918));
#1260=CARTESIAN_POINT('Ctrl Pts',(6.07145352339453,14.5698994265932,-18.7904019839423));
#1261=CARTESIAN_POINT('Ctrl Pts',(4.10255294993505,15.241836388026,-18.6433229891707));
#1262=CARTESIAN_POINT('Ctrl Pts',(3.07298798603749,15.4828692021026,-18.5326007853322));
#1263=CARTESIAN_POINT('Ctrl Pts',(-0.0471073742654238,15.888997768637,-18.1199084313618));
#1264=CARTESIAN_POINT('Ctrl Pts',(-2.17425012359132,15.7230112766992,-17.7321049149874));
#1265=CARTESIAN_POINT('Ctrl Pts',(-5.04022441223755,14.9550757805281,-17.2423448232166));
#1266=CARTESIAN_POINT('Ctrl Pts',(-6.01499693254047,14.5938579627319,-17.0823908800591));
#1267=CARTESIAN_POINT('Ctrl Pts',(-7.26601421298987,13.9781066932696,-16.9227795189969));
#1268=CARTESIAN_POINT('Ctrl Pts',(-7.57305529830763,13.8142279642781,-16.8875598157249));
#1269=CARTESIAN_POINT('Ctrl Pts',(-7.87499999561981,13.6399001121338,-16.8581260123434));
#1270=CARTESIAN_POINT('Origin',(0.,0.,0.));
#1271=CARTESIAN_POINT('',(21.0719968140823,-9.21796887971023,-1.80524586515331));
#1272=CARTESIAN_POINT('',(19.9185842870421,-11.5,-4.31248410026517E-17));
#1273=CARTESIAN_POINT('Origin',(0.,0.,0.));
#1274=CARTESIAN_POINT('',(5.32199681408229,-9.21796887971021,20.468617742223));
#1275=CARTESIAN_POINT('Ctrl Pts',(5.32199681408229,-9.21796887971021,20.468617742223));
#1276=CARTESIAN_POINT('Ctrl Pts',(5.63781674082418,-9.06767362651732,20.4784290100456));
#1277=CARTESIAN_POINT('Ctrl Pts',(5.9575947549512,-8.92585590196958,20.4792347774058));
#1278=CARTESIAN_POINT('Ctrl Pts',(7.2531027546448,-8.38716481536176,20.4454621690122));
#1279=CARTESIAN_POINT('Ctrl Pts',(8.24509080232379,-8.05576516565995,20.3342010904519));
#1280=CARTESIAN_POINT('Ctrl Pts',(11.0859617136101,-7.24434934445987,19.7734379252336));
#1281=CARTESIAN_POINT('Ctrl Pts',(13.0893091750803,-6.86394312421833,19.0354884587723));
#1282=CARTESIAN_POINT('Ctrl Pts',(15.7666944647498,-6.50327535539327,17.3706229326241));
#1283=CARTESIAN_POINT('Ctrl Pts',(16.6072800353938,-6.41698625877129,16.7253862868893));
#1284=CARTESIAN_POINT('Ctrl Pts',(18.1233927235446,-6.30467159779776,15.2976297555541));
#1285=CARTESIAN_POINT('Ctrl Pts',(18.7988339748429,-6.27868417743719,14.5150156924451));
#1286=CARTESIAN_POINT('Ctrl Pts',(19.9632280208219,-6.27868417743719,12.8683138406751));
#1287=CARTESIAN_POINT('Ctrl Pts',(20.4844332781302,-6.30575576042837,11.951314638938));
#1288=CARTESIAN_POINT('Ctrl Pts',(21.3339290504402,-6.42266602724467,10.0050767979233));
#1289=CARTESIAN_POINT('Ctrl Pts',(21.6623477533194,-6.5124626618809,8.97589158702925));
#1290=CARTESIAN_POINT('Ctrl Pts',(22.1065371057958,-6.7629951851511,6.88033652641819));
#1291=CARTESIAN_POINT('Ctrl Pts',(22.2228683194337,-6.924047504025,5.81218034657715));
#1292=CARTESIAN_POINT('Ctrl Pts',(22.2588682879361,-7.32629351781406,3.71662410321458));
#1293=CARTESIAN_POINT('Ctrl Pts',(22.1787012826297,-7.56788329183846,2.68930291201661));
#1294=CARTESIAN_POINT('Ctrl Pts',(21.8739913931862,-8.12597274714388,0.783655901897356));
#1295=CARTESIAN_POINT('Ctrl Pts',(21.6424939296933,-8.45883513577271,-0.163287977807718));
#1296=CARTESIAN_POINT('Ctrl Pts',(21.2557921713978,-8.97613349861925,-1.31555640542049));
#1297=CARTESIAN_POINT('Ctrl Pts',(21.1663444754761,-9.09415140560824,-1.56263877905412));
#1298=CARTESIAN_POINT('Ctrl Pts',(21.0719968140823,-9.21796887971023,-1.80524586515331));
#1299=CARTESIAN_POINT('Origin',(0.,0.,0.));
#1300=CARTESIAN_POINT('Origin',(0.,0.,0.));
#1301=CARTESIAN_POINT('Origin',(0.,0.,0.));
#1302=CARTESIAN_POINT('',(15.5228474983079,26.8863605452128,32.1895141649746));
#1303=CARTESIAN_POINT('Origin',(18.8561808316413,32.659863237109,13.3333333333333));
#1304=CARTESIAN_POINT('',(5.15194804090524,8.92343576480281,24.8561808316413));
#1305=CARTESIAN_POINT('',(-3.33333333333333,-5.77350269189626,18.8561808316413));
#1306=CARTESIAN_POINT('Origin',(8.48528137423858,14.6969384566991,6.));
#1307=CARTESIAN_POINT('Origin',(18.8561808316413,32.659863237109,13.3333333333333));
#1308=CARTESIAN_POINT('Origin',(0.,0.,0.));
#1309=CARTESIAN_POINT('',(0.,0.,0.));
#1310=CARTESIAN_POINT('Origin',(8.48528137423858,14.6969384566991,6.));
#1311=CARTESIAN_POINT('Origin',(0.,0.,0.));
#1312=CARTESIAN_POINT('',(-23.,-2.81668763803891E-15,-18.));
#1313=CARTESIAN_POINT('Origin',(0.,0.,-18.));
#1314=CARTESIAN_POINT('',(-23.,2.81668763803891E-15,-16.2634559672906));
#1315=CARTESIAN_POINT('',(-23.,2.81668763803891E-15,0.));
#1316=CARTESIAN_POINT('Origin',(0.,0.,0.));
#1317=CARTESIAN_POINT('',(-11.5,-19.9185842870421,-8.13172798364529));
#1318=CARTESIAN_POINT('Origin',(0.,0.,0.));
#1319=CARTESIAN_POINT('Origin',(0.,0.,0.));
#1320=CARTESIAN_POINT('Origin',(0.,0.,0.));
#1321=CARTESIAN_POINT('',(-9.30389608181047,-2.81668763803891E-15,27.6846079563875));
#1322=CARTESIAN_POINT('Origin',(-16.9705627484771,0.,6.));
#1323=CARTESIAN_POINT('',(7.66666666666667,2.81668763803891E-15,21.6846079563875));
#1324=CARTESIAN_POINT('Origin',(0.,0.,0.));
#1325=CARTESIAN_POINT('Origin',(0.,0.,0.));
#1326=CARTESIAN_POINT('',(6.6395280956807,11.5,18.7794213613377));
#1327=CARTESIAN_POINT('Origin',(0.,0.,0.));
#1328=CARTESIAN_POINT('Origin',(0.,0.,0.));
#1329=CARTESIAN_POINT('Origin',(0.,0.,0.));
#1330=CARTESIAN_POINT('Origin',(0.,0.,0.));
#1331=CARTESIAN_POINT('',(4.65194804090524,-8.05741036101837,27.6846079563875));
#1332=CARTESIAN_POINT('Origin',(8.48528137423857,-14.6969384566991,6.));
#1333=CARTESIAN_POINT('',(-3.83333333333333,6.6395280956807,21.6846079563875));
#1334=CARTESIAN_POINT('Origin',(0.,0.,0.));
#1335=CARTESIAN_POINT('Origin',(0.,0.,0.));
#1336=CARTESIAN_POINT('Origin',(0.,0.,0.));
#1337=CARTESIAN_POINT('',(-7.87499999568166,-13.639900112344,-16.8581260117329));
#1338=CARTESIAN_POINT('Ctrl Pts',(-7.87499999561981,-13.6399001121338,-16.8581260123434));
#1339=CARTESIAN_POINT('Ctrl Pts',(-7.62624942694501,-13.7835163198128,-16.8823744107905));
#1340=CARTESIAN_POINT('Ctrl Pts',(-7.37413704666819,-13.9199892494407,-16.9105400325419));
#1341=CARTESIAN_POINT('Ctrl Pts',(-6.20288707480884,-14.5135319764786,-17.0545501207037));
#1342=CARTESIAN_POINT('Ctrl Pts',(-5.25259363889528,-14.8804458550895,-17.2075460292127));
#1343=CARTESIAN_POINT('Ctrl Pts',(-3.34561084063869,-15.4233770877846,-17.5307251865572));
#1344=CARTESIAN_POINT('Ctrl Pts',(-2.32066333998623,-15.6135986379374,-17.7136994478649));
#1345=CARTESIAN_POINT('Ctrl Pts',(-0.222835549679077,-15.7835447575734,
-18.0668151528014));
#1346=CARTESIAN_POINT('Ctrl Pts',(0.850112089930856,-15.7633251307469,-18.2365294850194));
#1347=CARTESIAN_POINT('Ctrl Pts',(2.97217441682948,-15.5039121290469,-18.5210960210505));
#1348=CARTESIAN_POINT('Ctrl Pts',(4.02315804519253,-15.2643915065937,-18.6360210516063));
#1349=CARTESIAN_POINT('Ctrl Pts',(6.03342039449743,-14.587161720774,-18.7888540180206));
#1350=CARTESIAN_POINT('Ctrl Pts',(6.99265796876715,-14.1493205188545,-18.8267180490918));
#1351=CARTESIAN_POINT('Ctrl Pts',(8.75734203123283,-13.1304797003553,-18.8267180490918));
#1352=CARTESIAN_POINT('Ctrl Pts',(9.61614242205344,-12.5186761937329,-18.7888540180206));
#1353=CARTESIAN_POINT('Ctrl Pts',(11.2077717954253,-11.1163528238733,-18.6360210516063));
#1354=CARTESIAN_POINT('Ctrl Pts',(11.9406945533816,-10.325934613976,-18.5210960210505));
#1355=CARTESIAN_POINT('Ctrl Pts',(13.226383966375,-8.61788123131788,-18.2365294850194));
#1356=CARTESIAN_POINT('Ctrl Pts',(13.7803684966668,-7.69879113189839,-18.0668151528014));
#1357=CARTESIAN_POINT('Ctrl Pts',(14.682104734941,-5.79704591290942,-17.7136994478649));
#1358=CARTESIAN_POINT('Ctrl Pts',(15.0298417904876,-4.81430456472259,-17.5307251865572));
#1359=CARTESIAN_POINT('Ctrl Pts',(15.513140949594,-2.89134340050492,-17.2075460292128));
#1360=CARTESIAN_POINT('Ctrl Pts',(15.6705309276726,-1.88490820464871,-17.0545501207037));
#1361=CARTESIAN_POINT('Ctrl Pts',(15.7421327918841,-0.573805378035678,-16.9105401167573));
#1362=CARTESIAN_POINT('Ctrl Pts',(15.7500000000936,-0.287232887308737,-16.8823744500986));
#1363=CARTESIAN_POINT('Ctrl Pts',(15.75,5.13039950800209E-9,-16.8581260114833));
#1364=CARTESIAN_POINT('Origin',(0.,0.,0.));
#1365=CARTESIAN_POINT('Origin',(0.,0.,0.));
#1366=CARTESIAN_POINT('',(-15.75,-1.92881870865708E-15,-40.));
#1367=CARTESIAN_POINT('Origin',(0.,0.,-40.));
#1368=CARTESIAN_POINT('',(-15.75,1.51952086664112E-15,-18.8267180490918));
#1369=CARTESIAN_POINT('',(-15.75,1.92881870865708E-15,0.));
#1370=CARTESIAN_POINT('Ctrl Pts',(-15.75,1.11022302462516E-15,-18.8267180490918));
#1371=CARTESIAN_POINT('Ctrl Pts',(-15.75,-1.01884081849921,-18.8267180490918));
#1372=CARTESIAN_POINT('Ctrl Pts',(-15.6495628165509,-2.06848552704106,-18.7888540180206));
#1373=CARTESIAN_POINT('Ctrl Pts',(-15.2309298406178,-4.14803868272035,-18.6360210516063));
#1374=CARTESIAN_POINT('Ctrl Pts',(-14.9128689702111,-5.17797751507092,-18.5210960210505));
#1375=CARTESIAN_POINT('Ctrl Pts',(-14.0764960563059,-7.14544389942903,-18.2365294850194));
#1376=CARTESIAN_POINT('Ctrl Pts',(-13.5575329469878,-8.08475362567506,-18.0668151528014));
#1377=CARTESIAN_POINT('Ctrl Pts',(-12.3614413949548,-9.81655272502802,-17.7136994478649));
#1378=CARTESIAN_POINT('Ctrl Pts',(-11.684230949849,-10.609072523062,-17.5307251865572));
#1379=CARTESIAN_POINT('Ctrl Pts',(-10.2605473106987,-11.9891024545846,-17.2075460292127));
#1380=CARTESIAN_POINT('Ctrl Pts',(-9.4676438528638,-12.6286237718299,-17.0545501207037));
#1381=CARTESIAN_POINT('Ctrl Pts',(-8.36799643014906,-13.3461842185018,-16.9105401167573));
#1382=CARTESIAN_POINT('Ctrl Pts',(-8.12375097725849,-13.4962836660316,-16.8823744500986));
#1383=CARTESIAN_POINT('Ctrl Pts',(-7.87499999555692,-13.6399001121701,-16.8581260114833));
#1384=CARTESIAN_POINT('Ctrl Pts',(-7.87499999555693,13.6399001121701,-16.8581260114833));
#1385=CARTESIAN_POINT('Ctrl Pts',(-8.12375097725849,13.4962836660316,-16.8823744500986));
#1386=CARTESIAN_POINT('Ctrl Pts',(-8.36799643014905,13.3461842185018,-16.9105401167573));
#1387=CARTESIAN_POINT('Ctrl Pts',(-9.4676438528638,12.6286237718299,-17.0545501207037));
#1388=CARTESIAN_POINT('Ctrl Pts',(-10.2605473106987,11.9891024545846,-17.2075460292127));
#1389=CARTESIAN_POINT('Ctrl Pts',(-11.684230949849,10.609072523062,-17.5307251865572));
#1390=CARTESIAN_POINT('Ctrl Pts',(-12.3614413949548,9.81655272502803,-17.7136994478649));
#1391=CARTESIAN_POINT('Ctrl Pts',(-13.5575329469878,8.08475362567506,-18.0668151528014));
#1392=CARTESIAN_POINT('Ctrl Pts',(-14.0764960563059,7.14544389942904,-18.2365294850194));
#1393=CARTESIAN_POINT('Ctrl Pts',(-14.9128689702111,5.17797751507092,-18.5210960210505));
#1394=CARTESIAN_POINT('Ctrl Pts',(-15.2309298406178,4.14803868272035,-18.6360210516063));
#1395=CARTESIAN_POINT('Ctrl Pts',(-15.6495628165509,2.06848552704106,-18.7888540180206));
#1396=CARTESIAN_POINT('Ctrl Pts',(-15.75,1.01884081849921,-18.8267180490918));
#1397=CARTESIAN_POINT('Ctrl Pts',(-15.75,1.66533453693773E-15,-18.8267180490918));
#1398=CARTESIAN_POINT('Origin',(0.,0.,0.));
#1399=CARTESIAN_POINT('Origin',(0.,0.,0.));
#1400=CARTESIAN_POINT('Origin',(0.,0.,0.));
#1401=CARTESIAN_POINT('Origin',(0.,0.,0.));
#1402=CARTESIAN_POINT('Origin',(0.,0.,0.));
#1403=CARTESIAN_POINT('Origin',(0.,0.,0.));
#1404=CARTESIAN_POINT('',(-32.4623616632825,-1.92881870865708E-15,28.1825757382508));
#1405=CARTESIAN_POINT('Origin',(-37.7123616632825,0.,13.3333333333333));
#1406=CARTESIAN_POINT('',(5.25,1.92881870865708E-15,14.8492424049175));
#1407=CARTESIAN_POINT('',(-18.5189936265521,-13.639900112344,-1.8052458611431));
#1408=CARTESIAN_POINT('Ctrl Pts',(-10.643993627383,9.8199780945718E-9,20.4686177419466));
#1409=CARTESIAN_POINT('Ctrl Pts',(-10.6717440835063,-0.348655699644839,
20.4784290100301));
#1410=CARTESIAN_POINT('Ctrl Pts',(-10.7088153386779,-0.696500449011771,
20.4792347774845));
#1411=CARTESIAN_POINT('Ctrl Pts',(-10.8900491731527,-2.0877888341004,20.4454621690122));
#1412=CARTESIAN_POINT('Ctrl Pts',(-11.0990426815452,-3.11257550849185,20.3342010904519));
#1413=CARTESIAN_POINT('Ctrl Pts',(-11.8167714229964,-5.97854979713809,19.7734379252336));
#1414=CARTESIAN_POINT('Ctrl Pts',(-12.4890037032447,-7.90370270149907,19.0354884587723));
#1415=CARTESIAN_POINT('Ctrl Pts',(-13.5153488979507,-10.4027202624842,17.3706229326241));
#1416=CARTESIAN_POINT('Ctrl Pts',(-13.8609131335285,-11.1738332690275,16.7253862868893));
#1417=CARTESIAN_POINT('Ctrl Pts',(-14.5217021279834,-12.5429827024528,15.2976297555541));
#1418=CARTESIAN_POINT('Ctrl Pts',(-14.8369169874215,-13.1409256950214,14.5150156924451));
#1419=CARTESIAN_POINT('Ctrl Pts',(-15.419114010411,-14.1493205188545,12.8683138406751));
#1420=CARTESIAN_POINT('Ctrl Pts',(-15.7031613176561,-14.587161720774,11.951314638938));
#1421=CARTESIAN_POINT('Ctrl Pts',(-16.2291564648373,-15.2643915065937,10.0050767979232));
#1422=CARTESIAN_POINT('Ctrl Pts',(-16.4711319830462,-15.5039121290469,8.97589158702924));
#1423=CARTESIAN_POINT('Ctrl Pts',(-16.9101941889106,-15.7633251307469,6.88033652641818));
#1424=CARTESIAN_POINT('Ctrl Pts',(-17.1078351952127,-15.7835447575734,5.81218034657714));
#1425=CARTESIAN_POINT('Ctrl Pts',(-17.4741904459763,-15.6135986379374,3.71662410321457));
#1426=CARTESIAN_POINT('Ctrl Pts',(-17.6433298249227,-15.4233770877846,2.6893029120166));
#1427=CARTESIAN_POINT('Ctrl Pts',(-17.9742945260797,-14.8804458550895,0.783655901897353));
#1428=CARTESIAN_POINT('Ctrl Pts',(-18.1468130788502,-14.5135319764786,-0.163287977807716));
#1429=CARTESIAN_POINT('Ctrl Pts',(-18.4014557229387,-13.9199892494407,-1.31555640395005));
#1430=CARTESIAN_POINT('Ctrl Pts',(-18.4589383801819,-13.7835163198128,-1.56263877615363));
#1431=CARTESIAN_POINT('Ctrl Pts',(-18.5189936271071,-13.6399001121338,-1.80524586088128));
#1432=CARTESIAN_POINT('Ctrl Pts',(-18.5189936262752,13.6399001121701,-1.80524586110871));
#1433=CARTESIAN_POINT('Ctrl Pts',(-18.6247722673465,13.4962836660316,-2.03168772288758));
#1434=CARTESIAN_POINT('Ctrl Pts',(-18.732742263498,13.3461842185018,-2.25257598868519));
#1435=CARTESIAN_POINT('Ctrl Pts',(-19.2350653382019,12.6286237718299,-3.24133018672427));
#1436=CARTESIAN_POINT('Ctrl Pts',(-19.6436124166809,11.9891024545846,-3.93788809970304));
#1437=CARTESIAN_POINT('Ctrl Pts',(-20.4228698613262,10.609072523062,-5.17242352126485));
#1438=CARTESIAN_POINT('Ctrl Pts',(-20.8211164642991,9.81655272502803,-5.74991223152858));
#1439=CARTESIAN_POINT('Ctrl Pts',(-21.5527343276489,8.08475362567506,-6.75989292636631));
#1440=CARTESIAN_POINT('Ctrl Pts',(-21.8857302376562,7.14544389942904,-7.19260459400633));
#1441=CARTESIAN_POINT('Ctrl Pts',(-22.4328131120597,5.17797751507092,-7.88628902736008));
#1442=CARTESIAN_POINT('Ctrl Pts',(-22.6471857601074,4.14803868272036,-8.14785134823444));
#1443=CARTESIAN_POINT('Ctrl Pts',(-22.9308223880056,2.06848552704106,-8.49159798091044));
#1444=CARTESIAN_POINT('Ctrl Pts',(-23.,1.01884081849921,-8.57366972188689));
#1445=CARTESIAN_POINT('Ctrl Pts',(-23.,-1.01884081849921,-8.57366972188689));
#1446=CARTESIAN_POINT('Ctrl Pts',(-22.9308223880056,-2.06848552704106,-8.49159798091044));
#1447=CARTESIAN_POINT('Ctrl Pts',(-22.6471857601074,-4.14803868272036,-8.14785134823444));
#1448=CARTESIAN_POINT('Ctrl Pts',(-22.4328131120597,-5.17797751507092,-7.88628902736008));
#1449=CARTESIAN_POINT('Ctrl Pts',(-21.8857302376562,-7.14544389942904,-7.19260459400633));
#1450=CARTESIAN_POINT('Ctrl Pts',(-21.5527343276489,-8.08475362567506,-6.75989292636631));
#1451=CARTESIAN_POINT('Ctrl Pts',(-20.8211164642991,-9.81655272502803,-5.74991223152858));
#1452=CARTESIAN_POINT('Ctrl Pts',(-20.4228698613262,-10.609072523062,-5.17242352126485));
#1453=CARTESIAN_POINT('Ctrl Pts',(-19.6436124166809,-11.9891024545846,-3.93788809970304));
#1454=CARTESIAN_POINT('Ctrl Pts',(-19.2350653382019,-12.6286237718299,-3.24133018672427));
#1455=CARTESIAN_POINT('Ctrl Pts',(-18.732742263498,-13.3461842185018,-2.25257598868519));
#1456=CARTESIAN_POINT('Ctrl Pts',(-18.6247722673465,-13.4962836660316,-2.03168772288757));
#1457=CARTESIAN_POINT('Ctrl Pts',(-18.5189936262752,-13.6399001121701,-1.80524586110869));
#1458=CARTESIAN_POINT('Origin',(0.,0.,0.));
#1459=CARTESIAN_POINT('',(16.2311808316413,-28.1132298672407,28.1825757382508));
#1460=CARTESIAN_POINT('Origin',(18.8561808316413,-32.659863237109,13.3333333333333));
#1461=CARTESIAN_POINT('',(-2.625,4.5466333698683,14.8492424049175));
#1462=CARTESIAN_POINT('',(-2.55300318591772,-22.8578689893151,-1.80524586515328));
#1463=CARTESIAN_POINT('Ctrl Pts',(-2.55300318591772,-22.8578689893151,-1.80524586515328));
#1464=CARTESIAN_POINT('Ctrl Pts',(-2.27689626657383,-22.888707465337,-2.1579507498051));
#1465=CARTESIAN_POINT('Ctrl Pts',(-1.98766869078625,-22.9158745575924,-2.49304447526532));
#1466=CARTESIAN_POINT('Ctrl Pts',(-0.843639621922545,-23.0002438937346,
-3.71283111133408));
#1467=CARTESIAN_POINT('Ctrl Pts',(0.135359666611313,-23.0241036565314,-4.53658610516604));
#1468=CARTESIAN_POINT('Ctrl Pts',(2.25632452301332,-22.9136786880387,-5.9747310984172));
#1469=CARTESIAN_POINT('Ctrl Pts',(3.39803018621521,-22.7788194531966,-6.58946020201549));
#1470=CARTESIAN_POINT('Ctrl Pts',(5.73486792822822,-22.3054369123153,-7.57899288332558));
#1471=CARTESIAN_POINT('Ctrl Pts',(6.93249033966461,-21.9661208958026,-7.95473002375585));
#1472=CARTESIAN_POINT('Ctrl Pts',(9.27764530681038,-21.0830545007468,-8.45217817464333));
#1473=CARTESIAN_POINT('Ctrl Pts',(10.4251632081888,-20.5391415981292,-8.57366972188689));
#1474=CARTESIAN_POINT('Ctrl Pts',(12.5748367918112,-19.298026975955,-8.57366972188689));
#1475=CARTESIAN_POINT('Ctrl Pts',(13.6196381336134,-18.5762037733727,-8.45217817464333));
#1476=CARTESIAN_POINT('Ctrl Pts',(15.556973548533,-16.9867731935411,-7.95473002375585));
#1477=CARTESIAN_POINT('Ctrl Pts',(16.4496410444621,-16.1192597693519,-7.57899288332557));
#1478=CARTESIAN_POINT('Ctrl Pts',(18.0280212215798,-14.332190190687,-6.58946020201549));
#1479=CARTESIAN_POINT('Ctrl Pts',(18.7156655764889,-13.4108737001307,-5.97473109841719));
#1480=CARTESIAN_POINT('Ctrl Pts',(19.8717788326167,-11.6292767381989,-4.53658610516603));
#1481=CARTESIAN_POINT('Ctrl Pts',(20.3406153161734,-10.7695086026433,-3.71283111133408));
#1482=CARTESIAN_POINT('Ctrl Pts',(20.839542200079,-9.73661054405478,-2.49309743297551));
#1483=CARTESIAN_POINT('Ctrl Pts',(20.9606407194365,-9.47252552903569,-2.15798096464956));
#1484=CARTESIAN_POINT('Ctrl Pts',(21.0719968140823,-9.21796887971023,-1.8052458651533));
#1485=CARTESIAN_POINT('Ctrl Pts',(5.32199681408229,-9.21796887971021,20.468617742223));
#1486=CARTESIAN_POINT('Ctrl Pts',(4.95231627477858,-9.47252552903567,20.4812085758544));
#1487=CARTESIAN_POINT('Ctrl Pts',(4.59599926533868,-9.73661054405478,20.478741286324));
#1488=CARTESIAN_POINT('Ctrl Pts',(3.27971436375816,-10.7695086026433,20.4149264018755));
#1489=CARTESIAN_POINT('Ctrl Pts',(2.34679187967282,-11.6292767381989,20.2474881240988));
#1490=CARTESIAN_POINT('Ctrl Pts',(0.605524691553716,-13.4108737001307,19.6368757575457));
#1491=CARTESIAN_POINT('Ctrl Pts',(-0.203262250412117,-14.332190190687,19.1934681435439));
#1492=CARTESIAN_POINT('Ctrl Pts',(-1.66232933499811,-16.1192597693519,18.0352012686068));
#1493=CARTESIAN_POINT('Ctrl Pts',(-2.31413354023033,-16.9867731935411,17.3188319957952));
#1494=CARTESIAN_POINT('Ctrl Pts',(-3.42891062624517,-18.5762037733727,15.6581107003277));
#1495=CARTESIAN_POINT('Ctrl Pts',(-3.89172106939628,-19.298026975955,14.713559731034));
#1496=CARTESIAN_POINT('Ctrl Pts',(-4.60827893060373,-20.5391415981292,12.6868280399447));
#1497=CARTESIAN_POINT('Ctrl Pts',(-4.87624156851284,-21.0830545007468,11.5644406047333));
#1498=CARTESIAN_POINT('Ctrl Pts',(-5.18896127651978,-21.9661208958026,9.18759124750139));
#1499=CARTESIAN_POINT('Ctrl Pts',(-5.23392037374273,-22.3054369123153,7.93321629612109));
#1500=CARTESIAN_POINT('Ctrl Pts',(-5.07992592886698,-22.7788194531966,5.40018031713766));
#1501=CARTESIAN_POINT('Ctrl Pts',(-4.8809223262715,-22.9136786880387,4.11886019384604));
#1502=CARTESIAN_POINT('Ctrl Pts',(-4.23201450899566,-23.0241036565314,1.63981368593537));
#1503=CARTESIAN_POINT('Ctrl Pts',(-3.78170394894047,-23.0002438937346,0.442219307059256));
#1504=CARTESIAN_POINT('Ctrl Pts',(-3.01302110260844,-22.9158745575924,-1.04297718825441));
#1505=CARTESIAN_POINT('Ctrl Pts',(-2.79350090039632,-22.888707465337,-1.42736147026855));
#1506=CARTESIAN_POINT('Ctrl Pts',(-2.55300318591772,-22.8578689893151,-1.80524586515328));
#1507=CARTESIAN_POINT('Origin',(0.,0.,0.));
#1508=CARTESIAN_POINT('',(0.,0.,0.));
#1509=CARTESIAN_POINT('Origin',(0.,0.,0.));
#1510=CARTESIAN_POINT('Origin',(0.,0.,0.));
#1511=CARTESIAN_POINT('Origin',(0.,0.,0.));
#1512=CARTESIAN_POINT('Origin',(0.,0.,0.));
#1513=CARTESIAN_POINT('',(15.5228474983079,-26.8863605452128,32.1895141649746));
#1514=CARTESIAN_POINT('Origin',(18.8561808316413,-32.659863237109,13.3333333333333));
#1515=CARTESIAN_POINT('',(5.15194804090524,-8.92343576480281,24.8561808316413));
#1516=CARTESIAN_POINT('',(-3.33333333333333,5.77350269189626,18.8561808316413));
#1517=CARTESIAN_POINT('Origin',(8.48528137423857,-14.6969384566991,6.));
#1518=CARTESIAN_POINT('Origin',(18.8561808316413,-32.659863237109,13.3333333333333));
#1519=CARTESIAN_POINT('Origin',(0.,0.,0.));
#1520=CARTESIAN_POINT('Origin',(0.,0.,0.));
#1521=CARTESIAN_POINT('Origin',(8.48528137423857,-14.6969384566991,6.));
#1522=CARTESIAN_POINT('Origin',(0.,0.,0.));
#1523=CARTESIAN_POINT('Origin',(0.,0.,0.));
#1524=CARTESIAN_POINT('Origin',(0.,0.,0.));
#1525=CARTESIAN_POINT('Origin',(0.,0.,0.));
#1526=CARTESIAN_POINT('Origin',(0.,0.,0.));
#1527=CARTESIAN_POINT('Origin',(0.,0.,0.));
#1528=CARTESIAN_POINT('Origin',(0.,0.,0.));
#1529=CARTESIAN_POINT('',(-31.0456949966159,-2.44929359829471E-15,32.1895141649746));
#1530=CARTESIAN_POINT('Origin',(-37.7123616632825,0.,13.3333333333333));
#1531=CARTESIAN_POINT('',(-10.3038960818105,-2.44929359829471E-15,24.8561808316413));
#1532=CARTESIAN_POINT('',(6.66666666666667,2.44929359829471E-15,18.8561808316413));
#1533=CARTESIAN_POINT('Origin',(-16.9705627484771,0.,6.));
#1534=CARTESIAN_POINT('Origin',(-37.7123616632825,0.,13.3333333333333));
#1535=CARTESIAN_POINT('Origin',(-16.9705627484771,0.,6.));
#1536=CARTESIAN_POINT('Origin',(0.,0.,0.));
#1537=CARTESIAN_POINT('',(-20.,-2.44929359829471E-15,-40.));
#1538=CARTESIAN_POINT('Origin',(0.,0.,-40.));
#1539=CARTESIAN_POINT('',(-20.,-2.44929359829471E-15,-18.));
#1540=CARTESIAN_POINT('',(-20.,2.44929359829471E-15,0.));
#1541=CARTESIAN_POINT('Origin',(0.,0.,-18.));
#1542=CARTESIAN_POINT('Origin',(0.,0.,-40.));
#1543=CARTESIAN_POINT('Origin',(0.,0.,-18.));
#1544=UNCERTAINTY_MEASURE_WITH_UNIT(LENGTH_MEASURE(0.01),#1548,
'DISTANCE_ACCURACY_VALUE',
'Maximum model space distance between geometric entities at asserted c
onnectivities');
#1545=UNCERTAINTY_MEASURE_WITH_UNIT(LENGTH_MEASURE(0.01),#1548,
'DISTANCE_ACCURACY_VALUE',
'Maximum model space distance between geometric entities at asserted c
onnectivities');
#1546=(
GEOMETRIC_REPRESENTATION_CONTEXT(3)
GLOBAL_UNCERTAINTY_ASSIGNED_CONTEXT((#1544))
GLOBAL_UNIT_ASSIGNED_CONTEXT((#1548,#1550,#1551))
REPRESENTATION_CONTEXT('','3D')
);
#1547=(
GEOMETRIC_REPRESENTATION_CONTEXT(3)
GLOBAL_UNCERTAINTY_ASSIGNED_CONTEXT((#1545))
GLOBAL_UNIT_ASSIGNED_CONTEXT((#1548,#1550,#1551))
REPRESENTATION_CONTEXT('','3D')
);
#1548=(
LENGTH_UNIT()
NAMED_UNIT(*)
SI_UNIT(.MILLI.,.METRE.)
);
#1549=(
LENGTH_UNIT()
NAMED_UNIT(*)
SI_UNIT($,.METRE.)
);
#1550=(
NAMED_UNIT(*)
PLANE_ANGLE_UNIT()
SI_UNIT($,.RADIAN.)
);
#1551=(
NAMED_UNIT(*)
SI_UNIT($,.STERADIAN.)
SOLID_ANGLE_UNIT()
);
#1552=SHAPE_DEFINITION_REPRESENTATION(#1553,#1554);
#1553=PRODUCT_DEFINITION_SHAPE('',$,#1556);
#1554=SHAPE_REPRESENTATION('',(#713),#1546);
#1555=PRODUCT_DEFINITION_CONTEXT('part definition',#1560,'design');
#1556=PRODUCT_DEFINITION('al-node-no-legs-not-rounded',
'al-node-no-legs-not-rounded v1',#1557,#1555);
#1557=PRODUCT_DEFINITION_FORMATION('',$,#1562);
#1558=PRODUCT_RELATED_PRODUCT_CATEGORY('al-node-no-legs-not-rounded v1',
'al-node-no-legs-not-rounded v1',(#1562));
#1559=APPLICATION_PROTOCOL_DEFINITION('international standard',
'automotive_design',2009,#1560);
#1560=APPLICATION_CONTEXT(
'Core Data for Automotive Mechanical Design Process');
#1561=PRODUCT_CONTEXT('part definition',#1560,'mechanical');
#1562=PRODUCT('al-node-no-legs-not-rounded',
'al-node-no-legs-not-rounded v1',$,(#1561));
#1563=PRESENTATION_STYLE_ASSIGNMENT((#1564));
#1564=SURFACE_STYLE_USAGE(.BOTH.,#1565);
#1565=SURFACE_SIDE_STYLE('',(#1566));
#1566=SURFACE_STYLE_FILL_AREA(#1567);
#1567=FILL_AREA_STYLE('Stahl - satiniert',(#1568));
#1568=FILL_AREA_STYLE_COLOUR('Stahl - satiniert',#1569);
#1569=COLOUR_RGB('Stahl - satiniert',0.627450980392157,0.627450980392157,
0.627450980392157);
ENDSEC;
END-ISO-10303-21;
